G04 #@! TF.FileFunction,Soldermask,Top*
%FSLAX46Y46*%
G04 Gerber Fmt 4.6, Leading zero omitted, Abs format (unit mm)*
G04 Created by KiCad (PCBNEW 4.0.5+dfsg1-4) date Sun Sep 17 22:55:48 2017*
%MOMM*%
%LPD*%
G01*
G04 APERTURE LIST*
%ADD10C,0.100000*%
%ADD11R,0.800000X0.750000*%
%ADD12R,0.500000X0.900000*%
%ADD13R,1.750000X0.800000*%
%ADD14R,2.300000X2.300000*%
%ADD15R,2.000000X2.500000*%
%ADD16R,2.400000X1.900000*%
%ADD17R,1.500000X0.600000*%
%ADD18R,1.727200X2.032000*%
%ADD19O,1.727200X2.032000*%
%ADD20R,0.900000X0.800000*%
G04 APERTURE END LIST*
D10*
D11*
X114883500Y-88582500D03*
X116383500Y-88582500D03*
D12*
X124067000Y-85026500D03*
X122567000Y-85026500D03*
X124067000Y-86741000D03*
X122567000Y-86741000D03*
D11*
X116395500Y-83248500D03*
X114895500Y-83248500D03*
X120372000Y-81661000D03*
X118872000Y-81661000D03*
X120447500Y-90170000D03*
X118947500Y-90170000D03*
D13*
X110780000Y-84488500D03*
X110780000Y-85138500D03*
X110780000Y-85788500D03*
X110780000Y-86438500D03*
X110780000Y-87088500D03*
D14*
X108130000Y-84588500D03*
X108130000Y-86988500D03*
X108130000Y-81938500D03*
D15*
X110680000Y-82688500D03*
X110680000Y-88888500D03*
D14*
X108130000Y-89638500D03*
D16*
X119634000Y-87983500D03*
X119634000Y-83883500D03*
D10*
G36*
X125054992Y-89851338D02*
X124524662Y-89321008D01*
X125090348Y-88755322D01*
X125620678Y-89285652D01*
X125054992Y-89851338D01*
X125054992Y-89851338D01*
G37*
G36*
X126115652Y-88790678D02*
X125585322Y-88260348D01*
X126151008Y-87694662D01*
X126681338Y-88224992D01*
X126115652Y-88790678D01*
X126115652Y-88790678D01*
G37*
G36*
X125789728Y-86705228D02*
X125612951Y-86528451D01*
X126107926Y-86033476D01*
X126284703Y-86210253D01*
X125789728Y-86705228D01*
X125789728Y-86705228D01*
G37*
G36*
X126143281Y-87058782D02*
X125966504Y-86882005D01*
X126461479Y-86387030D01*
X126638256Y-86563807D01*
X126143281Y-87058782D01*
X126143281Y-87058782D01*
G37*
G36*
X126496835Y-87412335D02*
X126320058Y-87235558D01*
X126815033Y-86740583D01*
X126991810Y-86917360D01*
X126496835Y-87412335D01*
X126496835Y-87412335D01*
G37*
G36*
X126850388Y-87765889D02*
X126673611Y-87589112D01*
X127168586Y-87094137D01*
X127345363Y-87270914D01*
X126850388Y-87765889D01*
X126850388Y-87765889D01*
G37*
G36*
X127203941Y-88119442D02*
X127027164Y-87942665D01*
X127522139Y-87447690D01*
X127698916Y-87624467D01*
X127203941Y-88119442D01*
X127203941Y-88119442D01*
G37*
G36*
X127557495Y-88472995D02*
X127380718Y-88296218D01*
X127875693Y-87801243D01*
X128052470Y-87978020D01*
X127557495Y-88472995D01*
X127557495Y-88472995D01*
G37*
G36*
X127911048Y-88826549D02*
X127734271Y-88649772D01*
X128229246Y-88154797D01*
X128406023Y-88331574D01*
X127911048Y-88826549D01*
X127911048Y-88826549D01*
G37*
G36*
X128264602Y-89180102D02*
X128087825Y-89003325D01*
X128582800Y-88508350D01*
X128759577Y-88685127D01*
X128264602Y-89180102D01*
X128264602Y-89180102D01*
G37*
G36*
X129678815Y-89003325D02*
X129502038Y-89180102D01*
X129007063Y-88685127D01*
X129183840Y-88508350D01*
X129678815Y-89003325D01*
X129678815Y-89003325D01*
G37*
G36*
X130032369Y-88649772D02*
X129855592Y-88826549D01*
X129360617Y-88331574D01*
X129537394Y-88154797D01*
X130032369Y-88649772D01*
X130032369Y-88649772D01*
G37*
G36*
X130385922Y-88296218D02*
X130209145Y-88472995D01*
X129714170Y-87978020D01*
X129890947Y-87801243D01*
X130385922Y-88296218D01*
X130385922Y-88296218D01*
G37*
G36*
X130739476Y-87942665D02*
X130562699Y-88119442D01*
X130067724Y-87624467D01*
X130244501Y-87447690D01*
X130739476Y-87942665D01*
X130739476Y-87942665D01*
G37*
G36*
X131093029Y-87589112D02*
X130916252Y-87765889D01*
X130421277Y-87270914D01*
X130598054Y-87094137D01*
X131093029Y-87589112D01*
X131093029Y-87589112D01*
G37*
G36*
X131446582Y-87235558D02*
X131269805Y-87412335D01*
X130774830Y-86917360D01*
X130951607Y-86740583D01*
X131446582Y-87235558D01*
X131446582Y-87235558D01*
G37*
G36*
X131800136Y-86882005D02*
X131623359Y-87058782D01*
X131128384Y-86563807D01*
X131305161Y-86387030D01*
X131800136Y-86882005D01*
X131800136Y-86882005D01*
G37*
G36*
X132153689Y-86528451D02*
X131976912Y-86705228D01*
X131481937Y-86210253D01*
X131658714Y-86033476D01*
X132153689Y-86528451D01*
X132153689Y-86528451D01*
G37*
G36*
X131658714Y-85785990D02*
X131481937Y-85609213D01*
X131976912Y-85114238D01*
X132153689Y-85291015D01*
X131658714Y-85785990D01*
X131658714Y-85785990D01*
G37*
G36*
X131305161Y-85432436D02*
X131128384Y-85255659D01*
X131623359Y-84760684D01*
X131800136Y-84937461D01*
X131305161Y-85432436D01*
X131305161Y-85432436D01*
G37*
G36*
X130951607Y-85078883D02*
X130774830Y-84902106D01*
X131269805Y-84407131D01*
X131446582Y-84583908D01*
X130951607Y-85078883D01*
X130951607Y-85078883D01*
G37*
G36*
X130598054Y-84725329D02*
X130421277Y-84548552D01*
X130916252Y-84053577D01*
X131093029Y-84230354D01*
X130598054Y-84725329D01*
X130598054Y-84725329D01*
G37*
G36*
X130244501Y-84371776D02*
X130067724Y-84194999D01*
X130562699Y-83700024D01*
X130739476Y-83876801D01*
X130244501Y-84371776D01*
X130244501Y-84371776D01*
G37*
G36*
X129890947Y-84018223D02*
X129714170Y-83841446D01*
X130209145Y-83346471D01*
X130385922Y-83523248D01*
X129890947Y-84018223D01*
X129890947Y-84018223D01*
G37*
G36*
X129537394Y-83664669D02*
X129360617Y-83487892D01*
X129855592Y-82992917D01*
X130032369Y-83169694D01*
X129537394Y-83664669D01*
X129537394Y-83664669D01*
G37*
G36*
X129183840Y-83311116D02*
X129007063Y-83134339D01*
X129502038Y-82639364D01*
X129678815Y-82816141D01*
X129183840Y-83311116D01*
X129183840Y-83311116D01*
G37*
G36*
X128759577Y-83134339D02*
X128582800Y-83311116D01*
X128087825Y-82816141D01*
X128264602Y-82639364D01*
X128759577Y-83134339D01*
X128759577Y-83134339D01*
G37*
G36*
X128406023Y-83487892D02*
X128229246Y-83664669D01*
X127734271Y-83169694D01*
X127911048Y-82992917D01*
X128406023Y-83487892D01*
X128406023Y-83487892D01*
G37*
G36*
X128052470Y-83841446D02*
X127875693Y-84018223D01*
X127380718Y-83523248D01*
X127557495Y-83346471D01*
X128052470Y-83841446D01*
X128052470Y-83841446D01*
G37*
G36*
X127698916Y-84194999D02*
X127522139Y-84371776D01*
X127027164Y-83876801D01*
X127203941Y-83700024D01*
X127698916Y-84194999D01*
X127698916Y-84194999D01*
G37*
G36*
X127345363Y-84548552D02*
X127168586Y-84725329D01*
X126673611Y-84230354D01*
X126850388Y-84053577D01*
X127345363Y-84548552D01*
X127345363Y-84548552D01*
G37*
G36*
X126991810Y-84902106D02*
X126815033Y-85078883D01*
X126320058Y-84583908D01*
X126496835Y-84407131D01*
X126991810Y-84902106D01*
X126991810Y-84902106D01*
G37*
G36*
X126638256Y-85255659D02*
X126461479Y-85432436D01*
X125966504Y-84937461D01*
X126143281Y-84760684D01*
X126638256Y-85255659D01*
X126638256Y-85255659D01*
G37*
G36*
X126284703Y-85609213D02*
X126107926Y-85785990D01*
X125612951Y-85291015D01*
X125789728Y-85114238D01*
X126284703Y-85609213D01*
X126284703Y-85609213D01*
G37*
G36*
X130103079Y-87129492D02*
X128883320Y-85909733D01*
X130103079Y-84689974D01*
X131322838Y-85909733D01*
X130103079Y-87129492D01*
X130103079Y-87129492D01*
G37*
G36*
X128883320Y-85909733D02*
X127663561Y-84689974D01*
X128883320Y-83470215D01*
X130103079Y-84689974D01*
X128883320Y-85909733D01*
X128883320Y-85909733D01*
G37*
G36*
X128883320Y-88349251D02*
X127663561Y-87129492D01*
X128883320Y-85909733D01*
X130103079Y-87129492D01*
X128883320Y-88349251D01*
X128883320Y-88349251D01*
G37*
G36*
X127663561Y-87129492D02*
X126443802Y-85909733D01*
X127663561Y-84689974D01*
X128883320Y-85909733D01*
X127663561Y-87129492D01*
X127663561Y-87129492D01*
G37*
G36*
X125118492Y-83501338D02*
X124588162Y-82971008D01*
X125153848Y-82405322D01*
X125684178Y-82935652D01*
X125118492Y-83501338D01*
X125118492Y-83501338D01*
G37*
G36*
X126179152Y-82440678D02*
X125648822Y-81910348D01*
X126214508Y-81344662D01*
X126744838Y-81874992D01*
X126179152Y-82440678D01*
X126179152Y-82440678D01*
G37*
D17*
X135128000Y-84376000D03*
X135128000Y-87376000D03*
D18*
X107696000Y-76962000D03*
D19*
X110236000Y-76962000D03*
X112776000Y-76962000D03*
X115316000Y-76962000D03*
X117856000Y-76962000D03*
X120396000Y-76962000D03*
X122936000Y-76962000D03*
X125476000Y-76962000D03*
X128016000Y-76962000D03*
X130556000Y-76962000D03*
X133096000Y-76962000D03*
X135636000Y-76962000D03*
D18*
X107696000Y-94742000D03*
D19*
X110236000Y-94742000D03*
X112776000Y-94742000D03*
X115316000Y-94742000D03*
X117856000Y-94742000D03*
X120396000Y-94742000D03*
X122936000Y-94742000D03*
X125476000Y-94742000D03*
X128016000Y-94742000D03*
X130556000Y-94742000D03*
X133096000Y-94742000D03*
X135636000Y-94742000D03*
D20*
X114617500Y-84963000D03*
X114617500Y-86863000D03*
X116617500Y-85913000D03*
M02*
