M48
;DRILL file {KiCad 4.0.5+dfsg1-4} date Sun Sep 17 22:55:50 2017
;FORMAT={-:-/ absolute / inch / decimal}
FMAT,2
INCH,TZ
T1C0.016
T2C0.040
%
G90
G05
M72
T1
X4.414Y-3.3851
X4.415Y-3.3525
X4.523Y-3.455
X4.8Y-3.3475
X4.8Y-3.415
X4.9025Y-3.54
X4.9375Y-3.3425
X4.9525Y-3.49
X5.0261Y-3.3823
X5.0741Y-3.3343
X5.0741Y-3.4303
X5.12Y-3.2325
X5.1222Y-3.3823
X5.32Y-3.295
X5.32Y-3.4125
T2
X4.24Y-3.03
X4.24Y-3.73
X4.34Y-3.03
X4.34Y-3.73
X4.44Y-3.03
X4.44Y-3.73
X4.54Y-3.03
X4.54Y-3.73
X4.64Y-3.03
X4.64Y-3.73
X4.74Y-3.03
X4.74Y-3.73
X4.84Y-3.03
X4.84Y-3.73
X4.94Y-3.03
X4.94Y-3.73
X5.04Y-3.03
X5.04Y-3.73
X5.14Y-3.03
X5.14Y-3.73
X5.24Y-3.03
X5.24Y-3.73
X5.34Y-3.03
X5.34Y-3.73
T0
M30
