G04 #@! TF.FileFunction,Copper,L2,Bot,Signal*
%FSLAX46Y46*%
G04 Gerber Fmt 4.6, Leading zero omitted, Abs format (unit mm)*
G04 Created by KiCad (PCBNEW 4.0.5+dfsg1-4) date Sun Sep 17 22:55:48 2017*
%MOMM*%
%LPD*%
G01*
G04 APERTURE LIST*
%ADD10C,0.100000*%
%ADD11C,0.150000*%
%ADD12R,1.727200X2.032000*%
%ADD13O,1.727200X2.032000*%
%ADD14C,0.600000*%
%ADD15C,0.203200*%
%ADD16C,0.254000*%
G04 APERTURE END LIST*
D10*
D11*
X136358000Y-91451357D02*
X136393714Y-91487071D01*
X136500857Y-91522786D01*
X136572286Y-91522786D01*
X136679429Y-91487071D01*
X136750857Y-91415643D01*
X136786572Y-91344214D01*
X136822286Y-91201357D01*
X136822286Y-91094214D01*
X136786572Y-90951357D01*
X136750857Y-90879929D01*
X136679429Y-90808500D01*
X136572286Y-90772786D01*
X136500857Y-90772786D01*
X136393714Y-90808500D01*
X136358000Y-90844214D01*
X136036572Y-91522786D02*
X136036572Y-90772786D01*
X135858000Y-90772786D01*
X135750857Y-90808500D01*
X135679429Y-90879929D01*
X135643714Y-90951357D01*
X135608000Y-91094214D01*
X135608000Y-91201357D01*
X135643714Y-91344214D01*
X135679429Y-91415643D01*
X135750857Y-91487071D01*
X135858000Y-91522786D01*
X136036572Y-91522786D01*
X135286572Y-91522786D02*
X135286572Y-90772786D01*
X135036572Y-91308500D01*
X134786572Y-90772786D01*
X134786572Y-91522786D01*
X133429428Y-91522786D02*
X133679428Y-91165643D01*
X133858000Y-91522786D02*
X133858000Y-90772786D01*
X133572285Y-90772786D01*
X133500857Y-90808500D01*
X133465142Y-90844214D01*
X133429428Y-90915643D01*
X133429428Y-91022786D01*
X133465142Y-91094214D01*
X133500857Y-91129929D01*
X133572285Y-91165643D01*
X133858000Y-91165643D01*
X133108000Y-91129929D02*
X132858000Y-91129929D01*
X132750857Y-91522786D02*
X133108000Y-91522786D01*
X133108000Y-90772786D01*
X132750857Y-90772786D01*
X132536571Y-90772786D02*
X132286571Y-91522786D01*
X132036571Y-90772786D01*
X131250857Y-91308500D02*
X130893714Y-91308500D01*
X131322285Y-91522786D02*
X131072285Y-90772786D01*
X130822285Y-91522786D01*
X137072286Y-92797786D02*
X136929429Y-92797786D01*
X136858001Y-92762071D01*
X136822286Y-92726357D01*
X136750858Y-92619214D01*
X136715143Y-92476357D01*
X136715143Y-92190643D01*
X136750858Y-92119214D01*
X136786572Y-92083500D01*
X136858001Y-92047786D01*
X137000858Y-92047786D01*
X137072286Y-92083500D01*
X137108001Y-92119214D01*
X137143715Y-92190643D01*
X137143715Y-92369214D01*
X137108001Y-92440643D01*
X137072286Y-92476357D01*
X137000858Y-92512071D01*
X136858001Y-92512071D01*
X136786572Y-92476357D01*
X136750858Y-92440643D01*
X136715143Y-92369214D01*
X136393715Y-92512071D02*
X135822286Y-92512071D01*
X135072286Y-92797786D02*
X135500858Y-92797786D01*
X135286572Y-92797786D02*
X135286572Y-92047786D01*
X135358001Y-92154929D01*
X135429429Y-92226357D01*
X135500858Y-92262071D01*
X134822286Y-92047786D02*
X134322286Y-92047786D01*
X134643715Y-92797786D01*
X134036572Y-92512071D02*
X133465143Y-92512071D01*
X133143715Y-92119214D02*
X133108001Y-92083500D01*
X133036572Y-92047786D01*
X132858001Y-92047786D01*
X132786572Y-92083500D01*
X132750858Y-92119214D01*
X132715143Y-92190643D01*
X132715143Y-92262071D01*
X132750858Y-92369214D01*
X133179429Y-92797786D01*
X132715143Y-92797786D01*
X132250857Y-92047786D02*
X132179429Y-92047786D01*
X132108000Y-92083500D01*
X132072286Y-92119214D01*
X132036572Y-92190643D01*
X132000857Y-92333500D01*
X132000857Y-92512071D01*
X132036572Y-92654929D01*
X132072286Y-92726357D01*
X132108000Y-92762071D01*
X132179429Y-92797786D01*
X132250857Y-92797786D01*
X132322286Y-92762071D01*
X132358000Y-92726357D01*
X132393715Y-92654929D01*
X132429429Y-92512071D01*
X132429429Y-92333500D01*
X132393715Y-92190643D01*
X132358000Y-92119214D01*
X132322286Y-92083500D01*
X132250857Y-92047786D01*
X131286571Y-92797786D02*
X131715143Y-92797786D01*
X131500857Y-92797786D02*
X131500857Y-92047786D01*
X131572286Y-92154929D01*
X131643714Y-92226357D01*
X131715143Y-92262071D01*
X131036571Y-92047786D02*
X130536571Y-92047786D01*
X130858000Y-92797786D01*
D12*
X107696000Y-76962000D03*
D13*
X110236000Y-76962000D03*
X112776000Y-76962000D03*
X115316000Y-76962000D03*
X117856000Y-76962000D03*
X120396000Y-76962000D03*
X122936000Y-76962000D03*
X125476000Y-76962000D03*
X128016000Y-76962000D03*
X130556000Y-76962000D03*
X133096000Y-76962000D03*
X135636000Y-76962000D03*
D12*
X107696000Y-94742000D03*
D13*
X110236000Y-94742000D03*
X112776000Y-94742000D03*
X115316000Y-94742000D03*
X117856000Y-94742000D03*
X120396000Y-94742000D03*
X122936000Y-94742000D03*
X125476000Y-94742000D03*
X128016000Y-94742000D03*
X130556000Y-94742000D03*
X133096000Y-94742000D03*
X135636000Y-94742000D03*
D14*
X124523500Y-89916000D03*
X135128000Y-86677500D03*
X128883320Y-84689974D03*
X127663561Y-85909733D03*
X128883320Y-87129492D03*
X130103079Y-85909733D03*
X114883500Y-87757000D03*
X125793500Y-88646000D03*
X125412500Y-84899500D03*
X121920000Y-86741000D03*
X112141000Y-85153500D03*
X121920000Y-85026500D03*
X112114943Y-85982760D03*
X135128000Y-83693000D03*
X130048000Y-82105500D03*
D15*
X125793500Y-88646000D02*
X115772500Y-88646000D01*
X115772500Y-88646000D02*
X114883500Y-87757000D01*
X107696000Y-76962000D02*
X107696000Y-82458923D01*
X107696000Y-82458923D02*
X112994077Y-87757000D01*
X112994077Y-87757000D02*
X114883500Y-87757000D01*
X125793500Y-88646000D02*
X126093499Y-88346001D01*
X126093499Y-88346001D02*
X126306329Y-88346001D01*
X126306329Y-88346001D02*
X126450830Y-88201500D01*
X126450830Y-88201500D02*
X126450830Y-85937830D01*
X126450830Y-85937830D02*
X125412500Y-84899500D01*
X112141000Y-85153500D02*
X113728500Y-86741000D01*
X113728500Y-86741000D02*
X121920000Y-86741000D01*
X114109500Y-86233000D02*
X120713500Y-86233000D01*
X120713500Y-86233000D02*
X121920000Y-85026500D01*
X113919000Y-86042500D02*
X114109500Y-86233000D01*
X113919000Y-86036394D02*
X113919000Y-86042500D01*
X112114943Y-85982760D02*
X111536199Y-85404016D01*
X111536199Y-85404016D02*
X111536199Y-84863195D01*
X111536199Y-84863195D02*
X111850695Y-84548699D01*
X112431305Y-84548699D02*
X113919000Y-86036394D01*
X111850695Y-84548699D02*
X112431305Y-84548699D01*
X130048000Y-82105500D02*
X131635500Y-83693000D01*
X131635500Y-83693000D02*
X135128000Y-83693000D01*
D16*
G36*
X109333964Y-75611268D02*
X108944046Y-76047680D01*
X108896269Y-76184265D01*
X108896269Y-75946000D01*
X108873244Y-75823635D01*
X108800927Y-75711251D01*
X108690583Y-75635856D01*
X108559600Y-75609331D01*
X106832400Y-75609331D01*
X106710035Y-75632356D01*
X106597651Y-75704673D01*
X106522256Y-75815017D01*
X106495731Y-75946000D01*
X106495731Y-77978000D01*
X106518756Y-78100365D01*
X106591073Y-78212749D01*
X106701417Y-78288144D01*
X106832400Y-78314669D01*
X107264200Y-78314669D01*
X107264200Y-82458923D01*
X107297069Y-82624166D01*
X107371520Y-82735590D01*
X107390671Y-82764252D01*
X112688746Y-88062326D01*
X112688748Y-88062329D01*
X112828834Y-88155931D01*
X112994077Y-88188800D01*
X114424086Y-88188800D01*
X114526054Y-88290946D01*
X114757596Y-88387090D01*
X114903059Y-88387217D01*
X115467171Y-88951329D01*
X115607257Y-89044931D01*
X115634673Y-89050385D01*
X115772500Y-89077801D01*
X115772505Y-89077800D01*
X125334086Y-89077800D01*
X125436054Y-89179946D01*
X125667596Y-89276090D01*
X125918305Y-89276309D01*
X126150013Y-89180569D01*
X126327446Y-89003446D01*
X126423590Y-88771904D01*
X126423605Y-88754473D01*
X126471572Y-88744932D01*
X126611658Y-88651330D01*
X126756159Y-88506829D01*
X126849761Y-88366743D01*
X126882630Y-88201500D01*
X126882630Y-85937830D01*
X126849761Y-85772587D01*
X126756159Y-85632501D01*
X126756156Y-85632499D01*
X126042683Y-84919025D01*
X126042809Y-84774695D01*
X125947069Y-84542987D01*
X125769946Y-84365554D01*
X125538404Y-84269410D01*
X125287695Y-84269191D01*
X125055987Y-84364931D01*
X124878554Y-84542054D01*
X124782410Y-84773596D01*
X124782191Y-85024305D01*
X124877931Y-85256013D01*
X125055054Y-85433446D01*
X125286596Y-85529590D01*
X125432059Y-85529717D01*
X126019030Y-86116687D01*
X126019030Y-87929013D01*
X125928257Y-87947069D01*
X125928255Y-87947070D01*
X125928256Y-87947070D01*
X125825352Y-88015828D01*
X125668695Y-88015691D01*
X125436987Y-88111431D01*
X125334038Y-88214200D01*
X115951358Y-88214200D01*
X115513683Y-87776525D01*
X115513809Y-87632195D01*
X115418069Y-87400487D01*
X115240946Y-87223054D01*
X115119920Y-87172800D01*
X121460586Y-87172800D01*
X121562554Y-87274946D01*
X121794096Y-87371090D01*
X122044805Y-87371309D01*
X122276513Y-87275569D01*
X122453946Y-87098446D01*
X122550090Y-86866904D01*
X122550309Y-86616195D01*
X122454569Y-86384487D01*
X122277446Y-86207054D01*
X122045904Y-86110910D01*
X121795195Y-86110691D01*
X121563487Y-86206431D01*
X121460538Y-86309200D01*
X121247958Y-86309200D01*
X121900474Y-85656683D01*
X122044805Y-85656809D01*
X122276513Y-85561069D01*
X122453946Y-85383946D01*
X122550090Y-85152404D01*
X122550309Y-84901695D01*
X122454569Y-84669987D01*
X122277446Y-84492554D01*
X122045904Y-84396410D01*
X121795195Y-84396191D01*
X121563487Y-84491931D01*
X121386054Y-84669054D01*
X121289910Y-84900596D01*
X121289783Y-85046060D01*
X120534642Y-85801200D01*
X114288358Y-85801200D01*
X114236624Y-85749466D01*
X114224329Y-85731065D01*
X114224326Y-85731063D01*
X112736634Y-84243370D01*
X112712986Y-84227569D01*
X112596548Y-84149768D01*
X112431305Y-84116899D01*
X111850700Y-84116899D01*
X111850695Y-84116898D01*
X111685453Y-84149767D01*
X111685451Y-84149768D01*
X111685452Y-84149768D01*
X111545366Y-84243370D01*
X111545364Y-84243373D01*
X111230870Y-84557866D01*
X111137268Y-84697952D01*
X111104399Y-84863195D01*
X111104399Y-85256665D01*
X108127800Y-82280065D01*
X108127800Y-82230305D01*
X129417691Y-82230305D01*
X129513431Y-82462013D01*
X129690554Y-82639446D01*
X129922096Y-82735590D01*
X130067559Y-82735717D01*
X131330171Y-83998329D01*
X131470257Y-84091931D01*
X131635500Y-84124800D01*
X134668586Y-84124800D01*
X134770554Y-84226946D01*
X135002096Y-84323090D01*
X135252805Y-84323309D01*
X135484513Y-84227569D01*
X135661946Y-84050446D01*
X135758090Y-83818904D01*
X135758309Y-83568195D01*
X135662569Y-83336487D01*
X135485446Y-83159054D01*
X135253904Y-83062910D01*
X135003195Y-83062691D01*
X134771487Y-83158431D01*
X134668538Y-83261200D01*
X131814358Y-83261200D01*
X130678183Y-82125025D01*
X130678309Y-81980695D01*
X130582569Y-81748987D01*
X130405446Y-81571554D01*
X130173904Y-81475410D01*
X129923195Y-81475191D01*
X129691487Y-81570931D01*
X129514054Y-81748054D01*
X129417910Y-81979596D01*
X129417691Y-82230305D01*
X108127800Y-82230305D01*
X108127800Y-78314669D01*
X108559600Y-78314669D01*
X108681965Y-78291644D01*
X108794349Y-78219327D01*
X108869744Y-78108983D01*
X108896269Y-77978000D01*
X108896269Y-77739735D01*
X108944046Y-77876320D01*
X109333964Y-78312732D01*
X109861209Y-78566709D01*
X109876974Y-78569358D01*
X110109000Y-78448217D01*
X110109000Y-77089000D01*
X110089000Y-77089000D01*
X110089000Y-76835000D01*
X110109000Y-76835000D01*
X110109000Y-76815000D01*
X110363000Y-76815000D01*
X110363000Y-76835000D01*
X110383000Y-76835000D01*
X110383000Y-77089000D01*
X110363000Y-77089000D01*
X110363000Y-78448217D01*
X110595026Y-78569358D01*
X110610791Y-78566709D01*
X111138036Y-78312732D01*
X111527954Y-77876320D01*
X111655806Y-77510815D01*
X111673073Y-77597621D01*
X111931856Y-77984918D01*
X112319153Y-78243701D01*
X112776000Y-78334574D01*
X113232847Y-78243701D01*
X113620144Y-77984918D01*
X113878927Y-77597621D01*
X113969800Y-77140774D01*
X113969800Y-76783226D01*
X114122200Y-76783226D01*
X114122200Y-77140774D01*
X114213073Y-77597621D01*
X114471856Y-77984918D01*
X114859153Y-78243701D01*
X115316000Y-78334574D01*
X115772847Y-78243701D01*
X116160144Y-77984918D01*
X116418927Y-77597621D01*
X116509800Y-77140774D01*
X116509800Y-76783226D01*
X116662200Y-76783226D01*
X116662200Y-77140774D01*
X116753073Y-77597621D01*
X117011856Y-77984918D01*
X117399153Y-78243701D01*
X117856000Y-78334574D01*
X118312847Y-78243701D01*
X118700144Y-77984918D01*
X118958927Y-77597621D01*
X119049800Y-77140774D01*
X119049800Y-76783226D01*
X119202200Y-76783226D01*
X119202200Y-77140774D01*
X119293073Y-77597621D01*
X119551856Y-77984918D01*
X119939153Y-78243701D01*
X120396000Y-78334574D01*
X120852847Y-78243701D01*
X121240144Y-77984918D01*
X121498927Y-77597621D01*
X121589800Y-77140774D01*
X121589800Y-76783226D01*
X121742200Y-76783226D01*
X121742200Y-77140774D01*
X121833073Y-77597621D01*
X122091856Y-77984918D01*
X122479153Y-78243701D01*
X122936000Y-78334574D01*
X123392847Y-78243701D01*
X123780144Y-77984918D01*
X124038927Y-77597621D01*
X124129800Y-77140774D01*
X124129800Y-76783226D01*
X124282200Y-76783226D01*
X124282200Y-77140774D01*
X124373073Y-77597621D01*
X124631856Y-77984918D01*
X125019153Y-78243701D01*
X125476000Y-78334574D01*
X125932847Y-78243701D01*
X126320144Y-77984918D01*
X126578927Y-77597621D01*
X126669800Y-77140774D01*
X126669800Y-76783226D01*
X126822200Y-76783226D01*
X126822200Y-77140774D01*
X126913073Y-77597621D01*
X127171856Y-77984918D01*
X127559153Y-78243701D01*
X128016000Y-78334574D01*
X128472847Y-78243701D01*
X128860144Y-77984918D01*
X129118927Y-77597621D01*
X129209800Y-77140774D01*
X129209800Y-76783226D01*
X129362200Y-76783226D01*
X129362200Y-77140774D01*
X129453073Y-77597621D01*
X129711856Y-77984918D01*
X130099153Y-78243701D01*
X130556000Y-78334574D01*
X131012847Y-78243701D01*
X131400144Y-77984918D01*
X131658927Y-77597621D01*
X131749800Y-77140774D01*
X131749800Y-76783226D01*
X131902200Y-76783226D01*
X131902200Y-77140774D01*
X131993073Y-77597621D01*
X132251856Y-77984918D01*
X132639153Y-78243701D01*
X133096000Y-78334574D01*
X133552847Y-78243701D01*
X133940144Y-77984918D01*
X134198927Y-77597621D01*
X134289800Y-77140774D01*
X134289800Y-76783226D01*
X134442200Y-76783226D01*
X134442200Y-77140774D01*
X134533073Y-77597621D01*
X134791856Y-77984918D01*
X135179153Y-78243701D01*
X135636000Y-78334574D01*
X136092847Y-78243701D01*
X136480144Y-77984918D01*
X136738927Y-77597621D01*
X136829800Y-77140774D01*
X136829800Y-76783226D01*
X136738927Y-76326379D01*
X136480144Y-75939082D01*
X136092847Y-75680299D01*
X135636000Y-75589426D01*
X135179153Y-75680299D01*
X134791856Y-75939082D01*
X134533073Y-76326379D01*
X134442200Y-76783226D01*
X134289800Y-76783226D01*
X134198927Y-76326379D01*
X133940144Y-75939082D01*
X133552847Y-75680299D01*
X133096000Y-75589426D01*
X132639153Y-75680299D01*
X132251856Y-75939082D01*
X131993073Y-76326379D01*
X131902200Y-76783226D01*
X131749800Y-76783226D01*
X131658927Y-76326379D01*
X131400144Y-75939082D01*
X131012847Y-75680299D01*
X130556000Y-75589426D01*
X130099153Y-75680299D01*
X129711856Y-75939082D01*
X129453073Y-76326379D01*
X129362200Y-76783226D01*
X129209800Y-76783226D01*
X129118927Y-76326379D01*
X128860144Y-75939082D01*
X128472847Y-75680299D01*
X128016000Y-75589426D01*
X127559153Y-75680299D01*
X127171856Y-75939082D01*
X126913073Y-76326379D01*
X126822200Y-76783226D01*
X126669800Y-76783226D01*
X126578927Y-76326379D01*
X126320144Y-75939082D01*
X125932847Y-75680299D01*
X125476000Y-75589426D01*
X125019153Y-75680299D01*
X124631856Y-75939082D01*
X124373073Y-76326379D01*
X124282200Y-76783226D01*
X124129800Y-76783226D01*
X124038927Y-76326379D01*
X123780144Y-75939082D01*
X123392847Y-75680299D01*
X122936000Y-75589426D01*
X122479153Y-75680299D01*
X122091856Y-75939082D01*
X121833073Y-76326379D01*
X121742200Y-76783226D01*
X121589800Y-76783226D01*
X121498927Y-76326379D01*
X121240144Y-75939082D01*
X120852847Y-75680299D01*
X120396000Y-75589426D01*
X119939153Y-75680299D01*
X119551856Y-75939082D01*
X119293073Y-76326379D01*
X119202200Y-76783226D01*
X119049800Y-76783226D01*
X118958927Y-76326379D01*
X118700144Y-75939082D01*
X118312847Y-75680299D01*
X117856000Y-75589426D01*
X117399153Y-75680299D01*
X117011856Y-75939082D01*
X116753073Y-76326379D01*
X116662200Y-76783226D01*
X116509800Y-76783226D01*
X116418927Y-76326379D01*
X116160144Y-75939082D01*
X115772847Y-75680299D01*
X115316000Y-75589426D01*
X114859153Y-75680299D01*
X114471856Y-75939082D01*
X114213073Y-76326379D01*
X114122200Y-76783226D01*
X113969800Y-76783226D01*
X113878927Y-76326379D01*
X113620144Y-75939082D01*
X113232847Y-75680299D01*
X112776000Y-75589426D01*
X112319153Y-75680299D01*
X111931856Y-75939082D01*
X111673073Y-76326379D01*
X111655806Y-76413185D01*
X111527954Y-76047680D01*
X111138036Y-75611268D01*
X111040325Y-75564200D01*
X137033800Y-75564200D01*
X137033800Y-77724000D01*
X137062741Y-77869496D01*
X137145158Y-77992842D01*
X137268504Y-78075259D01*
X137299880Y-78081500D01*
X137299880Y-79906500D01*
X137268504Y-79912741D01*
X137145158Y-79995158D01*
X137062741Y-80118504D01*
X137033800Y-80264000D01*
X137033800Y-90253300D01*
X130099228Y-90253300D01*
X130099228Y-93460284D01*
X130099153Y-93460299D01*
X129711856Y-93719082D01*
X129453073Y-94106379D01*
X129362200Y-94563226D01*
X129362200Y-94920774D01*
X129453073Y-95377621D01*
X129711856Y-95764918D01*
X130099153Y-96023701D01*
X130556000Y-96114574D01*
X131012847Y-96023701D01*
X131400144Y-95764918D01*
X131658927Y-95377621D01*
X131749800Y-94920774D01*
X131749800Y-94563226D01*
X131658927Y-94106379D01*
X131400144Y-93719082D01*
X131017937Y-93463700D01*
X132634063Y-93463700D01*
X132251856Y-93719082D01*
X131993073Y-94106379D01*
X131902200Y-94563226D01*
X131902200Y-94920774D01*
X131993073Y-95377621D01*
X132251856Y-95764918D01*
X132639153Y-96023701D01*
X133096000Y-96114574D01*
X133552847Y-96023701D01*
X133940144Y-95764918D01*
X134198927Y-95377621D01*
X134289800Y-94920774D01*
X134289800Y-94563226D01*
X134198927Y-94106379D01*
X133940144Y-93719082D01*
X133557937Y-93463700D01*
X135174063Y-93463700D01*
X134791856Y-93719082D01*
X134533073Y-94106379D01*
X134442200Y-94563226D01*
X134442200Y-94920774D01*
X134533073Y-95377621D01*
X134791856Y-95764918D01*
X135179153Y-96023701D01*
X135636000Y-96114574D01*
X136092847Y-96023701D01*
X136480144Y-95764918D01*
X136738927Y-95377621D01*
X136829800Y-94920774D01*
X136829800Y-94563226D01*
X136738927Y-94106379D01*
X136480144Y-93719082D01*
X136097937Y-93463700D01*
X137299880Y-93463700D01*
X137299880Y-93622500D01*
X137268504Y-93628741D01*
X137145158Y-93711158D01*
X137062741Y-93834504D01*
X137033800Y-93980000D01*
X137033800Y-96139800D01*
X134874000Y-96139800D01*
X134728504Y-96168741D01*
X134605158Y-96251158D01*
X134522741Y-96374504D01*
X134519062Y-96393000D01*
X132688938Y-96393000D01*
X132685259Y-96374504D01*
X132602842Y-96251158D01*
X132479496Y-96168741D01*
X132334000Y-96139800D01*
X113538000Y-96139800D01*
X113392504Y-96168741D01*
X113269158Y-96251158D01*
X113186741Y-96374504D01*
X113183062Y-96393000D01*
X111352938Y-96393000D01*
X111349259Y-96374504D01*
X111266842Y-96251158D01*
X111143496Y-96168741D01*
X111027955Y-96145758D01*
X111138036Y-96092732D01*
X111527954Y-95656320D01*
X111655806Y-95290815D01*
X111673073Y-95377621D01*
X111931856Y-95764918D01*
X112319153Y-96023701D01*
X112776000Y-96114574D01*
X113232847Y-96023701D01*
X113620144Y-95764918D01*
X113878927Y-95377621D01*
X113969800Y-94920774D01*
X113969800Y-94563226D01*
X114122200Y-94563226D01*
X114122200Y-94920774D01*
X114213073Y-95377621D01*
X114471856Y-95764918D01*
X114859153Y-96023701D01*
X115316000Y-96114574D01*
X115772847Y-96023701D01*
X116160144Y-95764918D01*
X116418927Y-95377621D01*
X116509800Y-94920774D01*
X116509800Y-94563226D01*
X116662200Y-94563226D01*
X116662200Y-94920774D01*
X116753073Y-95377621D01*
X117011856Y-95764918D01*
X117399153Y-96023701D01*
X117856000Y-96114574D01*
X118312847Y-96023701D01*
X118700144Y-95764918D01*
X118958927Y-95377621D01*
X119049800Y-94920774D01*
X119049800Y-94563226D01*
X119202200Y-94563226D01*
X119202200Y-94920774D01*
X119293073Y-95377621D01*
X119551856Y-95764918D01*
X119939153Y-96023701D01*
X120396000Y-96114574D01*
X120852847Y-96023701D01*
X121240144Y-95764918D01*
X121498927Y-95377621D01*
X121589800Y-94920774D01*
X121589800Y-94563226D01*
X121742200Y-94563226D01*
X121742200Y-94920774D01*
X121833073Y-95377621D01*
X122091856Y-95764918D01*
X122479153Y-96023701D01*
X122936000Y-96114574D01*
X123392847Y-96023701D01*
X123780144Y-95764918D01*
X124038927Y-95377621D01*
X124129800Y-94920774D01*
X124129800Y-94563226D01*
X124282200Y-94563226D01*
X124282200Y-94920774D01*
X124373073Y-95377621D01*
X124631856Y-95764918D01*
X125019153Y-96023701D01*
X125476000Y-96114574D01*
X125932847Y-96023701D01*
X126320144Y-95764918D01*
X126578927Y-95377621D01*
X126669800Y-94920774D01*
X126669800Y-94563226D01*
X126822200Y-94563226D01*
X126822200Y-94920774D01*
X126913073Y-95377621D01*
X127171856Y-95764918D01*
X127559153Y-96023701D01*
X128016000Y-96114574D01*
X128472847Y-96023701D01*
X128860144Y-95764918D01*
X129118927Y-95377621D01*
X129209800Y-94920774D01*
X129209800Y-94563226D01*
X129118927Y-94106379D01*
X128860144Y-93719082D01*
X128472847Y-93460299D01*
X128016000Y-93369426D01*
X127559153Y-93460299D01*
X127171856Y-93719082D01*
X126913073Y-94106379D01*
X126822200Y-94563226D01*
X126669800Y-94563226D01*
X126578927Y-94106379D01*
X126320144Y-93719082D01*
X125932847Y-93460299D01*
X125476000Y-93369426D01*
X125019153Y-93460299D01*
X124631856Y-93719082D01*
X124373073Y-94106379D01*
X124282200Y-94563226D01*
X124129800Y-94563226D01*
X124038927Y-94106379D01*
X123780144Y-93719082D01*
X123392847Y-93460299D01*
X122936000Y-93369426D01*
X122479153Y-93460299D01*
X122091856Y-93719082D01*
X121833073Y-94106379D01*
X121742200Y-94563226D01*
X121589800Y-94563226D01*
X121498927Y-94106379D01*
X121240144Y-93719082D01*
X120852847Y-93460299D01*
X120396000Y-93369426D01*
X119939153Y-93460299D01*
X119551856Y-93719082D01*
X119293073Y-94106379D01*
X119202200Y-94563226D01*
X119049800Y-94563226D01*
X118958927Y-94106379D01*
X118700144Y-93719082D01*
X118312847Y-93460299D01*
X117856000Y-93369426D01*
X117399153Y-93460299D01*
X117011856Y-93719082D01*
X116753073Y-94106379D01*
X116662200Y-94563226D01*
X116509800Y-94563226D01*
X116418927Y-94106379D01*
X116160144Y-93719082D01*
X115772847Y-93460299D01*
X115316000Y-93369426D01*
X114859153Y-93460299D01*
X114471856Y-93719082D01*
X114213073Y-94106379D01*
X114122200Y-94563226D01*
X113969800Y-94563226D01*
X113878927Y-94106379D01*
X113620144Y-93719082D01*
X113232847Y-93460299D01*
X112776000Y-93369426D01*
X112319153Y-93460299D01*
X111931856Y-93719082D01*
X111673073Y-94106379D01*
X111655806Y-94193185D01*
X111527954Y-93827680D01*
X111138036Y-93391268D01*
X110610791Y-93137291D01*
X110595026Y-93134642D01*
X110363000Y-93255783D01*
X110363000Y-94615000D01*
X110383000Y-94615000D01*
X110383000Y-94869000D01*
X110363000Y-94869000D01*
X110363000Y-94889000D01*
X110109000Y-94889000D01*
X110109000Y-94869000D01*
X110089000Y-94869000D01*
X110089000Y-94615000D01*
X110109000Y-94615000D01*
X110109000Y-93255783D01*
X109876974Y-93134642D01*
X109861209Y-93137291D01*
X109333964Y-93391268D01*
X108944046Y-93827680D01*
X108896269Y-93964265D01*
X108896269Y-93726000D01*
X108873244Y-93603635D01*
X108800927Y-93491251D01*
X108690583Y-93415856D01*
X108559600Y-93389331D01*
X106832400Y-93389331D01*
X106710035Y-93412356D01*
X106597651Y-93484673D01*
X106522256Y-93595017D01*
X106495731Y-93726000D01*
X106495731Y-95758000D01*
X106518756Y-95880365D01*
X106591073Y-95992749D01*
X106701417Y-96068144D01*
X106832400Y-96094669D01*
X108559600Y-96094669D01*
X108681965Y-96071644D01*
X108794349Y-95999327D01*
X108869744Y-95888983D01*
X108896269Y-95758000D01*
X108896269Y-95519735D01*
X108944046Y-95656320D01*
X109333964Y-96092732D01*
X109431675Y-96139800D01*
X106298200Y-96139800D01*
X106298200Y-75564200D01*
X109431675Y-75564200D01*
X109333964Y-75611268D01*
X109333964Y-75611268D01*
G37*
X109333964Y-75611268D02*
X108944046Y-76047680D01*
X108896269Y-76184265D01*
X108896269Y-75946000D01*
X108873244Y-75823635D01*
X108800927Y-75711251D01*
X108690583Y-75635856D01*
X108559600Y-75609331D01*
X106832400Y-75609331D01*
X106710035Y-75632356D01*
X106597651Y-75704673D01*
X106522256Y-75815017D01*
X106495731Y-75946000D01*
X106495731Y-77978000D01*
X106518756Y-78100365D01*
X106591073Y-78212749D01*
X106701417Y-78288144D01*
X106832400Y-78314669D01*
X107264200Y-78314669D01*
X107264200Y-82458923D01*
X107297069Y-82624166D01*
X107371520Y-82735590D01*
X107390671Y-82764252D01*
X112688746Y-88062326D01*
X112688748Y-88062329D01*
X112828834Y-88155931D01*
X112994077Y-88188800D01*
X114424086Y-88188800D01*
X114526054Y-88290946D01*
X114757596Y-88387090D01*
X114903059Y-88387217D01*
X115467171Y-88951329D01*
X115607257Y-89044931D01*
X115634673Y-89050385D01*
X115772500Y-89077801D01*
X115772505Y-89077800D01*
X125334086Y-89077800D01*
X125436054Y-89179946D01*
X125667596Y-89276090D01*
X125918305Y-89276309D01*
X126150013Y-89180569D01*
X126327446Y-89003446D01*
X126423590Y-88771904D01*
X126423605Y-88754473D01*
X126471572Y-88744932D01*
X126611658Y-88651330D01*
X126756159Y-88506829D01*
X126849761Y-88366743D01*
X126882630Y-88201500D01*
X126882630Y-85937830D01*
X126849761Y-85772587D01*
X126756159Y-85632501D01*
X126756156Y-85632499D01*
X126042683Y-84919025D01*
X126042809Y-84774695D01*
X125947069Y-84542987D01*
X125769946Y-84365554D01*
X125538404Y-84269410D01*
X125287695Y-84269191D01*
X125055987Y-84364931D01*
X124878554Y-84542054D01*
X124782410Y-84773596D01*
X124782191Y-85024305D01*
X124877931Y-85256013D01*
X125055054Y-85433446D01*
X125286596Y-85529590D01*
X125432059Y-85529717D01*
X126019030Y-86116687D01*
X126019030Y-87929013D01*
X125928257Y-87947069D01*
X125928255Y-87947070D01*
X125928256Y-87947070D01*
X125825352Y-88015828D01*
X125668695Y-88015691D01*
X125436987Y-88111431D01*
X125334038Y-88214200D01*
X115951358Y-88214200D01*
X115513683Y-87776525D01*
X115513809Y-87632195D01*
X115418069Y-87400487D01*
X115240946Y-87223054D01*
X115119920Y-87172800D01*
X121460586Y-87172800D01*
X121562554Y-87274946D01*
X121794096Y-87371090D01*
X122044805Y-87371309D01*
X122276513Y-87275569D01*
X122453946Y-87098446D01*
X122550090Y-86866904D01*
X122550309Y-86616195D01*
X122454569Y-86384487D01*
X122277446Y-86207054D01*
X122045904Y-86110910D01*
X121795195Y-86110691D01*
X121563487Y-86206431D01*
X121460538Y-86309200D01*
X121247958Y-86309200D01*
X121900474Y-85656683D01*
X122044805Y-85656809D01*
X122276513Y-85561069D01*
X122453946Y-85383946D01*
X122550090Y-85152404D01*
X122550309Y-84901695D01*
X122454569Y-84669987D01*
X122277446Y-84492554D01*
X122045904Y-84396410D01*
X121795195Y-84396191D01*
X121563487Y-84491931D01*
X121386054Y-84669054D01*
X121289910Y-84900596D01*
X121289783Y-85046060D01*
X120534642Y-85801200D01*
X114288358Y-85801200D01*
X114236624Y-85749466D01*
X114224329Y-85731065D01*
X114224326Y-85731063D01*
X112736634Y-84243370D01*
X112712986Y-84227569D01*
X112596548Y-84149768D01*
X112431305Y-84116899D01*
X111850700Y-84116899D01*
X111850695Y-84116898D01*
X111685453Y-84149767D01*
X111685451Y-84149768D01*
X111685452Y-84149768D01*
X111545366Y-84243370D01*
X111545364Y-84243373D01*
X111230870Y-84557866D01*
X111137268Y-84697952D01*
X111104399Y-84863195D01*
X111104399Y-85256665D01*
X108127800Y-82280065D01*
X108127800Y-82230305D01*
X129417691Y-82230305D01*
X129513431Y-82462013D01*
X129690554Y-82639446D01*
X129922096Y-82735590D01*
X130067559Y-82735717D01*
X131330171Y-83998329D01*
X131470257Y-84091931D01*
X131635500Y-84124800D01*
X134668586Y-84124800D01*
X134770554Y-84226946D01*
X135002096Y-84323090D01*
X135252805Y-84323309D01*
X135484513Y-84227569D01*
X135661946Y-84050446D01*
X135758090Y-83818904D01*
X135758309Y-83568195D01*
X135662569Y-83336487D01*
X135485446Y-83159054D01*
X135253904Y-83062910D01*
X135003195Y-83062691D01*
X134771487Y-83158431D01*
X134668538Y-83261200D01*
X131814358Y-83261200D01*
X130678183Y-82125025D01*
X130678309Y-81980695D01*
X130582569Y-81748987D01*
X130405446Y-81571554D01*
X130173904Y-81475410D01*
X129923195Y-81475191D01*
X129691487Y-81570931D01*
X129514054Y-81748054D01*
X129417910Y-81979596D01*
X129417691Y-82230305D01*
X108127800Y-82230305D01*
X108127800Y-78314669D01*
X108559600Y-78314669D01*
X108681965Y-78291644D01*
X108794349Y-78219327D01*
X108869744Y-78108983D01*
X108896269Y-77978000D01*
X108896269Y-77739735D01*
X108944046Y-77876320D01*
X109333964Y-78312732D01*
X109861209Y-78566709D01*
X109876974Y-78569358D01*
X110109000Y-78448217D01*
X110109000Y-77089000D01*
X110089000Y-77089000D01*
X110089000Y-76835000D01*
X110109000Y-76835000D01*
X110109000Y-76815000D01*
X110363000Y-76815000D01*
X110363000Y-76835000D01*
X110383000Y-76835000D01*
X110383000Y-77089000D01*
X110363000Y-77089000D01*
X110363000Y-78448217D01*
X110595026Y-78569358D01*
X110610791Y-78566709D01*
X111138036Y-78312732D01*
X111527954Y-77876320D01*
X111655806Y-77510815D01*
X111673073Y-77597621D01*
X111931856Y-77984918D01*
X112319153Y-78243701D01*
X112776000Y-78334574D01*
X113232847Y-78243701D01*
X113620144Y-77984918D01*
X113878927Y-77597621D01*
X113969800Y-77140774D01*
X113969800Y-76783226D01*
X114122200Y-76783226D01*
X114122200Y-77140774D01*
X114213073Y-77597621D01*
X114471856Y-77984918D01*
X114859153Y-78243701D01*
X115316000Y-78334574D01*
X115772847Y-78243701D01*
X116160144Y-77984918D01*
X116418927Y-77597621D01*
X116509800Y-77140774D01*
X116509800Y-76783226D01*
X116662200Y-76783226D01*
X116662200Y-77140774D01*
X116753073Y-77597621D01*
X117011856Y-77984918D01*
X117399153Y-78243701D01*
X117856000Y-78334574D01*
X118312847Y-78243701D01*
X118700144Y-77984918D01*
X118958927Y-77597621D01*
X119049800Y-77140774D01*
X119049800Y-76783226D01*
X119202200Y-76783226D01*
X119202200Y-77140774D01*
X119293073Y-77597621D01*
X119551856Y-77984918D01*
X119939153Y-78243701D01*
X120396000Y-78334574D01*
X120852847Y-78243701D01*
X121240144Y-77984918D01*
X121498927Y-77597621D01*
X121589800Y-77140774D01*
X121589800Y-76783226D01*
X121742200Y-76783226D01*
X121742200Y-77140774D01*
X121833073Y-77597621D01*
X122091856Y-77984918D01*
X122479153Y-78243701D01*
X122936000Y-78334574D01*
X123392847Y-78243701D01*
X123780144Y-77984918D01*
X124038927Y-77597621D01*
X124129800Y-77140774D01*
X124129800Y-76783226D01*
X124282200Y-76783226D01*
X124282200Y-77140774D01*
X124373073Y-77597621D01*
X124631856Y-77984918D01*
X125019153Y-78243701D01*
X125476000Y-78334574D01*
X125932847Y-78243701D01*
X126320144Y-77984918D01*
X126578927Y-77597621D01*
X126669800Y-77140774D01*
X126669800Y-76783226D01*
X126822200Y-76783226D01*
X126822200Y-77140774D01*
X126913073Y-77597621D01*
X127171856Y-77984918D01*
X127559153Y-78243701D01*
X128016000Y-78334574D01*
X128472847Y-78243701D01*
X128860144Y-77984918D01*
X129118927Y-77597621D01*
X129209800Y-77140774D01*
X129209800Y-76783226D01*
X129362200Y-76783226D01*
X129362200Y-77140774D01*
X129453073Y-77597621D01*
X129711856Y-77984918D01*
X130099153Y-78243701D01*
X130556000Y-78334574D01*
X131012847Y-78243701D01*
X131400144Y-77984918D01*
X131658927Y-77597621D01*
X131749800Y-77140774D01*
X131749800Y-76783226D01*
X131902200Y-76783226D01*
X131902200Y-77140774D01*
X131993073Y-77597621D01*
X132251856Y-77984918D01*
X132639153Y-78243701D01*
X133096000Y-78334574D01*
X133552847Y-78243701D01*
X133940144Y-77984918D01*
X134198927Y-77597621D01*
X134289800Y-77140774D01*
X134289800Y-76783226D01*
X134442200Y-76783226D01*
X134442200Y-77140774D01*
X134533073Y-77597621D01*
X134791856Y-77984918D01*
X135179153Y-78243701D01*
X135636000Y-78334574D01*
X136092847Y-78243701D01*
X136480144Y-77984918D01*
X136738927Y-77597621D01*
X136829800Y-77140774D01*
X136829800Y-76783226D01*
X136738927Y-76326379D01*
X136480144Y-75939082D01*
X136092847Y-75680299D01*
X135636000Y-75589426D01*
X135179153Y-75680299D01*
X134791856Y-75939082D01*
X134533073Y-76326379D01*
X134442200Y-76783226D01*
X134289800Y-76783226D01*
X134198927Y-76326379D01*
X133940144Y-75939082D01*
X133552847Y-75680299D01*
X133096000Y-75589426D01*
X132639153Y-75680299D01*
X132251856Y-75939082D01*
X131993073Y-76326379D01*
X131902200Y-76783226D01*
X131749800Y-76783226D01*
X131658927Y-76326379D01*
X131400144Y-75939082D01*
X131012847Y-75680299D01*
X130556000Y-75589426D01*
X130099153Y-75680299D01*
X129711856Y-75939082D01*
X129453073Y-76326379D01*
X129362200Y-76783226D01*
X129209800Y-76783226D01*
X129118927Y-76326379D01*
X128860144Y-75939082D01*
X128472847Y-75680299D01*
X128016000Y-75589426D01*
X127559153Y-75680299D01*
X127171856Y-75939082D01*
X126913073Y-76326379D01*
X126822200Y-76783226D01*
X126669800Y-76783226D01*
X126578927Y-76326379D01*
X126320144Y-75939082D01*
X125932847Y-75680299D01*
X125476000Y-75589426D01*
X125019153Y-75680299D01*
X124631856Y-75939082D01*
X124373073Y-76326379D01*
X124282200Y-76783226D01*
X124129800Y-76783226D01*
X124038927Y-76326379D01*
X123780144Y-75939082D01*
X123392847Y-75680299D01*
X122936000Y-75589426D01*
X122479153Y-75680299D01*
X122091856Y-75939082D01*
X121833073Y-76326379D01*
X121742200Y-76783226D01*
X121589800Y-76783226D01*
X121498927Y-76326379D01*
X121240144Y-75939082D01*
X120852847Y-75680299D01*
X120396000Y-75589426D01*
X119939153Y-75680299D01*
X119551856Y-75939082D01*
X119293073Y-76326379D01*
X119202200Y-76783226D01*
X119049800Y-76783226D01*
X118958927Y-76326379D01*
X118700144Y-75939082D01*
X118312847Y-75680299D01*
X117856000Y-75589426D01*
X117399153Y-75680299D01*
X117011856Y-75939082D01*
X116753073Y-76326379D01*
X116662200Y-76783226D01*
X116509800Y-76783226D01*
X116418927Y-76326379D01*
X116160144Y-75939082D01*
X115772847Y-75680299D01*
X115316000Y-75589426D01*
X114859153Y-75680299D01*
X114471856Y-75939082D01*
X114213073Y-76326379D01*
X114122200Y-76783226D01*
X113969800Y-76783226D01*
X113878927Y-76326379D01*
X113620144Y-75939082D01*
X113232847Y-75680299D01*
X112776000Y-75589426D01*
X112319153Y-75680299D01*
X111931856Y-75939082D01*
X111673073Y-76326379D01*
X111655806Y-76413185D01*
X111527954Y-76047680D01*
X111138036Y-75611268D01*
X111040325Y-75564200D01*
X137033800Y-75564200D01*
X137033800Y-77724000D01*
X137062741Y-77869496D01*
X137145158Y-77992842D01*
X137268504Y-78075259D01*
X137299880Y-78081500D01*
X137299880Y-79906500D01*
X137268504Y-79912741D01*
X137145158Y-79995158D01*
X137062741Y-80118504D01*
X137033800Y-80264000D01*
X137033800Y-90253300D01*
X130099228Y-90253300D01*
X130099228Y-93460284D01*
X130099153Y-93460299D01*
X129711856Y-93719082D01*
X129453073Y-94106379D01*
X129362200Y-94563226D01*
X129362200Y-94920774D01*
X129453073Y-95377621D01*
X129711856Y-95764918D01*
X130099153Y-96023701D01*
X130556000Y-96114574D01*
X131012847Y-96023701D01*
X131400144Y-95764918D01*
X131658927Y-95377621D01*
X131749800Y-94920774D01*
X131749800Y-94563226D01*
X131658927Y-94106379D01*
X131400144Y-93719082D01*
X131017937Y-93463700D01*
X132634063Y-93463700D01*
X132251856Y-93719082D01*
X131993073Y-94106379D01*
X131902200Y-94563226D01*
X131902200Y-94920774D01*
X131993073Y-95377621D01*
X132251856Y-95764918D01*
X132639153Y-96023701D01*
X133096000Y-96114574D01*
X133552847Y-96023701D01*
X133940144Y-95764918D01*
X134198927Y-95377621D01*
X134289800Y-94920774D01*
X134289800Y-94563226D01*
X134198927Y-94106379D01*
X133940144Y-93719082D01*
X133557937Y-93463700D01*
X135174063Y-93463700D01*
X134791856Y-93719082D01*
X134533073Y-94106379D01*
X134442200Y-94563226D01*
X134442200Y-94920774D01*
X134533073Y-95377621D01*
X134791856Y-95764918D01*
X135179153Y-96023701D01*
X135636000Y-96114574D01*
X136092847Y-96023701D01*
X136480144Y-95764918D01*
X136738927Y-95377621D01*
X136829800Y-94920774D01*
X136829800Y-94563226D01*
X136738927Y-94106379D01*
X136480144Y-93719082D01*
X136097937Y-93463700D01*
X137299880Y-93463700D01*
X137299880Y-93622500D01*
X137268504Y-93628741D01*
X137145158Y-93711158D01*
X137062741Y-93834504D01*
X137033800Y-93980000D01*
X137033800Y-96139800D01*
X134874000Y-96139800D01*
X134728504Y-96168741D01*
X134605158Y-96251158D01*
X134522741Y-96374504D01*
X134519062Y-96393000D01*
X132688938Y-96393000D01*
X132685259Y-96374504D01*
X132602842Y-96251158D01*
X132479496Y-96168741D01*
X132334000Y-96139800D01*
X113538000Y-96139800D01*
X113392504Y-96168741D01*
X113269158Y-96251158D01*
X113186741Y-96374504D01*
X113183062Y-96393000D01*
X111352938Y-96393000D01*
X111349259Y-96374504D01*
X111266842Y-96251158D01*
X111143496Y-96168741D01*
X111027955Y-96145758D01*
X111138036Y-96092732D01*
X111527954Y-95656320D01*
X111655806Y-95290815D01*
X111673073Y-95377621D01*
X111931856Y-95764918D01*
X112319153Y-96023701D01*
X112776000Y-96114574D01*
X113232847Y-96023701D01*
X113620144Y-95764918D01*
X113878927Y-95377621D01*
X113969800Y-94920774D01*
X113969800Y-94563226D01*
X114122200Y-94563226D01*
X114122200Y-94920774D01*
X114213073Y-95377621D01*
X114471856Y-95764918D01*
X114859153Y-96023701D01*
X115316000Y-96114574D01*
X115772847Y-96023701D01*
X116160144Y-95764918D01*
X116418927Y-95377621D01*
X116509800Y-94920774D01*
X116509800Y-94563226D01*
X116662200Y-94563226D01*
X116662200Y-94920774D01*
X116753073Y-95377621D01*
X117011856Y-95764918D01*
X117399153Y-96023701D01*
X117856000Y-96114574D01*
X118312847Y-96023701D01*
X118700144Y-95764918D01*
X118958927Y-95377621D01*
X119049800Y-94920774D01*
X119049800Y-94563226D01*
X119202200Y-94563226D01*
X119202200Y-94920774D01*
X119293073Y-95377621D01*
X119551856Y-95764918D01*
X119939153Y-96023701D01*
X120396000Y-96114574D01*
X120852847Y-96023701D01*
X121240144Y-95764918D01*
X121498927Y-95377621D01*
X121589800Y-94920774D01*
X121589800Y-94563226D01*
X121742200Y-94563226D01*
X121742200Y-94920774D01*
X121833073Y-95377621D01*
X122091856Y-95764918D01*
X122479153Y-96023701D01*
X122936000Y-96114574D01*
X123392847Y-96023701D01*
X123780144Y-95764918D01*
X124038927Y-95377621D01*
X124129800Y-94920774D01*
X124129800Y-94563226D01*
X124282200Y-94563226D01*
X124282200Y-94920774D01*
X124373073Y-95377621D01*
X124631856Y-95764918D01*
X125019153Y-96023701D01*
X125476000Y-96114574D01*
X125932847Y-96023701D01*
X126320144Y-95764918D01*
X126578927Y-95377621D01*
X126669800Y-94920774D01*
X126669800Y-94563226D01*
X126822200Y-94563226D01*
X126822200Y-94920774D01*
X126913073Y-95377621D01*
X127171856Y-95764918D01*
X127559153Y-96023701D01*
X128016000Y-96114574D01*
X128472847Y-96023701D01*
X128860144Y-95764918D01*
X129118927Y-95377621D01*
X129209800Y-94920774D01*
X129209800Y-94563226D01*
X129118927Y-94106379D01*
X128860144Y-93719082D01*
X128472847Y-93460299D01*
X128016000Y-93369426D01*
X127559153Y-93460299D01*
X127171856Y-93719082D01*
X126913073Y-94106379D01*
X126822200Y-94563226D01*
X126669800Y-94563226D01*
X126578927Y-94106379D01*
X126320144Y-93719082D01*
X125932847Y-93460299D01*
X125476000Y-93369426D01*
X125019153Y-93460299D01*
X124631856Y-93719082D01*
X124373073Y-94106379D01*
X124282200Y-94563226D01*
X124129800Y-94563226D01*
X124038927Y-94106379D01*
X123780144Y-93719082D01*
X123392847Y-93460299D01*
X122936000Y-93369426D01*
X122479153Y-93460299D01*
X122091856Y-93719082D01*
X121833073Y-94106379D01*
X121742200Y-94563226D01*
X121589800Y-94563226D01*
X121498927Y-94106379D01*
X121240144Y-93719082D01*
X120852847Y-93460299D01*
X120396000Y-93369426D01*
X119939153Y-93460299D01*
X119551856Y-93719082D01*
X119293073Y-94106379D01*
X119202200Y-94563226D01*
X119049800Y-94563226D01*
X118958927Y-94106379D01*
X118700144Y-93719082D01*
X118312847Y-93460299D01*
X117856000Y-93369426D01*
X117399153Y-93460299D01*
X117011856Y-93719082D01*
X116753073Y-94106379D01*
X116662200Y-94563226D01*
X116509800Y-94563226D01*
X116418927Y-94106379D01*
X116160144Y-93719082D01*
X115772847Y-93460299D01*
X115316000Y-93369426D01*
X114859153Y-93460299D01*
X114471856Y-93719082D01*
X114213073Y-94106379D01*
X114122200Y-94563226D01*
X113969800Y-94563226D01*
X113878927Y-94106379D01*
X113620144Y-93719082D01*
X113232847Y-93460299D01*
X112776000Y-93369426D01*
X112319153Y-93460299D01*
X111931856Y-93719082D01*
X111673073Y-94106379D01*
X111655806Y-94193185D01*
X111527954Y-93827680D01*
X111138036Y-93391268D01*
X110610791Y-93137291D01*
X110595026Y-93134642D01*
X110363000Y-93255783D01*
X110363000Y-94615000D01*
X110383000Y-94615000D01*
X110383000Y-94869000D01*
X110363000Y-94869000D01*
X110363000Y-94889000D01*
X110109000Y-94889000D01*
X110109000Y-94869000D01*
X110089000Y-94869000D01*
X110089000Y-94615000D01*
X110109000Y-94615000D01*
X110109000Y-93255783D01*
X109876974Y-93134642D01*
X109861209Y-93137291D01*
X109333964Y-93391268D01*
X108944046Y-93827680D01*
X108896269Y-93964265D01*
X108896269Y-93726000D01*
X108873244Y-93603635D01*
X108800927Y-93491251D01*
X108690583Y-93415856D01*
X108559600Y-93389331D01*
X106832400Y-93389331D01*
X106710035Y-93412356D01*
X106597651Y-93484673D01*
X106522256Y-93595017D01*
X106495731Y-93726000D01*
X106495731Y-95758000D01*
X106518756Y-95880365D01*
X106591073Y-95992749D01*
X106701417Y-96068144D01*
X106832400Y-96094669D01*
X108559600Y-96094669D01*
X108681965Y-96071644D01*
X108794349Y-95999327D01*
X108869744Y-95888983D01*
X108896269Y-95758000D01*
X108896269Y-95519735D01*
X108944046Y-95656320D01*
X109333964Y-96092732D01*
X109431675Y-96139800D01*
X106298200Y-96139800D01*
X106298200Y-75564200D01*
X109431675Y-75564200D01*
X109333964Y-75611268D01*
M02*
