G04 #@! TF.FileFunction,Legend,Top*
%FSLAX46Y46*%
G04 Gerber Fmt 4.6, Leading zero omitted, Abs format (unit mm)*
G04 Created by KiCad (PCBNEW 4.0.5+dfsg1-4) date Sun Sep 17 22:55:48 2017*
%MOMM*%
%LPD*%
G01*
G04 APERTURE LIST*
%ADD10C,0.100000*%
%ADD11C,0.150000*%
%ADD12C,0.120000*%
G04 APERTURE END LIST*
D10*
D11*
X107291286Y-79819285D02*
X108041286Y-79569285D01*
X107291286Y-79319285D01*
X108041286Y-79069286D02*
X107291286Y-79069286D01*
X108041286Y-78712143D02*
X107291286Y-78712143D01*
X108041286Y-78283571D01*
X107291286Y-78283571D01*
X109877000Y-79819285D02*
X109841286Y-79890714D01*
X109841286Y-79997857D01*
X109877000Y-80105000D01*
X109948429Y-80176428D01*
X110019857Y-80212143D01*
X110162714Y-80247857D01*
X110269857Y-80247857D01*
X110412714Y-80212143D01*
X110484143Y-80176428D01*
X110555571Y-80105000D01*
X110591286Y-79997857D01*
X110591286Y-79926428D01*
X110555571Y-79819285D01*
X110519857Y-79783571D01*
X110269857Y-79783571D01*
X110269857Y-79926428D01*
X110591286Y-79462143D02*
X109841286Y-79462143D01*
X110591286Y-79033571D01*
X109841286Y-79033571D01*
X110591286Y-78676429D02*
X109841286Y-78676429D01*
X109841286Y-78497857D01*
X109877000Y-78390714D01*
X109948429Y-78319286D01*
X110019857Y-78283571D01*
X110162714Y-78247857D01*
X110269857Y-78247857D01*
X110412714Y-78283571D01*
X110484143Y-78319286D01*
X110555571Y-78390714D01*
X110591286Y-78497857D01*
X110591286Y-78676429D01*
X113141286Y-80140715D02*
X112391286Y-80140715D01*
X112391286Y-79855000D01*
X112427000Y-79783572D01*
X112462714Y-79747857D01*
X112534143Y-79712143D01*
X112641286Y-79712143D01*
X112712714Y-79747857D01*
X112748429Y-79783572D01*
X112784143Y-79855000D01*
X112784143Y-80140715D01*
X113069857Y-78962143D02*
X113105571Y-78997857D01*
X113141286Y-79105000D01*
X113141286Y-79176429D01*
X113105571Y-79283572D01*
X113034143Y-79355000D01*
X112962714Y-79390715D01*
X112819857Y-79426429D01*
X112712714Y-79426429D01*
X112569857Y-79390715D01*
X112498429Y-79355000D01*
X112427000Y-79283572D01*
X112391286Y-79176429D01*
X112391286Y-79105000D01*
X112427000Y-78997857D01*
X112462714Y-78962143D01*
X112641286Y-78319286D02*
X113141286Y-78319286D01*
X112355571Y-78497857D02*
X112891286Y-78676429D01*
X112891286Y-78212143D01*
X115691286Y-80140715D02*
X114941286Y-80140715D01*
X114941286Y-79855000D01*
X114977000Y-79783572D01*
X115012714Y-79747857D01*
X115084143Y-79712143D01*
X115191286Y-79712143D01*
X115262714Y-79747857D01*
X115298429Y-79783572D01*
X115334143Y-79855000D01*
X115334143Y-80140715D01*
X115619857Y-78962143D02*
X115655571Y-78997857D01*
X115691286Y-79105000D01*
X115691286Y-79176429D01*
X115655571Y-79283572D01*
X115584143Y-79355000D01*
X115512714Y-79390715D01*
X115369857Y-79426429D01*
X115262714Y-79426429D01*
X115119857Y-79390715D01*
X115048429Y-79355000D01*
X114977000Y-79283572D01*
X114941286Y-79176429D01*
X114941286Y-79105000D01*
X114977000Y-78997857D01*
X115012714Y-78962143D01*
X114941286Y-78283572D02*
X114941286Y-78640715D01*
X115298429Y-78676429D01*
X115262714Y-78640715D01*
X115227000Y-78569286D01*
X115227000Y-78390715D01*
X115262714Y-78319286D01*
X115298429Y-78283572D01*
X115369857Y-78247857D01*
X115548429Y-78247857D01*
X115619857Y-78283572D01*
X115655571Y-78319286D01*
X115691286Y-78390715D01*
X115691286Y-78569286D01*
X115655571Y-78640715D01*
X115619857Y-78676429D01*
X118241286Y-80140715D02*
X117491286Y-80140715D01*
X117491286Y-79855000D01*
X117527000Y-79783572D01*
X117562714Y-79747857D01*
X117634143Y-79712143D01*
X117741286Y-79712143D01*
X117812714Y-79747857D01*
X117848429Y-79783572D01*
X117884143Y-79855000D01*
X117884143Y-80140715D01*
X118169857Y-78962143D02*
X118205571Y-78997857D01*
X118241286Y-79105000D01*
X118241286Y-79176429D01*
X118205571Y-79283572D01*
X118134143Y-79355000D01*
X118062714Y-79390715D01*
X117919857Y-79426429D01*
X117812714Y-79426429D01*
X117669857Y-79390715D01*
X117598429Y-79355000D01*
X117527000Y-79283572D01*
X117491286Y-79176429D01*
X117491286Y-79105000D01*
X117527000Y-78997857D01*
X117562714Y-78962143D01*
X117491286Y-78319286D02*
X117491286Y-78462143D01*
X117527000Y-78533572D01*
X117562714Y-78569286D01*
X117669857Y-78640715D01*
X117812714Y-78676429D01*
X118098429Y-78676429D01*
X118169857Y-78640715D01*
X118205571Y-78605000D01*
X118241286Y-78533572D01*
X118241286Y-78390715D01*
X118205571Y-78319286D01*
X118169857Y-78283572D01*
X118098429Y-78247857D01*
X117919857Y-78247857D01*
X117848429Y-78283572D01*
X117812714Y-78319286D01*
X117777000Y-78390715D01*
X117777000Y-78533572D01*
X117812714Y-78605000D01*
X117848429Y-78640715D01*
X117919857Y-78676429D01*
X120791286Y-80140715D02*
X120041286Y-80140715D01*
X120041286Y-79855000D01*
X120077000Y-79783572D01*
X120112714Y-79747857D01*
X120184143Y-79712143D01*
X120291286Y-79712143D01*
X120362714Y-79747857D01*
X120398429Y-79783572D01*
X120434143Y-79855000D01*
X120434143Y-80140715D01*
X120719857Y-78962143D02*
X120755571Y-78997857D01*
X120791286Y-79105000D01*
X120791286Y-79176429D01*
X120755571Y-79283572D01*
X120684143Y-79355000D01*
X120612714Y-79390715D01*
X120469857Y-79426429D01*
X120362714Y-79426429D01*
X120219857Y-79390715D01*
X120148429Y-79355000D01*
X120077000Y-79283572D01*
X120041286Y-79176429D01*
X120041286Y-79105000D01*
X120077000Y-78997857D01*
X120112714Y-78962143D01*
X120041286Y-78712143D02*
X120041286Y-78212143D01*
X120791286Y-78533572D01*
X123341286Y-80140715D02*
X122591286Y-80140715D01*
X122591286Y-79855000D01*
X122627000Y-79783572D01*
X122662714Y-79747857D01*
X122734143Y-79712143D01*
X122841286Y-79712143D01*
X122912714Y-79747857D01*
X122948429Y-79783572D01*
X122984143Y-79855000D01*
X122984143Y-80140715D01*
X122948429Y-79140715D02*
X122984143Y-79033572D01*
X123019857Y-78997857D01*
X123091286Y-78962143D01*
X123198429Y-78962143D01*
X123269857Y-78997857D01*
X123305571Y-79033572D01*
X123341286Y-79105000D01*
X123341286Y-79390715D01*
X122591286Y-79390715D01*
X122591286Y-79140715D01*
X122627000Y-79069286D01*
X122662714Y-79033572D01*
X122734143Y-78997857D01*
X122805571Y-78997857D01*
X122877000Y-79033572D01*
X122912714Y-79069286D01*
X122948429Y-79140715D01*
X122948429Y-79390715D01*
X122591286Y-78712143D02*
X122591286Y-78212143D01*
X123341286Y-78533572D01*
X125891286Y-80140715D02*
X125141286Y-80140715D01*
X125141286Y-79855000D01*
X125177000Y-79783572D01*
X125212714Y-79747857D01*
X125284143Y-79712143D01*
X125391286Y-79712143D01*
X125462714Y-79747857D01*
X125498429Y-79783572D01*
X125534143Y-79855000D01*
X125534143Y-80140715D01*
X125498429Y-79140715D02*
X125534143Y-79033572D01*
X125569857Y-78997857D01*
X125641286Y-78962143D01*
X125748429Y-78962143D01*
X125819857Y-78997857D01*
X125855571Y-79033572D01*
X125891286Y-79105000D01*
X125891286Y-79390715D01*
X125141286Y-79390715D01*
X125141286Y-79140715D01*
X125177000Y-79069286D01*
X125212714Y-79033572D01*
X125284143Y-78997857D01*
X125355571Y-78997857D01*
X125427000Y-79033572D01*
X125462714Y-79069286D01*
X125498429Y-79140715D01*
X125498429Y-79390715D01*
X125141286Y-78319286D02*
X125141286Y-78462143D01*
X125177000Y-78533572D01*
X125212714Y-78569286D01*
X125319857Y-78640715D01*
X125462714Y-78676429D01*
X125748429Y-78676429D01*
X125819857Y-78640715D01*
X125855571Y-78605000D01*
X125891286Y-78533572D01*
X125891286Y-78390715D01*
X125855571Y-78319286D01*
X125819857Y-78283572D01*
X125748429Y-78247857D01*
X125569857Y-78247857D01*
X125498429Y-78283572D01*
X125462714Y-78319286D01*
X125427000Y-78390715D01*
X125427000Y-78533572D01*
X125462714Y-78605000D01*
X125498429Y-78640715D01*
X125569857Y-78676429D01*
X128441286Y-80140715D02*
X127691286Y-80140715D01*
X127691286Y-79855000D01*
X127727000Y-79783572D01*
X127762714Y-79747857D01*
X127834143Y-79712143D01*
X127941286Y-79712143D01*
X128012714Y-79747857D01*
X128048429Y-79783572D01*
X128084143Y-79855000D01*
X128084143Y-80140715D01*
X128048429Y-79140715D02*
X128084143Y-79033572D01*
X128119857Y-78997857D01*
X128191286Y-78962143D01*
X128298429Y-78962143D01*
X128369857Y-78997857D01*
X128405571Y-79033572D01*
X128441286Y-79105000D01*
X128441286Y-79390715D01*
X127691286Y-79390715D01*
X127691286Y-79140715D01*
X127727000Y-79069286D01*
X127762714Y-79033572D01*
X127834143Y-78997857D01*
X127905571Y-78997857D01*
X127977000Y-79033572D01*
X128012714Y-79069286D01*
X128048429Y-79140715D01*
X128048429Y-79390715D01*
X127691286Y-78283572D02*
X127691286Y-78640715D01*
X128048429Y-78676429D01*
X128012714Y-78640715D01*
X127977000Y-78569286D01*
X127977000Y-78390715D01*
X128012714Y-78319286D01*
X128048429Y-78283572D01*
X128119857Y-78247857D01*
X128298429Y-78247857D01*
X128369857Y-78283572D01*
X128405571Y-78319286D01*
X128441286Y-78390715D01*
X128441286Y-78569286D01*
X128405571Y-78640715D01*
X128369857Y-78676429D01*
X130991286Y-80140715D02*
X130241286Y-80140715D01*
X130241286Y-79855000D01*
X130277000Y-79783572D01*
X130312714Y-79747857D01*
X130384143Y-79712143D01*
X130491286Y-79712143D01*
X130562714Y-79747857D01*
X130598429Y-79783572D01*
X130634143Y-79855000D01*
X130634143Y-80140715D01*
X130598429Y-79140715D02*
X130634143Y-79033572D01*
X130669857Y-78997857D01*
X130741286Y-78962143D01*
X130848429Y-78962143D01*
X130919857Y-78997857D01*
X130955571Y-79033572D01*
X130991286Y-79105000D01*
X130991286Y-79390715D01*
X130241286Y-79390715D01*
X130241286Y-79140715D01*
X130277000Y-79069286D01*
X130312714Y-79033572D01*
X130384143Y-78997857D01*
X130455571Y-78997857D01*
X130527000Y-79033572D01*
X130562714Y-79069286D01*
X130598429Y-79140715D01*
X130598429Y-79390715D01*
X130491286Y-78319286D02*
X130991286Y-78319286D01*
X130205571Y-78497857D02*
X130741286Y-78676429D01*
X130741286Y-78212143D01*
X133541286Y-80140715D02*
X132791286Y-80140715D01*
X132791286Y-79855000D01*
X132827000Y-79783572D01*
X132862714Y-79747857D01*
X132934143Y-79712143D01*
X133041286Y-79712143D01*
X133112714Y-79747857D01*
X133148429Y-79783572D01*
X133184143Y-79855000D01*
X133184143Y-80140715D01*
X133148429Y-79140715D02*
X133184143Y-79033572D01*
X133219857Y-78997857D01*
X133291286Y-78962143D01*
X133398429Y-78962143D01*
X133469857Y-78997857D01*
X133505571Y-79033572D01*
X133541286Y-79105000D01*
X133541286Y-79390715D01*
X132791286Y-79390715D01*
X132791286Y-79140715D01*
X132827000Y-79069286D01*
X132862714Y-79033572D01*
X132934143Y-78997857D01*
X133005571Y-78997857D01*
X133077000Y-79033572D01*
X133112714Y-79069286D01*
X133148429Y-79140715D01*
X133148429Y-79390715D01*
X132791286Y-78712143D02*
X132791286Y-78247857D01*
X133077000Y-78497857D01*
X133077000Y-78390715D01*
X133112714Y-78319286D01*
X133148429Y-78283572D01*
X133219857Y-78247857D01*
X133398429Y-78247857D01*
X133469857Y-78283572D01*
X133505571Y-78319286D01*
X133541286Y-78390715D01*
X133541286Y-78605000D01*
X133505571Y-78676429D01*
X133469857Y-78712143D01*
X136091286Y-80140715D02*
X135341286Y-80140715D01*
X135341286Y-79855000D01*
X135377000Y-79783572D01*
X135412714Y-79747857D01*
X135484143Y-79712143D01*
X135591286Y-79712143D01*
X135662714Y-79747857D01*
X135698429Y-79783572D01*
X135734143Y-79855000D01*
X135734143Y-80140715D01*
X135698429Y-79140715D02*
X135734143Y-79033572D01*
X135769857Y-78997857D01*
X135841286Y-78962143D01*
X135948429Y-78962143D01*
X136019857Y-78997857D01*
X136055571Y-79033572D01*
X136091286Y-79105000D01*
X136091286Y-79390715D01*
X135341286Y-79390715D01*
X135341286Y-79140715D01*
X135377000Y-79069286D01*
X135412714Y-79033572D01*
X135484143Y-78997857D01*
X135555571Y-78997857D01*
X135627000Y-79033572D01*
X135662714Y-79069286D01*
X135698429Y-79140715D01*
X135698429Y-79390715D01*
X135412714Y-78676429D02*
X135377000Y-78640715D01*
X135341286Y-78569286D01*
X135341286Y-78390715D01*
X135377000Y-78319286D01*
X135412714Y-78283572D01*
X135484143Y-78247857D01*
X135555571Y-78247857D01*
X135662714Y-78283572D01*
X136091286Y-78712143D01*
X136091286Y-78247857D01*
X107293786Y-93591071D02*
X108043786Y-93341071D01*
X107293786Y-93091071D01*
X108043786Y-92841072D02*
X107293786Y-92841072D01*
X108043786Y-92483929D02*
X107293786Y-92483929D01*
X108043786Y-92055357D01*
X107293786Y-92055357D01*
X109843786Y-93591071D02*
X110593786Y-93341071D01*
X109843786Y-93091071D01*
X110522357Y-92412500D02*
X110558071Y-92448214D01*
X110593786Y-92555357D01*
X110593786Y-92626786D01*
X110558071Y-92733929D01*
X110486643Y-92805357D01*
X110415214Y-92841072D01*
X110272357Y-92876786D01*
X110165214Y-92876786D01*
X110022357Y-92841072D01*
X109950929Y-92805357D01*
X109879500Y-92733929D01*
X109843786Y-92626786D01*
X109843786Y-92555357D01*
X109879500Y-92448214D01*
X109915214Y-92412500D01*
X110522357Y-91662500D02*
X110558071Y-91698214D01*
X110593786Y-91805357D01*
X110593786Y-91876786D01*
X110558071Y-91983929D01*
X110486643Y-92055357D01*
X110415214Y-92091072D01*
X110272357Y-92126786D01*
X110165214Y-92126786D01*
X110022357Y-92091072D01*
X109950929Y-92055357D01*
X109879500Y-91983929D01*
X109843786Y-91876786D01*
X109843786Y-91805357D01*
X109879500Y-91698214D01*
X109915214Y-91662500D01*
X113143786Y-93483929D02*
X112393786Y-93483929D01*
X112393786Y-93198214D01*
X112429500Y-93126786D01*
X112465214Y-93091071D01*
X112536643Y-93055357D01*
X112643786Y-93055357D01*
X112715214Y-93091071D01*
X112750929Y-93126786D01*
X112786643Y-93198214D01*
X112786643Y-93483929D01*
X113072357Y-92305357D02*
X113108071Y-92341071D01*
X113143786Y-92448214D01*
X113143786Y-92519643D01*
X113108071Y-92626786D01*
X113036643Y-92698214D01*
X112965214Y-92733929D01*
X112822357Y-92769643D01*
X112715214Y-92769643D01*
X112572357Y-92733929D01*
X112500929Y-92698214D01*
X112429500Y-92626786D01*
X112393786Y-92519643D01*
X112393786Y-92448214D01*
X112429500Y-92341071D01*
X112465214Y-92305357D01*
X112465214Y-92019643D02*
X112429500Y-91983929D01*
X112393786Y-91912500D01*
X112393786Y-91733929D01*
X112429500Y-91662500D01*
X112465214Y-91626786D01*
X112536643Y-91591071D01*
X112608071Y-91591071D01*
X112715214Y-91626786D01*
X113143786Y-92055357D01*
X113143786Y-91591071D01*
X115693786Y-93483929D02*
X114943786Y-93483929D01*
X114943786Y-93198214D01*
X114979500Y-93126786D01*
X115015214Y-93091071D01*
X115086643Y-93055357D01*
X115193786Y-93055357D01*
X115265214Y-93091071D01*
X115300929Y-93126786D01*
X115336643Y-93198214D01*
X115336643Y-93483929D01*
X115693786Y-92733929D02*
X114943786Y-92733929D01*
X114943786Y-92555357D01*
X114979500Y-92448214D01*
X115050929Y-92376786D01*
X115122357Y-92341071D01*
X115265214Y-92305357D01*
X115372357Y-92305357D01*
X115515214Y-92341071D01*
X115586643Y-92376786D01*
X115658071Y-92448214D01*
X115693786Y-92555357D01*
X115693786Y-92733929D01*
X114943786Y-91841071D02*
X114943786Y-91769643D01*
X114979500Y-91698214D01*
X115015214Y-91662500D01*
X115086643Y-91626786D01*
X115229500Y-91591071D01*
X115408071Y-91591071D01*
X115550929Y-91626786D01*
X115622357Y-91662500D01*
X115658071Y-91698214D01*
X115693786Y-91769643D01*
X115693786Y-91841071D01*
X115658071Y-91912500D01*
X115622357Y-91948214D01*
X115550929Y-91983929D01*
X115408071Y-92019643D01*
X115229500Y-92019643D01*
X115086643Y-91983929D01*
X115015214Y-91948214D01*
X114979500Y-91912500D01*
X114943786Y-91841071D01*
X118243786Y-93483929D02*
X117493786Y-93483929D01*
X117493786Y-93198214D01*
X117529500Y-93126786D01*
X117565214Y-93091071D01*
X117636643Y-93055357D01*
X117743786Y-93055357D01*
X117815214Y-93091071D01*
X117850929Y-93126786D01*
X117886643Y-93198214D01*
X117886643Y-93483929D01*
X118243786Y-92733929D02*
X117493786Y-92733929D01*
X117493786Y-92555357D01*
X117529500Y-92448214D01*
X117600929Y-92376786D01*
X117672357Y-92341071D01*
X117815214Y-92305357D01*
X117922357Y-92305357D01*
X118065214Y-92341071D01*
X118136643Y-92376786D01*
X118208071Y-92448214D01*
X118243786Y-92555357D01*
X118243786Y-92733929D01*
X118243786Y-91591071D02*
X118243786Y-92019643D01*
X118243786Y-91805357D02*
X117493786Y-91805357D01*
X117600929Y-91876786D01*
X117672357Y-91948214D01*
X117708071Y-92019643D01*
X120793786Y-93483929D02*
X120043786Y-93483929D01*
X120043786Y-93198214D01*
X120079500Y-93126786D01*
X120115214Y-93091071D01*
X120186643Y-93055357D01*
X120293786Y-93055357D01*
X120365214Y-93091071D01*
X120400929Y-93126786D01*
X120436643Y-93198214D01*
X120436643Y-93483929D01*
X120793786Y-92733929D02*
X120043786Y-92733929D01*
X120043786Y-92555357D01*
X120079500Y-92448214D01*
X120150929Y-92376786D01*
X120222357Y-92341071D01*
X120365214Y-92305357D01*
X120472357Y-92305357D01*
X120615214Y-92341071D01*
X120686643Y-92376786D01*
X120758071Y-92448214D01*
X120793786Y-92555357D01*
X120793786Y-92733929D01*
X120115214Y-92019643D02*
X120079500Y-91983929D01*
X120043786Y-91912500D01*
X120043786Y-91733929D01*
X120079500Y-91662500D01*
X120115214Y-91626786D01*
X120186643Y-91591071D01*
X120258071Y-91591071D01*
X120365214Y-91626786D01*
X120793786Y-92055357D01*
X120793786Y-91591071D01*
X123343786Y-93483929D02*
X122593786Y-93483929D01*
X122593786Y-93198214D01*
X122629500Y-93126786D01*
X122665214Y-93091071D01*
X122736643Y-93055357D01*
X122843786Y-93055357D01*
X122915214Y-93091071D01*
X122950929Y-93126786D01*
X122986643Y-93198214D01*
X122986643Y-93483929D01*
X123343786Y-92733929D02*
X122593786Y-92733929D01*
X122593786Y-92555357D01*
X122629500Y-92448214D01*
X122700929Y-92376786D01*
X122772357Y-92341071D01*
X122915214Y-92305357D01*
X123022357Y-92305357D01*
X123165214Y-92341071D01*
X123236643Y-92376786D01*
X123308071Y-92448214D01*
X123343786Y-92555357D01*
X123343786Y-92733929D01*
X122593786Y-92055357D02*
X122593786Y-91591071D01*
X122879500Y-91841071D01*
X122879500Y-91733929D01*
X122915214Y-91662500D01*
X122950929Y-91626786D01*
X123022357Y-91591071D01*
X123200929Y-91591071D01*
X123272357Y-91626786D01*
X123308071Y-91662500D01*
X123343786Y-91733929D01*
X123343786Y-91948214D01*
X123308071Y-92019643D01*
X123272357Y-92055357D01*
X125893786Y-93483929D02*
X125143786Y-93483929D01*
X125143786Y-93198214D01*
X125179500Y-93126786D01*
X125215214Y-93091071D01*
X125286643Y-93055357D01*
X125393786Y-93055357D01*
X125465214Y-93091071D01*
X125500929Y-93126786D01*
X125536643Y-93198214D01*
X125536643Y-93483929D01*
X125893786Y-92733929D02*
X125143786Y-92733929D01*
X125143786Y-92555357D01*
X125179500Y-92448214D01*
X125250929Y-92376786D01*
X125322357Y-92341071D01*
X125465214Y-92305357D01*
X125572357Y-92305357D01*
X125715214Y-92341071D01*
X125786643Y-92376786D01*
X125858071Y-92448214D01*
X125893786Y-92555357D01*
X125893786Y-92733929D01*
X125393786Y-91662500D02*
X125893786Y-91662500D01*
X125108071Y-91841071D02*
X125643786Y-92019643D01*
X125643786Y-91555357D01*
X128443786Y-93483929D02*
X127693786Y-93483929D01*
X127693786Y-93198214D01*
X127729500Y-93126786D01*
X127765214Y-93091071D01*
X127836643Y-93055357D01*
X127943786Y-93055357D01*
X128015214Y-93091071D01*
X128050929Y-93126786D01*
X128086643Y-93198214D01*
X128086643Y-93483929D01*
X128443786Y-92733929D02*
X127693786Y-92733929D01*
X127693786Y-92555357D01*
X127729500Y-92448214D01*
X127800929Y-92376786D01*
X127872357Y-92341071D01*
X128015214Y-92305357D01*
X128122357Y-92305357D01*
X128265214Y-92341071D01*
X128336643Y-92376786D01*
X128408071Y-92448214D01*
X128443786Y-92555357D01*
X128443786Y-92733929D01*
X127693786Y-91626786D02*
X127693786Y-91983929D01*
X128050929Y-92019643D01*
X128015214Y-91983929D01*
X127979500Y-91912500D01*
X127979500Y-91733929D01*
X128015214Y-91662500D01*
X128050929Y-91626786D01*
X128122357Y-91591071D01*
X128300929Y-91591071D01*
X128372357Y-91626786D01*
X128408071Y-91662500D01*
X128443786Y-91733929D01*
X128443786Y-91912500D01*
X128408071Y-91983929D01*
X128372357Y-92019643D01*
X130993786Y-93483929D02*
X130243786Y-93483929D01*
X130243786Y-93198214D01*
X130279500Y-93126786D01*
X130315214Y-93091071D01*
X130386643Y-93055357D01*
X130493786Y-93055357D01*
X130565214Y-93091071D01*
X130600929Y-93126786D01*
X130636643Y-93198214D01*
X130636643Y-93483929D01*
X130993786Y-92733929D02*
X130243786Y-92733929D01*
X130243786Y-92555357D01*
X130279500Y-92448214D01*
X130350929Y-92376786D01*
X130422357Y-92341071D01*
X130565214Y-92305357D01*
X130672357Y-92305357D01*
X130815214Y-92341071D01*
X130886643Y-92376786D01*
X130958071Y-92448214D01*
X130993786Y-92555357D01*
X130993786Y-92733929D01*
X130243786Y-91662500D02*
X130243786Y-91805357D01*
X130279500Y-91876786D01*
X130315214Y-91912500D01*
X130422357Y-91983929D01*
X130565214Y-92019643D01*
X130850929Y-92019643D01*
X130922357Y-91983929D01*
X130958071Y-91948214D01*
X130993786Y-91876786D01*
X130993786Y-91733929D01*
X130958071Y-91662500D01*
X130922357Y-91626786D01*
X130850929Y-91591071D01*
X130672357Y-91591071D01*
X130600929Y-91626786D01*
X130565214Y-91662500D01*
X130529500Y-91733929D01*
X130529500Y-91876786D01*
X130565214Y-91948214D01*
X130600929Y-91983929D01*
X130672357Y-92019643D01*
X133543786Y-93483929D02*
X132793786Y-93483929D01*
X132793786Y-93198214D01*
X132829500Y-93126786D01*
X132865214Y-93091071D01*
X132936643Y-93055357D01*
X133043786Y-93055357D01*
X133115214Y-93091071D01*
X133150929Y-93126786D01*
X133186643Y-93198214D01*
X133186643Y-93483929D01*
X133150929Y-92483929D02*
X133186643Y-92376786D01*
X133222357Y-92341071D01*
X133293786Y-92305357D01*
X133400929Y-92305357D01*
X133472357Y-92341071D01*
X133508071Y-92376786D01*
X133543786Y-92448214D01*
X133543786Y-92733929D01*
X132793786Y-92733929D01*
X132793786Y-92483929D01*
X132829500Y-92412500D01*
X132865214Y-92376786D01*
X132936643Y-92341071D01*
X133008071Y-92341071D01*
X133079500Y-92376786D01*
X133115214Y-92412500D01*
X133150929Y-92483929D01*
X133150929Y-92733929D01*
X132793786Y-91841071D02*
X132793786Y-91769643D01*
X132829500Y-91698214D01*
X132865214Y-91662500D01*
X132936643Y-91626786D01*
X133079500Y-91591071D01*
X133258071Y-91591071D01*
X133400929Y-91626786D01*
X133472357Y-91662500D01*
X133508071Y-91698214D01*
X133543786Y-91769643D01*
X133543786Y-91841071D01*
X133508071Y-91912500D01*
X133472357Y-91948214D01*
X133400929Y-91983929D01*
X133258071Y-92019643D01*
X133079500Y-92019643D01*
X132936643Y-91983929D01*
X132865214Y-91948214D01*
X132829500Y-91912500D01*
X132793786Y-91841071D01*
X136093786Y-93483929D02*
X135343786Y-93483929D01*
X135343786Y-93198214D01*
X135379500Y-93126786D01*
X135415214Y-93091071D01*
X135486643Y-93055357D01*
X135593786Y-93055357D01*
X135665214Y-93091071D01*
X135700929Y-93126786D01*
X135736643Y-93198214D01*
X135736643Y-93483929D01*
X135700929Y-92483929D02*
X135736643Y-92376786D01*
X135772357Y-92341071D01*
X135843786Y-92305357D01*
X135950929Y-92305357D01*
X136022357Y-92341071D01*
X136058071Y-92376786D01*
X136093786Y-92448214D01*
X136093786Y-92733929D01*
X135343786Y-92733929D01*
X135343786Y-92483929D01*
X135379500Y-92412500D01*
X135415214Y-92376786D01*
X135486643Y-92341071D01*
X135558071Y-92341071D01*
X135629500Y-92376786D01*
X135665214Y-92412500D01*
X135700929Y-92483929D01*
X135700929Y-92733929D01*
X136093786Y-91591071D02*
X136093786Y-92019643D01*
X136093786Y-91805357D02*
X135343786Y-91805357D01*
X135450929Y-91876786D01*
X135522357Y-91948214D01*
X135558071Y-92019643D01*
X115283500Y-87982500D02*
X115983500Y-87982500D01*
X115983500Y-89182500D02*
X115283500Y-89182500D01*
X122817000Y-84351500D02*
X123817000Y-84351500D01*
X123817000Y-85701500D02*
X122817000Y-85701500D01*
X122817000Y-86066000D02*
X123817000Y-86066000D01*
X123817000Y-87416000D02*
X122817000Y-87416000D01*
X115995500Y-83848500D02*
X115295500Y-83848500D01*
X115295500Y-82648500D02*
X115995500Y-82648500D01*
X119972000Y-82261000D02*
X119272000Y-82261000D01*
X119272000Y-81061000D02*
X119972000Y-81061000D01*
X120047500Y-90770000D02*
X119347500Y-90770000D01*
X119347500Y-89570000D02*
X120047500Y-89570000D01*
X110980000Y-81888500D02*
X110980000Y-89688500D01*
X110980000Y-89688500D02*
X105980000Y-89688500D01*
X105980000Y-89688500D02*
X105980000Y-88888500D01*
X105980000Y-88888500D02*
X105580000Y-88888500D01*
X105580000Y-88888500D02*
G75*
G02X105380000Y-88688500I0J200000D01*
G01*
X105380000Y-88688500D02*
X105380000Y-82888500D01*
X105380000Y-82888500D02*
G75*
G02X105580000Y-82688500I200000J0D01*
G01*
X105580000Y-82688500D02*
X105980000Y-82688500D01*
X105980000Y-82688500D02*
X105980000Y-82188500D01*
X105980000Y-82188500D02*
X105980000Y-81888500D01*
X105980000Y-81888500D02*
X110980000Y-81888500D01*
X105480000Y-88688500D02*
X105480000Y-82888500D01*
X105479966Y-82888220D02*
G75*
G02X105580000Y-82688500I200034J24720D01*
G01*
X105579895Y-88888421D02*
G75*
G02X105480000Y-88688500I150105J199921D01*
G01*
D10*
X106680000Y-89638500D02*
X106680000Y-81938500D01*
D11*
X105480000Y-81538500D02*
X105330000Y-81738500D01*
X105330000Y-81738500D02*
X105809800Y-82131100D01*
X105809804Y-82131104D02*
G75*
G03X105970700Y-82188500I160820J196604D01*
G01*
X105970700Y-82188500D02*
X105980000Y-82188500D01*
X105480000Y-81538500D02*
X105890500Y-81857800D01*
X105890691Y-81857949D02*
G75*
G03X105980000Y-81888500I89271J115149D01*
G01*
X105480000Y-90038500D02*
X105330000Y-89838500D01*
X105330000Y-89838500D02*
X105809800Y-89445900D01*
X105809804Y-89445896D02*
G75*
G02X105970700Y-89388500I160820J-196604D01*
G01*
X105970700Y-89388500D02*
X105980000Y-89388500D01*
X105480000Y-90038500D02*
X105890500Y-89719200D01*
X105890545Y-89719165D02*
G75*
G02X105980000Y-89688500I89383J-114935D01*
G01*
X117934000Y-88533500D02*
X118234000Y-88533500D01*
X117934000Y-83333500D02*
X118234000Y-83333500D01*
X121334000Y-83333500D02*
X121034000Y-83333500D01*
X121334000Y-88533500D02*
X121034000Y-88533500D01*
X121334000Y-83333500D02*
X121334000Y-88533500D01*
X117934000Y-83333500D02*
X117934000Y-88533500D01*
X124931249Y-88596223D02*
X125426223Y-88101249D01*
X126274751Y-88949777D02*
X125779777Y-89444751D01*
X128883320Y-82197422D02*
X129254551Y-82568653D01*
X128883320Y-89622044D02*
X128512089Y-89250813D01*
X132595631Y-85909733D02*
X132224400Y-85538502D01*
X125171009Y-85909733D02*
X125542240Y-85538502D01*
X128883320Y-89622044D02*
X129254551Y-89250813D01*
X132595631Y-85909733D02*
X132224400Y-86280964D01*
X128883320Y-82197422D02*
X128512089Y-82568653D01*
X124994749Y-82246223D02*
X125489723Y-81751249D01*
X126338251Y-82599777D02*
X125843277Y-83094751D01*
X133878000Y-84376000D02*
X133878000Y-87376000D01*
X136378000Y-84376000D02*
X136378000Y-87376000D01*
D12*
X116377500Y-87493000D02*
X116377500Y-86563000D01*
X116377500Y-84333000D02*
X116377500Y-85263000D01*
X116377500Y-84333000D02*
X114217500Y-84333000D01*
X116377500Y-87493000D02*
X114917500Y-87493000D01*
M02*
