M48
;DRILL file {KiCad 4.0.5+dfsg1-4} date Sun Oct 15 17:49:39 2017
;FORMAT={-:-/ absolute / inch / decimal}
FMAT,2
INCH,TZ
T1C0.016
T2C0.039
%
G90
G05
M72
T1
X6.15Y-4.55
X6.2Y-4.45
X6.2Y-4.55
X6.235Y-4.435
X6.25Y-4.535
X6.275Y-4.205
X6.275Y-4.25
X6.275Y-4.295
X6.275Y-4.34
X6.275Y-4.43
X6.31Y-4.535
X6.3311Y-3.9185
X6.3311Y-3.9844
X6.345Y-3.82
X6.365Y-4.16
X6.365Y-4.205
X6.365Y-4.25
X6.365Y-4.295
X6.365Y-4.34
X6.365Y-4.385
X6.365Y-4.43
X6.365Y-4.475
X6.365Y-4.555
X6.397Y-3.9185
X6.397Y-3.9844
X6.455Y-4.25
X6.455Y-4.295
X6.455Y-4.34
X6.455Y-4.475
X6.46Y-3.8234
X6.46Y-3.855
X6.5066Y-3.8236
T2
X6.145Y-4.315
X6.635Y-3.84
X6.635Y-3.94
X6.635Y-4.04
X6.635Y-4.14
X6.635Y-4.24
X6.635Y-4.34
X6.635Y-4.44
X6.635Y-4.54
T0
M30
