G04 #@! TF.FileFunction,Legend,Bot*
%FSLAX46Y46*%
G04 Gerber Fmt 4.6, Leading zero omitted, Abs format (unit mm)*
G04 Created by KiCad (PCBNEW 4.0.5+dfsg1-4) date Sun Oct 15 17:49:37 2017*
%MOMM*%
%LPD*%
G01*
G04 APERTURE LIST*
%ADD10C,0.100000*%
%ADD11C,0.150000*%
%ADD12C,0.300000*%
%ADD13C,0.120000*%
%ADD14C,0.010000*%
G04 APERTURE END LIST*
D10*
D11*
X166540571Y-98912607D02*
X165040571Y-99100107D01*
X165040571Y-99457250D01*
X165112000Y-99662606D01*
X165254857Y-99787607D01*
X165397714Y-99841178D01*
X165683429Y-99876892D01*
X165897714Y-99850107D01*
X166183429Y-99742963D01*
X166326286Y-99653678D01*
X166469143Y-99492963D01*
X166540571Y-99269750D01*
X166540571Y-98912607D01*
X165754857Y-100510821D02*
X165754857Y-101010821D01*
X166540571Y-101126893D02*
X166540571Y-100412607D01*
X165040571Y-100600107D01*
X165040571Y-101314393D01*
X165040571Y-101742964D02*
X166540571Y-102055464D01*
X165040571Y-102742964D01*
X165754857Y-103153678D02*
X165754857Y-103653678D01*
X166540571Y-103769750D02*
X166540571Y-103055464D01*
X165040571Y-103242964D01*
X165040571Y-103957250D01*
X166540571Y-105126893D02*
X166540571Y-104412607D01*
X165040571Y-104600107D01*
X165040571Y-106100107D02*
X165040571Y-106385821D01*
X165112000Y-106519750D01*
X165254857Y-106644750D01*
X165540571Y-106680464D01*
X166040571Y-106617964D01*
X166326286Y-106510821D01*
X166469143Y-106350107D01*
X166540571Y-106198321D01*
X166540571Y-105912607D01*
X166469143Y-105778678D01*
X166326286Y-105653678D01*
X166040571Y-105617964D01*
X165540571Y-105680464D01*
X165254857Y-105787607D01*
X165112000Y-105948321D01*
X165040571Y-106100107D01*
X166540571Y-107198322D02*
X165040571Y-107385822D01*
X165040571Y-107957250D01*
X165112000Y-108091179D01*
X165183429Y-108153678D01*
X165326286Y-108207250D01*
X165540571Y-108180465D01*
X165683429Y-108091178D01*
X165754857Y-108010822D01*
X165826286Y-107859035D01*
X165826286Y-107287607D01*
X166540571Y-108698322D02*
X165040571Y-108885822D01*
X166112000Y-109251893D01*
X165040571Y-109885822D01*
X166540571Y-109698322D01*
X165754857Y-110510822D02*
X165754857Y-111010822D01*
X166540571Y-111126894D02*
X166540571Y-110412608D01*
X165040571Y-110600108D01*
X165040571Y-111314394D01*
X166540571Y-111769751D02*
X165040571Y-111957251D01*
X166540571Y-112626894D01*
X165040571Y-112814394D01*
X165040571Y-113314394D02*
X165040571Y-114171537D01*
X166540571Y-113555466D02*
X165040571Y-113742966D01*
D12*
X163699000Y-102497430D02*
X163699000Y-103211716D01*
X164127571Y-102354573D02*
X162627571Y-102854573D01*
X164127571Y-103354573D01*
X162627571Y-103711716D02*
X164127571Y-104711716D01*
X162627571Y-104711716D02*
X164127571Y-103711716D01*
X162627571Y-105997430D02*
X162627571Y-105283144D01*
X163341857Y-105211715D01*
X163270429Y-105283144D01*
X163199000Y-105426001D01*
X163199000Y-105783144D01*
X163270429Y-105926001D01*
X163341857Y-105997430D01*
X163484714Y-106068858D01*
X163841857Y-106068858D01*
X163984714Y-105997430D01*
X164056143Y-105926001D01*
X164127571Y-105783144D01*
X164127571Y-105426001D01*
X164056143Y-105283144D01*
X163984714Y-105211715D01*
X162627571Y-106997429D02*
X162627571Y-107140286D01*
X162699000Y-107283143D01*
X162770429Y-107354572D01*
X162913286Y-107426001D01*
X163199000Y-107497429D01*
X163556143Y-107497429D01*
X163841857Y-107426001D01*
X163984714Y-107354572D01*
X164056143Y-107283143D01*
X164127571Y-107140286D01*
X164127571Y-106997429D01*
X164056143Y-106854572D01*
X163984714Y-106783143D01*
X163841857Y-106711715D01*
X163556143Y-106640286D01*
X163199000Y-106640286D01*
X162913286Y-106711715D01*
X162770429Y-106783143D01*
X162699000Y-106854572D01*
X162627571Y-106997429D01*
X163127571Y-108783143D02*
X164127571Y-108783143D01*
X162556143Y-108426000D02*
X163627571Y-108068857D01*
X163627571Y-108997429D01*
X162627571Y-109426000D02*
X162627571Y-110354571D01*
X163199000Y-109854571D01*
X163199000Y-110068857D01*
X163270429Y-110211714D01*
X163341857Y-110283143D01*
X163484714Y-110354571D01*
X163841857Y-110354571D01*
X163984714Y-110283143D01*
X164056143Y-110211714D01*
X164127571Y-110068857D01*
X164127571Y-109640285D01*
X164056143Y-109497428D01*
X163984714Y-109426000D01*
D13*
X169859000Y-116646000D02*
X167199000Y-116646000D01*
X169859000Y-98806000D02*
X169859000Y-116646000D01*
X167199000Y-98806000D02*
X167199000Y-116646000D01*
X169859000Y-98806000D02*
X167199000Y-98806000D01*
X169859000Y-97536000D02*
X169859000Y-96206000D01*
X169859000Y-96206000D02*
X168529000Y-96206000D01*
D14*
G36*
X154690884Y-104524834D02*
X154691902Y-104609933D01*
X154693582Y-104685419D01*
X154695870Y-104749318D01*
X154698714Y-104799652D01*
X154701012Y-104825800D01*
X154708242Y-104889547D01*
X154716096Y-104954682D01*
X154724258Y-105018953D01*
X154732412Y-105080109D01*
X154740240Y-105135899D01*
X154747426Y-105184074D01*
X154753653Y-105222381D01*
X154758605Y-105248569D01*
X154761965Y-105260389D01*
X154762179Y-105260671D01*
X154770144Y-105257274D01*
X154788698Y-105243641D01*
X154816201Y-105221249D01*
X154851014Y-105191575D01*
X154891498Y-105156097D01*
X154936014Y-105116294D01*
X154982921Y-105073641D01*
X155030583Y-105029618D01*
X155077358Y-104985702D01*
X155121608Y-104943370D01*
X155161694Y-104904101D01*
X155194145Y-104871266D01*
X155295928Y-104763253D01*
X155392274Y-104654912D01*
X155484875Y-104544016D01*
X155575426Y-104428336D01*
X155665620Y-104305645D01*
X155757151Y-104173715D01*
X155851713Y-104030319D01*
X155942196Y-103887392D01*
X156045672Y-103717498D01*
X156138385Y-103557000D01*
X156221467Y-103403244D01*
X156296056Y-103253579D01*
X156363284Y-103105353D01*
X156424288Y-102955912D01*
X156480203Y-102802606D01*
X156532162Y-102642782D01*
X156581302Y-102473786D01*
X156628756Y-102292968D01*
X156634748Y-102268908D01*
X156649108Y-102211513D01*
X156662490Y-102159120D01*
X156674261Y-102114119D01*
X156683791Y-102078899D01*
X156690447Y-102055849D01*
X156693261Y-102047806D01*
X156699914Y-102037951D01*
X156715505Y-102016270D01*
X156738784Y-101984462D01*
X156768496Y-101944224D01*
X156803391Y-101897254D01*
X156842217Y-101845249D01*
X156869371Y-101809013D01*
X156918156Y-101743296D01*
X156970733Y-101671225D01*
X157024318Y-101596704D01*
X157076124Y-101523636D01*
X157123365Y-101455925D01*
X157163255Y-101397473D01*
X157165585Y-101394001D01*
X157292817Y-101204154D01*
X157388525Y-101198920D01*
X157429104Y-101196722D01*
X157481617Y-101193906D01*
X157541086Y-101190739D01*
X157602536Y-101187486D01*
X157649333Y-101185022D01*
X157712186Y-101181632D01*
X157780194Y-101177811D01*
X157847350Y-101173907D01*
X157907650Y-101170265D01*
X157941433Y-101168132D01*
X157990750Y-101165114D01*
X158051793Y-101161649D01*
X158119366Y-101158018D01*
X158188278Y-101154498D01*
X158253335Y-101151369D01*
X158254699Y-101151306D01*
X158336812Y-101147357D01*
X158432088Y-101142509D01*
X158536794Y-101136966D01*
X158647197Y-101130935D01*
X158759563Y-101124620D01*
X158870159Y-101118228D01*
X158975252Y-101111963D01*
X159024775Y-101108929D01*
X159069159Y-101106390D01*
X159107165Y-101104607D01*
X159135775Y-101103692D01*
X159151974Y-101103756D01*
X159154462Y-101104173D01*
X159154496Y-101113173D01*
X159152632Y-101136114D01*
X159149153Y-101170144D01*
X159144345Y-101212414D01*
X159140305Y-101245675D01*
X159133429Y-101301846D01*
X159126359Y-101361203D01*
X159119796Y-101417770D01*
X159114440Y-101465570D01*
X159113005Y-101478885D01*
X159108457Y-101517800D01*
X159103825Y-101550793D01*
X159099697Y-101574028D01*
X159097018Y-101583252D01*
X159086884Y-101587140D01*
X159060481Y-101592876D01*
X159018362Y-101600380D01*
X158961081Y-101609568D01*
X158889190Y-101620359D01*
X158803243Y-101632670D01*
X158703794Y-101646419D01*
X158591396Y-101661524D01*
X158466602Y-101677903D01*
X158411333Y-101685052D01*
X158360168Y-101691699D01*
X158295111Y-101700242D01*
X158219050Y-101710296D01*
X158134874Y-101721477D01*
X158045470Y-101733402D01*
X157953725Y-101745685D01*
X157862528Y-101757943D01*
X157810200Y-101765001D01*
X157681576Y-101782338D01*
X157559355Y-101798740D01*
X157444753Y-101814046D01*
X157338990Y-101828097D01*
X157243282Y-101840731D01*
X157158848Y-101851789D01*
X157086906Y-101861109D01*
X157028673Y-101868532D01*
X156985368Y-101873896D01*
X156969211Y-101875812D01*
X156942176Y-101880377D01*
X156922897Y-101886335D01*
X156916514Y-101891042D01*
X156915110Y-101901789D01*
X156912901Y-101927067D01*
X156910061Y-101964506D01*
X156906762Y-102011731D01*
X156903178Y-102066371D01*
X156900061Y-102116466D01*
X156895858Y-102185841D01*
X156891112Y-102264460D01*
X156885952Y-102350156D01*
X156880509Y-102440764D01*
X156874911Y-102534118D01*
X156869288Y-102628051D01*
X156863770Y-102720398D01*
X156858485Y-102808992D01*
X156853564Y-102891667D01*
X156849135Y-102966256D01*
X156845329Y-103030595D01*
X156842274Y-103082516D01*
X156840100Y-103119854D01*
X156839983Y-103121883D01*
X156838037Y-103168654D01*
X156838432Y-103200063D01*
X156841148Y-103215528D01*
X156843067Y-103217133D01*
X156854298Y-103216003D01*
X156879662Y-103212824D01*
X156916900Y-103207913D01*
X156963757Y-103201587D01*
X157017975Y-103194162D01*
X157077297Y-103185956D01*
X157139466Y-103177285D01*
X157202225Y-103168466D01*
X157263317Y-103159816D01*
X157320485Y-103151651D01*
X157371473Y-103144289D01*
X157414022Y-103138046D01*
X157445876Y-103133239D01*
X157464779Y-103130185D01*
X157469093Y-103129262D01*
X157470214Y-103120461D01*
X157472145Y-103096708D01*
X157474756Y-103059959D01*
X157477916Y-103012169D01*
X157481496Y-102955293D01*
X157485365Y-102891287D01*
X157488596Y-102836003D01*
X157492651Y-102767597D01*
X157496602Y-102704676D01*
X157500309Y-102649211D01*
X157503630Y-102603170D01*
X157506426Y-102568523D01*
X157508555Y-102547241D01*
X157509682Y-102541161D01*
X157517285Y-102543495D01*
X157525151Y-102551995D01*
X157529860Y-102557281D01*
X157536554Y-102560679D01*
X157547674Y-102562091D01*
X157565664Y-102561422D01*
X157592968Y-102558575D01*
X157632027Y-102553454D01*
X157685287Y-102545962D01*
X157688046Y-102545569D01*
X157740562Y-102538132D01*
X157790695Y-102531110D01*
X157834639Y-102525032D01*
X157868586Y-102520423D01*
X157885613Y-102518197D01*
X157931394Y-102512445D01*
X157925033Y-102638305D01*
X157922047Y-102697583D01*
X157918647Y-102765326D01*
X157915258Y-102833087D01*
X157912364Y-102891166D01*
X157910476Y-102935912D01*
X157909478Y-102974549D01*
X157909401Y-103003977D01*
X157910276Y-103021092D01*
X157911044Y-103024026D01*
X157920774Y-103024902D01*
X157944932Y-103023643D01*
X157981189Y-103020541D01*
X158027216Y-103015892D01*
X158080683Y-103009989D01*
X158139261Y-103003125D01*
X158200621Y-102995596D01*
X158262432Y-102987694D01*
X158322365Y-102979714D01*
X158378092Y-102971949D01*
X158427282Y-102964695D01*
X158467606Y-102958243D01*
X158496735Y-102952889D01*
X158512339Y-102948927D01*
X158514173Y-102947924D01*
X158516204Y-102938076D01*
X158518803Y-102913829D01*
X158521771Y-102877700D01*
X158524911Y-102832206D01*
X158528025Y-102779864D01*
X158529315Y-102755699D01*
X158532462Y-102696115D01*
X158535689Y-102637549D01*
X158538777Y-102583765D01*
X158541511Y-102538525D01*
X158543672Y-102505595D01*
X158544055Y-102500301D01*
X158549187Y-102431169D01*
X158575510Y-102426367D01*
X158601058Y-102422165D01*
X158637763Y-102416747D01*
X158683056Y-102410437D01*
X158734371Y-102403556D01*
X158789140Y-102396425D01*
X158844796Y-102389367D01*
X158898771Y-102382703D01*
X158948499Y-102376755D01*
X158991411Y-102371845D01*
X159024941Y-102368296D01*
X159046520Y-102366428D01*
X159053587Y-102366431D01*
X159054054Y-102375494D01*
X159053523Y-102399077D01*
X159052134Y-102434803D01*
X159050025Y-102480297D01*
X159047335Y-102533182D01*
X159044202Y-102591084D01*
X159040764Y-102651626D01*
X159037160Y-102712433D01*
X159033528Y-102771128D01*
X159030008Y-102825336D01*
X159026737Y-102872681D01*
X159023854Y-102910788D01*
X159021497Y-102937280D01*
X159019806Y-102949781D01*
X159019542Y-102950413D01*
X159010718Y-102952991D01*
X158987611Y-102958540D01*
X158952511Y-102966545D01*
X158907704Y-102976490D01*
X158855480Y-102987858D01*
X158813319Y-102996902D01*
X158748442Y-103010736D01*
X158671834Y-103027075D01*
X158588323Y-103044887D01*
X158502739Y-103063142D01*
X158419910Y-103080812D01*
X158356299Y-103094384D01*
X158276265Y-103111457D01*
X158186524Y-103130596D01*
X158092645Y-103150613D01*
X158000200Y-103170321D01*
X157914758Y-103188532D01*
X157861000Y-103199986D01*
X157784029Y-103216401D01*
X157698582Y-103234651D01*
X157610086Y-103253575D01*
X157523968Y-103272012D01*
X157445655Y-103288801D01*
X157403800Y-103297788D01*
X157335203Y-103312524D01*
X157262568Y-103328122D01*
X157190497Y-103343592D01*
X157123587Y-103357949D01*
X157066439Y-103370205D01*
X157043966Y-103375021D01*
X156996236Y-103385581D01*
X156953946Y-103395564D01*
X156920031Y-103404229D01*
X156897424Y-103410833D01*
X156889450Y-103414134D01*
X156887230Y-103424128D01*
X156885253Y-103449252D01*
X156883521Y-103487706D01*
X156882038Y-103537686D01*
X156880805Y-103597392D01*
X156879827Y-103665022D01*
X156879107Y-103738775D01*
X156878646Y-103816850D01*
X156878449Y-103897444D01*
X156878518Y-103978756D01*
X156878856Y-104058986D01*
X156879466Y-104136330D01*
X156880352Y-104208989D01*
X156881516Y-104275160D01*
X156882961Y-104333042D01*
X156884690Y-104380833D01*
X156886706Y-104416732D01*
X156887764Y-104429086D01*
X156900928Y-104528715D01*
X156919062Y-104613548D01*
X156942878Y-104685177D01*
X156973084Y-104745195D01*
X157010393Y-104795195D01*
X157055513Y-104836769D01*
X157076234Y-104851614D01*
X157116104Y-104875934D01*
X157155433Y-104894305D01*
X157197703Y-104907583D01*
X157246397Y-104916623D01*
X157304999Y-104922282D01*
X157376454Y-104925402D01*
X157414132Y-104926356D01*
X157448890Y-104926943D01*
X157481882Y-104926974D01*
X157514263Y-104926259D01*
X157547188Y-104924609D01*
X157581811Y-104921834D01*
X157619287Y-104917745D01*
X157660770Y-104912153D01*
X157707414Y-104904868D01*
X157760375Y-104895701D01*
X157820807Y-104884462D01*
X157889864Y-104870963D01*
X157968702Y-104855012D01*
X158058473Y-104836422D01*
X158160334Y-104815003D01*
X158275439Y-104790566D01*
X158404942Y-104762920D01*
X158529866Y-104736187D01*
X158652899Y-104709150D01*
X158761188Y-104683758D01*
X158856773Y-104659396D01*
X158941690Y-104635448D01*
X159017979Y-104611298D01*
X159087678Y-104586331D01*
X159152826Y-104559932D01*
X159215460Y-104531485D01*
X159228366Y-104525251D01*
X159326435Y-104471691D01*
X159409071Y-104413772D01*
X159477489Y-104350232D01*
X159532903Y-104279814D01*
X159576529Y-104201258D01*
X159601514Y-104138387D01*
X159610203Y-104112542D01*
X159617770Y-104088500D01*
X159624311Y-104064908D01*
X159629919Y-104040415D01*
X159634689Y-104013667D01*
X159638713Y-103983311D01*
X159642087Y-103947995D01*
X159644904Y-103906365D01*
X159647258Y-103857071D01*
X159649243Y-103798757D01*
X159650953Y-103730073D01*
X159652482Y-103649665D01*
X159653923Y-103556180D01*
X159655372Y-103448265D01*
X159656679Y-103344133D01*
X159657974Y-103244063D01*
X159659323Y-103148180D01*
X159660699Y-103057953D01*
X159662075Y-102974848D01*
X159663423Y-102900331D01*
X159664715Y-102835871D01*
X159665924Y-102782935D01*
X159667023Y-102742989D01*
X159667985Y-102717501D01*
X159668551Y-102709133D01*
X159669849Y-102693910D01*
X159672021Y-102663392D01*
X159674965Y-102619187D01*
X159678580Y-102562904D01*
X159682766Y-102496153D01*
X159687421Y-102420543D01*
X159692444Y-102337684D01*
X159697735Y-102249184D01*
X159702818Y-102163033D01*
X159710925Y-102029052D01*
X159718866Y-101906295D01*
X159726570Y-101795712D01*
X159733964Y-101698253D01*
X159740976Y-101614867D01*
X159747534Y-101546505D01*
X159753560Y-101494166D01*
X159760601Y-101440292D01*
X159769784Y-101370324D01*
X159781121Y-101284175D01*
X159794624Y-101181758D01*
X159810303Y-101062985D01*
X159828170Y-100927771D01*
X159848237Y-100776027D01*
X159870515Y-100607667D01*
X159893667Y-100432783D01*
X159899310Y-100387789D01*
X159903584Y-100348945D01*
X159906209Y-100319233D01*
X159906904Y-100301638D01*
X159906347Y-100298192D01*
X159896955Y-100297305D01*
X159873077Y-100297286D01*
X159837136Y-100298072D01*
X159795809Y-100299458D01*
X159795809Y-100375152D01*
X159810565Y-100376560D01*
X159816202Y-100382005D01*
X159816799Y-100387048D01*
X159815720Y-100398431D01*
X159812642Y-100424688D01*
X159807807Y-100463910D01*
X159801458Y-100514185D01*
X159793835Y-100573604D01*
X159785181Y-100640257D01*
X159775738Y-100712233D01*
X159773696Y-100727702D01*
X159754835Y-100870222D01*
X159738043Y-100996641D01*
X159723223Y-101107655D01*
X159710280Y-101203958D01*
X159699117Y-101286244D01*
X159689639Y-101355207D01*
X159681748Y-101411542D01*
X159675350Y-101455942D01*
X159670348Y-101489103D01*
X159666646Y-101511719D01*
X159664147Y-101524484D01*
X159662966Y-101528055D01*
X159653906Y-101529509D01*
X159642373Y-101530563D01*
X159642373Y-101600000D01*
X159649991Y-101601908D01*
X159653699Y-101610029D01*
X159654103Y-101627959D01*
X159651995Y-101657150D01*
X159650601Y-101675967D01*
X159648339Y-101709995D01*
X159645311Y-101757536D01*
X159641623Y-101816894D01*
X159637377Y-101886375D01*
X159632678Y-101964281D01*
X159627628Y-102048918D01*
X159622333Y-102138588D01*
X159617682Y-102218066D01*
X159612271Y-102310327D01*
X159607016Y-102398712D01*
X159602021Y-102481568D01*
X159597389Y-102557238D01*
X159593222Y-102624070D01*
X159589625Y-102680409D01*
X159586699Y-102724600D01*
X159584548Y-102754990D01*
X159583382Y-102768967D01*
X159578430Y-102816101D01*
X159558518Y-102818565D01*
X159558518Y-102920799D01*
X159561498Y-102928975D01*
X159564127Y-102952341D01*
X159566406Y-102989160D01*
X159568337Y-103037692D01*
X159569918Y-103096201D01*
X159571152Y-103162946D01*
X159572038Y-103236189D01*
X159572576Y-103314192D01*
X159572768Y-103395216D01*
X159572614Y-103477523D01*
X159572114Y-103559374D01*
X159571270Y-103639031D01*
X159570080Y-103714754D01*
X159568546Y-103784805D01*
X159566669Y-103847447D01*
X159564449Y-103900939D01*
X159561886Y-103943544D01*
X159558981Y-103973523D01*
X159558211Y-103978782D01*
X159537964Y-104073846D01*
X159509644Y-104155980D01*
X159472073Y-104227716D01*
X159424075Y-104291590D01*
X159401933Y-104315262D01*
X159357948Y-104355715D01*
X159308482Y-104393243D01*
X159252289Y-104428337D01*
X159188121Y-104461485D01*
X159114732Y-104493178D01*
X159030874Y-104523905D01*
X158935303Y-104554156D01*
X158826769Y-104584420D01*
X158704028Y-104615189D01*
X158565831Y-104646950D01*
X158546799Y-104651148D01*
X158404687Y-104682300D01*
X158277898Y-104709938D01*
X158165238Y-104734277D01*
X158065515Y-104755534D01*
X157977535Y-104773926D01*
X157900104Y-104789671D01*
X157832029Y-104802984D01*
X157772116Y-104814082D01*
X157719172Y-104823182D01*
X157672003Y-104830501D01*
X157629416Y-104836255D01*
X157590216Y-104840662D01*
X157553211Y-104843937D01*
X157517207Y-104846298D01*
X157481010Y-104847962D01*
X157458833Y-104848712D01*
X157389563Y-104850191D01*
X157333913Y-104849686D01*
X157288643Y-104846772D01*
X157250510Y-104841022D01*
X157216276Y-104832011D01*
X157182697Y-104819313D01*
X157161232Y-104809612D01*
X157102555Y-104773504D01*
X157056096Y-104726020D01*
X157022125Y-104669166D01*
X157011572Y-104645766D01*
X157002551Y-104623269D01*
X156994912Y-104600127D01*
X156988507Y-104574788D01*
X156983188Y-104545702D01*
X156978805Y-104511318D01*
X156975211Y-104470087D01*
X156972257Y-104420457D01*
X156969794Y-104360879D01*
X156967673Y-104289802D01*
X156965746Y-104205676D01*
X156963864Y-104106950D01*
X156962885Y-104051100D01*
X156961500Y-103963743D01*
X156960394Y-103879446D01*
X156959576Y-103800128D01*
X156959055Y-103727705D01*
X156958841Y-103664096D01*
X156958943Y-103611218D01*
X156959371Y-103570990D01*
X156960135Y-103545329D01*
X156960360Y-103541664D01*
X156963342Y-103507117D01*
X156966833Y-103485915D01*
X156971960Y-103474481D01*
X156979851Y-103469236D01*
X156983528Y-103468188D01*
X156997167Y-103465158D01*
X157024514Y-103459250D01*
X157062709Y-103451076D01*
X157108891Y-103441247D01*
X157160198Y-103430376D01*
X157166733Y-103428995D01*
X157222393Y-103417190D01*
X157289986Y-103402784D01*
X157364896Y-103386766D01*
X157442507Y-103370124D01*
X157518202Y-103353846D01*
X157564666Y-103343825D01*
X157634862Y-103328746D01*
X157708436Y-103313081D01*
X157781172Y-103297719D01*
X157848854Y-103283547D01*
X157907266Y-103271454D01*
X157941433Y-103264489D01*
X158002986Y-103251817D01*
X158072270Y-103237154D01*
X158141907Y-103222085D01*
X158204516Y-103208194D01*
X158220833Y-103204491D01*
X158276572Y-103192011D01*
X158342574Y-103177629D01*
X158412485Y-103162706D01*
X158479951Y-103148606D01*
X158517166Y-103140994D01*
X158581056Y-103127842D01*
X158654660Y-103112333D01*
X158731195Y-103095917D01*
X158803875Y-103080045D01*
X158847366Y-103070364D01*
X158908469Y-103056804D01*
X158973150Y-103042758D01*
X159036197Y-103029335D01*
X159092398Y-103017649D01*
X159130999Y-103009890D01*
X159179995Y-103000045D01*
X159239479Y-102987717D01*
X159303427Y-102974176D01*
X159365817Y-102960690D01*
X159395535Y-102954145D01*
X159444395Y-102943451D01*
X159488048Y-102934178D01*
X159523603Y-102926920D01*
X159548165Y-102922269D01*
X159558518Y-102920799D01*
X159558518Y-102818565D01*
X159346579Y-102844793D01*
X159285940Y-102852149D01*
X159230994Y-102858531D01*
X159183920Y-102863709D01*
X159146897Y-102867453D01*
X159122104Y-102869531D01*
X159111721Y-102869715D01*
X159111563Y-102869625D01*
X159111260Y-102860499D01*
X159111993Y-102836681D01*
X159113652Y-102800372D01*
X159116127Y-102753774D01*
X159119306Y-102699090D01*
X159123080Y-102638521D01*
X159123440Y-102632933D01*
X159127507Y-102567808D01*
X159131195Y-102504609D01*
X159134345Y-102446387D01*
X159136798Y-102396195D01*
X159138397Y-102357086D01*
X159138974Y-102333810D01*
X159139466Y-102267521D01*
X159116183Y-102272273D01*
X159102508Y-102274456D01*
X159074141Y-102278519D01*
X159033181Y-102284175D01*
X158981730Y-102291141D01*
X158921890Y-102299132D01*
X158855762Y-102307862D01*
X158797835Y-102315435D01*
X158728515Y-102324629D01*
X158664128Y-102333494D01*
X158606704Y-102341727D01*
X158558272Y-102349022D01*
X158520864Y-102355076D01*
X158496509Y-102359583D01*
X158487599Y-102361964D01*
X158483247Y-102364622D01*
X158479612Y-102368589D01*
X158476516Y-102375515D01*
X158473777Y-102387053D01*
X158471217Y-102404853D01*
X158468655Y-102430565D01*
X158465912Y-102465840D01*
X158462808Y-102512329D01*
X158459164Y-102571683D01*
X158454800Y-102645553D01*
X158452567Y-102683733D01*
X158449228Y-102735991D01*
X158445666Y-102783354D01*
X158442146Y-102822870D01*
X158438933Y-102851586D01*
X158436291Y-102866553D01*
X158436133Y-102867014D01*
X158427934Y-102878766D01*
X158411315Y-102886140D01*
X158384356Y-102890859D01*
X158361056Y-102893877D01*
X158324770Y-102898678D01*
X158279292Y-102904756D01*
X158228413Y-102911605D01*
X158187631Y-102917128D01*
X158137146Y-102923806D01*
X158090987Y-102929581D01*
X158052380Y-102934075D01*
X158024553Y-102936910D01*
X158011749Y-102937733D01*
X157987603Y-102937733D01*
X157992172Y-102872116D01*
X157998304Y-102783015D01*
X158003230Y-102708949D01*
X158007052Y-102648070D01*
X158009875Y-102598530D01*
X158011802Y-102558482D01*
X158012937Y-102526077D01*
X158013383Y-102499469D01*
X158013400Y-102493763D01*
X158013400Y-102429733D01*
X157977416Y-102429865D01*
X157955703Y-102431114D01*
X157921561Y-102434438D01*
X157879299Y-102439366D01*
X157833228Y-102445421D01*
X157822900Y-102446873D01*
X157772635Y-102453672D01*
X157721411Y-102459991D01*
X157674964Y-102465158D01*
X157639030Y-102468502D01*
X157636633Y-102468681D01*
X157568900Y-102473615D01*
X157515498Y-102375674D01*
X157495077Y-102338876D01*
X157477082Y-102307661D01*
X157463255Y-102284965D01*
X157455337Y-102273726D01*
X157454658Y-102273135D01*
X157451734Y-102272742D01*
X157449047Y-102276234D01*
X157446478Y-102284909D01*
X157443910Y-102300065D01*
X157441224Y-102322998D01*
X157438302Y-102355005D01*
X157435027Y-102397384D01*
X157431280Y-102451433D01*
X157426944Y-102518447D01*
X157421901Y-102599724D01*
X157416032Y-102696563D01*
X157415792Y-102700548D01*
X157411177Y-102776740D01*
X157406827Y-102847489D01*
X157402856Y-102911052D01*
X157399374Y-102965687D01*
X157396493Y-103009651D01*
X157394326Y-103041203D01*
X157392984Y-103058599D01*
X157392628Y-103061515D01*
X157384185Y-103062947D01*
X157361137Y-103066354D01*
X157325661Y-103071429D01*
X157279932Y-103077863D01*
X157226125Y-103085348D01*
X157166415Y-103093575D01*
X157163375Y-103093992D01*
X157093441Y-103103433D01*
X157038520Y-103110460D01*
X156996888Y-103115220D01*
X156966821Y-103117860D01*
X156946593Y-103118526D01*
X156934479Y-103117366D01*
X156928756Y-103114527D01*
X156928380Y-103114025D01*
X156925263Y-103100202D01*
X156924333Y-103075236D01*
X156925576Y-103047799D01*
X156926876Y-103029464D01*
X156929059Y-102995893D01*
X156932022Y-102948756D01*
X156935665Y-102889722D01*
X156939885Y-102820460D01*
X156944581Y-102742639D01*
X156949651Y-102657929D01*
X156954993Y-102567999D01*
X156960152Y-102480533D01*
X156965619Y-102388996D01*
X156970952Y-102302504D01*
X156976050Y-102222535D01*
X156980809Y-102150564D01*
X156985129Y-102088068D01*
X156988906Y-102036524D01*
X156992038Y-101997408D01*
X156994424Y-101972197D01*
X156995962Y-101962368D01*
X156995997Y-101962323D01*
X156998779Y-101960869D01*
X157005110Y-101959037D01*
X157015696Y-101956726D01*
X157031245Y-101953839D01*
X157052466Y-101950278D01*
X157080066Y-101945943D01*
X157114752Y-101940738D01*
X157157232Y-101934562D01*
X157208214Y-101927318D01*
X157268406Y-101918907D01*
X157338515Y-101909231D01*
X157419249Y-101898192D01*
X157511316Y-101885691D01*
X157615424Y-101871629D01*
X157732279Y-101855909D01*
X157862590Y-101838431D01*
X158007065Y-101819098D01*
X158166411Y-101797811D01*
X158341336Y-101774471D01*
X158474833Y-101756673D01*
X158564303Y-101744710D01*
X158666256Y-101731012D01*
X158776400Y-101716162D01*
X158890442Y-101700738D01*
X159004091Y-101685323D01*
X159113055Y-101670496D01*
X159213042Y-101656838D01*
X159229111Y-101654637D01*
X159309708Y-101643633D01*
X159385458Y-101633369D01*
X159454650Y-101624072D01*
X159515576Y-101615968D01*
X159566526Y-101609283D01*
X159605792Y-101604243D01*
X159631665Y-101601073D01*
X159642373Y-101600000D01*
X159642373Y-101530563D01*
X159630609Y-101531639D01*
X159595702Y-101534289D01*
X159551811Y-101537309D01*
X159501564Y-101540543D01*
X159447587Y-101543838D01*
X159392507Y-101547042D01*
X159338950Y-101550001D01*
X159289544Y-101552561D01*
X159246916Y-101554569D01*
X159213691Y-101555873D01*
X159192498Y-101556317D01*
X159185904Y-101555905D01*
X159186002Y-101547023D01*
X159188063Y-101525042D01*
X159191707Y-101493635D01*
X159194895Y-101468766D01*
X159205853Y-101385057D01*
X159216592Y-101300801D01*
X159226918Y-101217697D01*
X159236637Y-101137445D01*
X159245558Y-101061744D01*
X159253486Y-100992294D01*
X159260228Y-100930794D01*
X159265591Y-100878944D01*
X159269382Y-100838443D01*
X159271406Y-100810990D01*
X159271472Y-100798286D01*
X159271230Y-100797661D01*
X159265922Y-100796955D01*
X159257113Y-100803548D01*
X159243693Y-100818826D01*
X159224556Y-100844176D01*
X159198592Y-100880986D01*
X159164695Y-100930642D01*
X159163146Y-100932932D01*
X159135806Y-100971719D01*
X159112269Y-101001853D01*
X159094241Y-101021277D01*
X159084433Y-101027849D01*
X159072229Y-101029052D01*
X159045171Y-101030895D01*
X159005319Y-101033263D01*
X158954736Y-101036042D01*
X158895483Y-101039119D01*
X158829621Y-101042379D01*
X158771166Y-101045155D01*
X158711031Y-101048027D01*
X158636307Y-101051711D01*
X158549313Y-101056088D01*
X158452368Y-101061037D01*
X158347791Y-101066439D01*
X158237900Y-101072173D01*
X158125015Y-101078120D01*
X158011454Y-101084158D01*
X157899536Y-101090170D01*
X157856766Y-101092484D01*
X157719604Y-101099924D01*
X157598369Y-101106492D01*
X157492076Y-101112234D01*
X157399745Y-101117192D01*
X157320391Y-101121411D01*
X157253033Y-101124935D01*
X157196689Y-101127807D01*
X157150375Y-101130072D01*
X157113108Y-101131773D01*
X157083907Y-101132954D01*
X157061789Y-101133659D01*
X157045771Y-101133932D01*
X157034870Y-101133817D01*
X157028104Y-101133357D01*
X157024490Y-101132598D01*
X157023046Y-101131581D01*
X157022790Y-101130353D01*
X157022800Y-101129731D01*
X157023921Y-101120035D01*
X157027069Y-101095928D01*
X157031916Y-101059772D01*
X157038137Y-101013924D01*
X157045405Y-100960745D01*
X157053395Y-100902595D01*
X157061780Y-100841832D01*
X157070235Y-100780816D01*
X157078433Y-100721907D01*
X157086048Y-100667464D01*
X157092754Y-100619846D01*
X157098225Y-100581413D01*
X157102136Y-100554525D01*
X157103778Y-100543783D01*
X157109702Y-100524040D01*
X157121115Y-100516715D01*
X157127299Y-100516266D01*
X157139870Y-100515827D01*
X157167352Y-100514577D01*
X157207744Y-100512616D01*
X157259046Y-100510045D01*
X157319261Y-100506963D01*
X157386388Y-100503471D01*
X157458429Y-100499670D01*
X157463465Y-100499402D01*
X157529743Y-100495891D01*
X157610344Y-100491643D01*
X157702680Y-100486794D01*
X157804164Y-100481479D01*
X157912209Y-100475833D01*
X158024225Y-100469992D01*
X158137627Y-100464090D01*
X158249825Y-100458264D01*
X158356299Y-100452747D01*
X158550416Y-100442692D01*
X158728121Y-100433464D01*
X158889916Y-100425036D01*
X159036300Y-100417381D01*
X159167774Y-100410472D01*
X159284838Y-100404283D01*
X159387994Y-100398786D01*
X159477741Y-100393955D01*
X159554579Y-100389763D01*
X159619011Y-100386184D01*
X159671534Y-100383189D01*
X159712651Y-100380752D01*
X159742862Y-100378848D01*
X159762667Y-100377447D01*
X159768116Y-100376993D01*
X159795809Y-100375152D01*
X159795809Y-100299458D01*
X159791552Y-100299601D01*
X159738747Y-100301810D01*
X159705523Y-100303390D01*
X159649704Y-100306014D01*
X159599768Y-100308083D01*
X159558120Y-100309520D01*
X159527162Y-100310249D01*
X159509297Y-100310193D01*
X159505874Y-100309762D01*
X159511649Y-100305020D01*
X159529870Y-100294654D01*
X159557651Y-100280226D01*
X159589803Y-100264401D01*
X159666860Y-100222978D01*
X159733589Y-100176947D01*
X159792317Y-100123883D01*
X159845370Y-100061362D01*
X159895074Y-99986958D01*
X159943757Y-99898248D01*
X159946611Y-99892588D01*
X159976729Y-99826089D01*
X160007493Y-99746207D01*
X160037861Y-99656410D01*
X160066790Y-99560164D01*
X160093239Y-99460935D01*
X160116166Y-99362192D01*
X160134522Y-99267433D01*
X160149994Y-99147701D01*
X160153283Y-99039728D01*
X160144389Y-98943508D01*
X160123310Y-98859037D01*
X160090044Y-98786309D01*
X160044590Y-98725321D01*
X159986946Y-98676068D01*
X159940904Y-98649334D01*
X159924077Y-98641010D01*
X159908637Y-98633575D01*
X159893581Y-98626980D01*
X159877904Y-98621173D01*
X159860602Y-98616106D01*
X159840671Y-98611727D01*
X159817107Y-98607987D01*
X159788904Y-98604834D01*
X159755061Y-98602220D01*
X159714571Y-98600093D01*
X159666430Y-98598403D01*
X159609636Y-98597100D01*
X159543183Y-98596134D01*
X159466066Y-98595454D01*
X159377283Y-98595010D01*
X159275829Y-98594753D01*
X159160699Y-98594630D01*
X159030890Y-98594594D01*
X158885396Y-98594592D01*
X158847366Y-98594591D01*
X158696944Y-98594579D01*
X158562431Y-98594593D01*
X158442803Y-98594689D01*
X158341529Y-98594912D01*
X158341529Y-98671239D01*
X158434920Y-98671303D01*
X158541598Y-98671473D01*
X158662586Y-98671736D01*
X158798902Y-98672077D01*
X158884203Y-98672301D01*
X159812566Y-98674766D01*
X159877496Y-98702787D01*
X159941916Y-98738123D01*
X159992640Y-98783060D01*
X160030591Y-98838661D01*
X160056697Y-98905987D01*
X160057673Y-98909548D01*
X160064212Y-98946036D01*
X160068304Y-98994904D01*
X160069954Y-99051776D01*
X160069168Y-99112277D01*
X160065952Y-99172033D01*
X160060312Y-99226669D01*
X160057245Y-99246891D01*
X160047174Y-99299906D01*
X160033540Y-99362671D01*
X160017358Y-99431234D01*
X159999643Y-99501642D01*
X159981409Y-99569941D01*
X159963670Y-99632180D01*
X159947443Y-99684405D01*
X159937880Y-99711933D01*
X159891303Y-99825611D01*
X159841325Y-99923586D01*
X159786967Y-100006912D01*
X159727249Y-100076646D01*
X159661194Y-100133841D01*
X159587820Y-100179555D01*
X159506150Y-100214841D01*
X159456966Y-100230290D01*
X159445934Y-100233309D01*
X159435157Y-100235988D01*
X159423603Y-100238353D01*
X159410240Y-100240427D01*
X159394034Y-100242233D01*
X159373954Y-100243794D01*
X159348967Y-100245134D01*
X159318041Y-100246277D01*
X159280142Y-100247245D01*
X159234239Y-100248063D01*
X159179299Y-100248753D01*
X159114290Y-100249340D01*
X159038178Y-100249846D01*
X158949932Y-100250296D01*
X158848519Y-100250712D01*
X158732907Y-100251118D01*
X158602062Y-100251538D01*
X158508699Y-100251828D01*
X158357909Y-100252208D01*
X158293487Y-100252290D01*
X158293487Y-100331142D01*
X158356299Y-100331208D01*
X158469022Y-100331490D01*
X158569865Y-100331946D01*
X158658206Y-100332565D01*
X158733423Y-100333339D01*
X158794897Y-100334257D01*
X158842006Y-100335311D01*
X158874128Y-100336490D01*
X158890643Y-100337785D01*
X158890929Y-100339187D01*
X158889699Y-100339383D01*
X158871949Y-100341147D01*
X158838983Y-100343645D01*
X158792499Y-100346777D01*
X158734196Y-100350439D01*
X158665770Y-100354529D01*
X158588919Y-100358947D01*
X158505341Y-100363589D01*
X158416733Y-100368353D01*
X158347833Y-100371954D01*
X158256163Y-100376706D01*
X158167927Y-100381318D01*
X158084869Y-100385697D01*
X158008731Y-100389749D01*
X157941259Y-100393381D01*
X157884194Y-100396499D01*
X157839279Y-100399009D01*
X157808260Y-100400818D01*
X157795383Y-100401642D01*
X157763801Y-100402858D01*
X157742221Y-100401624D01*
X157734005Y-100398136D01*
X157734000Y-100398023D01*
X157737969Y-100382006D01*
X157747259Y-100360796D01*
X157757945Y-100342594D01*
X157763461Y-100336479D01*
X157773175Y-100335450D01*
X157798430Y-100334501D01*
X157837836Y-100333644D01*
X157890000Y-100332893D01*
X157953530Y-100332259D01*
X158027036Y-100331754D01*
X158109125Y-100331391D01*
X158198406Y-100331183D01*
X158293487Y-100331142D01*
X158293487Y-100252290D01*
X158218069Y-100252386D01*
X158089806Y-100252363D01*
X157973746Y-100252146D01*
X157870515Y-100251736D01*
X157780738Y-100251139D01*
X157705043Y-100250357D01*
X157644055Y-100249395D01*
X157598399Y-100248256D01*
X157568702Y-100246943D01*
X157559331Y-100246141D01*
X157474675Y-100230281D01*
X157403898Y-100205020D01*
X157346703Y-100170211D01*
X157302792Y-100125711D01*
X157298506Y-100119861D01*
X157274660Y-100081338D01*
X157257575Y-100040886D01*
X157246145Y-99994456D01*
X157239263Y-99938001D01*
X157236697Y-99893830D01*
X157236290Y-99817986D01*
X157241518Y-99739611D01*
X157252811Y-99655374D01*
X157270598Y-99561945D01*
X157290609Y-99474989D01*
X157328970Y-99332039D01*
X157370424Y-99205144D01*
X157415471Y-99093627D01*
X157464611Y-98996810D01*
X157518345Y-98914013D01*
X157577174Y-98844560D01*
X157641598Y-98787772D01*
X157712118Y-98742970D01*
X157789235Y-98709477D01*
X157872437Y-98686820D01*
X157885930Y-98684159D01*
X157899447Y-98681796D01*
X157914008Y-98679715D01*
X157930634Y-98677902D01*
X157950345Y-98676343D01*
X157974161Y-98675023D01*
X158003103Y-98673927D01*
X158038190Y-98673041D01*
X158080444Y-98672349D01*
X158130885Y-98671838D01*
X158190532Y-98671492D01*
X158260407Y-98671297D01*
X158341529Y-98671239D01*
X158341529Y-98594912D01*
X158337034Y-98594922D01*
X158244102Y-98595350D01*
X158162981Y-98596028D01*
X158092648Y-98597012D01*
X158032077Y-98598358D01*
X157980245Y-98600122D01*
X157936126Y-98602360D01*
X157898698Y-98605128D01*
X157866935Y-98608483D01*
X157839813Y-98612480D01*
X157816307Y-98617176D01*
X157795394Y-98622626D01*
X157776049Y-98628887D01*
X157757248Y-98636014D01*
X157737966Y-98644063D01*
X157717178Y-98653091D01*
X157708402Y-98656907D01*
X157677208Y-98670343D01*
X157652644Y-98680769D01*
X157638279Y-98686677D01*
X157636042Y-98687466D01*
X157636328Y-98679999D01*
X157640655Y-98660031D01*
X157647983Y-98631216D01*
X157657272Y-98597207D01*
X157667481Y-98561656D01*
X157677570Y-98528215D01*
X157686498Y-98500538D01*
X157693224Y-98482278D01*
X157695952Y-98477158D01*
X157703860Y-98479153D01*
X157710804Y-98486064D01*
X157712077Y-98488179D01*
X157712959Y-98490056D01*
X157714377Y-98491736D01*
X157717256Y-98493257D01*
X157722523Y-98494658D01*
X157731105Y-98495979D01*
X157743927Y-98497258D01*
X157761916Y-98498535D01*
X157785999Y-98499849D01*
X157817102Y-98501239D01*
X157856152Y-98502744D01*
X157904074Y-98504402D01*
X157961795Y-98506255D01*
X158030241Y-98508339D01*
X158110340Y-98510695D01*
X158203016Y-98513361D01*
X158309197Y-98516377D01*
X158429809Y-98519782D01*
X158565779Y-98523615D01*
X158669566Y-98526545D01*
X158769690Y-98529411D01*
X158866492Y-98532254D01*
X158958378Y-98535022D01*
X159043749Y-98537664D01*
X159121008Y-98540128D01*
X159188559Y-98542364D01*
X159244805Y-98544318D01*
X159288148Y-98545941D01*
X159316992Y-98547181D01*
X159325733Y-98547657D01*
X159360089Y-98549524D01*
X159406480Y-98551544D01*
X159463121Y-98553676D01*
X159528228Y-98555878D01*
X159600015Y-98558108D01*
X159676698Y-98560324D01*
X159756492Y-98562482D01*
X159837613Y-98564542D01*
X159918274Y-98566462D01*
X159996693Y-98568198D01*
X160071083Y-98569709D01*
X160139660Y-98570952D01*
X160200638Y-98571887D01*
X160252235Y-98572469D01*
X160292663Y-98572658D01*
X160320140Y-98572412D01*
X160332879Y-98571687D01*
X160333533Y-98571452D01*
X160336599Y-98562703D01*
X160343792Y-98539479D01*
X160354587Y-98503588D01*
X160368461Y-98456837D01*
X160384888Y-98401034D01*
X160403346Y-98337986D01*
X160423311Y-98269501D01*
X160444257Y-98197387D01*
X160465662Y-98123450D01*
X160487000Y-98049498D01*
X160507749Y-97977339D01*
X160527384Y-97908781D01*
X160545381Y-97845630D01*
X160561215Y-97789694D01*
X160574364Y-97742781D01*
X160584303Y-97706699D01*
X160585099Y-97703758D01*
X160583489Y-97692999D01*
X160569147Y-97686777D01*
X160560595Y-97685248D01*
X160545516Y-97683989D01*
X160515717Y-97682359D01*
X160473403Y-97680448D01*
X160420781Y-97678344D01*
X160360058Y-97676137D01*
X160293440Y-97673918D01*
X160244366Y-97672401D01*
X159981661Y-97664530D01*
X159735722Y-97657134D01*
X159506385Y-97650207D01*
X159293491Y-97643745D01*
X159096877Y-97637743D01*
X158916382Y-97632194D01*
X158751844Y-97627095D01*
X158603102Y-97622440D01*
X158469994Y-97618224D01*
X158352359Y-97614441D01*
X158250035Y-97611087D01*
X158162861Y-97608157D01*
X158090674Y-97605645D01*
X158033315Y-97603546D01*
X157990620Y-97601856D01*
X157962429Y-97600568D01*
X157948580Y-97599678D01*
X157946989Y-97599411D01*
X157948300Y-97590678D01*
X157953732Y-97567667D01*
X157962759Y-97532383D01*
X157974852Y-97486833D01*
X157989485Y-97433020D01*
X158006129Y-97372951D01*
X158013734Y-97345834D01*
X158031061Y-97283671D01*
X158046568Y-97226875D01*
X158059732Y-97177457D01*
X158070029Y-97137429D01*
X158076936Y-97108800D01*
X158079930Y-97093581D01*
X158079887Y-97091665D01*
X158070377Y-97089815D01*
X158047043Y-97087558D01*
X158012982Y-97085130D01*
X157971292Y-97082769D01*
X157951937Y-97081841D01*
X157907355Y-97079448D01*
X157868522Y-97076674D01*
X157838721Y-97073807D01*
X157821232Y-97071132D01*
X157818405Y-97070171D01*
X157815628Y-97061707D01*
X157818331Y-97041982D01*
X157826830Y-97009463D01*
X157839417Y-96968865D01*
X157851263Y-96930979D01*
X157860548Y-96898881D01*
X157866322Y-96876030D01*
X157867672Y-96865984D01*
X157863616Y-96870455D01*
X157854223Y-96887962D01*
X157840757Y-96915948D01*
X157824484Y-96951855D01*
X157818616Y-96965229D01*
X157772100Y-97072093D01*
X157562576Y-97066524D01*
X157409597Y-97062458D01*
X157409597Y-97142300D01*
X157442682Y-97144281D01*
X157459516Y-97145088D01*
X157490802Y-97146390D01*
X157534066Y-97148093D01*
X157586837Y-97150102D01*
X157646641Y-97152321D01*
X157711008Y-97154655D01*
X157725123Y-97155160D01*
X157788318Y-97157515D01*
X157845836Y-97159852D01*
X157895554Y-97162068D01*
X157935349Y-97164062D01*
X157963099Y-97165733D01*
X157976681Y-97166978D01*
X157977674Y-97167252D01*
X157976259Y-97175884D01*
X157970707Y-97198752D01*
X157961561Y-97233819D01*
X157949367Y-97279047D01*
X157934667Y-97332399D01*
X157918007Y-97391837D01*
X157912468Y-97411396D01*
X157895119Y-97472960D01*
X157879390Y-97529647D01*
X157865859Y-97579300D01*
X157855106Y-97619761D01*
X157847710Y-97648872D01*
X157844250Y-97664475D01*
X157844066Y-97666138D01*
X157851176Y-97677539D01*
X157863116Y-97679940D01*
X157875673Y-97680204D01*
X157903897Y-97680967D01*
X157946530Y-97682191D01*
X158002316Y-97683836D01*
X158069995Y-97685864D01*
X158148310Y-97688234D01*
X158236004Y-97690908D01*
X158331819Y-97693847D01*
X158434497Y-97697011D01*
X158542781Y-97700363D01*
X158655413Y-97703861D01*
X158771135Y-97707469D01*
X158888690Y-97711145D01*
X159006819Y-97714852D01*
X159124265Y-97718550D01*
X159239771Y-97722200D01*
X159352079Y-97725764D01*
X159459931Y-97729201D01*
X159562069Y-97732473D01*
X159657236Y-97735540D01*
X159744174Y-97738365D01*
X159770233Y-97739216D01*
X159864956Y-97742274D01*
X159956788Y-97745155D01*
X160043958Y-97747807D01*
X160124691Y-97750182D01*
X160197215Y-97752228D01*
X160259758Y-97753896D01*
X160310546Y-97755136D01*
X160347808Y-97755897D01*
X160368557Y-97756132D01*
X160414575Y-97756725D01*
X160446067Y-97758809D01*
X160465408Y-97762841D01*
X160474977Y-97769280D01*
X160477200Y-97777071D01*
X160474952Y-97787251D01*
X160468531Y-97811972D01*
X160458414Y-97849492D01*
X160445082Y-97898072D01*
X160429013Y-97955970D01*
X160410687Y-98021446D01*
X160390584Y-98092759D01*
X160378931Y-98133882D01*
X160357884Y-98207595D01*
X160338030Y-98276320D01*
X160319883Y-98338329D01*
X160303961Y-98391895D01*
X160290780Y-98435291D01*
X160280854Y-98466789D01*
X160274701Y-98484664D01*
X160273109Y-98488065D01*
X160267833Y-98489311D01*
X160254332Y-98490173D01*
X160232047Y-98490635D01*
X160200421Y-98490683D01*
X160158895Y-98490304D01*
X160106913Y-98489483D01*
X160043916Y-98488205D01*
X159969346Y-98486458D01*
X159882645Y-98484226D01*
X159783256Y-98481496D01*
X159670620Y-98478254D01*
X159544180Y-98474484D01*
X159403378Y-98470174D01*
X159247656Y-98465310D01*
X159076456Y-98459876D01*
X158889219Y-98453859D01*
X158771166Y-98450035D01*
X158620571Y-98445140D01*
X158486001Y-98440754D01*
X158366557Y-98436843D01*
X158261338Y-98433374D01*
X158169446Y-98430313D01*
X158089980Y-98427628D01*
X158022041Y-98425283D01*
X157964729Y-98423246D01*
X157917145Y-98421483D01*
X157878389Y-98419960D01*
X157847561Y-98418645D01*
X157823763Y-98417503D01*
X157806093Y-98416501D01*
X157793653Y-98415605D01*
X157785543Y-98414782D01*
X157780864Y-98413998D01*
X157778715Y-98413220D01*
X157778462Y-98413018D01*
X157774634Y-98403634D01*
X157767270Y-98381035D01*
X157757336Y-98348332D01*
X157745795Y-98308635D01*
X157742341Y-98296456D01*
X157730272Y-98255484D01*
X157719091Y-98220823D01*
X157709857Y-98195527D01*
X157703629Y-98182652D01*
X157702541Y-98181680D01*
X157698122Y-98188732D01*
X157689862Y-98210004D01*
X157678453Y-98243400D01*
X157664584Y-98286823D01*
X157648948Y-98338178D01*
X157632916Y-98392990D01*
X157602293Y-98499629D01*
X157575971Y-98591125D01*
X157553609Y-98668621D01*
X157534867Y-98733261D01*
X157519404Y-98786187D01*
X157506879Y-98828541D01*
X157496952Y-98861466D01*
X157489283Y-98886105D01*
X157483531Y-98903601D01*
X157479355Y-98915096D01*
X157476415Y-98921733D01*
X157474510Y-98924529D01*
X157464633Y-98925908D01*
X157440302Y-98926632D01*
X157403964Y-98926768D01*
X157358067Y-98926384D01*
X157305059Y-98925547D01*
X157247388Y-98924324D01*
X157187501Y-98922783D01*
X157127846Y-98920991D01*
X157070871Y-98919015D01*
X157019025Y-98916923D01*
X156974753Y-98914781D01*
X156940505Y-98912658D01*
X156918728Y-98910621D01*
X156911890Y-98909056D01*
X156912905Y-98899832D01*
X156918151Y-98876323D01*
X156927112Y-98840501D01*
X156939275Y-98794334D01*
X156954124Y-98739796D01*
X156971145Y-98678854D01*
X156981938Y-98640900D01*
X156997028Y-98588148D01*
X157016170Y-98521180D01*
X157038773Y-98442064D01*
X157064247Y-98352868D01*
X157092002Y-98255660D01*
X157121447Y-98152510D01*
X157151992Y-98045484D01*
X157183045Y-97936651D01*
X157214017Y-97828080D01*
X157233330Y-97760366D01*
X157409597Y-97142300D01*
X157409597Y-97062458D01*
X157353052Y-97060954D01*
X157344873Y-97080460D01*
X157340863Y-97092605D01*
X157332788Y-97119237D01*
X157321173Y-97158544D01*
X157306548Y-97208713D01*
X157289438Y-97267934D01*
X157270370Y-97334394D01*
X157249871Y-97406282D01*
X157239485Y-97442866D01*
X157220005Y-97511537D01*
X157196583Y-97594029D01*
X157169921Y-97687877D01*
X157140718Y-97790618D01*
X157109677Y-97899789D01*
X157077496Y-98012924D01*
X157044877Y-98127561D01*
X157012520Y-98241235D01*
X156981126Y-98351483D01*
X156972471Y-98381871D01*
X156944830Y-98479000D01*
X156918587Y-98571402D01*
X156894106Y-98657783D01*
X156871752Y-98736850D01*
X156851888Y-98807308D01*
X156834879Y-98867862D01*
X156821089Y-98917219D01*
X156810883Y-98954085D01*
X156804624Y-98977165D01*
X156802666Y-98985121D01*
X156810389Y-98988760D01*
X156830594Y-98991333D01*
X156857700Y-98992266D01*
X156890942Y-98993565D01*
X156908738Y-98997627D01*
X156912733Y-99002792D01*
X156909475Y-99013941D01*
X156900511Y-99037513D01*
X156887059Y-99070482D01*
X156870336Y-99109817D01*
X156862556Y-99127676D01*
X156835929Y-99188348D01*
X156805366Y-99257966D01*
X156772277Y-99333321D01*
X156738072Y-99411204D01*
X156704159Y-99488406D01*
X156671949Y-99561719D01*
X156642851Y-99627934D01*
X156618273Y-99683842D01*
X156605919Y-99711933D01*
X156591580Y-99744402D01*
X156571593Y-99789474D01*
X156547228Y-99844295D01*
X156519756Y-99906013D01*
X156490444Y-99971775D01*
X156460563Y-100038726D01*
X156449585Y-100063300D01*
X156422087Y-100124845D01*
X156396683Y-100181715D01*
X156374230Y-100231993D01*
X156355585Y-100273761D01*
X156341601Y-100305105D01*
X156333135Y-100324106D01*
X156331024Y-100328868D01*
X156330033Y-100336136D01*
X156339909Y-100332698D01*
X156342066Y-100331525D01*
X156352503Y-100324231D01*
X156374289Y-100307914D01*
X156405502Y-100284070D01*
X156444223Y-100254199D01*
X156488532Y-100219796D01*
X156536509Y-100182361D01*
X156586234Y-100143391D01*
X156635787Y-100104384D01*
X156683248Y-100066837D01*
X156726697Y-100032249D01*
X156761091Y-100004639D01*
X156816882Y-99959610D01*
X156894660Y-99732055D01*
X156919131Y-99660487D01*
X156947353Y-99577986D01*
X156977586Y-99489638D01*
X157008091Y-99400527D01*
X157037126Y-99315739D01*
X157058854Y-99252316D01*
X157145270Y-99000132D01*
X157251251Y-99005804D01*
X157291532Y-99008040D01*
X157325035Y-99010052D01*
X157348497Y-99011634D01*
X157358659Y-99012578D01*
X157358822Y-99012632D01*
X157356440Y-99020442D01*
X157348802Y-99041039D01*
X157337018Y-99071519D01*
X157322197Y-99108977D01*
X157318006Y-99119445D01*
X157281798Y-99216888D01*
X157248799Y-99319881D01*
X157219614Y-99425548D01*
X157194846Y-99531011D01*
X157175099Y-99633394D01*
X157160979Y-99729821D01*
X157153087Y-99817417D01*
X157152030Y-99893303D01*
X157152682Y-99906666D01*
X157161978Y-99989254D01*
X157179699Y-100059514D01*
X157207055Y-100120440D01*
X157245254Y-100175021D01*
X157273415Y-100205509D01*
X157321231Y-100246633D01*
X157373280Y-100278141D01*
X157432491Y-100301153D01*
X157501797Y-100316788D01*
X157584126Y-100326165D01*
X157590461Y-100326616D01*
X157625885Y-100329369D01*
X157653968Y-100332148D01*
X157671130Y-100334562D01*
X157674733Y-100335780D01*
X157669578Y-100352588D01*
X157656953Y-100374117D01*
X157641120Y-100394436D01*
X157626339Y-100407618D01*
X157621713Y-100409557D01*
X157608485Y-100410933D01*
X157581373Y-100412932D01*
X157543410Y-100415388D01*
X157497628Y-100418135D01*
X157447057Y-100421009D01*
X157394731Y-100423844D01*
X157343680Y-100426474D01*
X157296937Y-100428735D01*
X157257533Y-100430461D01*
X157228501Y-100431487D01*
X157215630Y-100431699D01*
X157192560Y-100431600D01*
X157222184Y-100366595D01*
X157235451Y-100336059D01*
X157245011Y-100311288D01*
X157249341Y-100296342D01*
X157249345Y-100294201D01*
X157241879Y-100294980D01*
X157224619Y-100304058D01*
X157201251Y-100319489D01*
X157200457Y-100320055D01*
X157164165Y-100345043D01*
X157115788Y-100376863D01*
X157057931Y-100413919D01*
X156993196Y-100454619D01*
X156957769Y-100476563D01*
X156957769Y-100936206D01*
X156961814Y-100937122D01*
X156961637Y-100952030D01*
X156959221Y-100980055D01*
X156954948Y-101017586D01*
X156949202Y-101061013D01*
X156947141Y-101075384D01*
X156940852Y-101119225D01*
X156935568Y-101157604D01*
X156931738Y-101187143D01*
X156929809Y-101204466D01*
X156929666Y-101206978D01*
X156933084Y-101212772D01*
X156945123Y-101216440D01*
X156968463Y-101218381D01*
X157005783Y-101218996D01*
X157010100Y-101219000D01*
X157044661Y-101219690D01*
X157071783Y-101221547D01*
X157087791Y-101224246D01*
X157090533Y-101226075D01*
X157085433Y-101234933D01*
X157071496Y-101254072D01*
X157050766Y-101280799D01*
X157025287Y-101312420D01*
X157021452Y-101317091D01*
X156998186Y-101343994D01*
X156964924Y-101380537D01*
X156923763Y-101424512D01*
X156876803Y-101473709D01*
X156826143Y-101525920D01*
X156773882Y-101578935D01*
X156748402Y-101604461D01*
X156677118Y-101675214D01*
X156616942Y-101734173D01*
X156567336Y-101781833D01*
X156527756Y-101818691D01*
X156497664Y-101845242D01*
X156476518Y-101861982D01*
X156463778Y-101869406D01*
X156459525Y-101869281D01*
X156462316Y-101861069D01*
X156472336Y-101840215D01*
X156488490Y-101808820D01*
X156509683Y-101768987D01*
X156534819Y-101722820D01*
X156551647Y-101692402D01*
X156699295Y-101421802D01*
X156840449Y-101152081D01*
X156879681Y-101075066D01*
X156908967Y-101018165D01*
X156931584Y-100976323D01*
X156947772Y-100949137D01*
X156957769Y-100936206D01*
X156957769Y-100476563D01*
X156924188Y-100497365D01*
X156853510Y-100540565D01*
X156783765Y-100582622D01*
X156717558Y-100621942D01*
X156657490Y-100656930D01*
X156606167Y-100685992D01*
X156578300Y-100701177D01*
X156565602Y-100707646D01*
X156554990Y-100713106D01*
X156545774Y-100718959D01*
X156537263Y-100726606D01*
X156528769Y-100737449D01*
X156519600Y-100752887D01*
X156509066Y-100774324D01*
X156496478Y-100803160D01*
X156481145Y-100840796D01*
X156462378Y-100888635D01*
X156439487Y-100948076D01*
X156418962Y-101001742D01*
X156418962Y-102406607D01*
X156421108Y-102412175D01*
X156418595Y-102427285D01*
X156411072Y-102453122D01*
X156398187Y-102490875D01*
X156379588Y-102541730D01*
X156354925Y-102606876D01*
X156350821Y-102617586D01*
X156278412Y-102796371D01*
X156195718Y-102982869D01*
X156104503Y-103173764D01*
X156006534Y-103365737D01*
X155903577Y-103555472D01*
X155797398Y-103739652D01*
X155689762Y-103914957D01*
X155582435Y-104078072D01*
X155543852Y-104133682D01*
X155504238Y-104189904D01*
X155472967Y-104233949D01*
X155448568Y-104267439D01*
X155429566Y-104291993D01*
X155414489Y-104309232D01*
X155401863Y-104320778D01*
X155390217Y-104328250D01*
X155378077Y-104333271D01*
X155363969Y-104337459D01*
X155356865Y-104339427D01*
X155327951Y-104347503D01*
X155304074Y-104354173D01*
X155293483Y-104357133D01*
X155281200Y-104356615D01*
X155278666Y-104352345D01*
X155283234Y-104343097D01*
X155296060Y-104321931D01*
X155315826Y-104290895D01*
X155341215Y-104252037D01*
X155370910Y-104207406D01*
X155392018Y-104176091D01*
X155451814Y-104086708D01*
X155507958Y-104000274D01*
X155561953Y-103914250D01*
X155615304Y-103826098D01*
X155669512Y-103733277D01*
X155726082Y-103633251D01*
X155786518Y-103523479D01*
X155852322Y-103401424D01*
X155866450Y-103374957D01*
X155945099Y-103224003D01*
X156015228Y-103081800D01*
X156078882Y-102943870D01*
X156138108Y-102805734D01*
X156194952Y-102662913D01*
X156210814Y-102621227D01*
X156239163Y-102546021D01*
X156319831Y-102482353D01*
X156352248Y-102456782D01*
X156380572Y-102434468D01*
X156401719Y-102417838D01*
X156412511Y-102409392D01*
X156418962Y-102406607D01*
X156418962Y-101001742D01*
X156411780Y-101020521D01*
X156379593Y-101104700D01*
X156346176Y-101191566D01*
X156310251Y-101284130D01*
X156271405Y-101383430D01*
X156229225Y-101490502D01*
X156183298Y-101606385D01*
X156133212Y-101732115D01*
X156078553Y-101868730D01*
X156018909Y-102017267D01*
X155953867Y-102178763D01*
X155883014Y-102354255D01*
X155838056Y-102465428D01*
X155803224Y-102551713D01*
X155774418Y-102623585D01*
X155751187Y-102682275D01*
X155733083Y-102729016D01*
X155719655Y-102765040D01*
X155710453Y-102791579D01*
X155705028Y-102809866D01*
X155702930Y-102821133D01*
X155703708Y-102826613D01*
X155705834Y-102827666D01*
X155719276Y-102823548D01*
X155745884Y-102811070D01*
X155786017Y-102790049D01*
X155840035Y-102760303D01*
X155860997Y-102748524D01*
X155898548Y-102727747D01*
X155930626Y-102710768D01*
X155954494Y-102698977D01*
X155967412Y-102693764D01*
X155968850Y-102693762D01*
X155967990Y-102703760D01*
X155960555Y-102727040D01*
X155947405Y-102761669D01*
X155929401Y-102805716D01*
X155907404Y-102857247D01*
X155882274Y-102914332D01*
X155854871Y-102975037D01*
X155826055Y-103037431D01*
X155796688Y-103099582D01*
X155767629Y-103159556D01*
X155739738Y-103215423D01*
X155716944Y-103259466D01*
X155656093Y-103372436D01*
X155591447Y-103488493D01*
X155525003Y-103604232D01*
X155458756Y-103716251D01*
X155394703Y-103821146D01*
X155334839Y-103915511D01*
X155310847Y-103952057D01*
X155283437Y-103992633D01*
X155250494Y-104040327D01*
X155213890Y-104092532D01*
X155175496Y-104146640D01*
X155137182Y-104200044D01*
X155100822Y-104250137D01*
X155068287Y-104294310D01*
X155041447Y-104329956D01*
X155022175Y-104354468D01*
X155020992Y-104355900D01*
X154999875Y-104381300D01*
X154999610Y-104254300D01*
X155003554Y-104063971D01*
X155015776Y-103865706D01*
X155035707Y-103664606D01*
X155062775Y-103465770D01*
X155096413Y-103274300D01*
X155123096Y-103149399D01*
X155155147Y-103022097D01*
X155194872Y-102883255D01*
X155241170Y-102735817D01*
X155292941Y-102582727D01*
X155349086Y-102426929D01*
X155408505Y-102271367D01*
X155470099Y-102118984D01*
X155532769Y-101972725D01*
X155595413Y-101835533D01*
X155656934Y-101710354D01*
X155670100Y-101684925D01*
X155759095Y-101521838D01*
X155852513Y-101365000D01*
X155952675Y-101210885D01*
X156061902Y-101055965D01*
X156182516Y-100896716D01*
X156221071Y-100847817D01*
X156247530Y-100813516D01*
X156268877Y-100783849D01*
X156283458Y-100761275D01*
X156289622Y-100748256D01*
X156289286Y-100746217D01*
X156278229Y-100738527D01*
X156258368Y-100724636D01*
X156241934Y-100713116D01*
X156219280Y-100698048D01*
X156201995Y-100688054D01*
X156195546Y-100685600D01*
X156187716Y-100691601D01*
X156170527Y-100708259D01*
X156145848Y-100733554D01*
X156115548Y-100765464D01*
X156081495Y-100801970D01*
X156045556Y-100841052D01*
X156009602Y-100880690D01*
X155975499Y-100918862D01*
X155945117Y-100953550D01*
X155920324Y-100982733D01*
X155916853Y-100986935D01*
X155853682Y-101065929D01*
X155788173Y-101151692D01*
X155722013Y-101241760D01*
X155656890Y-101333667D01*
X155594491Y-101424947D01*
X155536503Y-101513135D01*
X155484612Y-101595764D01*
X155440508Y-101670370D01*
X155407527Y-101731233D01*
X155392008Y-101760192D01*
X155377349Y-101785071D01*
X155367852Y-101798966D01*
X155363130Y-101804981D01*
X155359603Y-101808981D01*
X155357496Y-101809233D01*
X155357032Y-101804003D01*
X155358437Y-101791556D01*
X155361934Y-101770159D01*
X155367748Y-101738077D01*
X155376104Y-101693575D01*
X155387225Y-101634921D01*
X155393042Y-101604233D01*
X155436676Y-101395107D01*
X155485905Y-101198561D01*
X155540501Y-101015247D01*
X155600239Y-100845819D01*
X155664890Y-100690929D01*
X155734228Y-100551231D01*
X155795116Y-100447380D01*
X155864212Y-100344604D01*
X155930732Y-100258162D01*
X155994996Y-100187705D01*
X156057326Y-100132882D01*
X156118039Y-100093344D01*
X156119895Y-100092361D01*
X156146147Y-100078450D01*
X156165742Y-100067879D01*
X156174587Y-100062856D01*
X156174661Y-100062801D01*
X156172772Y-100054581D01*
X156165605Y-100033775D01*
X156154282Y-100003473D01*
X156139922Y-99966766D01*
X156139051Y-99964583D01*
X156107038Y-99877634D01*
X156076936Y-99782856D01*
X156049817Y-99684544D01*
X156026752Y-99586995D01*
X156008814Y-99494504D01*
X155997074Y-99411369D01*
X155994682Y-99385966D01*
X155989613Y-99326188D01*
X155985119Y-99281982D01*
X155981016Y-99252001D01*
X155977118Y-99234901D01*
X155973241Y-99229336D01*
X155973146Y-99229333D01*
X155967825Y-99236698D01*
X155956503Y-99257406D01*
X155940168Y-99289379D01*
X155919812Y-99330537D01*
X155904852Y-99361406D01*
X155904852Y-99618799D01*
X155910562Y-99626280D01*
X155913672Y-99644827D01*
X155913849Y-99650549D01*
X155916655Y-99682108D01*
X155924013Y-99724544D01*
X155934756Y-99772798D01*
X155947716Y-99821808D01*
X155961727Y-99866514D01*
X155967063Y-99881266D01*
X155977717Y-99910617D01*
X155985565Y-99934611D01*
X155988902Y-99948028D01*
X155983632Y-99957985D01*
X155968482Y-99977491D01*
X155945520Y-100004098D01*
X155916812Y-100035354D01*
X155903083Y-100049751D01*
X155810858Y-100155808D01*
X155726006Y-100275219D01*
X155648181Y-100408587D01*
X155577037Y-100556515D01*
X155512227Y-100719606D01*
X155502541Y-100746810D01*
X155487958Y-100787560D01*
X155475220Y-100821609D01*
X155465384Y-100846249D01*
X155459510Y-100858769D01*
X155458452Y-100859740D01*
X155458344Y-100849955D01*
X155461716Y-100826649D01*
X155467940Y-100792730D01*
X155476390Y-100751106D01*
X155486438Y-100704685D01*
X155497457Y-100656375D01*
X155508820Y-100609082D01*
X155519899Y-100565714D01*
X155528890Y-100533200D01*
X155570483Y-100398939D01*
X155618652Y-100258611D01*
X155671535Y-100117061D01*
X155727270Y-99979135D01*
X155783994Y-99849680D01*
X155824200Y-99764849D01*
X155846940Y-99719508D01*
X155867641Y-99679898D01*
X155885012Y-99648360D01*
X155897761Y-99627231D01*
X155904597Y-99618849D01*
X155904852Y-99618799D01*
X155904852Y-99361406D01*
X155896422Y-99378802D01*
X155870990Y-99432095D01*
X155844505Y-99488336D01*
X155817957Y-99545446D01*
X155792335Y-99601347D01*
X155768629Y-99653959D01*
X155747829Y-99701204D01*
X155741384Y-99716166D01*
X155694262Y-99831958D01*
X155645721Y-99961711D01*
X155596605Y-100102605D01*
X155547756Y-100251820D01*
X155500018Y-100406535D01*
X155454232Y-100563931D01*
X155411242Y-100721186D01*
X155371891Y-100875481D01*
X155337021Y-101023995D01*
X155307474Y-101163907D01*
X155304972Y-101176666D01*
X155282228Y-101304599D01*
X155261122Y-101445347D01*
X155242133Y-101594831D01*
X155225743Y-101748973D01*
X155212432Y-101903692D01*
X155203705Y-102036033D01*
X155196615Y-102163033D01*
X155126732Y-102323899D01*
X155067654Y-102463840D01*
X155015083Y-102597357D01*
X154968260Y-102727183D01*
X154926425Y-102856049D01*
X154888817Y-102986689D01*
X154854679Y-103121834D01*
X154823251Y-103264216D01*
X154793772Y-103416568D01*
X154765485Y-103581623D01*
X154750196Y-103678566D01*
X154735293Y-103777152D01*
X154723078Y-103862383D01*
X154713287Y-103937580D01*
X154705658Y-104006061D01*
X154699928Y-104071147D01*
X154695835Y-104136158D01*
X154693115Y-104204412D01*
X154691507Y-104279231D01*
X154690747Y-104363933D01*
X154690579Y-104432100D01*
X154690884Y-104524834D01*
X154690884Y-104524834D01*
G37*
X154690884Y-104524834D02*
X154691902Y-104609933D01*
X154693582Y-104685419D01*
X154695870Y-104749318D01*
X154698714Y-104799652D01*
X154701012Y-104825800D01*
X154708242Y-104889547D01*
X154716096Y-104954682D01*
X154724258Y-105018953D01*
X154732412Y-105080109D01*
X154740240Y-105135899D01*
X154747426Y-105184074D01*
X154753653Y-105222381D01*
X154758605Y-105248569D01*
X154761965Y-105260389D01*
X154762179Y-105260671D01*
X154770144Y-105257274D01*
X154788698Y-105243641D01*
X154816201Y-105221249D01*
X154851014Y-105191575D01*
X154891498Y-105156097D01*
X154936014Y-105116294D01*
X154982921Y-105073641D01*
X155030583Y-105029618D01*
X155077358Y-104985702D01*
X155121608Y-104943370D01*
X155161694Y-104904101D01*
X155194145Y-104871266D01*
X155295928Y-104763253D01*
X155392274Y-104654912D01*
X155484875Y-104544016D01*
X155575426Y-104428336D01*
X155665620Y-104305645D01*
X155757151Y-104173715D01*
X155851713Y-104030319D01*
X155942196Y-103887392D01*
X156045672Y-103717498D01*
X156138385Y-103557000D01*
X156221467Y-103403244D01*
X156296056Y-103253579D01*
X156363284Y-103105353D01*
X156424288Y-102955912D01*
X156480203Y-102802606D01*
X156532162Y-102642782D01*
X156581302Y-102473786D01*
X156628756Y-102292968D01*
X156634748Y-102268908D01*
X156649108Y-102211513D01*
X156662490Y-102159120D01*
X156674261Y-102114119D01*
X156683791Y-102078899D01*
X156690447Y-102055849D01*
X156693261Y-102047806D01*
X156699914Y-102037951D01*
X156715505Y-102016270D01*
X156738784Y-101984462D01*
X156768496Y-101944224D01*
X156803391Y-101897254D01*
X156842217Y-101845249D01*
X156869371Y-101809013D01*
X156918156Y-101743296D01*
X156970733Y-101671225D01*
X157024318Y-101596704D01*
X157076124Y-101523636D01*
X157123365Y-101455925D01*
X157163255Y-101397473D01*
X157165585Y-101394001D01*
X157292817Y-101204154D01*
X157388525Y-101198920D01*
X157429104Y-101196722D01*
X157481617Y-101193906D01*
X157541086Y-101190739D01*
X157602536Y-101187486D01*
X157649333Y-101185022D01*
X157712186Y-101181632D01*
X157780194Y-101177811D01*
X157847350Y-101173907D01*
X157907650Y-101170265D01*
X157941433Y-101168132D01*
X157990750Y-101165114D01*
X158051793Y-101161649D01*
X158119366Y-101158018D01*
X158188278Y-101154498D01*
X158253335Y-101151369D01*
X158254699Y-101151306D01*
X158336812Y-101147357D01*
X158432088Y-101142509D01*
X158536794Y-101136966D01*
X158647197Y-101130935D01*
X158759563Y-101124620D01*
X158870159Y-101118228D01*
X158975252Y-101111963D01*
X159024775Y-101108929D01*
X159069159Y-101106390D01*
X159107165Y-101104607D01*
X159135775Y-101103692D01*
X159151974Y-101103756D01*
X159154462Y-101104173D01*
X159154496Y-101113173D01*
X159152632Y-101136114D01*
X159149153Y-101170144D01*
X159144345Y-101212414D01*
X159140305Y-101245675D01*
X159133429Y-101301846D01*
X159126359Y-101361203D01*
X159119796Y-101417770D01*
X159114440Y-101465570D01*
X159113005Y-101478885D01*
X159108457Y-101517800D01*
X159103825Y-101550793D01*
X159099697Y-101574028D01*
X159097018Y-101583252D01*
X159086884Y-101587140D01*
X159060481Y-101592876D01*
X159018362Y-101600380D01*
X158961081Y-101609568D01*
X158889190Y-101620359D01*
X158803243Y-101632670D01*
X158703794Y-101646419D01*
X158591396Y-101661524D01*
X158466602Y-101677903D01*
X158411333Y-101685052D01*
X158360168Y-101691699D01*
X158295111Y-101700242D01*
X158219050Y-101710296D01*
X158134874Y-101721477D01*
X158045470Y-101733402D01*
X157953725Y-101745685D01*
X157862528Y-101757943D01*
X157810200Y-101765001D01*
X157681576Y-101782338D01*
X157559355Y-101798740D01*
X157444753Y-101814046D01*
X157338990Y-101828097D01*
X157243282Y-101840731D01*
X157158848Y-101851789D01*
X157086906Y-101861109D01*
X157028673Y-101868532D01*
X156985368Y-101873896D01*
X156969211Y-101875812D01*
X156942176Y-101880377D01*
X156922897Y-101886335D01*
X156916514Y-101891042D01*
X156915110Y-101901789D01*
X156912901Y-101927067D01*
X156910061Y-101964506D01*
X156906762Y-102011731D01*
X156903178Y-102066371D01*
X156900061Y-102116466D01*
X156895858Y-102185841D01*
X156891112Y-102264460D01*
X156885952Y-102350156D01*
X156880509Y-102440764D01*
X156874911Y-102534118D01*
X156869288Y-102628051D01*
X156863770Y-102720398D01*
X156858485Y-102808992D01*
X156853564Y-102891667D01*
X156849135Y-102966256D01*
X156845329Y-103030595D01*
X156842274Y-103082516D01*
X156840100Y-103119854D01*
X156839983Y-103121883D01*
X156838037Y-103168654D01*
X156838432Y-103200063D01*
X156841148Y-103215528D01*
X156843067Y-103217133D01*
X156854298Y-103216003D01*
X156879662Y-103212824D01*
X156916900Y-103207913D01*
X156963757Y-103201587D01*
X157017975Y-103194162D01*
X157077297Y-103185956D01*
X157139466Y-103177285D01*
X157202225Y-103168466D01*
X157263317Y-103159816D01*
X157320485Y-103151651D01*
X157371473Y-103144289D01*
X157414022Y-103138046D01*
X157445876Y-103133239D01*
X157464779Y-103130185D01*
X157469093Y-103129262D01*
X157470214Y-103120461D01*
X157472145Y-103096708D01*
X157474756Y-103059959D01*
X157477916Y-103012169D01*
X157481496Y-102955293D01*
X157485365Y-102891287D01*
X157488596Y-102836003D01*
X157492651Y-102767597D01*
X157496602Y-102704676D01*
X157500309Y-102649211D01*
X157503630Y-102603170D01*
X157506426Y-102568523D01*
X157508555Y-102547241D01*
X157509682Y-102541161D01*
X157517285Y-102543495D01*
X157525151Y-102551995D01*
X157529860Y-102557281D01*
X157536554Y-102560679D01*
X157547674Y-102562091D01*
X157565664Y-102561422D01*
X157592968Y-102558575D01*
X157632027Y-102553454D01*
X157685287Y-102545962D01*
X157688046Y-102545569D01*
X157740562Y-102538132D01*
X157790695Y-102531110D01*
X157834639Y-102525032D01*
X157868586Y-102520423D01*
X157885613Y-102518197D01*
X157931394Y-102512445D01*
X157925033Y-102638305D01*
X157922047Y-102697583D01*
X157918647Y-102765326D01*
X157915258Y-102833087D01*
X157912364Y-102891166D01*
X157910476Y-102935912D01*
X157909478Y-102974549D01*
X157909401Y-103003977D01*
X157910276Y-103021092D01*
X157911044Y-103024026D01*
X157920774Y-103024902D01*
X157944932Y-103023643D01*
X157981189Y-103020541D01*
X158027216Y-103015892D01*
X158080683Y-103009989D01*
X158139261Y-103003125D01*
X158200621Y-102995596D01*
X158262432Y-102987694D01*
X158322365Y-102979714D01*
X158378092Y-102971949D01*
X158427282Y-102964695D01*
X158467606Y-102958243D01*
X158496735Y-102952889D01*
X158512339Y-102948927D01*
X158514173Y-102947924D01*
X158516204Y-102938076D01*
X158518803Y-102913829D01*
X158521771Y-102877700D01*
X158524911Y-102832206D01*
X158528025Y-102779864D01*
X158529315Y-102755699D01*
X158532462Y-102696115D01*
X158535689Y-102637549D01*
X158538777Y-102583765D01*
X158541511Y-102538525D01*
X158543672Y-102505595D01*
X158544055Y-102500301D01*
X158549187Y-102431169D01*
X158575510Y-102426367D01*
X158601058Y-102422165D01*
X158637763Y-102416747D01*
X158683056Y-102410437D01*
X158734371Y-102403556D01*
X158789140Y-102396425D01*
X158844796Y-102389367D01*
X158898771Y-102382703D01*
X158948499Y-102376755D01*
X158991411Y-102371845D01*
X159024941Y-102368296D01*
X159046520Y-102366428D01*
X159053587Y-102366431D01*
X159054054Y-102375494D01*
X159053523Y-102399077D01*
X159052134Y-102434803D01*
X159050025Y-102480297D01*
X159047335Y-102533182D01*
X159044202Y-102591084D01*
X159040764Y-102651626D01*
X159037160Y-102712433D01*
X159033528Y-102771128D01*
X159030008Y-102825336D01*
X159026737Y-102872681D01*
X159023854Y-102910788D01*
X159021497Y-102937280D01*
X159019806Y-102949781D01*
X159019542Y-102950413D01*
X159010718Y-102952991D01*
X158987611Y-102958540D01*
X158952511Y-102966545D01*
X158907704Y-102976490D01*
X158855480Y-102987858D01*
X158813319Y-102996902D01*
X158748442Y-103010736D01*
X158671834Y-103027075D01*
X158588323Y-103044887D01*
X158502739Y-103063142D01*
X158419910Y-103080812D01*
X158356299Y-103094384D01*
X158276265Y-103111457D01*
X158186524Y-103130596D01*
X158092645Y-103150613D01*
X158000200Y-103170321D01*
X157914758Y-103188532D01*
X157861000Y-103199986D01*
X157784029Y-103216401D01*
X157698582Y-103234651D01*
X157610086Y-103253575D01*
X157523968Y-103272012D01*
X157445655Y-103288801D01*
X157403800Y-103297788D01*
X157335203Y-103312524D01*
X157262568Y-103328122D01*
X157190497Y-103343592D01*
X157123587Y-103357949D01*
X157066439Y-103370205D01*
X157043966Y-103375021D01*
X156996236Y-103385581D01*
X156953946Y-103395564D01*
X156920031Y-103404229D01*
X156897424Y-103410833D01*
X156889450Y-103414134D01*
X156887230Y-103424128D01*
X156885253Y-103449252D01*
X156883521Y-103487706D01*
X156882038Y-103537686D01*
X156880805Y-103597392D01*
X156879827Y-103665022D01*
X156879107Y-103738775D01*
X156878646Y-103816850D01*
X156878449Y-103897444D01*
X156878518Y-103978756D01*
X156878856Y-104058986D01*
X156879466Y-104136330D01*
X156880352Y-104208989D01*
X156881516Y-104275160D01*
X156882961Y-104333042D01*
X156884690Y-104380833D01*
X156886706Y-104416732D01*
X156887764Y-104429086D01*
X156900928Y-104528715D01*
X156919062Y-104613548D01*
X156942878Y-104685177D01*
X156973084Y-104745195D01*
X157010393Y-104795195D01*
X157055513Y-104836769D01*
X157076234Y-104851614D01*
X157116104Y-104875934D01*
X157155433Y-104894305D01*
X157197703Y-104907583D01*
X157246397Y-104916623D01*
X157304999Y-104922282D01*
X157376454Y-104925402D01*
X157414132Y-104926356D01*
X157448890Y-104926943D01*
X157481882Y-104926974D01*
X157514263Y-104926259D01*
X157547188Y-104924609D01*
X157581811Y-104921834D01*
X157619287Y-104917745D01*
X157660770Y-104912153D01*
X157707414Y-104904868D01*
X157760375Y-104895701D01*
X157820807Y-104884462D01*
X157889864Y-104870963D01*
X157968702Y-104855012D01*
X158058473Y-104836422D01*
X158160334Y-104815003D01*
X158275439Y-104790566D01*
X158404942Y-104762920D01*
X158529866Y-104736187D01*
X158652899Y-104709150D01*
X158761188Y-104683758D01*
X158856773Y-104659396D01*
X158941690Y-104635448D01*
X159017979Y-104611298D01*
X159087678Y-104586331D01*
X159152826Y-104559932D01*
X159215460Y-104531485D01*
X159228366Y-104525251D01*
X159326435Y-104471691D01*
X159409071Y-104413772D01*
X159477489Y-104350232D01*
X159532903Y-104279814D01*
X159576529Y-104201258D01*
X159601514Y-104138387D01*
X159610203Y-104112542D01*
X159617770Y-104088500D01*
X159624311Y-104064908D01*
X159629919Y-104040415D01*
X159634689Y-104013667D01*
X159638713Y-103983311D01*
X159642087Y-103947995D01*
X159644904Y-103906365D01*
X159647258Y-103857071D01*
X159649243Y-103798757D01*
X159650953Y-103730073D01*
X159652482Y-103649665D01*
X159653923Y-103556180D01*
X159655372Y-103448265D01*
X159656679Y-103344133D01*
X159657974Y-103244063D01*
X159659323Y-103148180D01*
X159660699Y-103057953D01*
X159662075Y-102974848D01*
X159663423Y-102900331D01*
X159664715Y-102835871D01*
X159665924Y-102782935D01*
X159667023Y-102742989D01*
X159667985Y-102717501D01*
X159668551Y-102709133D01*
X159669849Y-102693910D01*
X159672021Y-102663392D01*
X159674965Y-102619187D01*
X159678580Y-102562904D01*
X159682766Y-102496153D01*
X159687421Y-102420543D01*
X159692444Y-102337684D01*
X159697735Y-102249184D01*
X159702818Y-102163033D01*
X159710925Y-102029052D01*
X159718866Y-101906295D01*
X159726570Y-101795712D01*
X159733964Y-101698253D01*
X159740976Y-101614867D01*
X159747534Y-101546505D01*
X159753560Y-101494166D01*
X159760601Y-101440292D01*
X159769784Y-101370324D01*
X159781121Y-101284175D01*
X159794624Y-101181758D01*
X159810303Y-101062985D01*
X159828170Y-100927771D01*
X159848237Y-100776027D01*
X159870515Y-100607667D01*
X159893667Y-100432783D01*
X159899310Y-100387789D01*
X159903584Y-100348945D01*
X159906209Y-100319233D01*
X159906904Y-100301638D01*
X159906347Y-100298192D01*
X159896955Y-100297305D01*
X159873077Y-100297286D01*
X159837136Y-100298072D01*
X159795809Y-100299458D01*
X159795809Y-100375152D01*
X159810565Y-100376560D01*
X159816202Y-100382005D01*
X159816799Y-100387048D01*
X159815720Y-100398431D01*
X159812642Y-100424688D01*
X159807807Y-100463910D01*
X159801458Y-100514185D01*
X159793835Y-100573604D01*
X159785181Y-100640257D01*
X159775738Y-100712233D01*
X159773696Y-100727702D01*
X159754835Y-100870222D01*
X159738043Y-100996641D01*
X159723223Y-101107655D01*
X159710280Y-101203958D01*
X159699117Y-101286244D01*
X159689639Y-101355207D01*
X159681748Y-101411542D01*
X159675350Y-101455942D01*
X159670348Y-101489103D01*
X159666646Y-101511719D01*
X159664147Y-101524484D01*
X159662966Y-101528055D01*
X159653906Y-101529509D01*
X159642373Y-101530563D01*
X159642373Y-101600000D01*
X159649991Y-101601908D01*
X159653699Y-101610029D01*
X159654103Y-101627959D01*
X159651995Y-101657150D01*
X159650601Y-101675967D01*
X159648339Y-101709995D01*
X159645311Y-101757536D01*
X159641623Y-101816894D01*
X159637377Y-101886375D01*
X159632678Y-101964281D01*
X159627628Y-102048918D01*
X159622333Y-102138588D01*
X159617682Y-102218066D01*
X159612271Y-102310327D01*
X159607016Y-102398712D01*
X159602021Y-102481568D01*
X159597389Y-102557238D01*
X159593222Y-102624070D01*
X159589625Y-102680409D01*
X159586699Y-102724600D01*
X159584548Y-102754990D01*
X159583382Y-102768967D01*
X159578430Y-102816101D01*
X159558518Y-102818565D01*
X159558518Y-102920799D01*
X159561498Y-102928975D01*
X159564127Y-102952341D01*
X159566406Y-102989160D01*
X159568337Y-103037692D01*
X159569918Y-103096201D01*
X159571152Y-103162946D01*
X159572038Y-103236189D01*
X159572576Y-103314192D01*
X159572768Y-103395216D01*
X159572614Y-103477523D01*
X159572114Y-103559374D01*
X159571270Y-103639031D01*
X159570080Y-103714754D01*
X159568546Y-103784805D01*
X159566669Y-103847447D01*
X159564449Y-103900939D01*
X159561886Y-103943544D01*
X159558981Y-103973523D01*
X159558211Y-103978782D01*
X159537964Y-104073846D01*
X159509644Y-104155980D01*
X159472073Y-104227716D01*
X159424075Y-104291590D01*
X159401933Y-104315262D01*
X159357948Y-104355715D01*
X159308482Y-104393243D01*
X159252289Y-104428337D01*
X159188121Y-104461485D01*
X159114732Y-104493178D01*
X159030874Y-104523905D01*
X158935303Y-104554156D01*
X158826769Y-104584420D01*
X158704028Y-104615189D01*
X158565831Y-104646950D01*
X158546799Y-104651148D01*
X158404687Y-104682300D01*
X158277898Y-104709938D01*
X158165238Y-104734277D01*
X158065515Y-104755534D01*
X157977535Y-104773926D01*
X157900104Y-104789671D01*
X157832029Y-104802984D01*
X157772116Y-104814082D01*
X157719172Y-104823182D01*
X157672003Y-104830501D01*
X157629416Y-104836255D01*
X157590216Y-104840662D01*
X157553211Y-104843937D01*
X157517207Y-104846298D01*
X157481010Y-104847962D01*
X157458833Y-104848712D01*
X157389563Y-104850191D01*
X157333913Y-104849686D01*
X157288643Y-104846772D01*
X157250510Y-104841022D01*
X157216276Y-104832011D01*
X157182697Y-104819313D01*
X157161232Y-104809612D01*
X157102555Y-104773504D01*
X157056096Y-104726020D01*
X157022125Y-104669166D01*
X157011572Y-104645766D01*
X157002551Y-104623269D01*
X156994912Y-104600127D01*
X156988507Y-104574788D01*
X156983188Y-104545702D01*
X156978805Y-104511318D01*
X156975211Y-104470087D01*
X156972257Y-104420457D01*
X156969794Y-104360879D01*
X156967673Y-104289802D01*
X156965746Y-104205676D01*
X156963864Y-104106950D01*
X156962885Y-104051100D01*
X156961500Y-103963743D01*
X156960394Y-103879446D01*
X156959576Y-103800128D01*
X156959055Y-103727705D01*
X156958841Y-103664096D01*
X156958943Y-103611218D01*
X156959371Y-103570990D01*
X156960135Y-103545329D01*
X156960360Y-103541664D01*
X156963342Y-103507117D01*
X156966833Y-103485915D01*
X156971960Y-103474481D01*
X156979851Y-103469236D01*
X156983528Y-103468188D01*
X156997167Y-103465158D01*
X157024514Y-103459250D01*
X157062709Y-103451076D01*
X157108891Y-103441247D01*
X157160198Y-103430376D01*
X157166733Y-103428995D01*
X157222393Y-103417190D01*
X157289986Y-103402784D01*
X157364896Y-103386766D01*
X157442507Y-103370124D01*
X157518202Y-103353846D01*
X157564666Y-103343825D01*
X157634862Y-103328746D01*
X157708436Y-103313081D01*
X157781172Y-103297719D01*
X157848854Y-103283547D01*
X157907266Y-103271454D01*
X157941433Y-103264489D01*
X158002986Y-103251817D01*
X158072270Y-103237154D01*
X158141907Y-103222085D01*
X158204516Y-103208194D01*
X158220833Y-103204491D01*
X158276572Y-103192011D01*
X158342574Y-103177629D01*
X158412485Y-103162706D01*
X158479951Y-103148606D01*
X158517166Y-103140994D01*
X158581056Y-103127842D01*
X158654660Y-103112333D01*
X158731195Y-103095917D01*
X158803875Y-103080045D01*
X158847366Y-103070364D01*
X158908469Y-103056804D01*
X158973150Y-103042758D01*
X159036197Y-103029335D01*
X159092398Y-103017649D01*
X159130999Y-103009890D01*
X159179995Y-103000045D01*
X159239479Y-102987717D01*
X159303427Y-102974176D01*
X159365817Y-102960690D01*
X159395535Y-102954145D01*
X159444395Y-102943451D01*
X159488048Y-102934178D01*
X159523603Y-102926920D01*
X159548165Y-102922269D01*
X159558518Y-102920799D01*
X159558518Y-102818565D01*
X159346579Y-102844793D01*
X159285940Y-102852149D01*
X159230994Y-102858531D01*
X159183920Y-102863709D01*
X159146897Y-102867453D01*
X159122104Y-102869531D01*
X159111721Y-102869715D01*
X159111563Y-102869625D01*
X159111260Y-102860499D01*
X159111993Y-102836681D01*
X159113652Y-102800372D01*
X159116127Y-102753774D01*
X159119306Y-102699090D01*
X159123080Y-102638521D01*
X159123440Y-102632933D01*
X159127507Y-102567808D01*
X159131195Y-102504609D01*
X159134345Y-102446387D01*
X159136798Y-102396195D01*
X159138397Y-102357086D01*
X159138974Y-102333810D01*
X159139466Y-102267521D01*
X159116183Y-102272273D01*
X159102508Y-102274456D01*
X159074141Y-102278519D01*
X159033181Y-102284175D01*
X158981730Y-102291141D01*
X158921890Y-102299132D01*
X158855762Y-102307862D01*
X158797835Y-102315435D01*
X158728515Y-102324629D01*
X158664128Y-102333494D01*
X158606704Y-102341727D01*
X158558272Y-102349022D01*
X158520864Y-102355076D01*
X158496509Y-102359583D01*
X158487599Y-102361964D01*
X158483247Y-102364622D01*
X158479612Y-102368589D01*
X158476516Y-102375515D01*
X158473777Y-102387053D01*
X158471217Y-102404853D01*
X158468655Y-102430565D01*
X158465912Y-102465840D01*
X158462808Y-102512329D01*
X158459164Y-102571683D01*
X158454800Y-102645553D01*
X158452567Y-102683733D01*
X158449228Y-102735991D01*
X158445666Y-102783354D01*
X158442146Y-102822870D01*
X158438933Y-102851586D01*
X158436291Y-102866553D01*
X158436133Y-102867014D01*
X158427934Y-102878766D01*
X158411315Y-102886140D01*
X158384356Y-102890859D01*
X158361056Y-102893877D01*
X158324770Y-102898678D01*
X158279292Y-102904756D01*
X158228413Y-102911605D01*
X158187631Y-102917128D01*
X158137146Y-102923806D01*
X158090987Y-102929581D01*
X158052380Y-102934075D01*
X158024553Y-102936910D01*
X158011749Y-102937733D01*
X157987603Y-102937733D01*
X157992172Y-102872116D01*
X157998304Y-102783015D01*
X158003230Y-102708949D01*
X158007052Y-102648070D01*
X158009875Y-102598530D01*
X158011802Y-102558482D01*
X158012937Y-102526077D01*
X158013383Y-102499469D01*
X158013400Y-102493763D01*
X158013400Y-102429733D01*
X157977416Y-102429865D01*
X157955703Y-102431114D01*
X157921561Y-102434438D01*
X157879299Y-102439366D01*
X157833228Y-102445421D01*
X157822900Y-102446873D01*
X157772635Y-102453672D01*
X157721411Y-102459991D01*
X157674964Y-102465158D01*
X157639030Y-102468502D01*
X157636633Y-102468681D01*
X157568900Y-102473615D01*
X157515498Y-102375674D01*
X157495077Y-102338876D01*
X157477082Y-102307661D01*
X157463255Y-102284965D01*
X157455337Y-102273726D01*
X157454658Y-102273135D01*
X157451734Y-102272742D01*
X157449047Y-102276234D01*
X157446478Y-102284909D01*
X157443910Y-102300065D01*
X157441224Y-102322998D01*
X157438302Y-102355005D01*
X157435027Y-102397384D01*
X157431280Y-102451433D01*
X157426944Y-102518447D01*
X157421901Y-102599724D01*
X157416032Y-102696563D01*
X157415792Y-102700548D01*
X157411177Y-102776740D01*
X157406827Y-102847489D01*
X157402856Y-102911052D01*
X157399374Y-102965687D01*
X157396493Y-103009651D01*
X157394326Y-103041203D01*
X157392984Y-103058599D01*
X157392628Y-103061515D01*
X157384185Y-103062947D01*
X157361137Y-103066354D01*
X157325661Y-103071429D01*
X157279932Y-103077863D01*
X157226125Y-103085348D01*
X157166415Y-103093575D01*
X157163375Y-103093992D01*
X157093441Y-103103433D01*
X157038520Y-103110460D01*
X156996888Y-103115220D01*
X156966821Y-103117860D01*
X156946593Y-103118526D01*
X156934479Y-103117366D01*
X156928756Y-103114527D01*
X156928380Y-103114025D01*
X156925263Y-103100202D01*
X156924333Y-103075236D01*
X156925576Y-103047799D01*
X156926876Y-103029464D01*
X156929059Y-102995893D01*
X156932022Y-102948756D01*
X156935665Y-102889722D01*
X156939885Y-102820460D01*
X156944581Y-102742639D01*
X156949651Y-102657929D01*
X156954993Y-102567999D01*
X156960152Y-102480533D01*
X156965619Y-102388996D01*
X156970952Y-102302504D01*
X156976050Y-102222535D01*
X156980809Y-102150564D01*
X156985129Y-102088068D01*
X156988906Y-102036524D01*
X156992038Y-101997408D01*
X156994424Y-101972197D01*
X156995962Y-101962368D01*
X156995997Y-101962323D01*
X156998779Y-101960869D01*
X157005110Y-101959037D01*
X157015696Y-101956726D01*
X157031245Y-101953839D01*
X157052466Y-101950278D01*
X157080066Y-101945943D01*
X157114752Y-101940738D01*
X157157232Y-101934562D01*
X157208214Y-101927318D01*
X157268406Y-101918907D01*
X157338515Y-101909231D01*
X157419249Y-101898192D01*
X157511316Y-101885691D01*
X157615424Y-101871629D01*
X157732279Y-101855909D01*
X157862590Y-101838431D01*
X158007065Y-101819098D01*
X158166411Y-101797811D01*
X158341336Y-101774471D01*
X158474833Y-101756673D01*
X158564303Y-101744710D01*
X158666256Y-101731012D01*
X158776400Y-101716162D01*
X158890442Y-101700738D01*
X159004091Y-101685323D01*
X159113055Y-101670496D01*
X159213042Y-101656838D01*
X159229111Y-101654637D01*
X159309708Y-101643633D01*
X159385458Y-101633369D01*
X159454650Y-101624072D01*
X159515576Y-101615968D01*
X159566526Y-101609283D01*
X159605792Y-101604243D01*
X159631665Y-101601073D01*
X159642373Y-101600000D01*
X159642373Y-101530563D01*
X159630609Y-101531639D01*
X159595702Y-101534289D01*
X159551811Y-101537309D01*
X159501564Y-101540543D01*
X159447587Y-101543838D01*
X159392507Y-101547042D01*
X159338950Y-101550001D01*
X159289544Y-101552561D01*
X159246916Y-101554569D01*
X159213691Y-101555873D01*
X159192498Y-101556317D01*
X159185904Y-101555905D01*
X159186002Y-101547023D01*
X159188063Y-101525042D01*
X159191707Y-101493635D01*
X159194895Y-101468766D01*
X159205853Y-101385057D01*
X159216592Y-101300801D01*
X159226918Y-101217697D01*
X159236637Y-101137445D01*
X159245558Y-101061744D01*
X159253486Y-100992294D01*
X159260228Y-100930794D01*
X159265591Y-100878944D01*
X159269382Y-100838443D01*
X159271406Y-100810990D01*
X159271472Y-100798286D01*
X159271230Y-100797661D01*
X159265922Y-100796955D01*
X159257113Y-100803548D01*
X159243693Y-100818826D01*
X159224556Y-100844176D01*
X159198592Y-100880986D01*
X159164695Y-100930642D01*
X159163146Y-100932932D01*
X159135806Y-100971719D01*
X159112269Y-101001853D01*
X159094241Y-101021277D01*
X159084433Y-101027849D01*
X159072229Y-101029052D01*
X159045171Y-101030895D01*
X159005319Y-101033263D01*
X158954736Y-101036042D01*
X158895483Y-101039119D01*
X158829621Y-101042379D01*
X158771166Y-101045155D01*
X158711031Y-101048027D01*
X158636307Y-101051711D01*
X158549313Y-101056088D01*
X158452368Y-101061037D01*
X158347791Y-101066439D01*
X158237900Y-101072173D01*
X158125015Y-101078120D01*
X158011454Y-101084158D01*
X157899536Y-101090170D01*
X157856766Y-101092484D01*
X157719604Y-101099924D01*
X157598369Y-101106492D01*
X157492076Y-101112234D01*
X157399745Y-101117192D01*
X157320391Y-101121411D01*
X157253033Y-101124935D01*
X157196689Y-101127807D01*
X157150375Y-101130072D01*
X157113108Y-101131773D01*
X157083907Y-101132954D01*
X157061789Y-101133659D01*
X157045771Y-101133932D01*
X157034870Y-101133817D01*
X157028104Y-101133357D01*
X157024490Y-101132598D01*
X157023046Y-101131581D01*
X157022790Y-101130353D01*
X157022800Y-101129731D01*
X157023921Y-101120035D01*
X157027069Y-101095928D01*
X157031916Y-101059772D01*
X157038137Y-101013924D01*
X157045405Y-100960745D01*
X157053395Y-100902595D01*
X157061780Y-100841832D01*
X157070235Y-100780816D01*
X157078433Y-100721907D01*
X157086048Y-100667464D01*
X157092754Y-100619846D01*
X157098225Y-100581413D01*
X157102136Y-100554525D01*
X157103778Y-100543783D01*
X157109702Y-100524040D01*
X157121115Y-100516715D01*
X157127299Y-100516266D01*
X157139870Y-100515827D01*
X157167352Y-100514577D01*
X157207744Y-100512616D01*
X157259046Y-100510045D01*
X157319261Y-100506963D01*
X157386388Y-100503471D01*
X157458429Y-100499670D01*
X157463465Y-100499402D01*
X157529743Y-100495891D01*
X157610344Y-100491643D01*
X157702680Y-100486794D01*
X157804164Y-100481479D01*
X157912209Y-100475833D01*
X158024225Y-100469992D01*
X158137627Y-100464090D01*
X158249825Y-100458264D01*
X158356299Y-100452747D01*
X158550416Y-100442692D01*
X158728121Y-100433464D01*
X158889916Y-100425036D01*
X159036300Y-100417381D01*
X159167774Y-100410472D01*
X159284838Y-100404283D01*
X159387994Y-100398786D01*
X159477741Y-100393955D01*
X159554579Y-100389763D01*
X159619011Y-100386184D01*
X159671534Y-100383189D01*
X159712651Y-100380752D01*
X159742862Y-100378848D01*
X159762667Y-100377447D01*
X159768116Y-100376993D01*
X159795809Y-100375152D01*
X159795809Y-100299458D01*
X159791552Y-100299601D01*
X159738747Y-100301810D01*
X159705523Y-100303390D01*
X159649704Y-100306014D01*
X159599768Y-100308083D01*
X159558120Y-100309520D01*
X159527162Y-100310249D01*
X159509297Y-100310193D01*
X159505874Y-100309762D01*
X159511649Y-100305020D01*
X159529870Y-100294654D01*
X159557651Y-100280226D01*
X159589803Y-100264401D01*
X159666860Y-100222978D01*
X159733589Y-100176947D01*
X159792317Y-100123883D01*
X159845370Y-100061362D01*
X159895074Y-99986958D01*
X159943757Y-99898248D01*
X159946611Y-99892588D01*
X159976729Y-99826089D01*
X160007493Y-99746207D01*
X160037861Y-99656410D01*
X160066790Y-99560164D01*
X160093239Y-99460935D01*
X160116166Y-99362192D01*
X160134522Y-99267433D01*
X160149994Y-99147701D01*
X160153283Y-99039728D01*
X160144389Y-98943508D01*
X160123310Y-98859037D01*
X160090044Y-98786309D01*
X160044590Y-98725321D01*
X159986946Y-98676068D01*
X159940904Y-98649334D01*
X159924077Y-98641010D01*
X159908637Y-98633575D01*
X159893581Y-98626980D01*
X159877904Y-98621173D01*
X159860602Y-98616106D01*
X159840671Y-98611727D01*
X159817107Y-98607987D01*
X159788904Y-98604834D01*
X159755061Y-98602220D01*
X159714571Y-98600093D01*
X159666430Y-98598403D01*
X159609636Y-98597100D01*
X159543183Y-98596134D01*
X159466066Y-98595454D01*
X159377283Y-98595010D01*
X159275829Y-98594753D01*
X159160699Y-98594630D01*
X159030890Y-98594594D01*
X158885396Y-98594592D01*
X158847366Y-98594591D01*
X158696944Y-98594579D01*
X158562431Y-98594593D01*
X158442803Y-98594689D01*
X158341529Y-98594912D01*
X158341529Y-98671239D01*
X158434920Y-98671303D01*
X158541598Y-98671473D01*
X158662586Y-98671736D01*
X158798902Y-98672077D01*
X158884203Y-98672301D01*
X159812566Y-98674766D01*
X159877496Y-98702787D01*
X159941916Y-98738123D01*
X159992640Y-98783060D01*
X160030591Y-98838661D01*
X160056697Y-98905987D01*
X160057673Y-98909548D01*
X160064212Y-98946036D01*
X160068304Y-98994904D01*
X160069954Y-99051776D01*
X160069168Y-99112277D01*
X160065952Y-99172033D01*
X160060312Y-99226669D01*
X160057245Y-99246891D01*
X160047174Y-99299906D01*
X160033540Y-99362671D01*
X160017358Y-99431234D01*
X159999643Y-99501642D01*
X159981409Y-99569941D01*
X159963670Y-99632180D01*
X159947443Y-99684405D01*
X159937880Y-99711933D01*
X159891303Y-99825611D01*
X159841325Y-99923586D01*
X159786967Y-100006912D01*
X159727249Y-100076646D01*
X159661194Y-100133841D01*
X159587820Y-100179555D01*
X159506150Y-100214841D01*
X159456966Y-100230290D01*
X159445934Y-100233309D01*
X159435157Y-100235988D01*
X159423603Y-100238353D01*
X159410240Y-100240427D01*
X159394034Y-100242233D01*
X159373954Y-100243794D01*
X159348967Y-100245134D01*
X159318041Y-100246277D01*
X159280142Y-100247245D01*
X159234239Y-100248063D01*
X159179299Y-100248753D01*
X159114290Y-100249340D01*
X159038178Y-100249846D01*
X158949932Y-100250296D01*
X158848519Y-100250712D01*
X158732907Y-100251118D01*
X158602062Y-100251538D01*
X158508699Y-100251828D01*
X158357909Y-100252208D01*
X158293487Y-100252290D01*
X158293487Y-100331142D01*
X158356299Y-100331208D01*
X158469022Y-100331490D01*
X158569865Y-100331946D01*
X158658206Y-100332565D01*
X158733423Y-100333339D01*
X158794897Y-100334257D01*
X158842006Y-100335311D01*
X158874128Y-100336490D01*
X158890643Y-100337785D01*
X158890929Y-100339187D01*
X158889699Y-100339383D01*
X158871949Y-100341147D01*
X158838983Y-100343645D01*
X158792499Y-100346777D01*
X158734196Y-100350439D01*
X158665770Y-100354529D01*
X158588919Y-100358947D01*
X158505341Y-100363589D01*
X158416733Y-100368353D01*
X158347833Y-100371954D01*
X158256163Y-100376706D01*
X158167927Y-100381318D01*
X158084869Y-100385697D01*
X158008731Y-100389749D01*
X157941259Y-100393381D01*
X157884194Y-100396499D01*
X157839279Y-100399009D01*
X157808260Y-100400818D01*
X157795383Y-100401642D01*
X157763801Y-100402858D01*
X157742221Y-100401624D01*
X157734005Y-100398136D01*
X157734000Y-100398023D01*
X157737969Y-100382006D01*
X157747259Y-100360796D01*
X157757945Y-100342594D01*
X157763461Y-100336479D01*
X157773175Y-100335450D01*
X157798430Y-100334501D01*
X157837836Y-100333644D01*
X157890000Y-100332893D01*
X157953530Y-100332259D01*
X158027036Y-100331754D01*
X158109125Y-100331391D01*
X158198406Y-100331183D01*
X158293487Y-100331142D01*
X158293487Y-100252290D01*
X158218069Y-100252386D01*
X158089806Y-100252363D01*
X157973746Y-100252146D01*
X157870515Y-100251736D01*
X157780738Y-100251139D01*
X157705043Y-100250357D01*
X157644055Y-100249395D01*
X157598399Y-100248256D01*
X157568702Y-100246943D01*
X157559331Y-100246141D01*
X157474675Y-100230281D01*
X157403898Y-100205020D01*
X157346703Y-100170211D01*
X157302792Y-100125711D01*
X157298506Y-100119861D01*
X157274660Y-100081338D01*
X157257575Y-100040886D01*
X157246145Y-99994456D01*
X157239263Y-99938001D01*
X157236697Y-99893830D01*
X157236290Y-99817986D01*
X157241518Y-99739611D01*
X157252811Y-99655374D01*
X157270598Y-99561945D01*
X157290609Y-99474989D01*
X157328970Y-99332039D01*
X157370424Y-99205144D01*
X157415471Y-99093627D01*
X157464611Y-98996810D01*
X157518345Y-98914013D01*
X157577174Y-98844560D01*
X157641598Y-98787772D01*
X157712118Y-98742970D01*
X157789235Y-98709477D01*
X157872437Y-98686820D01*
X157885930Y-98684159D01*
X157899447Y-98681796D01*
X157914008Y-98679715D01*
X157930634Y-98677902D01*
X157950345Y-98676343D01*
X157974161Y-98675023D01*
X158003103Y-98673927D01*
X158038190Y-98673041D01*
X158080444Y-98672349D01*
X158130885Y-98671838D01*
X158190532Y-98671492D01*
X158260407Y-98671297D01*
X158341529Y-98671239D01*
X158341529Y-98594912D01*
X158337034Y-98594922D01*
X158244102Y-98595350D01*
X158162981Y-98596028D01*
X158092648Y-98597012D01*
X158032077Y-98598358D01*
X157980245Y-98600122D01*
X157936126Y-98602360D01*
X157898698Y-98605128D01*
X157866935Y-98608483D01*
X157839813Y-98612480D01*
X157816307Y-98617176D01*
X157795394Y-98622626D01*
X157776049Y-98628887D01*
X157757248Y-98636014D01*
X157737966Y-98644063D01*
X157717178Y-98653091D01*
X157708402Y-98656907D01*
X157677208Y-98670343D01*
X157652644Y-98680769D01*
X157638279Y-98686677D01*
X157636042Y-98687466D01*
X157636328Y-98679999D01*
X157640655Y-98660031D01*
X157647983Y-98631216D01*
X157657272Y-98597207D01*
X157667481Y-98561656D01*
X157677570Y-98528215D01*
X157686498Y-98500538D01*
X157693224Y-98482278D01*
X157695952Y-98477158D01*
X157703860Y-98479153D01*
X157710804Y-98486064D01*
X157712077Y-98488179D01*
X157712959Y-98490056D01*
X157714377Y-98491736D01*
X157717256Y-98493257D01*
X157722523Y-98494658D01*
X157731105Y-98495979D01*
X157743927Y-98497258D01*
X157761916Y-98498535D01*
X157785999Y-98499849D01*
X157817102Y-98501239D01*
X157856152Y-98502744D01*
X157904074Y-98504402D01*
X157961795Y-98506255D01*
X158030241Y-98508339D01*
X158110340Y-98510695D01*
X158203016Y-98513361D01*
X158309197Y-98516377D01*
X158429809Y-98519782D01*
X158565779Y-98523615D01*
X158669566Y-98526545D01*
X158769690Y-98529411D01*
X158866492Y-98532254D01*
X158958378Y-98535022D01*
X159043749Y-98537664D01*
X159121008Y-98540128D01*
X159188559Y-98542364D01*
X159244805Y-98544318D01*
X159288148Y-98545941D01*
X159316992Y-98547181D01*
X159325733Y-98547657D01*
X159360089Y-98549524D01*
X159406480Y-98551544D01*
X159463121Y-98553676D01*
X159528228Y-98555878D01*
X159600015Y-98558108D01*
X159676698Y-98560324D01*
X159756492Y-98562482D01*
X159837613Y-98564542D01*
X159918274Y-98566462D01*
X159996693Y-98568198D01*
X160071083Y-98569709D01*
X160139660Y-98570952D01*
X160200638Y-98571887D01*
X160252235Y-98572469D01*
X160292663Y-98572658D01*
X160320140Y-98572412D01*
X160332879Y-98571687D01*
X160333533Y-98571452D01*
X160336599Y-98562703D01*
X160343792Y-98539479D01*
X160354587Y-98503588D01*
X160368461Y-98456837D01*
X160384888Y-98401034D01*
X160403346Y-98337986D01*
X160423311Y-98269501D01*
X160444257Y-98197387D01*
X160465662Y-98123450D01*
X160487000Y-98049498D01*
X160507749Y-97977339D01*
X160527384Y-97908781D01*
X160545381Y-97845630D01*
X160561215Y-97789694D01*
X160574364Y-97742781D01*
X160584303Y-97706699D01*
X160585099Y-97703758D01*
X160583489Y-97692999D01*
X160569147Y-97686777D01*
X160560595Y-97685248D01*
X160545516Y-97683989D01*
X160515717Y-97682359D01*
X160473403Y-97680448D01*
X160420781Y-97678344D01*
X160360058Y-97676137D01*
X160293440Y-97673918D01*
X160244366Y-97672401D01*
X159981661Y-97664530D01*
X159735722Y-97657134D01*
X159506385Y-97650207D01*
X159293491Y-97643745D01*
X159096877Y-97637743D01*
X158916382Y-97632194D01*
X158751844Y-97627095D01*
X158603102Y-97622440D01*
X158469994Y-97618224D01*
X158352359Y-97614441D01*
X158250035Y-97611087D01*
X158162861Y-97608157D01*
X158090674Y-97605645D01*
X158033315Y-97603546D01*
X157990620Y-97601856D01*
X157962429Y-97600568D01*
X157948580Y-97599678D01*
X157946989Y-97599411D01*
X157948300Y-97590678D01*
X157953732Y-97567667D01*
X157962759Y-97532383D01*
X157974852Y-97486833D01*
X157989485Y-97433020D01*
X158006129Y-97372951D01*
X158013734Y-97345834D01*
X158031061Y-97283671D01*
X158046568Y-97226875D01*
X158059732Y-97177457D01*
X158070029Y-97137429D01*
X158076936Y-97108800D01*
X158079930Y-97093581D01*
X158079887Y-97091665D01*
X158070377Y-97089815D01*
X158047043Y-97087558D01*
X158012982Y-97085130D01*
X157971292Y-97082769D01*
X157951937Y-97081841D01*
X157907355Y-97079448D01*
X157868522Y-97076674D01*
X157838721Y-97073807D01*
X157821232Y-97071132D01*
X157818405Y-97070171D01*
X157815628Y-97061707D01*
X157818331Y-97041982D01*
X157826830Y-97009463D01*
X157839417Y-96968865D01*
X157851263Y-96930979D01*
X157860548Y-96898881D01*
X157866322Y-96876030D01*
X157867672Y-96865984D01*
X157863616Y-96870455D01*
X157854223Y-96887962D01*
X157840757Y-96915948D01*
X157824484Y-96951855D01*
X157818616Y-96965229D01*
X157772100Y-97072093D01*
X157562576Y-97066524D01*
X157409597Y-97062458D01*
X157409597Y-97142300D01*
X157442682Y-97144281D01*
X157459516Y-97145088D01*
X157490802Y-97146390D01*
X157534066Y-97148093D01*
X157586837Y-97150102D01*
X157646641Y-97152321D01*
X157711008Y-97154655D01*
X157725123Y-97155160D01*
X157788318Y-97157515D01*
X157845836Y-97159852D01*
X157895554Y-97162068D01*
X157935349Y-97164062D01*
X157963099Y-97165733D01*
X157976681Y-97166978D01*
X157977674Y-97167252D01*
X157976259Y-97175884D01*
X157970707Y-97198752D01*
X157961561Y-97233819D01*
X157949367Y-97279047D01*
X157934667Y-97332399D01*
X157918007Y-97391837D01*
X157912468Y-97411396D01*
X157895119Y-97472960D01*
X157879390Y-97529647D01*
X157865859Y-97579300D01*
X157855106Y-97619761D01*
X157847710Y-97648872D01*
X157844250Y-97664475D01*
X157844066Y-97666138D01*
X157851176Y-97677539D01*
X157863116Y-97679940D01*
X157875673Y-97680204D01*
X157903897Y-97680967D01*
X157946530Y-97682191D01*
X158002316Y-97683836D01*
X158069995Y-97685864D01*
X158148310Y-97688234D01*
X158236004Y-97690908D01*
X158331819Y-97693847D01*
X158434497Y-97697011D01*
X158542781Y-97700363D01*
X158655413Y-97703861D01*
X158771135Y-97707469D01*
X158888690Y-97711145D01*
X159006819Y-97714852D01*
X159124265Y-97718550D01*
X159239771Y-97722200D01*
X159352079Y-97725764D01*
X159459931Y-97729201D01*
X159562069Y-97732473D01*
X159657236Y-97735540D01*
X159744174Y-97738365D01*
X159770233Y-97739216D01*
X159864956Y-97742274D01*
X159956788Y-97745155D01*
X160043958Y-97747807D01*
X160124691Y-97750182D01*
X160197215Y-97752228D01*
X160259758Y-97753896D01*
X160310546Y-97755136D01*
X160347808Y-97755897D01*
X160368557Y-97756132D01*
X160414575Y-97756725D01*
X160446067Y-97758809D01*
X160465408Y-97762841D01*
X160474977Y-97769280D01*
X160477200Y-97777071D01*
X160474952Y-97787251D01*
X160468531Y-97811972D01*
X160458414Y-97849492D01*
X160445082Y-97898072D01*
X160429013Y-97955970D01*
X160410687Y-98021446D01*
X160390584Y-98092759D01*
X160378931Y-98133882D01*
X160357884Y-98207595D01*
X160338030Y-98276320D01*
X160319883Y-98338329D01*
X160303961Y-98391895D01*
X160290780Y-98435291D01*
X160280854Y-98466789D01*
X160274701Y-98484664D01*
X160273109Y-98488065D01*
X160267833Y-98489311D01*
X160254332Y-98490173D01*
X160232047Y-98490635D01*
X160200421Y-98490683D01*
X160158895Y-98490304D01*
X160106913Y-98489483D01*
X160043916Y-98488205D01*
X159969346Y-98486458D01*
X159882645Y-98484226D01*
X159783256Y-98481496D01*
X159670620Y-98478254D01*
X159544180Y-98474484D01*
X159403378Y-98470174D01*
X159247656Y-98465310D01*
X159076456Y-98459876D01*
X158889219Y-98453859D01*
X158771166Y-98450035D01*
X158620571Y-98445140D01*
X158486001Y-98440754D01*
X158366557Y-98436843D01*
X158261338Y-98433374D01*
X158169446Y-98430313D01*
X158089980Y-98427628D01*
X158022041Y-98425283D01*
X157964729Y-98423246D01*
X157917145Y-98421483D01*
X157878389Y-98419960D01*
X157847561Y-98418645D01*
X157823763Y-98417503D01*
X157806093Y-98416501D01*
X157793653Y-98415605D01*
X157785543Y-98414782D01*
X157780864Y-98413998D01*
X157778715Y-98413220D01*
X157778462Y-98413018D01*
X157774634Y-98403634D01*
X157767270Y-98381035D01*
X157757336Y-98348332D01*
X157745795Y-98308635D01*
X157742341Y-98296456D01*
X157730272Y-98255484D01*
X157719091Y-98220823D01*
X157709857Y-98195527D01*
X157703629Y-98182652D01*
X157702541Y-98181680D01*
X157698122Y-98188732D01*
X157689862Y-98210004D01*
X157678453Y-98243400D01*
X157664584Y-98286823D01*
X157648948Y-98338178D01*
X157632916Y-98392990D01*
X157602293Y-98499629D01*
X157575971Y-98591125D01*
X157553609Y-98668621D01*
X157534867Y-98733261D01*
X157519404Y-98786187D01*
X157506879Y-98828541D01*
X157496952Y-98861466D01*
X157489283Y-98886105D01*
X157483531Y-98903601D01*
X157479355Y-98915096D01*
X157476415Y-98921733D01*
X157474510Y-98924529D01*
X157464633Y-98925908D01*
X157440302Y-98926632D01*
X157403964Y-98926768D01*
X157358067Y-98926384D01*
X157305059Y-98925547D01*
X157247388Y-98924324D01*
X157187501Y-98922783D01*
X157127846Y-98920991D01*
X157070871Y-98919015D01*
X157019025Y-98916923D01*
X156974753Y-98914781D01*
X156940505Y-98912658D01*
X156918728Y-98910621D01*
X156911890Y-98909056D01*
X156912905Y-98899832D01*
X156918151Y-98876323D01*
X156927112Y-98840501D01*
X156939275Y-98794334D01*
X156954124Y-98739796D01*
X156971145Y-98678854D01*
X156981938Y-98640900D01*
X156997028Y-98588148D01*
X157016170Y-98521180D01*
X157038773Y-98442064D01*
X157064247Y-98352868D01*
X157092002Y-98255660D01*
X157121447Y-98152510D01*
X157151992Y-98045484D01*
X157183045Y-97936651D01*
X157214017Y-97828080D01*
X157233330Y-97760366D01*
X157409597Y-97142300D01*
X157409597Y-97062458D01*
X157353052Y-97060954D01*
X157344873Y-97080460D01*
X157340863Y-97092605D01*
X157332788Y-97119237D01*
X157321173Y-97158544D01*
X157306548Y-97208713D01*
X157289438Y-97267934D01*
X157270370Y-97334394D01*
X157249871Y-97406282D01*
X157239485Y-97442866D01*
X157220005Y-97511537D01*
X157196583Y-97594029D01*
X157169921Y-97687877D01*
X157140718Y-97790618D01*
X157109677Y-97899789D01*
X157077496Y-98012924D01*
X157044877Y-98127561D01*
X157012520Y-98241235D01*
X156981126Y-98351483D01*
X156972471Y-98381871D01*
X156944830Y-98479000D01*
X156918587Y-98571402D01*
X156894106Y-98657783D01*
X156871752Y-98736850D01*
X156851888Y-98807308D01*
X156834879Y-98867862D01*
X156821089Y-98917219D01*
X156810883Y-98954085D01*
X156804624Y-98977165D01*
X156802666Y-98985121D01*
X156810389Y-98988760D01*
X156830594Y-98991333D01*
X156857700Y-98992266D01*
X156890942Y-98993565D01*
X156908738Y-98997627D01*
X156912733Y-99002792D01*
X156909475Y-99013941D01*
X156900511Y-99037513D01*
X156887059Y-99070482D01*
X156870336Y-99109817D01*
X156862556Y-99127676D01*
X156835929Y-99188348D01*
X156805366Y-99257966D01*
X156772277Y-99333321D01*
X156738072Y-99411204D01*
X156704159Y-99488406D01*
X156671949Y-99561719D01*
X156642851Y-99627934D01*
X156618273Y-99683842D01*
X156605919Y-99711933D01*
X156591580Y-99744402D01*
X156571593Y-99789474D01*
X156547228Y-99844295D01*
X156519756Y-99906013D01*
X156490444Y-99971775D01*
X156460563Y-100038726D01*
X156449585Y-100063300D01*
X156422087Y-100124845D01*
X156396683Y-100181715D01*
X156374230Y-100231993D01*
X156355585Y-100273761D01*
X156341601Y-100305105D01*
X156333135Y-100324106D01*
X156331024Y-100328868D01*
X156330033Y-100336136D01*
X156339909Y-100332698D01*
X156342066Y-100331525D01*
X156352503Y-100324231D01*
X156374289Y-100307914D01*
X156405502Y-100284070D01*
X156444223Y-100254199D01*
X156488532Y-100219796D01*
X156536509Y-100182361D01*
X156586234Y-100143391D01*
X156635787Y-100104384D01*
X156683248Y-100066837D01*
X156726697Y-100032249D01*
X156761091Y-100004639D01*
X156816882Y-99959610D01*
X156894660Y-99732055D01*
X156919131Y-99660487D01*
X156947353Y-99577986D01*
X156977586Y-99489638D01*
X157008091Y-99400527D01*
X157037126Y-99315739D01*
X157058854Y-99252316D01*
X157145270Y-99000132D01*
X157251251Y-99005804D01*
X157291532Y-99008040D01*
X157325035Y-99010052D01*
X157348497Y-99011634D01*
X157358659Y-99012578D01*
X157358822Y-99012632D01*
X157356440Y-99020442D01*
X157348802Y-99041039D01*
X157337018Y-99071519D01*
X157322197Y-99108977D01*
X157318006Y-99119445D01*
X157281798Y-99216888D01*
X157248799Y-99319881D01*
X157219614Y-99425548D01*
X157194846Y-99531011D01*
X157175099Y-99633394D01*
X157160979Y-99729821D01*
X157153087Y-99817417D01*
X157152030Y-99893303D01*
X157152682Y-99906666D01*
X157161978Y-99989254D01*
X157179699Y-100059514D01*
X157207055Y-100120440D01*
X157245254Y-100175021D01*
X157273415Y-100205509D01*
X157321231Y-100246633D01*
X157373280Y-100278141D01*
X157432491Y-100301153D01*
X157501797Y-100316788D01*
X157584126Y-100326165D01*
X157590461Y-100326616D01*
X157625885Y-100329369D01*
X157653968Y-100332148D01*
X157671130Y-100334562D01*
X157674733Y-100335780D01*
X157669578Y-100352588D01*
X157656953Y-100374117D01*
X157641120Y-100394436D01*
X157626339Y-100407618D01*
X157621713Y-100409557D01*
X157608485Y-100410933D01*
X157581373Y-100412932D01*
X157543410Y-100415388D01*
X157497628Y-100418135D01*
X157447057Y-100421009D01*
X157394731Y-100423844D01*
X157343680Y-100426474D01*
X157296937Y-100428735D01*
X157257533Y-100430461D01*
X157228501Y-100431487D01*
X157215630Y-100431699D01*
X157192560Y-100431600D01*
X157222184Y-100366595D01*
X157235451Y-100336059D01*
X157245011Y-100311288D01*
X157249341Y-100296342D01*
X157249345Y-100294201D01*
X157241879Y-100294980D01*
X157224619Y-100304058D01*
X157201251Y-100319489D01*
X157200457Y-100320055D01*
X157164165Y-100345043D01*
X157115788Y-100376863D01*
X157057931Y-100413919D01*
X156993196Y-100454619D01*
X156957769Y-100476563D01*
X156957769Y-100936206D01*
X156961814Y-100937122D01*
X156961637Y-100952030D01*
X156959221Y-100980055D01*
X156954948Y-101017586D01*
X156949202Y-101061013D01*
X156947141Y-101075384D01*
X156940852Y-101119225D01*
X156935568Y-101157604D01*
X156931738Y-101187143D01*
X156929809Y-101204466D01*
X156929666Y-101206978D01*
X156933084Y-101212772D01*
X156945123Y-101216440D01*
X156968463Y-101218381D01*
X157005783Y-101218996D01*
X157010100Y-101219000D01*
X157044661Y-101219690D01*
X157071783Y-101221547D01*
X157087791Y-101224246D01*
X157090533Y-101226075D01*
X157085433Y-101234933D01*
X157071496Y-101254072D01*
X157050766Y-101280799D01*
X157025287Y-101312420D01*
X157021452Y-101317091D01*
X156998186Y-101343994D01*
X156964924Y-101380537D01*
X156923763Y-101424512D01*
X156876803Y-101473709D01*
X156826143Y-101525920D01*
X156773882Y-101578935D01*
X156748402Y-101604461D01*
X156677118Y-101675214D01*
X156616942Y-101734173D01*
X156567336Y-101781833D01*
X156527756Y-101818691D01*
X156497664Y-101845242D01*
X156476518Y-101861982D01*
X156463778Y-101869406D01*
X156459525Y-101869281D01*
X156462316Y-101861069D01*
X156472336Y-101840215D01*
X156488490Y-101808820D01*
X156509683Y-101768987D01*
X156534819Y-101722820D01*
X156551647Y-101692402D01*
X156699295Y-101421802D01*
X156840449Y-101152081D01*
X156879681Y-101075066D01*
X156908967Y-101018165D01*
X156931584Y-100976323D01*
X156947772Y-100949137D01*
X156957769Y-100936206D01*
X156957769Y-100476563D01*
X156924188Y-100497365D01*
X156853510Y-100540565D01*
X156783765Y-100582622D01*
X156717558Y-100621942D01*
X156657490Y-100656930D01*
X156606167Y-100685992D01*
X156578300Y-100701177D01*
X156565602Y-100707646D01*
X156554990Y-100713106D01*
X156545774Y-100718959D01*
X156537263Y-100726606D01*
X156528769Y-100737449D01*
X156519600Y-100752887D01*
X156509066Y-100774324D01*
X156496478Y-100803160D01*
X156481145Y-100840796D01*
X156462378Y-100888635D01*
X156439487Y-100948076D01*
X156418962Y-101001742D01*
X156418962Y-102406607D01*
X156421108Y-102412175D01*
X156418595Y-102427285D01*
X156411072Y-102453122D01*
X156398187Y-102490875D01*
X156379588Y-102541730D01*
X156354925Y-102606876D01*
X156350821Y-102617586D01*
X156278412Y-102796371D01*
X156195718Y-102982869D01*
X156104503Y-103173764D01*
X156006534Y-103365737D01*
X155903577Y-103555472D01*
X155797398Y-103739652D01*
X155689762Y-103914957D01*
X155582435Y-104078072D01*
X155543852Y-104133682D01*
X155504238Y-104189904D01*
X155472967Y-104233949D01*
X155448568Y-104267439D01*
X155429566Y-104291993D01*
X155414489Y-104309232D01*
X155401863Y-104320778D01*
X155390217Y-104328250D01*
X155378077Y-104333271D01*
X155363969Y-104337459D01*
X155356865Y-104339427D01*
X155327951Y-104347503D01*
X155304074Y-104354173D01*
X155293483Y-104357133D01*
X155281200Y-104356615D01*
X155278666Y-104352345D01*
X155283234Y-104343097D01*
X155296060Y-104321931D01*
X155315826Y-104290895D01*
X155341215Y-104252037D01*
X155370910Y-104207406D01*
X155392018Y-104176091D01*
X155451814Y-104086708D01*
X155507958Y-104000274D01*
X155561953Y-103914250D01*
X155615304Y-103826098D01*
X155669512Y-103733277D01*
X155726082Y-103633251D01*
X155786518Y-103523479D01*
X155852322Y-103401424D01*
X155866450Y-103374957D01*
X155945099Y-103224003D01*
X156015228Y-103081800D01*
X156078882Y-102943870D01*
X156138108Y-102805734D01*
X156194952Y-102662913D01*
X156210814Y-102621227D01*
X156239163Y-102546021D01*
X156319831Y-102482353D01*
X156352248Y-102456782D01*
X156380572Y-102434468D01*
X156401719Y-102417838D01*
X156412511Y-102409392D01*
X156418962Y-102406607D01*
X156418962Y-101001742D01*
X156411780Y-101020521D01*
X156379593Y-101104700D01*
X156346176Y-101191566D01*
X156310251Y-101284130D01*
X156271405Y-101383430D01*
X156229225Y-101490502D01*
X156183298Y-101606385D01*
X156133212Y-101732115D01*
X156078553Y-101868730D01*
X156018909Y-102017267D01*
X155953867Y-102178763D01*
X155883014Y-102354255D01*
X155838056Y-102465428D01*
X155803224Y-102551713D01*
X155774418Y-102623585D01*
X155751187Y-102682275D01*
X155733083Y-102729016D01*
X155719655Y-102765040D01*
X155710453Y-102791579D01*
X155705028Y-102809866D01*
X155702930Y-102821133D01*
X155703708Y-102826613D01*
X155705834Y-102827666D01*
X155719276Y-102823548D01*
X155745884Y-102811070D01*
X155786017Y-102790049D01*
X155840035Y-102760303D01*
X155860997Y-102748524D01*
X155898548Y-102727747D01*
X155930626Y-102710768D01*
X155954494Y-102698977D01*
X155967412Y-102693764D01*
X155968850Y-102693762D01*
X155967990Y-102703760D01*
X155960555Y-102727040D01*
X155947405Y-102761669D01*
X155929401Y-102805716D01*
X155907404Y-102857247D01*
X155882274Y-102914332D01*
X155854871Y-102975037D01*
X155826055Y-103037431D01*
X155796688Y-103099582D01*
X155767629Y-103159556D01*
X155739738Y-103215423D01*
X155716944Y-103259466D01*
X155656093Y-103372436D01*
X155591447Y-103488493D01*
X155525003Y-103604232D01*
X155458756Y-103716251D01*
X155394703Y-103821146D01*
X155334839Y-103915511D01*
X155310847Y-103952057D01*
X155283437Y-103992633D01*
X155250494Y-104040327D01*
X155213890Y-104092532D01*
X155175496Y-104146640D01*
X155137182Y-104200044D01*
X155100822Y-104250137D01*
X155068287Y-104294310D01*
X155041447Y-104329956D01*
X155022175Y-104354468D01*
X155020992Y-104355900D01*
X154999875Y-104381300D01*
X154999610Y-104254300D01*
X155003554Y-104063971D01*
X155015776Y-103865706D01*
X155035707Y-103664606D01*
X155062775Y-103465770D01*
X155096413Y-103274300D01*
X155123096Y-103149399D01*
X155155147Y-103022097D01*
X155194872Y-102883255D01*
X155241170Y-102735817D01*
X155292941Y-102582727D01*
X155349086Y-102426929D01*
X155408505Y-102271367D01*
X155470099Y-102118984D01*
X155532769Y-101972725D01*
X155595413Y-101835533D01*
X155656934Y-101710354D01*
X155670100Y-101684925D01*
X155759095Y-101521838D01*
X155852513Y-101365000D01*
X155952675Y-101210885D01*
X156061902Y-101055965D01*
X156182516Y-100896716D01*
X156221071Y-100847817D01*
X156247530Y-100813516D01*
X156268877Y-100783849D01*
X156283458Y-100761275D01*
X156289622Y-100748256D01*
X156289286Y-100746217D01*
X156278229Y-100738527D01*
X156258368Y-100724636D01*
X156241934Y-100713116D01*
X156219280Y-100698048D01*
X156201995Y-100688054D01*
X156195546Y-100685600D01*
X156187716Y-100691601D01*
X156170527Y-100708259D01*
X156145848Y-100733554D01*
X156115548Y-100765464D01*
X156081495Y-100801970D01*
X156045556Y-100841052D01*
X156009602Y-100880690D01*
X155975499Y-100918862D01*
X155945117Y-100953550D01*
X155920324Y-100982733D01*
X155916853Y-100986935D01*
X155853682Y-101065929D01*
X155788173Y-101151692D01*
X155722013Y-101241760D01*
X155656890Y-101333667D01*
X155594491Y-101424947D01*
X155536503Y-101513135D01*
X155484612Y-101595764D01*
X155440508Y-101670370D01*
X155407527Y-101731233D01*
X155392008Y-101760192D01*
X155377349Y-101785071D01*
X155367852Y-101798966D01*
X155363130Y-101804981D01*
X155359603Y-101808981D01*
X155357496Y-101809233D01*
X155357032Y-101804003D01*
X155358437Y-101791556D01*
X155361934Y-101770159D01*
X155367748Y-101738077D01*
X155376104Y-101693575D01*
X155387225Y-101634921D01*
X155393042Y-101604233D01*
X155436676Y-101395107D01*
X155485905Y-101198561D01*
X155540501Y-101015247D01*
X155600239Y-100845819D01*
X155664890Y-100690929D01*
X155734228Y-100551231D01*
X155795116Y-100447380D01*
X155864212Y-100344604D01*
X155930732Y-100258162D01*
X155994996Y-100187705D01*
X156057326Y-100132882D01*
X156118039Y-100093344D01*
X156119895Y-100092361D01*
X156146147Y-100078450D01*
X156165742Y-100067879D01*
X156174587Y-100062856D01*
X156174661Y-100062801D01*
X156172772Y-100054581D01*
X156165605Y-100033775D01*
X156154282Y-100003473D01*
X156139922Y-99966766D01*
X156139051Y-99964583D01*
X156107038Y-99877634D01*
X156076936Y-99782856D01*
X156049817Y-99684544D01*
X156026752Y-99586995D01*
X156008814Y-99494504D01*
X155997074Y-99411369D01*
X155994682Y-99385966D01*
X155989613Y-99326188D01*
X155985119Y-99281982D01*
X155981016Y-99252001D01*
X155977118Y-99234901D01*
X155973241Y-99229336D01*
X155973146Y-99229333D01*
X155967825Y-99236698D01*
X155956503Y-99257406D01*
X155940168Y-99289379D01*
X155919812Y-99330537D01*
X155904852Y-99361406D01*
X155904852Y-99618799D01*
X155910562Y-99626280D01*
X155913672Y-99644827D01*
X155913849Y-99650549D01*
X155916655Y-99682108D01*
X155924013Y-99724544D01*
X155934756Y-99772798D01*
X155947716Y-99821808D01*
X155961727Y-99866514D01*
X155967063Y-99881266D01*
X155977717Y-99910617D01*
X155985565Y-99934611D01*
X155988902Y-99948028D01*
X155983632Y-99957985D01*
X155968482Y-99977491D01*
X155945520Y-100004098D01*
X155916812Y-100035354D01*
X155903083Y-100049751D01*
X155810858Y-100155808D01*
X155726006Y-100275219D01*
X155648181Y-100408587D01*
X155577037Y-100556515D01*
X155512227Y-100719606D01*
X155502541Y-100746810D01*
X155487958Y-100787560D01*
X155475220Y-100821609D01*
X155465384Y-100846249D01*
X155459510Y-100858769D01*
X155458452Y-100859740D01*
X155458344Y-100849955D01*
X155461716Y-100826649D01*
X155467940Y-100792730D01*
X155476390Y-100751106D01*
X155486438Y-100704685D01*
X155497457Y-100656375D01*
X155508820Y-100609082D01*
X155519899Y-100565714D01*
X155528890Y-100533200D01*
X155570483Y-100398939D01*
X155618652Y-100258611D01*
X155671535Y-100117061D01*
X155727270Y-99979135D01*
X155783994Y-99849680D01*
X155824200Y-99764849D01*
X155846940Y-99719508D01*
X155867641Y-99679898D01*
X155885012Y-99648360D01*
X155897761Y-99627231D01*
X155904597Y-99618849D01*
X155904852Y-99618799D01*
X155904852Y-99361406D01*
X155896422Y-99378802D01*
X155870990Y-99432095D01*
X155844505Y-99488336D01*
X155817957Y-99545446D01*
X155792335Y-99601347D01*
X155768629Y-99653959D01*
X155747829Y-99701204D01*
X155741384Y-99716166D01*
X155694262Y-99831958D01*
X155645721Y-99961711D01*
X155596605Y-100102605D01*
X155547756Y-100251820D01*
X155500018Y-100406535D01*
X155454232Y-100563931D01*
X155411242Y-100721186D01*
X155371891Y-100875481D01*
X155337021Y-101023995D01*
X155307474Y-101163907D01*
X155304972Y-101176666D01*
X155282228Y-101304599D01*
X155261122Y-101445347D01*
X155242133Y-101594831D01*
X155225743Y-101748973D01*
X155212432Y-101903692D01*
X155203705Y-102036033D01*
X155196615Y-102163033D01*
X155126732Y-102323899D01*
X155067654Y-102463840D01*
X155015083Y-102597357D01*
X154968260Y-102727183D01*
X154926425Y-102856049D01*
X154888817Y-102986689D01*
X154854679Y-103121834D01*
X154823251Y-103264216D01*
X154793772Y-103416568D01*
X154765485Y-103581623D01*
X154750196Y-103678566D01*
X154735293Y-103777152D01*
X154723078Y-103862383D01*
X154713287Y-103937580D01*
X154705658Y-104006061D01*
X154699928Y-104071147D01*
X154695835Y-104136158D01*
X154693115Y-104204412D01*
X154691507Y-104279231D01*
X154690747Y-104363933D01*
X154690579Y-104432100D01*
X154690884Y-104524834D01*
G36*
X157005381Y-105962031D02*
X157012554Y-106061278D01*
X157023602Y-106162695D01*
X157038399Y-106263452D01*
X157048690Y-106320695D01*
X157076452Y-106438968D01*
X157111228Y-106542003D01*
X157153178Y-106630051D01*
X157202468Y-106703359D01*
X157259261Y-106762178D01*
X157323718Y-106806757D01*
X157384738Y-106833666D01*
X157447229Y-106848269D01*
X157519545Y-106853609D01*
X157597337Y-106849685D01*
X157676251Y-106836493D01*
X157687433Y-106833834D01*
X157719687Y-106825288D01*
X157765802Y-106812156D01*
X157826086Y-106794343D01*
X157900848Y-106771757D01*
X157990395Y-106744302D01*
X158095036Y-106711884D01*
X158215079Y-106674410D01*
X158350833Y-106631786D01*
X158385933Y-106620733D01*
X158437805Y-106604438D01*
X158501641Y-106584463D01*
X158573223Y-106562121D01*
X158648337Y-106538727D01*
X158722765Y-106515596D01*
X158779633Y-106497963D01*
X158899384Y-106460833D01*
X159004072Y-106428275D01*
X159094831Y-106399922D01*
X159172796Y-106375409D01*
X159239100Y-106354370D01*
X159294877Y-106336439D01*
X159341263Y-106321249D01*
X159379390Y-106308436D01*
X159410395Y-106297633D01*
X159435410Y-106288475D01*
X159455571Y-106280595D01*
X159462764Y-106277621D01*
X159556959Y-106229673D01*
X159640468Y-106170035D01*
X159712044Y-106099841D01*
X159770441Y-106020227D01*
X159796025Y-105973785D01*
X159819170Y-105924391D01*
X159837076Y-105879513D01*
X159850431Y-105835672D01*
X159859922Y-105789394D01*
X159866235Y-105737199D01*
X159870056Y-105675613D01*
X159872074Y-105601157D01*
X159872276Y-105587800D01*
X159872658Y-105529563D01*
X159872276Y-105471830D01*
X159871213Y-105418695D01*
X159869549Y-105374248D01*
X159867368Y-105342583D01*
X159867336Y-105342266D01*
X159853744Y-105234567D01*
X159835626Y-105130865D01*
X159813606Y-105033437D01*
X159788308Y-104944560D01*
X159760358Y-104866510D01*
X159730378Y-104801564D01*
X159709479Y-104766533D01*
X159655772Y-104698663D01*
X159595789Y-104645447D01*
X159528960Y-104606733D01*
X159454711Y-104582367D01*
X159372471Y-104572195D01*
X159330620Y-104573978D01*
X159330620Y-104649379D01*
X159361835Y-104649815D01*
X159368066Y-104650120D01*
X159437024Y-104658234D01*
X159494409Y-104675343D01*
X159543792Y-104702874D01*
X159582246Y-104735634D01*
X159623918Y-104783635D01*
X159660220Y-104840065D01*
X159691637Y-104906313D01*
X159718656Y-104983770D01*
X159741762Y-105073827D01*
X159761441Y-105177875D01*
X159777985Y-105295700D01*
X159785049Y-105354662D01*
X159790206Y-105400981D01*
X159793683Y-105438810D01*
X159795707Y-105472305D01*
X159796506Y-105505619D01*
X159796305Y-105542908D01*
X159795332Y-105588326D01*
X159794894Y-105605264D01*
X159792428Y-105666972D01*
X159788244Y-105717243D01*
X159781703Y-105761540D01*
X159772167Y-105805325D01*
X159770910Y-105810333D01*
X159750904Y-105880029D01*
X159728530Y-105937290D01*
X159701348Y-105986616D01*
X159666913Y-106032506D01*
X159627131Y-106075157D01*
X159602881Y-106098454D01*
X159578536Y-106119654D01*
X159552784Y-106139300D01*
X159524317Y-106157938D01*
X159491824Y-106176112D01*
X159453997Y-106194367D01*
X159409526Y-106213248D01*
X159357100Y-106233298D01*
X159295411Y-106255063D01*
X159223148Y-106279088D01*
X159139001Y-106305916D01*
X159041663Y-106336093D01*
X158929821Y-106370163D01*
X158885466Y-106383573D01*
X158838077Y-106397989D01*
X158780799Y-106415580D01*
X158719886Y-106434416D01*
X158661596Y-106452567D01*
X158644166Y-106458026D01*
X158598693Y-106472263D01*
X158540897Y-106490311D01*
X158474633Y-106510971D01*
X158403751Y-106533042D01*
X158332105Y-106555322D01*
X158271633Y-106574104D01*
X158199845Y-106596418D01*
X158123038Y-106620352D01*
X158045658Y-106644515D01*
X157972147Y-106667521D01*
X157906949Y-106687979D01*
X157865233Y-106701114D01*
X157793492Y-106723474D01*
X157734981Y-106740877D01*
X157686914Y-106753865D01*
X157646506Y-106762983D01*
X157610970Y-106768772D01*
X157577521Y-106771776D01*
X157543374Y-106772537D01*
X157505743Y-106771599D01*
X157503887Y-106771524D01*
X157460997Y-106769158D01*
X157429855Y-106765485D01*
X157405280Y-106759447D01*
X157382088Y-106749984D01*
X157370690Y-106744309D01*
X157313465Y-106706191D01*
X157263423Y-106654346D01*
X157220157Y-106588182D01*
X157183262Y-106507106D01*
X157159025Y-106434434D01*
X157135199Y-106340983D01*
X157115628Y-106240276D01*
X157100508Y-106135365D01*
X157090029Y-106029303D01*
X157084387Y-105925142D01*
X157083773Y-105825934D01*
X157088381Y-105734733D01*
X157098404Y-105654590D01*
X157107068Y-105613200D01*
X157135233Y-105524878D01*
X157173393Y-105446943D01*
X157222549Y-105378466D01*
X157283699Y-105318518D01*
X157357846Y-105266169D01*
X157445989Y-105220493D01*
X157549129Y-105180558D01*
X157585833Y-105168727D01*
X157626120Y-105156291D01*
X157678136Y-105140235D01*
X157737431Y-105121932D01*
X157799553Y-105102756D01*
X157860052Y-105084082D01*
X157865233Y-105082482D01*
X157914266Y-105067340D01*
X157962845Y-105052322D01*
X158012735Y-105036881D01*
X158065698Y-105020470D01*
X158123497Y-105002542D01*
X158187895Y-104982548D01*
X158260656Y-104959943D01*
X158343543Y-104934178D01*
X158438318Y-104904707D01*
X158546746Y-104870981D01*
X158597599Y-104855162D01*
X158666961Y-104833525D01*
X158742888Y-104809740D01*
X158820117Y-104785462D01*
X158893385Y-104762346D01*
X158957427Y-104742049D01*
X158975159Y-104736405D01*
X159056115Y-104710917D01*
X159123321Y-104690592D01*
X159178992Y-104674942D01*
X159225344Y-104663483D01*
X159264589Y-104655726D01*
X159298943Y-104651187D01*
X159330620Y-104649379D01*
X159330620Y-104573978D01*
X159281666Y-104576064D01*
X159181726Y-104593822D01*
X159123171Y-104609302D01*
X159079327Y-104622324D01*
X159024552Y-104638942D01*
X158964038Y-104657562D01*
X158902972Y-104676590D01*
X158860705Y-104689924D01*
X158802605Y-104708305D01*
X158733848Y-104729954D01*
X158659956Y-104753139D01*
X158586450Y-104776127D01*
X158518853Y-104797187D01*
X158512933Y-104799026D01*
X158359986Y-104846544D01*
X158222341Y-104889336D01*
X158099124Y-104927685D01*
X157989459Y-104961871D01*
X157892473Y-104992174D01*
X157807290Y-105018877D01*
X157733036Y-105042259D01*
X157668837Y-105062603D01*
X157613818Y-105080189D01*
X157567104Y-105095298D01*
X157527822Y-105108212D01*
X157495095Y-105119210D01*
X157468051Y-105128575D01*
X157445813Y-105136587D01*
X157427509Y-105143528D01*
X157412262Y-105149678D01*
X157399199Y-105155319D01*
X157387618Y-105160649D01*
X157295578Y-105211792D01*
X157216885Y-105272206D01*
X157150884Y-105342746D01*
X157096919Y-105424267D01*
X157054337Y-105517625D01*
X157022482Y-105623674D01*
X157018017Y-105643349D01*
X157008403Y-105705614D01*
X157003178Y-105781370D01*
X157002213Y-105867785D01*
X157005381Y-105962031D01*
X157005381Y-105962031D01*
G37*
X157005381Y-105962031D02*
X157012554Y-106061278D01*
X157023602Y-106162695D01*
X157038399Y-106263452D01*
X157048690Y-106320695D01*
X157076452Y-106438968D01*
X157111228Y-106542003D01*
X157153178Y-106630051D01*
X157202468Y-106703359D01*
X157259261Y-106762178D01*
X157323718Y-106806757D01*
X157384738Y-106833666D01*
X157447229Y-106848269D01*
X157519545Y-106853609D01*
X157597337Y-106849685D01*
X157676251Y-106836493D01*
X157687433Y-106833834D01*
X157719687Y-106825288D01*
X157765802Y-106812156D01*
X157826086Y-106794343D01*
X157900848Y-106771757D01*
X157990395Y-106744302D01*
X158095036Y-106711884D01*
X158215079Y-106674410D01*
X158350833Y-106631786D01*
X158385933Y-106620733D01*
X158437805Y-106604438D01*
X158501641Y-106584463D01*
X158573223Y-106562121D01*
X158648337Y-106538727D01*
X158722765Y-106515596D01*
X158779633Y-106497963D01*
X158899384Y-106460833D01*
X159004072Y-106428275D01*
X159094831Y-106399922D01*
X159172796Y-106375409D01*
X159239100Y-106354370D01*
X159294877Y-106336439D01*
X159341263Y-106321249D01*
X159379390Y-106308436D01*
X159410395Y-106297633D01*
X159435410Y-106288475D01*
X159455571Y-106280595D01*
X159462764Y-106277621D01*
X159556959Y-106229673D01*
X159640468Y-106170035D01*
X159712044Y-106099841D01*
X159770441Y-106020227D01*
X159796025Y-105973785D01*
X159819170Y-105924391D01*
X159837076Y-105879513D01*
X159850431Y-105835672D01*
X159859922Y-105789394D01*
X159866235Y-105737199D01*
X159870056Y-105675613D01*
X159872074Y-105601157D01*
X159872276Y-105587800D01*
X159872658Y-105529563D01*
X159872276Y-105471830D01*
X159871213Y-105418695D01*
X159869549Y-105374248D01*
X159867368Y-105342583D01*
X159867336Y-105342266D01*
X159853744Y-105234567D01*
X159835626Y-105130865D01*
X159813606Y-105033437D01*
X159788308Y-104944560D01*
X159760358Y-104866510D01*
X159730378Y-104801564D01*
X159709479Y-104766533D01*
X159655772Y-104698663D01*
X159595789Y-104645447D01*
X159528960Y-104606733D01*
X159454711Y-104582367D01*
X159372471Y-104572195D01*
X159330620Y-104573978D01*
X159330620Y-104649379D01*
X159361835Y-104649815D01*
X159368066Y-104650120D01*
X159437024Y-104658234D01*
X159494409Y-104675343D01*
X159543792Y-104702874D01*
X159582246Y-104735634D01*
X159623918Y-104783635D01*
X159660220Y-104840065D01*
X159691637Y-104906313D01*
X159718656Y-104983770D01*
X159741762Y-105073827D01*
X159761441Y-105177875D01*
X159777985Y-105295700D01*
X159785049Y-105354662D01*
X159790206Y-105400981D01*
X159793683Y-105438810D01*
X159795707Y-105472305D01*
X159796506Y-105505619D01*
X159796305Y-105542908D01*
X159795332Y-105588326D01*
X159794894Y-105605264D01*
X159792428Y-105666972D01*
X159788244Y-105717243D01*
X159781703Y-105761540D01*
X159772167Y-105805325D01*
X159770910Y-105810333D01*
X159750904Y-105880029D01*
X159728530Y-105937290D01*
X159701348Y-105986616D01*
X159666913Y-106032506D01*
X159627131Y-106075157D01*
X159602881Y-106098454D01*
X159578536Y-106119654D01*
X159552784Y-106139300D01*
X159524317Y-106157938D01*
X159491824Y-106176112D01*
X159453997Y-106194367D01*
X159409526Y-106213248D01*
X159357100Y-106233298D01*
X159295411Y-106255063D01*
X159223148Y-106279088D01*
X159139001Y-106305916D01*
X159041663Y-106336093D01*
X158929821Y-106370163D01*
X158885466Y-106383573D01*
X158838077Y-106397989D01*
X158780799Y-106415580D01*
X158719886Y-106434416D01*
X158661596Y-106452567D01*
X158644166Y-106458026D01*
X158598693Y-106472263D01*
X158540897Y-106490311D01*
X158474633Y-106510971D01*
X158403751Y-106533042D01*
X158332105Y-106555322D01*
X158271633Y-106574104D01*
X158199845Y-106596418D01*
X158123038Y-106620352D01*
X158045658Y-106644515D01*
X157972147Y-106667521D01*
X157906949Y-106687979D01*
X157865233Y-106701114D01*
X157793492Y-106723474D01*
X157734981Y-106740877D01*
X157686914Y-106753865D01*
X157646506Y-106762983D01*
X157610970Y-106768772D01*
X157577521Y-106771776D01*
X157543374Y-106772537D01*
X157505743Y-106771599D01*
X157503887Y-106771524D01*
X157460997Y-106769158D01*
X157429855Y-106765485D01*
X157405280Y-106759447D01*
X157382088Y-106749984D01*
X157370690Y-106744309D01*
X157313465Y-106706191D01*
X157263423Y-106654346D01*
X157220157Y-106588182D01*
X157183262Y-106507106D01*
X157159025Y-106434434D01*
X157135199Y-106340983D01*
X157115628Y-106240276D01*
X157100508Y-106135365D01*
X157090029Y-106029303D01*
X157084387Y-105925142D01*
X157083773Y-105825934D01*
X157088381Y-105734733D01*
X157098404Y-105654590D01*
X157107068Y-105613200D01*
X157135233Y-105524878D01*
X157173393Y-105446943D01*
X157222549Y-105378466D01*
X157283699Y-105318518D01*
X157357846Y-105266169D01*
X157445989Y-105220493D01*
X157549129Y-105180558D01*
X157585833Y-105168727D01*
X157626120Y-105156291D01*
X157678136Y-105140235D01*
X157737431Y-105121932D01*
X157799553Y-105102756D01*
X157860052Y-105084082D01*
X157865233Y-105082482D01*
X157914266Y-105067340D01*
X157962845Y-105052322D01*
X158012735Y-105036881D01*
X158065698Y-105020470D01*
X158123497Y-105002542D01*
X158187895Y-104982548D01*
X158260656Y-104959943D01*
X158343543Y-104934178D01*
X158438318Y-104904707D01*
X158546746Y-104870981D01*
X158597599Y-104855162D01*
X158666961Y-104833525D01*
X158742888Y-104809740D01*
X158820117Y-104785462D01*
X158893385Y-104762346D01*
X158957427Y-104742049D01*
X158975159Y-104736405D01*
X159056115Y-104710917D01*
X159123321Y-104690592D01*
X159178992Y-104674942D01*
X159225344Y-104663483D01*
X159264589Y-104655726D01*
X159298943Y-104651187D01*
X159330620Y-104649379D01*
X159330620Y-104573978D01*
X159281666Y-104576064D01*
X159181726Y-104593822D01*
X159123171Y-104609302D01*
X159079327Y-104622324D01*
X159024552Y-104638942D01*
X158964038Y-104657562D01*
X158902972Y-104676590D01*
X158860705Y-104689924D01*
X158802605Y-104708305D01*
X158733848Y-104729954D01*
X158659956Y-104753139D01*
X158586450Y-104776127D01*
X158518853Y-104797187D01*
X158512933Y-104799026D01*
X158359986Y-104846544D01*
X158222341Y-104889336D01*
X158099124Y-104927685D01*
X157989459Y-104961871D01*
X157892473Y-104992174D01*
X157807290Y-105018877D01*
X157733036Y-105042259D01*
X157668837Y-105062603D01*
X157613818Y-105080189D01*
X157567104Y-105095298D01*
X157527822Y-105108212D01*
X157495095Y-105119210D01*
X157468051Y-105128575D01*
X157445813Y-105136587D01*
X157427509Y-105143528D01*
X157412262Y-105149678D01*
X157399199Y-105155319D01*
X157387618Y-105160649D01*
X157295578Y-105211792D01*
X157216885Y-105272206D01*
X157150884Y-105342746D01*
X157096919Y-105424267D01*
X157054337Y-105517625D01*
X157022482Y-105623674D01*
X157018017Y-105643349D01*
X157008403Y-105705614D01*
X157003178Y-105781370D01*
X157002213Y-105867785D01*
X157005381Y-105962031D01*
G36*
X157738847Y-99576850D02*
X157745251Y-99589166D01*
X157747608Y-99591922D01*
X157750928Y-99594365D01*
X157756199Y-99596517D01*
X157764410Y-99598400D01*
X157776547Y-99600034D01*
X157793599Y-99601444D01*
X157816553Y-99602649D01*
X157846397Y-99603672D01*
X157884120Y-99604536D01*
X157930707Y-99605261D01*
X157987149Y-99605870D01*
X158054431Y-99606385D01*
X158133542Y-99606827D01*
X158225470Y-99607219D01*
X158331202Y-99607581D01*
X158451726Y-99607937D01*
X158588030Y-99608308D01*
X158612507Y-99608373D01*
X159466983Y-99610647D01*
X159489772Y-99592721D01*
X159514283Y-99566075D01*
X159535476Y-99529410D01*
X159552376Y-99486648D01*
X159564008Y-99441713D01*
X159569396Y-99398528D01*
X159567564Y-99361016D01*
X159557536Y-99333099D01*
X159555152Y-99329842D01*
X159549177Y-99323180D01*
X159541934Y-99318105D01*
X159531080Y-99314307D01*
X159514275Y-99311475D01*
X159489177Y-99309300D01*
X159453445Y-99307471D01*
X159404737Y-99305676D01*
X159362536Y-99304303D01*
X159324315Y-99303351D01*
X159271020Y-99302428D01*
X159204507Y-99301547D01*
X159126634Y-99300724D01*
X159039259Y-99299973D01*
X158944241Y-99299310D01*
X158843436Y-99298749D01*
X158738704Y-99298306D01*
X158631901Y-99297994D01*
X158558266Y-99297865D01*
X157930499Y-99297066D01*
X157893632Y-99190272D01*
X157879456Y-99150970D01*
X157866492Y-99118246D01*
X157861041Y-99106197D01*
X157861041Y-99363613D01*
X157865141Y-99367475D01*
X157867802Y-99369870D01*
X157872737Y-99371982D01*
X157880954Y-99373829D01*
X157893457Y-99375428D01*
X157911254Y-99376798D01*
X157935348Y-99377956D01*
X157966748Y-99378919D01*
X158006457Y-99379705D01*
X158055483Y-99380332D01*
X158114831Y-99380817D01*
X158185507Y-99381177D01*
X158268516Y-99381431D01*
X158364866Y-99381596D01*
X158475560Y-99381689D01*
X158601607Y-99381728D01*
X158681083Y-99381733D01*
X159486599Y-99381733D01*
X159486599Y-99405625D01*
X159483914Y-99427880D01*
X159477107Y-99457064D01*
X159472817Y-99471241D01*
X159469670Y-99482397D01*
X159467377Y-99492251D01*
X159464933Y-99500886D01*
X159461332Y-99508385D01*
X159455571Y-99514830D01*
X159446643Y-99520305D01*
X159433545Y-99524892D01*
X159415270Y-99528673D01*
X159390815Y-99531732D01*
X159359173Y-99534152D01*
X159319341Y-99536014D01*
X159270314Y-99537401D01*
X159211085Y-99538397D01*
X159140651Y-99539085D01*
X159058006Y-99539546D01*
X158962146Y-99539863D01*
X158852065Y-99540120D01*
X158726758Y-99540399D01*
X158629641Y-99540651D01*
X158514281Y-99540911D01*
X158403738Y-99541029D01*
X158299185Y-99541011D01*
X158201796Y-99540864D01*
X158112743Y-99540594D01*
X158033202Y-99540206D01*
X157964345Y-99539707D01*
X157907346Y-99539103D01*
X157863379Y-99538400D01*
X157833618Y-99537604D01*
X157819235Y-99536721D01*
X157818069Y-99536418D01*
X157817485Y-99525996D01*
X157820582Y-99502865D01*
X157826765Y-99470703D01*
X157833386Y-99441559D01*
X157843129Y-99402649D01*
X157850363Y-99378141D01*
X157856023Y-99365855D01*
X157861041Y-99363613D01*
X157861041Y-99106197D01*
X157855995Y-99095042D01*
X157849216Y-99084300D01*
X157848300Y-99083902D01*
X157843773Y-99091869D01*
X157836192Y-99113763D01*
X157826215Y-99146989D01*
X157814499Y-99188951D01*
X157801702Y-99237055D01*
X157788480Y-99288706D01*
X157775492Y-99341308D01*
X157763395Y-99392267D01*
X157752846Y-99438988D01*
X157744503Y-99478875D01*
X157739024Y-99509335D01*
X157737439Y-99521433D01*
X157735699Y-99554959D01*
X157738847Y-99576850D01*
X157738847Y-99576850D01*
G37*
X157738847Y-99576850D02*
X157745251Y-99589166D01*
X157747608Y-99591922D01*
X157750928Y-99594365D01*
X157756199Y-99596517D01*
X157764410Y-99598400D01*
X157776547Y-99600034D01*
X157793599Y-99601444D01*
X157816553Y-99602649D01*
X157846397Y-99603672D01*
X157884120Y-99604536D01*
X157930707Y-99605261D01*
X157987149Y-99605870D01*
X158054431Y-99606385D01*
X158133542Y-99606827D01*
X158225470Y-99607219D01*
X158331202Y-99607581D01*
X158451726Y-99607937D01*
X158588030Y-99608308D01*
X158612507Y-99608373D01*
X159466983Y-99610647D01*
X159489772Y-99592721D01*
X159514283Y-99566075D01*
X159535476Y-99529410D01*
X159552376Y-99486648D01*
X159564008Y-99441713D01*
X159569396Y-99398528D01*
X159567564Y-99361016D01*
X159557536Y-99333099D01*
X159555152Y-99329842D01*
X159549177Y-99323180D01*
X159541934Y-99318105D01*
X159531080Y-99314307D01*
X159514275Y-99311475D01*
X159489177Y-99309300D01*
X159453445Y-99307471D01*
X159404737Y-99305676D01*
X159362536Y-99304303D01*
X159324315Y-99303351D01*
X159271020Y-99302428D01*
X159204507Y-99301547D01*
X159126634Y-99300724D01*
X159039259Y-99299973D01*
X158944241Y-99299310D01*
X158843436Y-99298749D01*
X158738704Y-99298306D01*
X158631901Y-99297994D01*
X158558266Y-99297865D01*
X157930499Y-99297066D01*
X157893632Y-99190272D01*
X157879456Y-99150970D01*
X157866492Y-99118246D01*
X157861041Y-99106197D01*
X157861041Y-99363613D01*
X157865141Y-99367475D01*
X157867802Y-99369870D01*
X157872737Y-99371982D01*
X157880954Y-99373829D01*
X157893457Y-99375428D01*
X157911254Y-99376798D01*
X157935348Y-99377956D01*
X157966748Y-99378919D01*
X158006457Y-99379705D01*
X158055483Y-99380332D01*
X158114831Y-99380817D01*
X158185507Y-99381177D01*
X158268516Y-99381431D01*
X158364866Y-99381596D01*
X158475560Y-99381689D01*
X158601607Y-99381728D01*
X158681083Y-99381733D01*
X159486599Y-99381733D01*
X159486599Y-99405625D01*
X159483914Y-99427880D01*
X159477107Y-99457064D01*
X159472817Y-99471241D01*
X159469670Y-99482397D01*
X159467377Y-99492251D01*
X159464933Y-99500886D01*
X159461332Y-99508385D01*
X159455571Y-99514830D01*
X159446643Y-99520305D01*
X159433545Y-99524892D01*
X159415270Y-99528673D01*
X159390815Y-99531732D01*
X159359173Y-99534152D01*
X159319341Y-99536014D01*
X159270314Y-99537401D01*
X159211085Y-99538397D01*
X159140651Y-99539085D01*
X159058006Y-99539546D01*
X158962146Y-99539863D01*
X158852065Y-99540120D01*
X158726758Y-99540399D01*
X158629641Y-99540651D01*
X158514281Y-99540911D01*
X158403738Y-99541029D01*
X158299185Y-99541011D01*
X158201796Y-99540864D01*
X158112743Y-99540594D01*
X158033202Y-99540206D01*
X157964345Y-99539707D01*
X157907346Y-99539103D01*
X157863379Y-99538400D01*
X157833618Y-99537604D01*
X157819235Y-99536721D01*
X157818069Y-99536418D01*
X157817485Y-99525996D01*
X157820582Y-99502865D01*
X157826765Y-99470703D01*
X157833386Y-99441559D01*
X157843129Y-99402649D01*
X157850363Y-99378141D01*
X157856023Y-99365855D01*
X157861041Y-99363613D01*
X157861041Y-99106197D01*
X157855995Y-99095042D01*
X157849216Y-99084300D01*
X157848300Y-99083902D01*
X157843773Y-99091869D01*
X157836192Y-99113763D01*
X157826215Y-99146989D01*
X157814499Y-99188951D01*
X157801702Y-99237055D01*
X157788480Y-99288706D01*
X157775492Y-99341308D01*
X157763395Y-99392267D01*
X157752846Y-99438988D01*
X157744503Y-99478875D01*
X157739024Y-99509335D01*
X157737439Y-99521433D01*
X157735699Y-99554959D01*
X157738847Y-99576850D01*
G36*
X157404045Y-103899275D02*
X157404812Y-103952835D01*
X157406072Y-104007697D01*
X157407768Y-104061260D01*
X157409846Y-104110920D01*
X157412248Y-104154077D01*
X157414921Y-104188127D01*
X157417807Y-104210471D01*
X157419721Y-104217386D01*
X157431842Y-104235501D01*
X157448406Y-104248686D01*
X157471084Y-104256979D01*
X157501544Y-104260417D01*
X157541455Y-104259041D01*
X157592487Y-104252886D01*
X157656309Y-104241992D01*
X157734590Y-104226396D01*
X157742466Y-104224749D01*
X157806074Y-104211442D01*
X157876144Y-104196835D01*
X157946409Y-104182232D01*
X158010596Y-104168937D01*
X158047266Y-104161372D01*
X158097209Y-104150973D01*
X158159080Y-104137905D01*
X158228272Y-104123150D01*
X158300179Y-104107694D01*
X158370196Y-104092520D01*
X158398633Y-104086315D01*
X158467165Y-104071364D01*
X158540261Y-104055490D01*
X158613126Y-104039728D01*
X158680967Y-104025115D01*
X158738991Y-104012686D01*
X158758466Y-104008539D01*
X158832156Y-103992513D01*
X158891344Y-103978681D01*
X158938216Y-103966370D01*
X158974961Y-103954909D01*
X159003764Y-103943624D01*
X159026812Y-103931842D01*
X159043672Y-103920820D01*
X159066897Y-103900990D01*
X159083731Y-103878243D01*
X159095091Y-103849616D01*
X159101894Y-103812144D01*
X159105058Y-103762865D01*
X159105599Y-103720728D01*
X159105123Y-103680655D01*
X159103821Y-103647538D01*
X159101887Y-103624590D01*
X159099514Y-103615026D01*
X159099249Y-103614929D01*
X159089581Y-103616613D01*
X159065621Y-103621427D01*
X159029623Y-103628901D01*
X159017907Y-103631373D01*
X159017907Y-103716666D01*
X159025116Y-103724161D01*
X159028874Y-103743479D01*
X159029197Y-103769865D01*
X159026103Y-103798568D01*
X159019608Y-103824836D01*
X159017513Y-103830325D01*
X159015012Y-103836889D01*
X159012768Y-103842796D01*
X159009942Y-103848257D01*
X159005696Y-103853481D01*
X158999192Y-103858680D01*
X158989591Y-103864062D01*
X158976055Y-103869839D01*
X158957747Y-103876220D01*
X158933827Y-103883415D01*
X158903457Y-103891635D01*
X158865799Y-103901089D01*
X158820014Y-103911988D01*
X158765265Y-103924542D01*
X158700713Y-103938960D01*
X158625520Y-103955453D01*
X158538847Y-103974232D01*
X158439856Y-103995505D01*
X158327709Y-104019484D01*
X158201568Y-104046378D01*
X158060594Y-104076397D01*
X157903948Y-104109752D01*
X157894866Y-104111686D01*
X157823409Y-104126719D01*
X157755041Y-104140749D01*
X157692056Y-104153331D01*
X157636747Y-104164021D01*
X157591409Y-104172374D01*
X157558336Y-104177945D01*
X157541383Y-104180179D01*
X157488466Y-104184651D01*
X157488466Y-104097789D01*
X157488768Y-104058732D01*
X157489929Y-104034144D01*
X157492334Y-104021569D01*
X157496369Y-104018550D01*
X157500509Y-104020921D01*
X157503743Y-104023019D01*
X157508400Y-104024509D01*
X157515389Y-104025211D01*
X157525616Y-104024947D01*
X157539988Y-104023537D01*
X157559412Y-104020805D01*
X157584794Y-104016570D01*
X157617041Y-104010654D01*
X157657060Y-104002878D01*
X157705758Y-103993064D01*
X157764042Y-103981032D01*
X157832818Y-103966605D01*
X157912993Y-103949603D01*
X158005474Y-103929848D01*
X158111167Y-103907160D01*
X158230980Y-103881362D01*
X158365819Y-103852275D01*
X158466366Y-103830566D01*
X158562046Y-103809985D01*
X158652328Y-103790721D01*
X158735834Y-103773060D01*
X158811188Y-103757286D01*
X158877011Y-103743684D01*
X158931926Y-103732538D01*
X158974555Y-103724132D01*
X159003520Y-103718751D01*
X159017443Y-103716680D01*
X159017907Y-103716666D01*
X159017907Y-103631373D01*
X158983842Y-103638561D01*
X158930530Y-103649936D01*
X158876999Y-103661460D01*
X158682390Y-103703427D01*
X158501640Y-103742201D01*
X158335375Y-103777648D01*
X158184220Y-103809635D01*
X158048798Y-103838030D01*
X158018277Y-103844385D01*
X157952067Y-103858245D01*
X157882324Y-103873012D01*
X157813714Y-103887686D01*
X157750899Y-103901269D01*
X157698543Y-103912760D01*
X157684992Y-103915781D01*
X157640108Y-103925545D01*
X157601130Y-103933473D01*
X157570998Y-103939011D01*
X157552648Y-103941605D01*
X157548510Y-103941513D01*
X157542056Y-103933453D01*
X157528346Y-103913817D01*
X157509220Y-103885313D01*
X157486516Y-103850650D01*
X157479640Y-103840012D01*
X157456218Y-103804410D01*
X157435685Y-103774589D01*
X157419900Y-103753147D01*
X157410721Y-103742679D01*
X157409546Y-103742066D01*
X157407016Y-103750089D01*
X157405256Y-103772423D01*
X157404211Y-103806467D01*
X157403826Y-103849618D01*
X157404045Y-103899275D01*
X157404045Y-103899275D01*
G37*
X157404045Y-103899275D02*
X157404812Y-103952835D01*
X157406072Y-104007697D01*
X157407768Y-104061260D01*
X157409846Y-104110920D01*
X157412248Y-104154077D01*
X157414921Y-104188127D01*
X157417807Y-104210471D01*
X157419721Y-104217386D01*
X157431842Y-104235501D01*
X157448406Y-104248686D01*
X157471084Y-104256979D01*
X157501544Y-104260417D01*
X157541455Y-104259041D01*
X157592487Y-104252886D01*
X157656309Y-104241992D01*
X157734590Y-104226396D01*
X157742466Y-104224749D01*
X157806074Y-104211442D01*
X157876144Y-104196835D01*
X157946409Y-104182232D01*
X158010596Y-104168937D01*
X158047266Y-104161372D01*
X158097209Y-104150973D01*
X158159080Y-104137905D01*
X158228272Y-104123150D01*
X158300179Y-104107694D01*
X158370196Y-104092520D01*
X158398633Y-104086315D01*
X158467165Y-104071364D01*
X158540261Y-104055490D01*
X158613126Y-104039728D01*
X158680967Y-104025115D01*
X158738991Y-104012686D01*
X158758466Y-104008539D01*
X158832156Y-103992513D01*
X158891344Y-103978681D01*
X158938216Y-103966370D01*
X158974961Y-103954909D01*
X159003764Y-103943624D01*
X159026812Y-103931842D01*
X159043672Y-103920820D01*
X159066897Y-103900990D01*
X159083731Y-103878243D01*
X159095091Y-103849616D01*
X159101894Y-103812144D01*
X159105058Y-103762865D01*
X159105599Y-103720728D01*
X159105123Y-103680655D01*
X159103821Y-103647538D01*
X159101887Y-103624590D01*
X159099514Y-103615026D01*
X159099249Y-103614929D01*
X159089581Y-103616613D01*
X159065621Y-103621427D01*
X159029623Y-103628901D01*
X159017907Y-103631373D01*
X159017907Y-103716666D01*
X159025116Y-103724161D01*
X159028874Y-103743479D01*
X159029197Y-103769865D01*
X159026103Y-103798568D01*
X159019608Y-103824836D01*
X159017513Y-103830325D01*
X159015012Y-103836889D01*
X159012768Y-103842796D01*
X159009942Y-103848257D01*
X159005696Y-103853481D01*
X158999192Y-103858680D01*
X158989591Y-103864062D01*
X158976055Y-103869839D01*
X158957747Y-103876220D01*
X158933827Y-103883415D01*
X158903457Y-103891635D01*
X158865799Y-103901089D01*
X158820014Y-103911988D01*
X158765265Y-103924542D01*
X158700713Y-103938960D01*
X158625520Y-103955453D01*
X158538847Y-103974232D01*
X158439856Y-103995505D01*
X158327709Y-104019484D01*
X158201568Y-104046378D01*
X158060594Y-104076397D01*
X157903948Y-104109752D01*
X157894866Y-104111686D01*
X157823409Y-104126719D01*
X157755041Y-104140749D01*
X157692056Y-104153331D01*
X157636747Y-104164021D01*
X157591409Y-104172374D01*
X157558336Y-104177945D01*
X157541383Y-104180179D01*
X157488466Y-104184651D01*
X157488466Y-104097789D01*
X157488768Y-104058732D01*
X157489929Y-104034144D01*
X157492334Y-104021569D01*
X157496369Y-104018550D01*
X157500509Y-104020921D01*
X157503743Y-104023019D01*
X157508400Y-104024509D01*
X157515389Y-104025211D01*
X157525616Y-104024947D01*
X157539988Y-104023537D01*
X157559412Y-104020805D01*
X157584794Y-104016570D01*
X157617041Y-104010654D01*
X157657060Y-104002878D01*
X157705758Y-103993064D01*
X157764042Y-103981032D01*
X157832818Y-103966605D01*
X157912993Y-103949603D01*
X158005474Y-103929848D01*
X158111167Y-103907160D01*
X158230980Y-103881362D01*
X158365819Y-103852275D01*
X158466366Y-103830566D01*
X158562046Y-103809985D01*
X158652328Y-103790721D01*
X158735834Y-103773060D01*
X158811188Y-103757286D01*
X158877011Y-103743684D01*
X158931926Y-103732538D01*
X158974555Y-103724132D01*
X159003520Y-103718751D01*
X159017443Y-103716680D01*
X159017907Y-103716666D01*
X159017907Y-103631373D01*
X158983842Y-103638561D01*
X158930530Y-103649936D01*
X158876999Y-103661460D01*
X158682390Y-103703427D01*
X158501640Y-103742201D01*
X158335375Y-103777648D01*
X158184220Y-103809635D01*
X158048798Y-103838030D01*
X158018277Y-103844385D01*
X157952067Y-103858245D01*
X157882324Y-103873012D01*
X157813714Y-103887686D01*
X157750899Y-103901269D01*
X157698543Y-103912760D01*
X157684992Y-103915781D01*
X157640108Y-103925545D01*
X157601130Y-103933473D01*
X157570998Y-103939011D01*
X157552648Y-103941605D01*
X157548510Y-103941513D01*
X157542056Y-103933453D01*
X157528346Y-103913817D01*
X157509220Y-103885313D01*
X157486516Y-103850650D01*
X157479640Y-103840012D01*
X157456218Y-103804410D01*
X157435685Y-103774589D01*
X157419900Y-103753147D01*
X157410721Y-103742679D01*
X157409546Y-103742066D01*
X157407016Y-103750089D01*
X157405256Y-103772423D01*
X157404211Y-103806467D01*
X157403826Y-103849618D01*
X157404045Y-103899275D01*
G36*
X157507211Y-105674991D02*
X157511849Y-105725052D01*
X157518197Y-105778651D01*
X157528996Y-105862011D01*
X157538497Y-105930074D01*
X157547060Y-105984396D01*
X157555049Y-106026531D01*
X157562824Y-106058035D01*
X157570747Y-106080463D01*
X157579180Y-106095369D01*
X157588485Y-106104310D01*
X157594679Y-106107473D01*
X157607201Y-106110905D01*
X157622848Y-106112228D01*
X157642943Y-106111117D01*
X157668814Y-106107243D01*
X157701786Y-106100278D01*
X157743185Y-106089896D01*
X157794336Y-106075768D01*
X157856565Y-106057567D01*
X157931197Y-106034966D01*
X158019560Y-106007636D01*
X158098066Y-105983076D01*
X158139781Y-105970018D01*
X158194025Y-105953092D01*
X158257153Y-105933435D01*
X158325516Y-105912179D01*
X158395467Y-105890462D01*
X158457899Y-105871108D01*
X158529694Y-105848835D01*
X158606508Y-105824946D01*
X158683895Y-105800827D01*
X158757410Y-105777865D01*
X158822609Y-105757445D01*
X158864299Y-105744342D01*
X158924334Y-105725455D01*
X158987567Y-105705598D01*
X159049063Y-105686319D01*
X159103887Y-105669166D01*
X159144183Y-105656594D01*
X159205178Y-105636398D01*
X159251506Y-105618063D01*
X159285178Y-105600528D01*
X159308206Y-105582733D01*
X159322603Y-105563617D01*
X159323368Y-105562145D01*
X159329338Y-105540228D01*
X159332642Y-105506990D01*
X159333321Y-105467826D01*
X159331417Y-105428132D01*
X159326970Y-105393303D01*
X159321933Y-105373456D01*
X159305518Y-105338110D01*
X159285520Y-105317358D01*
X159259354Y-105308891D01*
X159249184Y-105308400D01*
X159242590Y-105308521D01*
X159235310Y-105309083D01*
X159226357Y-105310378D01*
X159223262Y-105310996D01*
X159223262Y-105394514D01*
X159231018Y-105394761D01*
X159242019Y-105404650D01*
X159250309Y-105426312D01*
X159255384Y-105454732D01*
X159256741Y-105484895D01*
X159253875Y-105511784D01*
X159246283Y-105530385D01*
X159244807Y-105532049D01*
X159232523Y-105538966D01*
X159207067Y-105549589D01*
X159171488Y-105562769D01*
X159128837Y-105577358D01*
X159098757Y-105587055D01*
X159022356Y-105611057D01*
X158931173Y-105639628D01*
X158826603Y-105672333D01*
X158710040Y-105708735D01*
X158582880Y-105748399D01*
X158446517Y-105790889D01*
X158309733Y-105833472D01*
X158237802Y-105855867D01*
X158162233Y-105879414D01*
X158086995Y-105902877D01*
X158016055Y-105925015D01*
X157953383Y-105944593D01*
X157903333Y-105960250D01*
X157826237Y-105984245D01*
X157764058Y-106003244D01*
X157715636Y-106017572D01*
X157679813Y-106027554D01*
X157655429Y-106033515D01*
X157641326Y-106035781D01*
X157636595Y-106035084D01*
X157633411Y-106025050D01*
X157629170Y-106003019D01*
X157624572Y-105973838D01*
X157620319Y-105942351D01*
X157617113Y-105913405D01*
X157615656Y-105891844D01*
X157615634Y-105890322D01*
X157617478Y-105873903D01*
X157626205Y-105870104D01*
X157634922Y-105871760D01*
X157643215Y-105871989D01*
X157658008Y-105869769D01*
X157680343Y-105864800D01*
X157711260Y-105856781D01*
X157751800Y-105845411D01*
X157803004Y-105830389D01*
X157865911Y-105811415D01*
X157941563Y-105788187D01*
X158031001Y-105760405D01*
X158135264Y-105727768D01*
X158161566Y-105719507D01*
X158209582Y-105704457D01*
X158269780Y-105685648D01*
X158338164Y-105664325D01*
X158410739Y-105641734D01*
X158483509Y-105619119D01*
X158542566Y-105600797D01*
X158613349Y-105578823D01*
X158688230Y-105555513D01*
X158762995Y-105532185D01*
X158833427Y-105510156D01*
X158895311Y-105490741D01*
X158936266Y-105477840D01*
X159013007Y-105453695D01*
X159075220Y-105434367D01*
X159124474Y-105419414D01*
X159162337Y-105408394D01*
X159190377Y-105400866D01*
X159210163Y-105396386D01*
X159223262Y-105394514D01*
X159223262Y-105310996D01*
X159214746Y-105312700D01*
X159199493Y-105316344D01*
X159179611Y-105321603D01*
X159154114Y-105328770D01*
X159122019Y-105338140D01*
X159082338Y-105350007D01*
X159034087Y-105364664D01*
X158976280Y-105382406D01*
X158907932Y-105403525D01*
X158828057Y-105428317D01*
X158735670Y-105457074D01*
X158629786Y-105490091D01*
X158509418Y-105527661D01*
X158415566Y-105556968D01*
X158300092Y-105593008D01*
X158190950Y-105627032D01*
X158089550Y-105658602D01*
X157997299Y-105687280D01*
X157915608Y-105712628D01*
X157845884Y-105734210D01*
X157789537Y-105751586D01*
X157748873Y-105764047D01*
X157666379Y-105789190D01*
X157593350Y-105701195D01*
X157566022Y-105668897D01*
X157542206Y-105641929D01*
X157524103Y-105622696D01*
X157513914Y-105613605D01*
X157512860Y-105613200D01*
X157507741Y-105619815D01*
X157505850Y-105640162D01*
X157507211Y-105674991D01*
X157507211Y-105674991D01*
G37*
X157507211Y-105674991D02*
X157511849Y-105725052D01*
X157518197Y-105778651D01*
X157528996Y-105862011D01*
X157538497Y-105930074D01*
X157547060Y-105984396D01*
X157555049Y-106026531D01*
X157562824Y-106058035D01*
X157570747Y-106080463D01*
X157579180Y-106095369D01*
X157588485Y-106104310D01*
X157594679Y-106107473D01*
X157607201Y-106110905D01*
X157622848Y-106112228D01*
X157642943Y-106111117D01*
X157668814Y-106107243D01*
X157701786Y-106100278D01*
X157743185Y-106089896D01*
X157794336Y-106075768D01*
X157856565Y-106057567D01*
X157931197Y-106034966D01*
X158019560Y-106007636D01*
X158098066Y-105983076D01*
X158139781Y-105970018D01*
X158194025Y-105953092D01*
X158257153Y-105933435D01*
X158325516Y-105912179D01*
X158395467Y-105890462D01*
X158457899Y-105871108D01*
X158529694Y-105848835D01*
X158606508Y-105824946D01*
X158683895Y-105800827D01*
X158757410Y-105777865D01*
X158822609Y-105757445D01*
X158864299Y-105744342D01*
X158924334Y-105725455D01*
X158987567Y-105705598D01*
X159049063Y-105686319D01*
X159103887Y-105669166D01*
X159144183Y-105656594D01*
X159205178Y-105636398D01*
X159251506Y-105618063D01*
X159285178Y-105600528D01*
X159308206Y-105582733D01*
X159322603Y-105563617D01*
X159323368Y-105562145D01*
X159329338Y-105540228D01*
X159332642Y-105506990D01*
X159333321Y-105467826D01*
X159331417Y-105428132D01*
X159326970Y-105393303D01*
X159321933Y-105373456D01*
X159305518Y-105338110D01*
X159285520Y-105317358D01*
X159259354Y-105308891D01*
X159249184Y-105308400D01*
X159242590Y-105308521D01*
X159235310Y-105309083D01*
X159226357Y-105310378D01*
X159223262Y-105310996D01*
X159223262Y-105394514D01*
X159231018Y-105394761D01*
X159242019Y-105404650D01*
X159250309Y-105426312D01*
X159255384Y-105454732D01*
X159256741Y-105484895D01*
X159253875Y-105511784D01*
X159246283Y-105530385D01*
X159244807Y-105532049D01*
X159232523Y-105538966D01*
X159207067Y-105549589D01*
X159171488Y-105562769D01*
X159128837Y-105577358D01*
X159098757Y-105587055D01*
X159022356Y-105611057D01*
X158931173Y-105639628D01*
X158826603Y-105672333D01*
X158710040Y-105708735D01*
X158582880Y-105748399D01*
X158446517Y-105790889D01*
X158309733Y-105833472D01*
X158237802Y-105855867D01*
X158162233Y-105879414D01*
X158086995Y-105902877D01*
X158016055Y-105925015D01*
X157953383Y-105944593D01*
X157903333Y-105960250D01*
X157826237Y-105984245D01*
X157764058Y-106003244D01*
X157715636Y-106017572D01*
X157679813Y-106027554D01*
X157655429Y-106033515D01*
X157641326Y-106035781D01*
X157636595Y-106035084D01*
X157633411Y-106025050D01*
X157629170Y-106003019D01*
X157624572Y-105973838D01*
X157620319Y-105942351D01*
X157617113Y-105913405D01*
X157615656Y-105891844D01*
X157615634Y-105890322D01*
X157617478Y-105873903D01*
X157626205Y-105870104D01*
X157634922Y-105871760D01*
X157643215Y-105871989D01*
X157658008Y-105869769D01*
X157680343Y-105864800D01*
X157711260Y-105856781D01*
X157751800Y-105845411D01*
X157803004Y-105830389D01*
X157865911Y-105811415D01*
X157941563Y-105788187D01*
X158031001Y-105760405D01*
X158135264Y-105727768D01*
X158161566Y-105719507D01*
X158209582Y-105704457D01*
X158269780Y-105685648D01*
X158338164Y-105664325D01*
X158410739Y-105641734D01*
X158483509Y-105619119D01*
X158542566Y-105600797D01*
X158613349Y-105578823D01*
X158688230Y-105555513D01*
X158762995Y-105532185D01*
X158833427Y-105510156D01*
X158895311Y-105490741D01*
X158936266Y-105477840D01*
X159013007Y-105453695D01*
X159075220Y-105434367D01*
X159124474Y-105419414D01*
X159162337Y-105408394D01*
X159190377Y-105400866D01*
X159210163Y-105396386D01*
X159223262Y-105394514D01*
X159223262Y-105310996D01*
X159214746Y-105312700D01*
X159199493Y-105316344D01*
X159179611Y-105321603D01*
X159154114Y-105328770D01*
X159122019Y-105338140D01*
X159082338Y-105350007D01*
X159034087Y-105364664D01*
X158976280Y-105382406D01*
X158907932Y-105403525D01*
X158828057Y-105428317D01*
X158735670Y-105457074D01*
X158629786Y-105490091D01*
X158509418Y-105527661D01*
X158415566Y-105556968D01*
X158300092Y-105593008D01*
X158190950Y-105627032D01*
X158089550Y-105658602D01*
X157997299Y-105687280D01*
X157915608Y-105712628D01*
X157845884Y-105734210D01*
X157789537Y-105751586D01*
X157748873Y-105764047D01*
X157666379Y-105789190D01*
X157593350Y-105701195D01*
X157566022Y-105668897D01*
X157542206Y-105641929D01*
X157524103Y-105622696D01*
X157513914Y-105613605D01*
X157512860Y-105613200D01*
X157507741Y-105619815D01*
X157505850Y-105640162D01*
X157507211Y-105674991D01*
M02*
