G04 #@! TF.FileFunction,Legend,Top*
%FSLAX46Y46*%
G04 Gerber Fmt 4.6, Leading zero omitted, Abs format (unit mm)*
G04 Created by KiCad (PCBNEW 4.0.5+dfsg1-4) date Sun Oct 15 17:49:37 2017*
%MOMM*%
%LPD*%
G01*
G04 APERTURE LIST*
%ADD10C,0.100000*%
%ADD11C,0.150000*%
%ADD12C,0.120000*%
G04 APERTURE END LIST*
D10*
D11*
X165314572Y-97085286D02*
X165564572Y-97835286D01*
X165814572Y-97085286D01*
X166493143Y-97763857D02*
X166457429Y-97799571D01*
X166350286Y-97835286D01*
X166278857Y-97835286D01*
X166171714Y-97799571D01*
X166100286Y-97728143D01*
X166064571Y-97656714D01*
X166028857Y-97513857D01*
X166028857Y-97406714D01*
X166064571Y-97263857D01*
X166100286Y-97192429D01*
X166171714Y-97121000D01*
X166278857Y-97085286D01*
X166350286Y-97085286D01*
X166457429Y-97121000D01*
X166493143Y-97156714D01*
X167243143Y-97763857D02*
X167207429Y-97799571D01*
X167100286Y-97835286D01*
X167028857Y-97835286D01*
X166921714Y-97799571D01*
X166850286Y-97728143D01*
X166814571Y-97656714D01*
X166778857Y-97513857D01*
X166778857Y-97406714D01*
X166814571Y-97263857D01*
X166850286Y-97192429D01*
X166921714Y-97121000D01*
X167028857Y-97085286D01*
X167100286Y-97085286D01*
X167207429Y-97121000D01*
X167243143Y-97156714D01*
X165671715Y-99671000D02*
X165600286Y-99635286D01*
X165493143Y-99635286D01*
X165386000Y-99671000D01*
X165314572Y-99742429D01*
X165278857Y-99813857D01*
X165243143Y-99956714D01*
X165243143Y-100063857D01*
X165278857Y-100206714D01*
X165314572Y-100278143D01*
X165386000Y-100349571D01*
X165493143Y-100385286D01*
X165564572Y-100385286D01*
X165671715Y-100349571D01*
X165707429Y-100313857D01*
X165707429Y-100063857D01*
X165564572Y-100063857D01*
X166028857Y-100385286D02*
X166028857Y-99635286D01*
X166457429Y-100385286D01*
X166457429Y-99635286D01*
X166814571Y-100385286D02*
X166814571Y-99635286D01*
X166993143Y-99635286D01*
X167100286Y-99671000D01*
X167171714Y-99742429D01*
X167207429Y-99813857D01*
X167243143Y-99956714D01*
X167243143Y-100063857D01*
X167207429Y-100206714D01*
X167171714Y-100278143D01*
X167100286Y-100349571D01*
X166993143Y-100385286D01*
X166814571Y-100385286D01*
X165671714Y-102935286D02*
X165671714Y-102185286D01*
X166457429Y-102935286D02*
X166207429Y-102578143D01*
X166028857Y-102935286D02*
X166028857Y-102185286D01*
X166314572Y-102185286D01*
X166386000Y-102221000D01*
X166421715Y-102256714D01*
X166457429Y-102328143D01*
X166457429Y-102435286D01*
X166421715Y-102506714D01*
X166386000Y-102542429D01*
X166314572Y-102578143D01*
X166028857Y-102578143D01*
X167278857Y-103006714D02*
X167207429Y-102971000D01*
X167136000Y-102899571D01*
X167028857Y-102792429D01*
X166957429Y-102756714D01*
X166886000Y-102756714D01*
X166921715Y-102935286D02*
X166850286Y-102899571D01*
X166778857Y-102828143D01*
X166743143Y-102685286D01*
X166743143Y-102435286D01*
X166778857Y-102292429D01*
X166850286Y-102221000D01*
X166921715Y-102185286D01*
X167064572Y-102185286D01*
X167136000Y-102221000D01*
X167207429Y-102292429D01*
X167243143Y-102435286D01*
X167243143Y-102685286D01*
X167207429Y-102828143D01*
X167136000Y-102899571D01*
X167064572Y-102935286D01*
X166921715Y-102935286D01*
X164850285Y-105485286D02*
X164850285Y-104735286D01*
X165100285Y-105271000D01*
X165350285Y-104735286D01*
X165350285Y-105485286D01*
X165850286Y-104735286D02*
X165993143Y-104735286D01*
X166064571Y-104771000D01*
X166136000Y-104842429D01*
X166171714Y-104985286D01*
X166171714Y-105235286D01*
X166136000Y-105378143D01*
X166064571Y-105449571D01*
X165993143Y-105485286D01*
X165850286Y-105485286D01*
X165778857Y-105449571D01*
X165707428Y-105378143D01*
X165671714Y-105235286D01*
X165671714Y-104985286D01*
X165707428Y-104842429D01*
X165778857Y-104771000D01*
X165850286Y-104735286D01*
X166457428Y-105449571D02*
X166564571Y-105485286D01*
X166743142Y-105485286D01*
X166814571Y-105449571D01*
X166850285Y-105413857D01*
X166886000Y-105342429D01*
X166886000Y-105271000D01*
X166850285Y-105199571D01*
X166814571Y-105163857D01*
X166743142Y-105128143D01*
X166600285Y-105092429D01*
X166528857Y-105056714D01*
X166493142Y-105021000D01*
X166457428Y-104949571D01*
X166457428Y-104878143D01*
X166493142Y-104806714D01*
X166528857Y-104771000D01*
X166600285Y-104735286D01*
X166778857Y-104735286D01*
X166886000Y-104771000D01*
X167207428Y-105485286D02*
X167207428Y-104735286D01*
X164850285Y-108035286D02*
X164850285Y-107285286D01*
X165100285Y-107821000D01*
X165350285Y-107285286D01*
X165350285Y-108035286D01*
X165707428Y-108035286D02*
X165707428Y-107285286D01*
X166028857Y-107999571D02*
X166136000Y-108035286D01*
X166314571Y-108035286D01*
X166386000Y-107999571D01*
X166421714Y-107963857D01*
X166457429Y-107892429D01*
X166457429Y-107821000D01*
X166421714Y-107749571D01*
X166386000Y-107713857D01*
X166314571Y-107678143D01*
X166171714Y-107642429D01*
X166100286Y-107606714D01*
X166064571Y-107571000D01*
X166028857Y-107499571D01*
X166028857Y-107428143D01*
X166064571Y-107356714D01*
X166100286Y-107321000D01*
X166171714Y-107285286D01*
X166350286Y-107285286D01*
X166457429Y-107321000D01*
X166921715Y-107285286D02*
X167064572Y-107285286D01*
X167136000Y-107321000D01*
X167207429Y-107392429D01*
X167243143Y-107535286D01*
X167243143Y-107785286D01*
X167207429Y-107928143D01*
X167136000Y-107999571D01*
X167064572Y-108035286D01*
X166921715Y-108035286D01*
X166850286Y-107999571D01*
X166778857Y-107928143D01*
X166743143Y-107785286D01*
X166743143Y-107535286D01*
X166778857Y-107392429D01*
X166850286Y-107321000D01*
X166921715Y-107285286D01*
X165886000Y-110513857D02*
X165850286Y-110549571D01*
X165743143Y-110585286D01*
X165671714Y-110585286D01*
X165564571Y-110549571D01*
X165493143Y-110478143D01*
X165457428Y-110406714D01*
X165421714Y-110263857D01*
X165421714Y-110156714D01*
X165457428Y-110013857D01*
X165493143Y-109942429D01*
X165564571Y-109871000D01*
X165671714Y-109835286D01*
X165743143Y-109835286D01*
X165850286Y-109871000D01*
X165886000Y-109906714D01*
X166564571Y-110585286D02*
X166207428Y-110585286D01*
X166207428Y-109835286D01*
X166814571Y-110585286D02*
X166814571Y-109835286D01*
X167243143Y-110585286D02*
X166921714Y-110156714D01*
X167243143Y-109835286D02*
X166814571Y-110263857D01*
X165528857Y-113099571D02*
X165636000Y-113135286D01*
X165814571Y-113135286D01*
X165886000Y-113099571D01*
X165921714Y-113063857D01*
X165957429Y-112992429D01*
X165957429Y-112921000D01*
X165921714Y-112849571D01*
X165886000Y-112813857D01*
X165814571Y-112778143D01*
X165671714Y-112742429D01*
X165600286Y-112706714D01*
X165564571Y-112671000D01*
X165528857Y-112599571D01*
X165528857Y-112528143D01*
X165564571Y-112456714D01*
X165600286Y-112421000D01*
X165671714Y-112385286D01*
X165850286Y-112385286D01*
X165957429Y-112421000D01*
X166278857Y-112742429D02*
X166528857Y-112742429D01*
X166636000Y-113135286D02*
X166278857Y-113135286D01*
X166278857Y-112385286D01*
X166636000Y-112385286D01*
X167314571Y-113135286D02*
X166957428Y-113135286D01*
X166957428Y-112385286D01*
X163350285Y-115649571D02*
X163457428Y-115685286D01*
X163635999Y-115685286D01*
X163707428Y-115649571D01*
X163743142Y-115613857D01*
X163778857Y-115542429D01*
X163778857Y-115471000D01*
X163743142Y-115399571D01*
X163707428Y-115363857D01*
X163635999Y-115328143D01*
X163493142Y-115292429D01*
X163421714Y-115256714D01*
X163385999Y-115221000D01*
X163350285Y-115149571D01*
X163350285Y-115078143D01*
X163385999Y-115006714D01*
X163421714Y-114971000D01*
X163493142Y-114935286D01*
X163671714Y-114935286D01*
X163778857Y-114971000D01*
X164243143Y-115328143D02*
X164243143Y-115685286D01*
X163993143Y-114935286D02*
X164243143Y-115328143D01*
X164493143Y-114935286D01*
X164707428Y-115649571D02*
X164814571Y-115685286D01*
X164993142Y-115685286D01*
X165064571Y-115649571D01*
X165100285Y-115613857D01*
X165136000Y-115542429D01*
X165136000Y-115471000D01*
X165100285Y-115399571D01*
X165064571Y-115363857D01*
X164993142Y-115328143D01*
X164850285Y-115292429D01*
X164778857Y-115256714D01*
X164743142Y-115221000D01*
X164707428Y-115149571D01*
X164707428Y-115078143D01*
X164743142Y-115006714D01*
X164778857Y-114971000D01*
X164850285Y-114935286D01*
X165028857Y-114935286D01*
X165136000Y-114971000D01*
X165886000Y-115613857D02*
X165850286Y-115649571D01*
X165743143Y-115685286D01*
X165671714Y-115685286D01*
X165564571Y-115649571D01*
X165493143Y-115578143D01*
X165457428Y-115506714D01*
X165421714Y-115363857D01*
X165421714Y-115256714D01*
X165457428Y-115113857D01*
X165493143Y-115042429D01*
X165564571Y-114971000D01*
X165671714Y-114935286D01*
X165743143Y-114935286D01*
X165850286Y-114971000D01*
X165886000Y-115006714D01*
X166564571Y-115685286D02*
X166207428Y-115685286D01*
X166207428Y-114935286D01*
X166814571Y-115685286D02*
X166814571Y-114935286D01*
X167243143Y-115685286D02*
X166921714Y-115256714D01*
X167243143Y-114935286D02*
X166814571Y-115363857D01*
D12*
X154753000Y-108271000D02*
X154753000Y-110931000D01*
X154813000Y-108271000D02*
X154753000Y-108271000D01*
X154813000Y-110931000D02*
X154753000Y-110931000D01*
X154813000Y-108271000D02*
X154813000Y-110931000D01*
X156083000Y-108271000D02*
X157413000Y-108271000D01*
X157413000Y-108271000D02*
X157413000Y-109601000D01*
X155774200Y-110908999D02*
X155274200Y-110908999D01*
X155274200Y-111848999D02*
X155774200Y-111848999D01*
X155274200Y-114897000D02*
X155774200Y-114897000D01*
X155774200Y-113957000D02*
X155274200Y-113957000D01*
X163157000Y-114423000D02*
X163157000Y-113923000D01*
X162217000Y-113923000D02*
X162217000Y-114423000D01*
X160371600Y-110908999D02*
X159871600Y-110908999D01*
X159871600Y-111848999D02*
X160371600Y-111848999D01*
X162995800Y-111722000D02*
X163495800Y-111722000D01*
X163495800Y-110782000D02*
X162995800Y-110782000D01*
X161125000Y-107565000D02*
X161125000Y-107065000D01*
X160185000Y-107065000D02*
X160185000Y-107565000D01*
X163157001Y-107438000D02*
X163157001Y-106938000D01*
X162217001Y-106938000D02*
X162217001Y-107438000D01*
X159762001Y-103797000D02*
X159262001Y-103797000D01*
X159262001Y-104737000D02*
X159762001Y-104737000D01*
X163580000Y-104737000D02*
X164080000Y-104737000D01*
X164080000Y-103797000D02*
X163580000Y-103797000D01*
X155613000Y-112653000D02*
X155613000Y-113153000D01*
X156553000Y-113153000D02*
X156553000Y-112653000D01*
X161125000Y-113407000D02*
X161125000Y-112907000D01*
X160185000Y-112907000D02*
X160185000Y-113407000D01*
X162995800Y-112865000D02*
X163495800Y-112865000D01*
X163495800Y-111925000D02*
X162995800Y-111925000D01*
X161125000Y-109851000D02*
X161125000Y-109351000D01*
X160185000Y-109351000D02*
X160185000Y-109851000D01*
X163157001Y-109724000D02*
X163157001Y-109224000D01*
X162217001Y-109224000D02*
X162217001Y-109724000D01*
X160346200Y-105067000D02*
X159846200Y-105067000D01*
X159846200Y-106007000D02*
X160346200Y-106007000D01*
X162995799Y-106007000D02*
X163495799Y-106007000D01*
X163495799Y-105067000D02*
X162995799Y-105067000D01*
D11*
X159022000Y-97742000D02*
X159772000Y-97742000D01*
X164272000Y-102992000D02*
X163522000Y-102992000D01*
X164272000Y-97742000D02*
X163522000Y-97742000D01*
X159022000Y-102992000D02*
X159022000Y-102242000D01*
X164272000Y-102992000D02*
X164272000Y-102242000D01*
X164272000Y-97742000D02*
X164272000Y-98492000D01*
X159022000Y-97742000D02*
X159022000Y-98492000D01*
D12*
X154283000Y-99027000D02*
X154283000Y-104927000D01*
X154283000Y-104927000D02*
X157883000Y-104927000D01*
X157883000Y-104927000D02*
X157883000Y-99027000D01*
X156383000Y-106261000D02*
X156883000Y-106261000D01*
X156883000Y-105321000D02*
X156383000Y-105321000D01*
X156341000Y-98133000D02*
X156841000Y-98133000D01*
X156841000Y-97193000D02*
X156341000Y-97193000D01*
X157738000Y-97117000D02*
X158238000Y-97117000D01*
X158238000Y-96177000D02*
X157738000Y-96177000D01*
D11*
M02*
