G04 #@! TF.FileFunction,Soldermask,Top*
%FSLAX46Y46*%
G04 Gerber Fmt 4.6, Leading zero omitted, Abs format (unit mm)*
G04 Created by KiCad (PCBNEW 4.0.5+dfsg1-4) date Sun Oct 15 17:49:37 2017*
%MOMM*%
%LPD*%
G01*
G04 APERTURE LIST*
%ADD10C,0.100000*%
%ADD11R,2.100000X2.100000*%
%ADD12R,1.000000X0.900000*%
%ADD13R,0.900000X1.000000*%
%ADD14O,2.100000X2.100000*%
%ADD15O,0.700000X1.250000*%
%ADD16O,1.250000X0.700000*%
%ADD17R,2.075000X2.075000*%
%ADD18R,2.800000X2.300000*%
G04 APERTURE END LIST*
D10*
D11*
X156083000Y-109601000D03*
D12*
X154974200Y-111378999D03*
X156074200Y-111378999D03*
X156074200Y-114427000D03*
X154974200Y-114427000D03*
D13*
X162687000Y-113623000D03*
X162687000Y-114723000D03*
D12*
X159571600Y-111378999D03*
X160671600Y-111378999D03*
X163795800Y-111252000D03*
X162695800Y-111252000D03*
D13*
X160655000Y-106765000D03*
X160655000Y-107865000D03*
X162687001Y-106638000D03*
X162687001Y-107738000D03*
D12*
X158962001Y-104267000D03*
X160062001Y-104267000D03*
X164380000Y-104267000D03*
X163280000Y-104267000D03*
D13*
X156083000Y-113453000D03*
X156083000Y-112353000D03*
X160655000Y-112607000D03*
X160655000Y-113707000D03*
D12*
X163795800Y-112395000D03*
X162695800Y-112395000D03*
D13*
X160655000Y-109051000D03*
X160655000Y-110151000D03*
X162687001Y-108924000D03*
X162687001Y-110024000D03*
D12*
X159546200Y-105537000D03*
X160646200Y-105537000D03*
X163795799Y-105537000D03*
X162695799Y-105537000D03*
D11*
X168529000Y-97536000D03*
D14*
X168529000Y-100076000D03*
X168529000Y-102616000D03*
X168529000Y-105156000D03*
X168529000Y-107696000D03*
X168529000Y-110236000D03*
X168529000Y-112776000D03*
X168529000Y-115316000D03*
D15*
X160147000Y-102817000D03*
X160647000Y-102817000D03*
X161147000Y-102817000D03*
X161647000Y-102817000D03*
X162147000Y-102817000D03*
X162647000Y-102817000D03*
X163147000Y-102817000D03*
D16*
X164097000Y-101867000D03*
X164097000Y-101367000D03*
X164097000Y-100867000D03*
X164097000Y-100367000D03*
X164097000Y-99867000D03*
X164097000Y-99367000D03*
X164097000Y-98867000D03*
D15*
X163147000Y-97917000D03*
X162647000Y-97917000D03*
X162147000Y-97917000D03*
X161647000Y-97917000D03*
X161147000Y-97917000D03*
X160647000Y-97917000D03*
X160147000Y-97917000D03*
D16*
X159197000Y-98867000D03*
X159197000Y-99367000D03*
X159197000Y-99867000D03*
X159197000Y-100367000D03*
X159197000Y-100867000D03*
X159197000Y-101367000D03*
X159197000Y-101867000D03*
D17*
X162484500Y-99529500D03*
X160809500Y-99529500D03*
X162484500Y-101204500D03*
X160809500Y-101204500D03*
D18*
X156083000Y-103777000D03*
X156083000Y-99677000D03*
D12*
X157183000Y-105791000D03*
X156083000Y-105791000D03*
X157141000Y-97663000D03*
X156041000Y-97663000D03*
X158538000Y-96647000D03*
X157438000Y-96647000D03*
M02*
