G04 #@! TF.FileFunction,Copper,L1,Top,Signal*
%FSLAX46Y46*%
G04 Gerber Fmt 4.6, Leading zero omitted, Abs format (unit mm)*
G04 Created by KiCad (PCBNEW 4.0.5+dfsg1-4) date Sun Oct 15 17:49:37 2017*
%MOMM*%
%LPD*%
G01*
G04 APERTURE LIST*
%ADD10C,0.100000*%
%ADD11C,0.600000*%
%ADD12R,1.700000X1.700000*%
%ADD13R,0.600000X0.500000*%
%ADD14R,0.500000X0.600000*%
%ADD15O,1.700000X1.700000*%
%ADD16O,0.300000X0.850000*%
%ADD17O,0.850000X0.300000*%
%ADD18R,1.675000X1.675000*%
%ADD19R,2.400000X1.900000*%
%ADD20C,0.203200*%
%ADD21C,0.787400*%
%ADD22C,0.254000*%
%ADD23C,0.152400*%
G04 APERTURE END LIST*
D10*
D11*
X158369000Y-112649000D03*
X157480000Y-113030000D03*
X156210000Y-115570000D03*
X157480000Y-115570000D03*
X158750000Y-115189000D03*
X160274000Y-115189000D03*
X161671000Y-115697000D03*
X159385000Y-106807000D03*
X159385000Y-107950000D03*
X159385000Y-109093000D03*
X159385000Y-110236000D03*
X159385000Y-112522000D03*
X163957000Y-113665000D03*
X163957000Y-110236000D03*
X163957000Y-109093000D03*
X163957000Y-107950000D03*
X161671000Y-113665000D03*
X161671000Y-112522000D03*
X161671000Y-111379000D03*
X161671000Y-110236000D03*
X161671000Y-105664001D03*
X161671000Y-106807000D03*
X161671000Y-107950000D03*
D12*
X156083000Y-109601000D03*
D13*
X154974200Y-111378999D03*
X156074200Y-111378999D03*
X156074200Y-114427000D03*
X154974200Y-114427000D03*
D14*
X162687000Y-113623000D03*
X162687000Y-114723000D03*
D13*
X159571600Y-111378999D03*
X160671600Y-111378999D03*
X163795800Y-111252000D03*
X162695800Y-111252000D03*
D14*
X160655000Y-106765000D03*
X160655000Y-107865000D03*
X162687001Y-106638000D03*
X162687001Y-107738000D03*
D13*
X158962001Y-104267000D03*
X160062001Y-104267000D03*
X164380000Y-104267000D03*
X163280000Y-104267000D03*
D14*
X156083000Y-113453000D03*
X156083000Y-112353000D03*
X160655000Y-112607000D03*
X160655000Y-113707000D03*
D13*
X163795800Y-112395000D03*
X162695800Y-112395000D03*
D14*
X160655000Y-109051000D03*
X160655000Y-110151000D03*
X162687001Y-108924000D03*
X162687001Y-110024000D03*
D13*
X159546200Y-105537000D03*
X160646200Y-105537000D03*
X163795799Y-105537000D03*
X162695799Y-105537000D03*
D12*
X168529000Y-97536000D03*
D15*
X168529000Y-100076000D03*
X168529000Y-102616000D03*
X168529000Y-105156000D03*
X168529000Y-107696000D03*
X168529000Y-110236000D03*
X168529000Y-112776000D03*
X168529000Y-115316000D03*
D16*
X160147000Y-102817000D03*
X160647000Y-102817000D03*
X161147000Y-102817000D03*
X161647000Y-102817000D03*
X162147000Y-102817000D03*
X162647000Y-102817000D03*
X163147000Y-102817000D03*
D17*
X164097000Y-101867000D03*
X164097000Y-101367000D03*
X164097000Y-100867000D03*
X164097000Y-100367000D03*
X164097000Y-99867000D03*
X164097000Y-99367000D03*
X164097000Y-98867000D03*
D16*
X163147000Y-97917000D03*
X162647000Y-97917000D03*
X162147000Y-97917000D03*
X161647000Y-97917000D03*
X161147000Y-97917000D03*
X160647000Y-97917000D03*
X160147000Y-97917000D03*
D17*
X159197000Y-98867000D03*
X159197000Y-99367000D03*
X159197000Y-99867000D03*
X159197000Y-100367000D03*
X159197000Y-100867000D03*
X159197000Y-101367000D03*
X159197000Y-101867000D03*
D18*
X162484500Y-99529500D03*
X160809500Y-99529500D03*
X162484500Y-101204500D03*
X160809500Y-101204500D03*
D19*
X156083000Y-103777000D03*
X156083000Y-99677000D03*
D11*
X161671000Y-109093000D03*
D13*
X157183000Y-105791000D03*
X156083000Y-105791000D03*
X157141000Y-97663000D03*
X156041000Y-97663000D03*
X158538000Y-96647000D03*
X157438000Y-96647000D03*
D11*
X162484500Y-101204500D03*
X160809500Y-101204500D03*
X160809500Y-99529500D03*
X162484500Y-99529500D03*
X161163000Y-97028000D03*
X165267884Y-97119846D03*
X164084000Y-97113797D03*
X164084000Y-97917000D03*
D20*
X160647000Y-102817000D02*
X160647000Y-101367000D01*
X160647000Y-101367000D02*
X160809500Y-101204500D01*
X162647000Y-102817000D02*
X162647000Y-101367000D01*
X162647000Y-101367000D02*
X162484500Y-101204500D01*
X160809500Y-99529500D02*
X161414301Y-98924699D01*
X161414301Y-98924699D02*
X162194195Y-98924699D01*
X162194195Y-98924699D02*
X162484500Y-98924699D01*
X159197000Y-100867000D02*
X160472000Y-100867000D01*
X160472000Y-100867000D02*
X160809500Y-101204500D01*
X159197000Y-100367000D02*
X159972000Y-100367000D01*
X159972000Y-100367000D02*
X160809500Y-99529500D01*
D21*
X162695800Y-112395000D02*
X162695800Y-111252000D01*
X162695800Y-112395000D02*
X162695800Y-113614200D01*
X162695800Y-113614200D02*
X162687001Y-113623000D01*
X162687000Y-110024000D02*
X162687000Y-111243200D01*
X162687000Y-111243200D02*
X162695800Y-111252000D01*
X160671600Y-111379000D02*
X160671600Y-110167600D01*
X160671600Y-110167600D02*
X160655000Y-110151000D01*
X160655000Y-112607000D02*
X160655000Y-111395600D01*
X160655000Y-111395600D02*
X160671600Y-111379000D01*
D20*
X158538000Y-96647000D02*
X158538000Y-97100200D01*
X158538000Y-97100200D02*
X158115000Y-97523200D01*
X158115000Y-97523200D02*
X158115000Y-98703198D01*
X168148000Y-97536000D02*
X167094800Y-97536000D01*
X165661386Y-96102586D02*
X159132414Y-96102586D01*
X159132414Y-96102586D02*
X158588000Y-96647000D01*
X167094800Y-97536000D02*
X165661386Y-96102586D01*
X158588000Y-96647000D02*
X158538000Y-96647000D01*
X159197000Y-99367000D02*
X158778802Y-99367000D01*
X158778802Y-99367000D02*
X158115000Y-98703198D01*
X161163000Y-97028000D02*
X161163000Y-97901000D01*
X161163000Y-97901000D02*
X161147000Y-97917000D01*
X162147000Y-97917000D02*
X162147000Y-97214050D01*
X162147000Y-97214050D02*
X162852054Y-96508996D01*
X162852054Y-96508996D02*
X164657034Y-96508996D01*
X164657034Y-96508996D02*
X165267884Y-97119846D01*
X162647000Y-97917000D02*
X162647000Y-97288800D01*
X162647000Y-97288800D02*
X162748610Y-97187190D01*
X162748610Y-97187190D02*
X164010607Y-97187190D01*
X164010607Y-97187190D02*
X164084000Y-97113797D01*
X164084000Y-97917000D02*
X163147000Y-97917000D01*
X164097000Y-98867000D02*
X164725200Y-98867000D01*
X164725200Y-98867000D02*
X166993199Y-101134999D01*
X166993199Y-101134999D02*
X166993199Y-111621199D01*
X166993199Y-111621199D02*
X167298001Y-111926001D01*
X167298001Y-111926001D02*
X168148000Y-112776000D01*
X164097000Y-99367000D02*
X164645000Y-99367000D01*
X166586789Y-113754789D02*
X168148000Y-115316000D01*
X164645000Y-99367000D02*
X166586789Y-101308789D01*
X166586789Y-101308789D02*
X166586789Y-113754789D01*
X164097000Y-100867000D02*
X164097000Y-101367000D01*
D21*
X156074200Y-111378999D02*
X156074200Y-109609800D01*
X156074200Y-109609800D02*
X156083000Y-109601000D01*
X156074200Y-111378999D02*
X156074200Y-112344200D01*
X156074200Y-112344200D02*
X156083000Y-112353000D01*
X160655000Y-113707000D02*
X160655000Y-113976414D01*
X160655000Y-113976414D02*
X161401586Y-114723000D01*
X161401586Y-114723000D02*
X161649600Y-114723000D01*
X161649600Y-114723000D02*
X162687000Y-114723000D01*
X157734000Y-114427000D02*
X158454000Y-113707000D01*
X158454000Y-113707000D02*
X160655000Y-113707000D01*
X156074200Y-114427000D02*
X157734000Y-114427000D01*
X156083000Y-113453000D02*
X156083000Y-114418200D01*
X156083000Y-114418200D02*
X156074200Y-114427000D01*
D22*
X161163000Y-104013000D02*
X161147000Y-103997000D01*
X161147000Y-103997000D02*
X161147000Y-102817000D01*
D21*
X161163000Y-104597102D02*
X161163000Y-104013000D01*
X160646201Y-105537000D02*
X160646201Y-105113901D01*
X160646201Y-105113901D02*
X161163000Y-104597102D01*
X160655000Y-106765000D02*
X160655000Y-105545800D01*
X160655000Y-105545800D02*
X160646201Y-105537000D01*
X160655000Y-109051000D02*
X160655000Y-107865000D01*
D22*
X161647000Y-102817001D02*
X161647000Y-103271119D01*
X161647000Y-103271119D02*
X162153610Y-103777729D01*
X162153610Y-103777729D02*
X162153610Y-104013000D01*
D21*
X162153610Y-104622610D02*
X162153610Y-104013000D01*
X162695800Y-105537000D02*
X162695800Y-105164800D01*
X162695800Y-105164800D02*
X162153610Y-104622610D01*
X162695800Y-105537000D02*
X162695800Y-106629200D01*
X162695800Y-106629200D02*
X162687000Y-106638001D01*
X162687000Y-108924000D02*
X162687000Y-107738000D01*
D20*
X158962001Y-103292999D02*
X159438000Y-102817000D01*
X159438000Y-102817000D02*
X160147000Y-102817000D01*
X158962001Y-104267000D02*
X158962001Y-103292999D01*
X164338000Y-103251000D02*
X163904000Y-102817000D01*
X163904000Y-102817000D02*
X163147000Y-102817000D01*
X164338000Y-103771800D02*
X164338000Y-103251000D01*
X164380000Y-104267000D02*
X164380000Y-103813800D01*
X164380000Y-103813800D02*
X164338000Y-103771800D01*
X156083000Y-103777000D02*
X156083000Y-105791000D01*
X159197000Y-101867000D02*
X156839800Y-101867000D01*
X156839800Y-101867000D02*
X156083000Y-102623800D01*
X156083000Y-102623800D02*
X156083000Y-103777000D01*
X156083000Y-99677000D02*
X156083000Y-97705000D01*
X156083000Y-97705000D02*
X156041000Y-97663000D01*
X156083000Y-99677000D02*
X156083000Y-100830200D01*
X156083000Y-100830200D02*
X156619800Y-101367000D01*
X158568800Y-101367000D02*
X159197000Y-101367000D01*
X156619800Y-101367000D02*
X158568800Y-101367000D01*
D23*
G36*
X158604104Y-96163922D02*
X158238000Y-96163922D01*
X158153286Y-96179862D01*
X158075482Y-96229928D01*
X158023285Y-96306320D01*
X158004922Y-96397000D01*
X158004922Y-96897000D01*
X158020862Y-96981714D01*
X158070928Y-97059518D01*
X158095155Y-97076072D01*
X157881513Y-97289713D01*
X157809935Y-97396838D01*
X157784800Y-97523200D01*
X157784800Y-98703198D01*
X157809935Y-98829560D01*
X157881513Y-98936685D01*
X158545315Y-99600487D01*
X158611248Y-99644541D01*
X158559414Y-99722116D01*
X158530595Y-99867000D01*
X158559414Y-100011884D01*
X158626364Y-100112082D01*
X158567204Y-100234871D01*
X158609422Y-100292000D01*
X159019200Y-100292000D01*
X159019200Y-100245600D01*
X159374800Y-100245600D01*
X159374800Y-100292000D01*
X159394800Y-100292000D01*
X159394800Y-100442000D01*
X159374800Y-100442000D01*
X159374800Y-100792000D01*
X159394800Y-100792000D01*
X159394800Y-100942000D01*
X159374800Y-100942000D01*
X159374800Y-100988400D01*
X159019200Y-100988400D01*
X159019200Y-100942000D01*
X158609422Y-100942000D01*
X158567204Y-100999129D01*
X158585354Y-101036800D01*
X156756574Y-101036800D01*
X156579852Y-100860078D01*
X157283000Y-100860078D01*
X157367714Y-100844138D01*
X157445518Y-100794072D01*
X157497715Y-100717680D01*
X157516078Y-100627000D01*
X157516078Y-100499129D01*
X158567204Y-100499129D01*
X158623995Y-100617000D01*
X158567204Y-100734871D01*
X158609422Y-100792000D01*
X159019200Y-100792000D01*
X159019200Y-100442000D01*
X158609422Y-100442000D01*
X158567204Y-100499129D01*
X157516078Y-100499129D01*
X157516078Y-98727000D01*
X157500138Y-98642286D01*
X157450072Y-98564482D01*
X157373680Y-98512285D01*
X157283000Y-98493922D01*
X156413200Y-98493922D01*
X156413200Y-98132493D01*
X156425714Y-98130138D01*
X156503518Y-98080072D01*
X156555715Y-98003680D01*
X156574078Y-97913000D01*
X156574078Y-97845150D01*
X156612400Y-97845150D01*
X156612400Y-97958472D01*
X156647203Y-98042492D01*
X156711509Y-98106798D01*
X156795529Y-98141600D01*
X156933850Y-98141600D01*
X156991000Y-98084450D01*
X156991000Y-97788000D01*
X157291000Y-97788000D01*
X157291000Y-98084450D01*
X157348150Y-98141600D01*
X157486471Y-98141600D01*
X157570491Y-98106798D01*
X157634797Y-98042492D01*
X157669600Y-97958472D01*
X157669600Y-97845150D01*
X157612450Y-97788000D01*
X157291000Y-97788000D01*
X156991000Y-97788000D01*
X156669550Y-97788000D01*
X156612400Y-97845150D01*
X156574078Y-97845150D01*
X156574078Y-97413000D01*
X156565522Y-97367528D01*
X156612400Y-97367528D01*
X156612400Y-97480850D01*
X156669550Y-97538000D01*
X156991000Y-97538000D01*
X156991000Y-97241550D01*
X157291000Y-97241550D01*
X157291000Y-97538000D01*
X157612450Y-97538000D01*
X157669600Y-97480850D01*
X157669600Y-97367528D01*
X157634797Y-97283508D01*
X157570491Y-97219202D01*
X157486471Y-97184400D01*
X157348150Y-97184400D01*
X157291000Y-97241550D01*
X156991000Y-97241550D01*
X156933850Y-97184400D01*
X156795529Y-97184400D01*
X156711509Y-97219202D01*
X156647203Y-97283508D01*
X156612400Y-97367528D01*
X156565522Y-97367528D01*
X156558138Y-97328286D01*
X156508072Y-97250482D01*
X156431680Y-97198285D01*
X156341000Y-97179922D01*
X155741000Y-97179922D01*
X155656286Y-97195862D01*
X155578482Y-97245928D01*
X155526285Y-97322320D01*
X155507922Y-97413000D01*
X155507922Y-97913000D01*
X155523862Y-97997714D01*
X155573928Y-98075518D01*
X155650320Y-98127715D01*
X155741000Y-98146078D01*
X155752800Y-98146078D01*
X155752800Y-98493922D01*
X154883000Y-98493922D01*
X154798286Y-98509862D01*
X154720482Y-98559928D01*
X154668285Y-98636320D01*
X154649922Y-98727000D01*
X154649922Y-100627000D01*
X154665862Y-100711714D01*
X154715928Y-100789518D01*
X154792320Y-100841715D01*
X154883000Y-100860078D01*
X155758743Y-100860078D01*
X155777935Y-100956562D01*
X155849513Y-101063687D01*
X156386313Y-101600487D01*
X156493438Y-101672065D01*
X156555430Y-101684396D01*
X155849513Y-102390313D01*
X155777935Y-102497438D01*
X155758743Y-102593922D01*
X154883000Y-102593922D01*
X154798286Y-102609862D01*
X154720482Y-102659928D01*
X154668285Y-102736320D01*
X154649922Y-102827000D01*
X154649922Y-104727000D01*
X154665862Y-104811714D01*
X154715928Y-104889518D01*
X154792320Y-104941715D01*
X154883000Y-104960078D01*
X155752800Y-104960078D01*
X155752800Y-105313605D01*
X155698286Y-105323862D01*
X155620482Y-105373928D01*
X155568285Y-105450320D01*
X155549922Y-105541000D01*
X155549922Y-106041000D01*
X155565862Y-106125714D01*
X155615928Y-106203518D01*
X155692320Y-106255715D01*
X155783000Y-106274078D01*
X156383000Y-106274078D01*
X156467714Y-106258138D01*
X156545518Y-106208072D01*
X156597715Y-106131680D01*
X156616078Y-106041000D01*
X156616078Y-105973150D01*
X156654400Y-105973150D01*
X156654400Y-106086472D01*
X156689203Y-106170492D01*
X156753509Y-106234798D01*
X156837529Y-106269600D01*
X156975850Y-106269600D01*
X157033000Y-106212450D01*
X157033000Y-105916000D01*
X157333000Y-105916000D01*
X157333000Y-106212450D01*
X157390150Y-106269600D01*
X157528471Y-106269600D01*
X157612491Y-106234798D01*
X157676797Y-106170492D01*
X157711600Y-106086472D01*
X157711600Y-105973150D01*
X157654450Y-105916000D01*
X157333000Y-105916000D01*
X157033000Y-105916000D01*
X156711550Y-105916000D01*
X156654400Y-105973150D01*
X156616078Y-105973150D01*
X156616078Y-105719150D01*
X159017600Y-105719150D01*
X159017600Y-105832472D01*
X159052403Y-105916492D01*
X159116709Y-105980798D01*
X159200729Y-106015600D01*
X159339050Y-106015600D01*
X159396200Y-105958450D01*
X159396200Y-105662000D01*
X159074750Y-105662000D01*
X159017600Y-105719150D01*
X156616078Y-105719150D01*
X156616078Y-105541000D01*
X156607522Y-105495528D01*
X156654400Y-105495528D01*
X156654400Y-105608850D01*
X156711550Y-105666000D01*
X157033000Y-105666000D01*
X157033000Y-105369550D01*
X157333000Y-105369550D01*
X157333000Y-105666000D01*
X157654450Y-105666000D01*
X157711600Y-105608850D01*
X157711600Y-105495528D01*
X157676797Y-105411508D01*
X157612491Y-105347202D01*
X157528471Y-105312400D01*
X157390150Y-105312400D01*
X157333000Y-105369550D01*
X157033000Y-105369550D01*
X156975850Y-105312400D01*
X156837529Y-105312400D01*
X156753509Y-105347202D01*
X156689203Y-105411508D01*
X156654400Y-105495528D01*
X156607522Y-105495528D01*
X156600138Y-105456286D01*
X156550072Y-105378482D01*
X156473680Y-105326285D01*
X156413200Y-105314038D01*
X156413200Y-105241528D01*
X159017600Y-105241528D01*
X159017600Y-105354850D01*
X159074750Y-105412000D01*
X159396200Y-105412000D01*
X159396200Y-105115550D01*
X159339050Y-105058400D01*
X159200729Y-105058400D01*
X159116709Y-105093202D01*
X159052403Y-105157508D01*
X159017600Y-105241528D01*
X156413200Y-105241528D01*
X156413200Y-104960078D01*
X157283000Y-104960078D01*
X157367714Y-104944138D01*
X157445518Y-104894072D01*
X157497715Y-104817680D01*
X157516078Y-104727000D01*
X157516078Y-102827000D01*
X157500138Y-102742286D01*
X157450072Y-102664482D01*
X157373680Y-102612285D01*
X157283000Y-102593922D01*
X156579852Y-102593922D01*
X156976574Y-102197200D01*
X158735006Y-102197200D01*
X158764311Y-102216781D01*
X158909195Y-102245600D01*
X159484805Y-102245600D01*
X159629689Y-102216781D01*
X159752516Y-102134711D01*
X159758968Y-102125055D01*
X159778202Y-102171491D01*
X159842508Y-102235797D01*
X159888945Y-102255032D01*
X159879289Y-102261484D01*
X159797219Y-102384311D01*
X159776833Y-102486800D01*
X159438000Y-102486800D01*
X159311638Y-102511935D01*
X159204513Y-102583513D01*
X159204511Y-102583516D01*
X158728514Y-103059512D01*
X158656936Y-103166637D01*
X158631801Y-103292999D01*
X158631801Y-103789605D01*
X158577287Y-103799862D01*
X158499483Y-103849928D01*
X158447286Y-103926320D01*
X158428923Y-104017000D01*
X158428923Y-104517000D01*
X158444863Y-104601714D01*
X158494929Y-104679518D01*
X158571321Y-104731715D01*
X158662001Y-104750078D01*
X159262001Y-104750078D01*
X159346715Y-104734138D01*
X159424519Y-104684072D01*
X159476716Y-104607680D01*
X159495079Y-104517000D01*
X159495079Y-104449150D01*
X159533401Y-104449150D01*
X159533401Y-104562472D01*
X159568204Y-104646492D01*
X159632510Y-104710798D01*
X159716530Y-104745600D01*
X159854851Y-104745600D01*
X159912001Y-104688450D01*
X159912001Y-104392000D01*
X159590551Y-104392000D01*
X159533401Y-104449150D01*
X159495079Y-104449150D01*
X159495079Y-104017000D01*
X159486523Y-103971528D01*
X159533401Y-103971528D01*
X159533401Y-104084850D01*
X159590551Y-104142000D01*
X159912001Y-104142000D01*
X159912001Y-103845550D01*
X159854851Y-103788400D01*
X159716530Y-103788400D01*
X159632510Y-103823202D01*
X159568204Y-103887508D01*
X159533401Y-103971528D01*
X159486523Y-103971528D01*
X159479139Y-103932286D01*
X159429073Y-103854482D01*
X159352681Y-103802285D01*
X159292201Y-103790038D01*
X159292201Y-103429773D01*
X159574773Y-103147200D01*
X159776833Y-103147200D01*
X159797219Y-103249689D01*
X159879289Y-103372516D01*
X160002116Y-103454586D01*
X160147000Y-103483405D01*
X160291884Y-103454586D01*
X160392082Y-103387636D01*
X160514871Y-103446796D01*
X160572000Y-103404578D01*
X160572000Y-102994800D01*
X160525600Y-102994800D01*
X160525600Y-102639200D01*
X160572000Y-102639200D01*
X160572000Y-102270600D01*
X160574550Y-102270600D01*
X160631698Y-102213452D01*
X160631698Y-102270600D01*
X160722000Y-102270600D01*
X160722000Y-102639200D01*
X160768400Y-102639200D01*
X160768400Y-102994800D01*
X160722000Y-102994800D01*
X160722000Y-103404578D01*
X160779129Y-103446796D01*
X160791400Y-103440884D01*
X160791400Y-103527242D01*
X160722967Y-103572967D01*
X160588070Y-103774856D01*
X160562462Y-103903596D01*
X160555798Y-103887508D01*
X160491492Y-103823202D01*
X160407472Y-103788400D01*
X160269151Y-103788400D01*
X160212001Y-103845550D01*
X160212001Y-104142000D01*
X160259801Y-104142000D01*
X160259801Y-104392000D01*
X160212001Y-104392000D01*
X160212001Y-104668035D01*
X160206168Y-104673868D01*
X160071271Y-104875757D01*
X160023900Y-105113901D01*
X160023901Y-105113906D01*
X160023901Y-105141412D01*
X159975691Y-105093202D01*
X159891671Y-105058400D01*
X159753350Y-105058400D01*
X159696200Y-105115550D01*
X159696200Y-105412000D01*
X159744000Y-105412000D01*
X159744000Y-105662000D01*
X159696200Y-105662000D01*
X159696200Y-105958450D01*
X159753350Y-106015600D01*
X159891671Y-106015600D01*
X159975691Y-105980798D01*
X160032700Y-105923789D01*
X160032700Y-106765000D01*
X160080070Y-107003144D01*
X160214967Y-107205033D01*
X160229865Y-107214987D01*
X160237928Y-107227518D01*
X160314320Y-107279715D01*
X160332137Y-107283323D01*
X160379545Y-107315000D01*
X160334314Y-107345222D01*
X160320286Y-107347862D01*
X160242482Y-107397928D01*
X160231601Y-107413853D01*
X160214967Y-107424967D01*
X160080070Y-107626856D01*
X160032700Y-107865000D01*
X160032700Y-109051000D01*
X160080070Y-109289144D01*
X160214967Y-109491033D01*
X160229865Y-109500987D01*
X160237928Y-109513518D01*
X160314320Y-109565715D01*
X160332137Y-109569323D01*
X160379545Y-109601000D01*
X160334314Y-109631222D01*
X160320286Y-109633862D01*
X160242482Y-109683928D01*
X160231601Y-109699853D01*
X160214967Y-109710967D01*
X160080070Y-109912856D01*
X160032699Y-110151000D01*
X160049300Y-110234457D01*
X160049300Y-110983410D01*
X160001091Y-110935201D01*
X159917071Y-110900399D01*
X159778750Y-110900399D01*
X159721600Y-110957549D01*
X159721600Y-111253999D01*
X159769400Y-111253999D01*
X159769400Y-111503999D01*
X159721600Y-111503999D01*
X159721600Y-111800449D01*
X159778750Y-111857599D01*
X159917071Y-111857599D01*
X160001091Y-111822797D01*
X160032700Y-111791188D01*
X160032700Y-112607000D01*
X160080070Y-112845144D01*
X160214967Y-113047033D01*
X160229865Y-113056987D01*
X160237928Y-113069518D01*
X160260147Y-113084700D01*
X158454005Y-113084700D01*
X158454000Y-113084699D01*
X158267914Y-113121715D01*
X158215856Y-113132070D01*
X158013967Y-113266967D01*
X158013965Y-113266970D01*
X157476234Y-113804700D01*
X156705300Y-113804700D01*
X156705300Y-113453000D01*
X156657930Y-113214856D01*
X156523033Y-113012967D01*
X156508135Y-113003013D01*
X156500072Y-112990482D01*
X156423680Y-112938285D01*
X156405863Y-112934677D01*
X156358454Y-112903000D01*
X156403685Y-112872778D01*
X156417714Y-112870138D01*
X156495518Y-112820072D01*
X156506401Y-112804145D01*
X156523032Y-112793032D01*
X156657930Y-112591144D01*
X156705301Y-112353000D01*
X156696500Y-112308756D01*
X156696500Y-111561149D01*
X159043000Y-111561149D01*
X159043000Y-111674471D01*
X159077803Y-111758491D01*
X159142109Y-111822797D01*
X159226129Y-111857599D01*
X159364450Y-111857599D01*
X159421600Y-111800449D01*
X159421600Y-111503999D01*
X159100150Y-111503999D01*
X159043000Y-111561149D01*
X156696500Y-111561149D01*
X156696500Y-111083527D01*
X159043000Y-111083527D01*
X159043000Y-111196849D01*
X159100150Y-111253999D01*
X159421600Y-111253999D01*
X159421600Y-110957549D01*
X159364450Y-110900399D01*
X159226129Y-110900399D01*
X159142109Y-110935201D01*
X159077803Y-110999507D01*
X159043000Y-111083527D01*
X156696500Y-111083527D01*
X156696500Y-110684078D01*
X156933000Y-110684078D01*
X157017714Y-110668138D01*
X157095518Y-110618072D01*
X157147715Y-110541680D01*
X157166078Y-110451000D01*
X157166078Y-108751000D01*
X157150138Y-108666286D01*
X157100072Y-108588482D01*
X157023680Y-108536285D01*
X156933000Y-108517922D01*
X155233000Y-108517922D01*
X155148286Y-108533862D01*
X155070482Y-108583928D01*
X155018285Y-108660320D01*
X154999922Y-108751000D01*
X154999922Y-110451000D01*
X155015862Y-110535714D01*
X155065928Y-110613518D01*
X155142320Y-110665715D01*
X155233000Y-110684078D01*
X155451900Y-110684078D01*
X155451900Y-110983410D01*
X155403691Y-110935201D01*
X155319671Y-110900399D01*
X155181350Y-110900399D01*
X155124200Y-110957549D01*
X155124200Y-111253999D01*
X155172000Y-111253999D01*
X155172000Y-111503999D01*
X155124200Y-111503999D01*
X155124200Y-111800449D01*
X155181350Y-111857599D01*
X155319671Y-111857599D01*
X155403691Y-111822797D01*
X155451900Y-111774588D01*
X155451900Y-112344195D01*
X155451899Y-112344200D01*
X155499270Y-112582344D01*
X155634167Y-112784233D01*
X155642967Y-112793032D01*
X155657863Y-112802986D01*
X155665928Y-112815518D01*
X155742320Y-112867715D01*
X155760138Y-112871323D01*
X155807546Y-112903000D01*
X155762314Y-112933222D01*
X155748286Y-112935862D01*
X155670482Y-112985928D01*
X155659601Y-113001853D01*
X155642967Y-113012967D01*
X155508070Y-113214856D01*
X155460700Y-113453000D01*
X155460700Y-114040211D01*
X155403691Y-113983202D01*
X155319671Y-113948400D01*
X155181350Y-113948400D01*
X155124200Y-114005550D01*
X155124200Y-114302000D01*
X155172000Y-114302000D01*
X155172000Y-114552000D01*
X155124200Y-114552000D01*
X155124200Y-114848450D01*
X155181350Y-114905600D01*
X155319671Y-114905600D01*
X155403691Y-114870798D01*
X155467997Y-114806492D01*
X155502800Y-114722472D01*
X155502800Y-114670427D01*
X155554422Y-114747686D01*
X155557062Y-114761714D01*
X155607128Y-114839518D01*
X155623053Y-114850399D01*
X155634167Y-114867033D01*
X155836056Y-115001930D01*
X156074200Y-115049301D01*
X156074205Y-115049300D01*
X157733995Y-115049300D01*
X157734000Y-115049301D01*
X157972144Y-115001930D01*
X158174033Y-114867033D01*
X158711765Y-114329300D01*
X160156738Y-114329300D01*
X160214967Y-114416447D01*
X160961553Y-115163033D01*
X161163442Y-115297930D01*
X161401586Y-115345301D01*
X161401591Y-115345300D01*
X162687000Y-115345300D01*
X162925144Y-115297930D01*
X163007686Y-115242778D01*
X163021714Y-115240138D01*
X163099518Y-115190072D01*
X163110399Y-115174147D01*
X163127033Y-115163033D01*
X163261930Y-114961144D01*
X163309300Y-114723000D01*
X163261930Y-114484856D01*
X163127033Y-114282967D01*
X163112135Y-114273013D01*
X163104072Y-114260482D01*
X163027680Y-114208285D01*
X163009863Y-114204677D01*
X162962459Y-114173003D01*
X163007691Y-114142777D01*
X163021714Y-114140138D01*
X163099518Y-114090072D01*
X163110407Y-114074136D01*
X163127059Y-114063008D01*
X163135830Y-114054235D01*
X163135833Y-114054233D01*
X163135835Y-114054230D01*
X163135857Y-114054208D01*
X163198889Y-113959862D01*
X163270730Y-113852344D01*
X163270734Y-113852325D01*
X163270743Y-113852311D01*
X163293492Y-113737914D01*
X163318100Y-113614200D01*
X163318100Y-112790589D01*
X163366309Y-112838798D01*
X163450329Y-112873600D01*
X163588650Y-112873600D01*
X163645800Y-112816450D01*
X163645800Y-112520000D01*
X163945800Y-112520000D01*
X163945800Y-112816450D01*
X164002950Y-112873600D01*
X164141271Y-112873600D01*
X164225291Y-112838798D01*
X164289597Y-112774492D01*
X164324400Y-112690472D01*
X164324400Y-112577150D01*
X164267250Y-112520000D01*
X163945800Y-112520000D01*
X163645800Y-112520000D01*
X163598000Y-112520000D01*
X163598000Y-112270000D01*
X163645800Y-112270000D01*
X163645800Y-111973550D01*
X163945800Y-111973550D01*
X163945800Y-112270000D01*
X164267250Y-112270000D01*
X164324400Y-112212850D01*
X164324400Y-112099528D01*
X164289597Y-112015508D01*
X164225291Y-111951202D01*
X164141271Y-111916400D01*
X164002950Y-111916400D01*
X163945800Y-111973550D01*
X163645800Y-111973550D01*
X163588650Y-111916400D01*
X163450329Y-111916400D01*
X163366309Y-111951202D01*
X163318100Y-111999411D01*
X163318100Y-111647589D01*
X163366309Y-111695798D01*
X163450329Y-111730600D01*
X163588650Y-111730600D01*
X163645800Y-111673450D01*
X163645800Y-111377000D01*
X163945800Y-111377000D01*
X163945800Y-111673450D01*
X164002950Y-111730600D01*
X164141271Y-111730600D01*
X164225291Y-111695798D01*
X164289597Y-111631492D01*
X164324400Y-111547472D01*
X164324400Y-111434150D01*
X164267250Y-111377000D01*
X163945800Y-111377000D01*
X163645800Y-111377000D01*
X163598000Y-111377000D01*
X163598000Y-111127000D01*
X163645800Y-111127000D01*
X163645800Y-110830550D01*
X163945800Y-110830550D01*
X163945800Y-111127000D01*
X164267250Y-111127000D01*
X164324400Y-111069850D01*
X164324400Y-110956528D01*
X164289597Y-110872508D01*
X164225291Y-110808202D01*
X164141271Y-110773400D01*
X164002950Y-110773400D01*
X163945800Y-110830550D01*
X163645800Y-110830550D01*
X163588650Y-110773400D01*
X163450329Y-110773400D01*
X163366309Y-110808202D01*
X163309300Y-110865211D01*
X163309300Y-110024000D01*
X163261930Y-109785856D01*
X163127033Y-109583967D01*
X163112137Y-109574014D01*
X163104073Y-109561482D01*
X163027681Y-109509285D01*
X163009862Y-109505677D01*
X162962455Y-109474000D01*
X163007686Y-109443778D01*
X163021715Y-109441138D01*
X163099519Y-109391072D01*
X163110401Y-109375146D01*
X163127033Y-109364033D01*
X163261930Y-109162144D01*
X163309300Y-108924000D01*
X163309300Y-107738000D01*
X163261930Y-107499856D01*
X163127033Y-107297967D01*
X163112137Y-107288014D01*
X163104073Y-107275482D01*
X163027681Y-107223285D01*
X163009862Y-107219677D01*
X162962459Y-107188003D01*
X163007691Y-107157777D01*
X163021715Y-107155138D01*
X163099519Y-107105072D01*
X163110408Y-107089135D01*
X163127058Y-107078009D01*
X163135830Y-107069235D01*
X163135833Y-107069233D01*
X163135835Y-107069230D01*
X163135858Y-107069207D01*
X163201484Y-106970978D01*
X163270730Y-106867344D01*
X163270733Y-106867327D01*
X163270744Y-106867311D01*
X163296643Y-106737072D01*
X163318100Y-106629200D01*
X163318100Y-106629169D01*
X163318101Y-106629164D01*
X163318100Y-106629159D01*
X163318100Y-105932590D01*
X163366308Y-105980798D01*
X163450328Y-106015600D01*
X163588649Y-106015600D01*
X163645799Y-105958450D01*
X163645799Y-105662000D01*
X163945799Y-105662000D01*
X163945799Y-105958450D01*
X164002949Y-106015600D01*
X164141270Y-106015600D01*
X164225290Y-105980798D01*
X164289596Y-105916492D01*
X164324399Y-105832472D01*
X164324399Y-105719150D01*
X164267249Y-105662000D01*
X163945799Y-105662000D01*
X163645799Y-105662000D01*
X163597999Y-105662000D01*
X163597999Y-105412000D01*
X163645799Y-105412000D01*
X163645799Y-105115550D01*
X163945799Y-105115550D01*
X163945799Y-105412000D01*
X164267249Y-105412000D01*
X164324399Y-105354850D01*
X164324399Y-105241528D01*
X164289596Y-105157508D01*
X164225290Y-105093202D01*
X164141270Y-105058400D01*
X164002949Y-105058400D01*
X163945799Y-105115550D01*
X163645799Y-105115550D01*
X163588649Y-105058400D01*
X163450328Y-105058400D01*
X163366308Y-105093202D01*
X163314219Y-105145291D01*
X163270730Y-104926656D01*
X163135833Y-104724767D01*
X163135830Y-104724765D01*
X163114758Y-104703692D01*
X163130000Y-104688450D01*
X163130000Y-104392000D01*
X163430000Y-104392000D01*
X163430000Y-104688450D01*
X163487150Y-104745600D01*
X163625471Y-104745600D01*
X163709491Y-104710798D01*
X163773797Y-104646492D01*
X163808600Y-104562472D01*
X163808600Y-104449150D01*
X163751450Y-104392000D01*
X163430000Y-104392000D01*
X163130000Y-104392000D01*
X163082200Y-104392000D01*
X163082200Y-104142000D01*
X163130000Y-104142000D01*
X163130000Y-103845550D01*
X163430000Y-103845550D01*
X163430000Y-104142000D01*
X163751450Y-104142000D01*
X163808600Y-104084850D01*
X163808600Y-103971528D01*
X163773797Y-103887508D01*
X163709491Y-103823202D01*
X163625471Y-103788400D01*
X163487150Y-103788400D01*
X163430000Y-103845550D01*
X163130000Y-103845550D01*
X163072850Y-103788400D01*
X162934529Y-103788400D01*
X162850509Y-103823202D01*
X162786203Y-103887508D01*
X162762385Y-103945008D01*
X162728540Y-103774856D01*
X162593643Y-103572967D01*
X162391754Y-103438070D01*
X162333842Y-103426551D01*
X162392082Y-103387636D01*
X162514871Y-103446796D01*
X162572000Y-103404578D01*
X162572000Y-102994800D01*
X162525600Y-102994800D01*
X162525600Y-102639200D01*
X162572000Y-102639200D01*
X162572000Y-102270600D01*
X162662302Y-102270600D01*
X162662302Y-102213452D01*
X162719450Y-102270600D01*
X162722000Y-102270600D01*
X162722000Y-102639200D01*
X162768400Y-102639200D01*
X162768400Y-102994800D01*
X162722000Y-102994800D01*
X162722000Y-103404578D01*
X162779129Y-103446796D01*
X162901918Y-103387636D01*
X163002116Y-103454586D01*
X163147000Y-103483405D01*
X163291884Y-103454586D01*
X163414711Y-103372516D01*
X163496781Y-103249689D01*
X163517167Y-103147200D01*
X163767226Y-103147200D01*
X164007800Y-103387773D01*
X164007800Y-103771800D01*
X164012729Y-103796580D01*
X163995286Y-103799862D01*
X163917482Y-103849928D01*
X163865285Y-103926320D01*
X163846922Y-104017000D01*
X163846922Y-104517000D01*
X163862862Y-104601714D01*
X163912928Y-104679518D01*
X163989320Y-104731715D01*
X164080000Y-104750078D01*
X164680000Y-104750078D01*
X164764714Y-104734138D01*
X164842518Y-104684072D01*
X164894715Y-104607680D01*
X164913078Y-104517000D01*
X164913078Y-104017000D01*
X164897138Y-103932286D01*
X164847072Y-103854482D01*
X164770680Y-103802285D01*
X164705276Y-103789040D01*
X164685065Y-103687438D01*
X164668200Y-103662198D01*
X164668200Y-103251005D01*
X164668201Y-103251000D01*
X164643065Y-103124638D01*
X164629813Y-103104805D01*
X164571487Y-103017513D01*
X164571484Y-103017511D01*
X164137487Y-102583513D01*
X164030362Y-102511935D01*
X163904000Y-102486800D01*
X163517167Y-102486800D01*
X163496781Y-102384311D01*
X163414711Y-102261484D01*
X163405055Y-102255032D01*
X163451492Y-102235797D01*
X163515798Y-102171491D01*
X163535032Y-102125055D01*
X163541484Y-102134711D01*
X163664311Y-102216781D01*
X163809195Y-102245600D01*
X164384805Y-102245600D01*
X164529689Y-102216781D01*
X164652516Y-102134711D01*
X164734586Y-102011884D01*
X164763405Y-101867000D01*
X164734586Y-101722116D01*
X164664350Y-101617000D01*
X164734586Y-101511884D01*
X164763405Y-101367000D01*
X164734586Y-101222116D01*
X164664350Y-101117000D01*
X164734586Y-101011884D01*
X164763405Y-100867000D01*
X164734586Y-100722116D01*
X164664350Y-100617000D01*
X164734586Y-100511884D01*
X164763405Y-100367000D01*
X164734586Y-100222116D01*
X164664350Y-100117000D01*
X164734586Y-100011884D01*
X164749240Y-99938214D01*
X166256589Y-101445562D01*
X166256589Y-113754789D01*
X166281724Y-113881151D01*
X166353302Y-113988276D01*
X167471039Y-115106012D01*
X167429269Y-115316000D01*
X167511373Y-115728762D01*
X167745184Y-116078685D01*
X168095107Y-116312496D01*
X168507869Y-116394600D01*
X168550131Y-116394600D01*
X168962893Y-116312496D01*
X169312816Y-116078685D01*
X169546627Y-115728762D01*
X169628731Y-115316000D01*
X169546627Y-114903238D01*
X169312816Y-114553315D01*
X168962893Y-114319504D01*
X168550131Y-114237400D01*
X168507869Y-114237400D01*
X168095107Y-114319504D01*
X167809388Y-114510415D01*
X166916989Y-113618015D01*
X166916989Y-112011963D01*
X167471038Y-112566012D01*
X167429269Y-112776000D01*
X167511373Y-113188762D01*
X167745184Y-113538685D01*
X168095107Y-113772496D01*
X168507869Y-113854600D01*
X168550131Y-113854600D01*
X168962893Y-113772496D01*
X169312816Y-113538685D01*
X169546627Y-113188762D01*
X169628731Y-112776000D01*
X169546627Y-112363238D01*
X169312816Y-112013315D01*
X168962893Y-111779504D01*
X168550131Y-111697400D01*
X168507869Y-111697400D01*
X168095107Y-111779504D01*
X167809389Y-111970415D01*
X167323399Y-111484425D01*
X167323399Y-110236000D01*
X167429269Y-110236000D01*
X167511373Y-110648762D01*
X167745184Y-110998685D01*
X168095107Y-111232496D01*
X168507869Y-111314600D01*
X168550131Y-111314600D01*
X168962893Y-111232496D01*
X169312816Y-110998685D01*
X169546627Y-110648762D01*
X169628731Y-110236000D01*
X169546627Y-109823238D01*
X169312816Y-109473315D01*
X168962893Y-109239504D01*
X168550131Y-109157400D01*
X168507869Y-109157400D01*
X168095107Y-109239504D01*
X167745184Y-109473315D01*
X167511373Y-109823238D01*
X167429269Y-110236000D01*
X167323399Y-110236000D01*
X167323399Y-107696000D01*
X167429269Y-107696000D01*
X167511373Y-108108762D01*
X167745184Y-108458685D01*
X168095107Y-108692496D01*
X168507869Y-108774600D01*
X168550131Y-108774600D01*
X168962893Y-108692496D01*
X169312816Y-108458685D01*
X169546627Y-108108762D01*
X169628731Y-107696000D01*
X169546627Y-107283238D01*
X169312816Y-106933315D01*
X168962893Y-106699504D01*
X168550131Y-106617400D01*
X168507869Y-106617400D01*
X168095107Y-106699504D01*
X167745184Y-106933315D01*
X167511373Y-107283238D01*
X167429269Y-107696000D01*
X167323399Y-107696000D01*
X167323399Y-105156000D01*
X167429269Y-105156000D01*
X167511373Y-105568762D01*
X167745184Y-105918685D01*
X168095107Y-106152496D01*
X168507869Y-106234600D01*
X168550131Y-106234600D01*
X168962893Y-106152496D01*
X169312816Y-105918685D01*
X169546627Y-105568762D01*
X169628731Y-105156000D01*
X169546627Y-104743238D01*
X169312816Y-104393315D01*
X168962893Y-104159504D01*
X168550131Y-104077400D01*
X168507869Y-104077400D01*
X168095107Y-104159504D01*
X167745184Y-104393315D01*
X167511373Y-104743238D01*
X167429269Y-105156000D01*
X167323399Y-105156000D01*
X167323399Y-102616000D01*
X167429269Y-102616000D01*
X167511373Y-103028762D01*
X167745184Y-103378685D01*
X168095107Y-103612496D01*
X168507869Y-103694600D01*
X168550131Y-103694600D01*
X168962893Y-103612496D01*
X169312816Y-103378685D01*
X169546627Y-103028762D01*
X169628731Y-102616000D01*
X169546627Y-102203238D01*
X169312816Y-101853315D01*
X168962893Y-101619504D01*
X168550131Y-101537400D01*
X168507869Y-101537400D01*
X168095107Y-101619504D01*
X167745184Y-101853315D01*
X167511373Y-102203238D01*
X167429269Y-102616000D01*
X167323399Y-102616000D01*
X167323399Y-101135004D01*
X167323400Y-101134999D01*
X167298264Y-101008637D01*
X167226686Y-100901512D01*
X166743207Y-100418033D01*
X167506068Y-100418033D01*
X167563809Y-100557480D01*
X167821534Y-100890192D01*
X168186964Y-101098951D01*
X168351200Y-101082713D01*
X168351200Y-100253800D01*
X168706800Y-100253800D01*
X168706800Y-101082713D01*
X168871036Y-101098951D01*
X169236466Y-100890192D01*
X169494191Y-100557480D01*
X169551932Y-100418033D01*
X169534856Y-100253800D01*
X168706800Y-100253800D01*
X168351200Y-100253800D01*
X167523144Y-100253800D01*
X167506068Y-100418033D01*
X166743207Y-100418033D01*
X166059141Y-99733967D01*
X167506068Y-99733967D01*
X167523144Y-99898200D01*
X168351200Y-99898200D01*
X168351200Y-99069287D01*
X168706800Y-99069287D01*
X168706800Y-99898200D01*
X169534856Y-99898200D01*
X169551932Y-99733967D01*
X169494191Y-99594520D01*
X169236466Y-99261808D01*
X168871036Y-99053049D01*
X168706800Y-99069287D01*
X168351200Y-99069287D01*
X168186964Y-99053049D01*
X167821534Y-99261808D01*
X167563809Y-99594520D01*
X167506068Y-99733967D01*
X166059141Y-99733967D01*
X164958687Y-98633513D01*
X164851562Y-98561935D01*
X164725200Y-98536800D01*
X164558994Y-98536800D01*
X164529689Y-98517219D01*
X164384805Y-98488400D01*
X163809195Y-98488400D01*
X163664311Y-98517219D01*
X163541484Y-98599289D01*
X163535032Y-98608945D01*
X163515798Y-98562509D01*
X163451492Y-98498203D01*
X163405055Y-98478968D01*
X163414711Y-98472516D01*
X163496781Y-98349689D01*
X163517167Y-98247200D01*
X163666722Y-98247200D01*
X163784181Y-98364864D01*
X163978394Y-98445508D01*
X164188684Y-98445692D01*
X164383037Y-98365387D01*
X164531864Y-98216819D01*
X164612508Y-98022606D01*
X164612692Y-97812316D01*
X164532387Y-97617963D01*
X164429953Y-97515350D01*
X164531864Y-97413616D01*
X164612508Y-97219403D01*
X164612692Y-97009113D01*
X164558132Y-96877068D01*
X164739337Y-97058273D01*
X164739192Y-97224530D01*
X164819497Y-97418883D01*
X164968065Y-97567710D01*
X165162278Y-97648354D01*
X165372568Y-97648538D01*
X165566921Y-97568233D01*
X165715748Y-97419665D01*
X165796392Y-97225452D01*
X165796576Y-97015162D01*
X165716271Y-96820809D01*
X165567703Y-96671982D01*
X165373490Y-96591338D01*
X165206203Y-96591192D01*
X165047798Y-96432786D01*
X165524612Y-96432786D01*
X166861311Y-97769484D01*
X166861313Y-97769487D01*
X166924032Y-97811394D01*
X166968438Y-97841065D01*
X167094800Y-97866201D01*
X167094805Y-97866200D01*
X167445922Y-97866200D01*
X167445922Y-98386000D01*
X167461862Y-98470714D01*
X167511928Y-98548518D01*
X167588320Y-98600715D01*
X167679000Y-98619078D01*
X169379000Y-98619078D01*
X169463714Y-98603138D01*
X169541518Y-98553072D01*
X169593715Y-98476680D01*
X169612078Y-98386000D01*
X169612078Y-96686000D01*
X169596138Y-96601286D01*
X169546072Y-96523482D01*
X169469680Y-96471285D01*
X169379000Y-96452922D01*
X167679000Y-96452922D01*
X167594286Y-96468862D01*
X167516482Y-96518928D01*
X167464285Y-96595320D01*
X167445922Y-96686000D01*
X167445922Y-97205800D01*
X167231573Y-97205800D01*
X166087374Y-96061600D01*
X170003400Y-96061600D01*
X170003400Y-116790400D01*
X154354600Y-116790400D01*
X154354600Y-114609150D01*
X154445600Y-114609150D01*
X154445600Y-114722472D01*
X154480403Y-114806492D01*
X154544709Y-114870798D01*
X154628729Y-114905600D01*
X154767050Y-114905600D01*
X154824200Y-114848450D01*
X154824200Y-114552000D01*
X154502750Y-114552000D01*
X154445600Y-114609150D01*
X154354600Y-114609150D01*
X154354600Y-114131528D01*
X154445600Y-114131528D01*
X154445600Y-114244850D01*
X154502750Y-114302000D01*
X154824200Y-114302000D01*
X154824200Y-114005550D01*
X154767050Y-113948400D01*
X154628729Y-113948400D01*
X154544709Y-113983202D01*
X154480403Y-114047508D01*
X154445600Y-114131528D01*
X154354600Y-114131528D01*
X154354600Y-111561149D01*
X154445600Y-111561149D01*
X154445600Y-111674471D01*
X154480403Y-111758491D01*
X154544709Y-111822797D01*
X154628729Y-111857599D01*
X154767050Y-111857599D01*
X154824200Y-111800449D01*
X154824200Y-111503999D01*
X154502750Y-111503999D01*
X154445600Y-111561149D01*
X154354600Y-111561149D01*
X154354600Y-111083527D01*
X154445600Y-111083527D01*
X154445600Y-111196849D01*
X154502750Y-111253999D01*
X154824200Y-111253999D01*
X154824200Y-110957549D01*
X154767050Y-110900399D01*
X154628729Y-110900399D01*
X154544709Y-110935201D01*
X154480403Y-110999507D01*
X154445600Y-111083527D01*
X154354600Y-111083527D01*
X154354600Y-96829150D01*
X156909400Y-96829150D01*
X156909400Y-96942472D01*
X156944203Y-97026492D01*
X157008509Y-97090798D01*
X157092529Y-97125600D01*
X157230850Y-97125600D01*
X157288000Y-97068450D01*
X157288000Y-96772000D01*
X157588000Y-96772000D01*
X157588000Y-97068450D01*
X157645150Y-97125600D01*
X157783471Y-97125600D01*
X157867491Y-97090798D01*
X157931797Y-97026492D01*
X157966600Y-96942472D01*
X157966600Y-96829150D01*
X157909450Y-96772000D01*
X157588000Y-96772000D01*
X157288000Y-96772000D01*
X156966550Y-96772000D01*
X156909400Y-96829150D01*
X154354600Y-96829150D01*
X154354600Y-96351528D01*
X156909400Y-96351528D01*
X156909400Y-96464850D01*
X156966550Y-96522000D01*
X157288000Y-96522000D01*
X157288000Y-96225550D01*
X157588000Y-96225550D01*
X157588000Y-96522000D01*
X157909450Y-96522000D01*
X157966600Y-96464850D01*
X157966600Y-96351528D01*
X157931797Y-96267508D01*
X157867491Y-96203202D01*
X157783471Y-96168400D01*
X157645150Y-96168400D01*
X157588000Y-96225550D01*
X157288000Y-96225550D01*
X157230850Y-96168400D01*
X157092529Y-96168400D01*
X157008509Y-96203202D01*
X156944203Y-96267508D01*
X156909400Y-96351528D01*
X154354600Y-96351528D01*
X154354600Y-96061600D01*
X158706427Y-96061600D01*
X158604104Y-96163922D01*
X158604104Y-96163922D01*
G37*
X158604104Y-96163922D02*
X158238000Y-96163922D01*
X158153286Y-96179862D01*
X158075482Y-96229928D01*
X158023285Y-96306320D01*
X158004922Y-96397000D01*
X158004922Y-96897000D01*
X158020862Y-96981714D01*
X158070928Y-97059518D01*
X158095155Y-97076072D01*
X157881513Y-97289713D01*
X157809935Y-97396838D01*
X157784800Y-97523200D01*
X157784800Y-98703198D01*
X157809935Y-98829560D01*
X157881513Y-98936685D01*
X158545315Y-99600487D01*
X158611248Y-99644541D01*
X158559414Y-99722116D01*
X158530595Y-99867000D01*
X158559414Y-100011884D01*
X158626364Y-100112082D01*
X158567204Y-100234871D01*
X158609422Y-100292000D01*
X159019200Y-100292000D01*
X159019200Y-100245600D01*
X159374800Y-100245600D01*
X159374800Y-100292000D01*
X159394800Y-100292000D01*
X159394800Y-100442000D01*
X159374800Y-100442000D01*
X159374800Y-100792000D01*
X159394800Y-100792000D01*
X159394800Y-100942000D01*
X159374800Y-100942000D01*
X159374800Y-100988400D01*
X159019200Y-100988400D01*
X159019200Y-100942000D01*
X158609422Y-100942000D01*
X158567204Y-100999129D01*
X158585354Y-101036800D01*
X156756574Y-101036800D01*
X156579852Y-100860078D01*
X157283000Y-100860078D01*
X157367714Y-100844138D01*
X157445518Y-100794072D01*
X157497715Y-100717680D01*
X157516078Y-100627000D01*
X157516078Y-100499129D01*
X158567204Y-100499129D01*
X158623995Y-100617000D01*
X158567204Y-100734871D01*
X158609422Y-100792000D01*
X159019200Y-100792000D01*
X159019200Y-100442000D01*
X158609422Y-100442000D01*
X158567204Y-100499129D01*
X157516078Y-100499129D01*
X157516078Y-98727000D01*
X157500138Y-98642286D01*
X157450072Y-98564482D01*
X157373680Y-98512285D01*
X157283000Y-98493922D01*
X156413200Y-98493922D01*
X156413200Y-98132493D01*
X156425714Y-98130138D01*
X156503518Y-98080072D01*
X156555715Y-98003680D01*
X156574078Y-97913000D01*
X156574078Y-97845150D01*
X156612400Y-97845150D01*
X156612400Y-97958472D01*
X156647203Y-98042492D01*
X156711509Y-98106798D01*
X156795529Y-98141600D01*
X156933850Y-98141600D01*
X156991000Y-98084450D01*
X156991000Y-97788000D01*
X157291000Y-97788000D01*
X157291000Y-98084450D01*
X157348150Y-98141600D01*
X157486471Y-98141600D01*
X157570491Y-98106798D01*
X157634797Y-98042492D01*
X157669600Y-97958472D01*
X157669600Y-97845150D01*
X157612450Y-97788000D01*
X157291000Y-97788000D01*
X156991000Y-97788000D01*
X156669550Y-97788000D01*
X156612400Y-97845150D01*
X156574078Y-97845150D01*
X156574078Y-97413000D01*
X156565522Y-97367528D01*
X156612400Y-97367528D01*
X156612400Y-97480850D01*
X156669550Y-97538000D01*
X156991000Y-97538000D01*
X156991000Y-97241550D01*
X157291000Y-97241550D01*
X157291000Y-97538000D01*
X157612450Y-97538000D01*
X157669600Y-97480850D01*
X157669600Y-97367528D01*
X157634797Y-97283508D01*
X157570491Y-97219202D01*
X157486471Y-97184400D01*
X157348150Y-97184400D01*
X157291000Y-97241550D01*
X156991000Y-97241550D01*
X156933850Y-97184400D01*
X156795529Y-97184400D01*
X156711509Y-97219202D01*
X156647203Y-97283508D01*
X156612400Y-97367528D01*
X156565522Y-97367528D01*
X156558138Y-97328286D01*
X156508072Y-97250482D01*
X156431680Y-97198285D01*
X156341000Y-97179922D01*
X155741000Y-97179922D01*
X155656286Y-97195862D01*
X155578482Y-97245928D01*
X155526285Y-97322320D01*
X155507922Y-97413000D01*
X155507922Y-97913000D01*
X155523862Y-97997714D01*
X155573928Y-98075518D01*
X155650320Y-98127715D01*
X155741000Y-98146078D01*
X155752800Y-98146078D01*
X155752800Y-98493922D01*
X154883000Y-98493922D01*
X154798286Y-98509862D01*
X154720482Y-98559928D01*
X154668285Y-98636320D01*
X154649922Y-98727000D01*
X154649922Y-100627000D01*
X154665862Y-100711714D01*
X154715928Y-100789518D01*
X154792320Y-100841715D01*
X154883000Y-100860078D01*
X155758743Y-100860078D01*
X155777935Y-100956562D01*
X155849513Y-101063687D01*
X156386313Y-101600487D01*
X156493438Y-101672065D01*
X156555430Y-101684396D01*
X155849513Y-102390313D01*
X155777935Y-102497438D01*
X155758743Y-102593922D01*
X154883000Y-102593922D01*
X154798286Y-102609862D01*
X154720482Y-102659928D01*
X154668285Y-102736320D01*
X154649922Y-102827000D01*
X154649922Y-104727000D01*
X154665862Y-104811714D01*
X154715928Y-104889518D01*
X154792320Y-104941715D01*
X154883000Y-104960078D01*
X155752800Y-104960078D01*
X155752800Y-105313605D01*
X155698286Y-105323862D01*
X155620482Y-105373928D01*
X155568285Y-105450320D01*
X155549922Y-105541000D01*
X155549922Y-106041000D01*
X155565862Y-106125714D01*
X155615928Y-106203518D01*
X155692320Y-106255715D01*
X155783000Y-106274078D01*
X156383000Y-106274078D01*
X156467714Y-106258138D01*
X156545518Y-106208072D01*
X156597715Y-106131680D01*
X156616078Y-106041000D01*
X156616078Y-105973150D01*
X156654400Y-105973150D01*
X156654400Y-106086472D01*
X156689203Y-106170492D01*
X156753509Y-106234798D01*
X156837529Y-106269600D01*
X156975850Y-106269600D01*
X157033000Y-106212450D01*
X157033000Y-105916000D01*
X157333000Y-105916000D01*
X157333000Y-106212450D01*
X157390150Y-106269600D01*
X157528471Y-106269600D01*
X157612491Y-106234798D01*
X157676797Y-106170492D01*
X157711600Y-106086472D01*
X157711600Y-105973150D01*
X157654450Y-105916000D01*
X157333000Y-105916000D01*
X157033000Y-105916000D01*
X156711550Y-105916000D01*
X156654400Y-105973150D01*
X156616078Y-105973150D01*
X156616078Y-105719150D01*
X159017600Y-105719150D01*
X159017600Y-105832472D01*
X159052403Y-105916492D01*
X159116709Y-105980798D01*
X159200729Y-106015600D01*
X159339050Y-106015600D01*
X159396200Y-105958450D01*
X159396200Y-105662000D01*
X159074750Y-105662000D01*
X159017600Y-105719150D01*
X156616078Y-105719150D01*
X156616078Y-105541000D01*
X156607522Y-105495528D01*
X156654400Y-105495528D01*
X156654400Y-105608850D01*
X156711550Y-105666000D01*
X157033000Y-105666000D01*
X157033000Y-105369550D01*
X157333000Y-105369550D01*
X157333000Y-105666000D01*
X157654450Y-105666000D01*
X157711600Y-105608850D01*
X157711600Y-105495528D01*
X157676797Y-105411508D01*
X157612491Y-105347202D01*
X157528471Y-105312400D01*
X157390150Y-105312400D01*
X157333000Y-105369550D01*
X157033000Y-105369550D01*
X156975850Y-105312400D01*
X156837529Y-105312400D01*
X156753509Y-105347202D01*
X156689203Y-105411508D01*
X156654400Y-105495528D01*
X156607522Y-105495528D01*
X156600138Y-105456286D01*
X156550072Y-105378482D01*
X156473680Y-105326285D01*
X156413200Y-105314038D01*
X156413200Y-105241528D01*
X159017600Y-105241528D01*
X159017600Y-105354850D01*
X159074750Y-105412000D01*
X159396200Y-105412000D01*
X159396200Y-105115550D01*
X159339050Y-105058400D01*
X159200729Y-105058400D01*
X159116709Y-105093202D01*
X159052403Y-105157508D01*
X159017600Y-105241528D01*
X156413200Y-105241528D01*
X156413200Y-104960078D01*
X157283000Y-104960078D01*
X157367714Y-104944138D01*
X157445518Y-104894072D01*
X157497715Y-104817680D01*
X157516078Y-104727000D01*
X157516078Y-102827000D01*
X157500138Y-102742286D01*
X157450072Y-102664482D01*
X157373680Y-102612285D01*
X157283000Y-102593922D01*
X156579852Y-102593922D01*
X156976574Y-102197200D01*
X158735006Y-102197200D01*
X158764311Y-102216781D01*
X158909195Y-102245600D01*
X159484805Y-102245600D01*
X159629689Y-102216781D01*
X159752516Y-102134711D01*
X159758968Y-102125055D01*
X159778202Y-102171491D01*
X159842508Y-102235797D01*
X159888945Y-102255032D01*
X159879289Y-102261484D01*
X159797219Y-102384311D01*
X159776833Y-102486800D01*
X159438000Y-102486800D01*
X159311638Y-102511935D01*
X159204513Y-102583513D01*
X159204511Y-102583516D01*
X158728514Y-103059512D01*
X158656936Y-103166637D01*
X158631801Y-103292999D01*
X158631801Y-103789605D01*
X158577287Y-103799862D01*
X158499483Y-103849928D01*
X158447286Y-103926320D01*
X158428923Y-104017000D01*
X158428923Y-104517000D01*
X158444863Y-104601714D01*
X158494929Y-104679518D01*
X158571321Y-104731715D01*
X158662001Y-104750078D01*
X159262001Y-104750078D01*
X159346715Y-104734138D01*
X159424519Y-104684072D01*
X159476716Y-104607680D01*
X159495079Y-104517000D01*
X159495079Y-104449150D01*
X159533401Y-104449150D01*
X159533401Y-104562472D01*
X159568204Y-104646492D01*
X159632510Y-104710798D01*
X159716530Y-104745600D01*
X159854851Y-104745600D01*
X159912001Y-104688450D01*
X159912001Y-104392000D01*
X159590551Y-104392000D01*
X159533401Y-104449150D01*
X159495079Y-104449150D01*
X159495079Y-104017000D01*
X159486523Y-103971528D01*
X159533401Y-103971528D01*
X159533401Y-104084850D01*
X159590551Y-104142000D01*
X159912001Y-104142000D01*
X159912001Y-103845550D01*
X159854851Y-103788400D01*
X159716530Y-103788400D01*
X159632510Y-103823202D01*
X159568204Y-103887508D01*
X159533401Y-103971528D01*
X159486523Y-103971528D01*
X159479139Y-103932286D01*
X159429073Y-103854482D01*
X159352681Y-103802285D01*
X159292201Y-103790038D01*
X159292201Y-103429773D01*
X159574773Y-103147200D01*
X159776833Y-103147200D01*
X159797219Y-103249689D01*
X159879289Y-103372516D01*
X160002116Y-103454586D01*
X160147000Y-103483405D01*
X160291884Y-103454586D01*
X160392082Y-103387636D01*
X160514871Y-103446796D01*
X160572000Y-103404578D01*
X160572000Y-102994800D01*
X160525600Y-102994800D01*
X160525600Y-102639200D01*
X160572000Y-102639200D01*
X160572000Y-102270600D01*
X160574550Y-102270600D01*
X160631698Y-102213452D01*
X160631698Y-102270600D01*
X160722000Y-102270600D01*
X160722000Y-102639200D01*
X160768400Y-102639200D01*
X160768400Y-102994800D01*
X160722000Y-102994800D01*
X160722000Y-103404578D01*
X160779129Y-103446796D01*
X160791400Y-103440884D01*
X160791400Y-103527242D01*
X160722967Y-103572967D01*
X160588070Y-103774856D01*
X160562462Y-103903596D01*
X160555798Y-103887508D01*
X160491492Y-103823202D01*
X160407472Y-103788400D01*
X160269151Y-103788400D01*
X160212001Y-103845550D01*
X160212001Y-104142000D01*
X160259801Y-104142000D01*
X160259801Y-104392000D01*
X160212001Y-104392000D01*
X160212001Y-104668035D01*
X160206168Y-104673868D01*
X160071271Y-104875757D01*
X160023900Y-105113901D01*
X160023901Y-105113906D01*
X160023901Y-105141412D01*
X159975691Y-105093202D01*
X159891671Y-105058400D01*
X159753350Y-105058400D01*
X159696200Y-105115550D01*
X159696200Y-105412000D01*
X159744000Y-105412000D01*
X159744000Y-105662000D01*
X159696200Y-105662000D01*
X159696200Y-105958450D01*
X159753350Y-106015600D01*
X159891671Y-106015600D01*
X159975691Y-105980798D01*
X160032700Y-105923789D01*
X160032700Y-106765000D01*
X160080070Y-107003144D01*
X160214967Y-107205033D01*
X160229865Y-107214987D01*
X160237928Y-107227518D01*
X160314320Y-107279715D01*
X160332137Y-107283323D01*
X160379545Y-107315000D01*
X160334314Y-107345222D01*
X160320286Y-107347862D01*
X160242482Y-107397928D01*
X160231601Y-107413853D01*
X160214967Y-107424967D01*
X160080070Y-107626856D01*
X160032700Y-107865000D01*
X160032700Y-109051000D01*
X160080070Y-109289144D01*
X160214967Y-109491033D01*
X160229865Y-109500987D01*
X160237928Y-109513518D01*
X160314320Y-109565715D01*
X160332137Y-109569323D01*
X160379545Y-109601000D01*
X160334314Y-109631222D01*
X160320286Y-109633862D01*
X160242482Y-109683928D01*
X160231601Y-109699853D01*
X160214967Y-109710967D01*
X160080070Y-109912856D01*
X160032699Y-110151000D01*
X160049300Y-110234457D01*
X160049300Y-110983410D01*
X160001091Y-110935201D01*
X159917071Y-110900399D01*
X159778750Y-110900399D01*
X159721600Y-110957549D01*
X159721600Y-111253999D01*
X159769400Y-111253999D01*
X159769400Y-111503999D01*
X159721600Y-111503999D01*
X159721600Y-111800449D01*
X159778750Y-111857599D01*
X159917071Y-111857599D01*
X160001091Y-111822797D01*
X160032700Y-111791188D01*
X160032700Y-112607000D01*
X160080070Y-112845144D01*
X160214967Y-113047033D01*
X160229865Y-113056987D01*
X160237928Y-113069518D01*
X160260147Y-113084700D01*
X158454005Y-113084700D01*
X158454000Y-113084699D01*
X158267914Y-113121715D01*
X158215856Y-113132070D01*
X158013967Y-113266967D01*
X158013965Y-113266970D01*
X157476234Y-113804700D01*
X156705300Y-113804700D01*
X156705300Y-113453000D01*
X156657930Y-113214856D01*
X156523033Y-113012967D01*
X156508135Y-113003013D01*
X156500072Y-112990482D01*
X156423680Y-112938285D01*
X156405863Y-112934677D01*
X156358454Y-112903000D01*
X156403685Y-112872778D01*
X156417714Y-112870138D01*
X156495518Y-112820072D01*
X156506401Y-112804145D01*
X156523032Y-112793032D01*
X156657930Y-112591144D01*
X156705301Y-112353000D01*
X156696500Y-112308756D01*
X156696500Y-111561149D01*
X159043000Y-111561149D01*
X159043000Y-111674471D01*
X159077803Y-111758491D01*
X159142109Y-111822797D01*
X159226129Y-111857599D01*
X159364450Y-111857599D01*
X159421600Y-111800449D01*
X159421600Y-111503999D01*
X159100150Y-111503999D01*
X159043000Y-111561149D01*
X156696500Y-111561149D01*
X156696500Y-111083527D01*
X159043000Y-111083527D01*
X159043000Y-111196849D01*
X159100150Y-111253999D01*
X159421600Y-111253999D01*
X159421600Y-110957549D01*
X159364450Y-110900399D01*
X159226129Y-110900399D01*
X159142109Y-110935201D01*
X159077803Y-110999507D01*
X159043000Y-111083527D01*
X156696500Y-111083527D01*
X156696500Y-110684078D01*
X156933000Y-110684078D01*
X157017714Y-110668138D01*
X157095518Y-110618072D01*
X157147715Y-110541680D01*
X157166078Y-110451000D01*
X157166078Y-108751000D01*
X157150138Y-108666286D01*
X157100072Y-108588482D01*
X157023680Y-108536285D01*
X156933000Y-108517922D01*
X155233000Y-108517922D01*
X155148286Y-108533862D01*
X155070482Y-108583928D01*
X155018285Y-108660320D01*
X154999922Y-108751000D01*
X154999922Y-110451000D01*
X155015862Y-110535714D01*
X155065928Y-110613518D01*
X155142320Y-110665715D01*
X155233000Y-110684078D01*
X155451900Y-110684078D01*
X155451900Y-110983410D01*
X155403691Y-110935201D01*
X155319671Y-110900399D01*
X155181350Y-110900399D01*
X155124200Y-110957549D01*
X155124200Y-111253999D01*
X155172000Y-111253999D01*
X155172000Y-111503999D01*
X155124200Y-111503999D01*
X155124200Y-111800449D01*
X155181350Y-111857599D01*
X155319671Y-111857599D01*
X155403691Y-111822797D01*
X155451900Y-111774588D01*
X155451900Y-112344195D01*
X155451899Y-112344200D01*
X155499270Y-112582344D01*
X155634167Y-112784233D01*
X155642967Y-112793032D01*
X155657863Y-112802986D01*
X155665928Y-112815518D01*
X155742320Y-112867715D01*
X155760138Y-112871323D01*
X155807546Y-112903000D01*
X155762314Y-112933222D01*
X155748286Y-112935862D01*
X155670482Y-112985928D01*
X155659601Y-113001853D01*
X155642967Y-113012967D01*
X155508070Y-113214856D01*
X155460700Y-113453000D01*
X155460700Y-114040211D01*
X155403691Y-113983202D01*
X155319671Y-113948400D01*
X155181350Y-113948400D01*
X155124200Y-114005550D01*
X155124200Y-114302000D01*
X155172000Y-114302000D01*
X155172000Y-114552000D01*
X155124200Y-114552000D01*
X155124200Y-114848450D01*
X155181350Y-114905600D01*
X155319671Y-114905600D01*
X155403691Y-114870798D01*
X155467997Y-114806492D01*
X155502800Y-114722472D01*
X155502800Y-114670427D01*
X155554422Y-114747686D01*
X155557062Y-114761714D01*
X155607128Y-114839518D01*
X155623053Y-114850399D01*
X155634167Y-114867033D01*
X155836056Y-115001930D01*
X156074200Y-115049301D01*
X156074205Y-115049300D01*
X157733995Y-115049300D01*
X157734000Y-115049301D01*
X157972144Y-115001930D01*
X158174033Y-114867033D01*
X158711765Y-114329300D01*
X160156738Y-114329300D01*
X160214967Y-114416447D01*
X160961553Y-115163033D01*
X161163442Y-115297930D01*
X161401586Y-115345301D01*
X161401591Y-115345300D01*
X162687000Y-115345300D01*
X162925144Y-115297930D01*
X163007686Y-115242778D01*
X163021714Y-115240138D01*
X163099518Y-115190072D01*
X163110399Y-115174147D01*
X163127033Y-115163033D01*
X163261930Y-114961144D01*
X163309300Y-114723000D01*
X163261930Y-114484856D01*
X163127033Y-114282967D01*
X163112135Y-114273013D01*
X163104072Y-114260482D01*
X163027680Y-114208285D01*
X163009863Y-114204677D01*
X162962459Y-114173003D01*
X163007691Y-114142777D01*
X163021714Y-114140138D01*
X163099518Y-114090072D01*
X163110407Y-114074136D01*
X163127059Y-114063008D01*
X163135830Y-114054235D01*
X163135833Y-114054233D01*
X163135835Y-114054230D01*
X163135857Y-114054208D01*
X163198889Y-113959862D01*
X163270730Y-113852344D01*
X163270734Y-113852325D01*
X163270743Y-113852311D01*
X163293492Y-113737914D01*
X163318100Y-113614200D01*
X163318100Y-112790589D01*
X163366309Y-112838798D01*
X163450329Y-112873600D01*
X163588650Y-112873600D01*
X163645800Y-112816450D01*
X163645800Y-112520000D01*
X163945800Y-112520000D01*
X163945800Y-112816450D01*
X164002950Y-112873600D01*
X164141271Y-112873600D01*
X164225291Y-112838798D01*
X164289597Y-112774492D01*
X164324400Y-112690472D01*
X164324400Y-112577150D01*
X164267250Y-112520000D01*
X163945800Y-112520000D01*
X163645800Y-112520000D01*
X163598000Y-112520000D01*
X163598000Y-112270000D01*
X163645800Y-112270000D01*
X163645800Y-111973550D01*
X163945800Y-111973550D01*
X163945800Y-112270000D01*
X164267250Y-112270000D01*
X164324400Y-112212850D01*
X164324400Y-112099528D01*
X164289597Y-112015508D01*
X164225291Y-111951202D01*
X164141271Y-111916400D01*
X164002950Y-111916400D01*
X163945800Y-111973550D01*
X163645800Y-111973550D01*
X163588650Y-111916400D01*
X163450329Y-111916400D01*
X163366309Y-111951202D01*
X163318100Y-111999411D01*
X163318100Y-111647589D01*
X163366309Y-111695798D01*
X163450329Y-111730600D01*
X163588650Y-111730600D01*
X163645800Y-111673450D01*
X163645800Y-111377000D01*
X163945800Y-111377000D01*
X163945800Y-111673450D01*
X164002950Y-111730600D01*
X164141271Y-111730600D01*
X164225291Y-111695798D01*
X164289597Y-111631492D01*
X164324400Y-111547472D01*
X164324400Y-111434150D01*
X164267250Y-111377000D01*
X163945800Y-111377000D01*
X163645800Y-111377000D01*
X163598000Y-111377000D01*
X163598000Y-111127000D01*
X163645800Y-111127000D01*
X163645800Y-110830550D01*
X163945800Y-110830550D01*
X163945800Y-111127000D01*
X164267250Y-111127000D01*
X164324400Y-111069850D01*
X164324400Y-110956528D01*
X164289597Y-110872508D01*
X164225291Y-110808202D01*
X164141271Y-110773400D01*
X164002950Y-110773400D01*
X163945800Y-110830550D01*
X163645800Y-110830550D01*
X163588650Y-110773400D01*
X163450329Y-110773400D01*
X163366309Y-110808202D01*
X163309300Y-110865211D01*
X163309300Y-110024000D01*
X163261930Y-109785856D01*
X163127033Y-109583967D01*
X163112137Y-109574014D01*
X163104073Y-109561482D01*
X163027681Y-109509285D01*
X163009862Y-109505677D01*
X162962455Y-109474000D01*
X163007686Y-109443778D01*
X163021715Y-109441138D01*
X163099519Y-109391072D01*
X163110401Y-109375146D01*
X163127033Y-109364033D01*
X163261930Y-109162144D01*
X163309300Y-108924000D01*
X163309300Y-107738000D01*
X163261930Y-107499856D01*
X163127033Y-107297967D01*
X163112137Y-107288014D01*
X163104073Y-107275482D01*
X163027681Y-107223285D01*
X163009862Y-107219677D01*
X162962459Y-107188003D01*
X163007691Y-107157777D01*
X163021715Y-107155138D01*
X163099519Y-107105072D01*
X163110408Y-107089135D01*
X163127058Y-107078009D01*
X163135830Y-107069235D01*
X163135833Y-107069233D01*
X163135835Y-107069230D01*
X163135858Y-107069207D01*
X163201484Y-106970978D01*
X163270730Y-106867344D01*
X163270733Y-106867327D01*
X163270744Y-106867311D01*
X163296643Y-106737072D01*
X163318100Y-106629200D01*
X163318100Y-106629169D01*
X163318101Y-106629164D01*
X163318100Y-106629159D01*
X163318100Y-105932590D01*
X163366308Y-105980798D01*
X163450328Y-106015600D01*
X163588649Y-106015600D01*
X163645799Y-105958450D01*
X163645799Y-105662000D01*
X163945799Y-105662000D01*
X163945799Y-105958450D01*
X164002949Y-106015600D01*
X164141270Y-106015600D01*
X164225290Y-105980798D01*
X164289596Y-105916492D01*
X164324399Y-105832472D01*
X164324399Y-105719150D01*
X164267249Y-105662000D01*
X163945799Y-105662000D01*
X163645799Y-105662000D01*
X163597999Y-105662000D01*
X163597999Y-105412000D01*
X163645799Y-105412000D01*
X163645799Y-105115550D01*
X163945799Y-105115550D01*
X163945799Y-105412000D01*
X164267249Y-105412000D01*
X164324399Y-105354850D01*
X164324399Y-105241528D01*
X164289596Y-105157508D01*
X164225290Y-105093202D01*
X164141270Y-105058400D01*
X164002949Y-105058400D01*
X163945799Y-105115550D01*
X163645799Y-105115550D01*
X163588649Y-105058400D01*
X163450328Y-105058400D01*
X163366308Y-105093202D01*
X163314219Y-105145291D01*
X163270730Y-104926656D01*
X163135833Y-104724767D01*
X163135830Y-104724765D01*
X163114758Y-104703692D01*
X163130000Y-104688450D01*
X163130000Y-104392000D01*
X163430000Y-104392000D01*
X163430000Y-104688450D01*
X163487150Y-104745600D01*
X163625471Y-104745600D01*
X163709491Y-104710798D01*
X163773797Y-104646492D01*
X163808600Y-104562472D01*
X163808600Y-104449150D01*
X163751450Y-104392000D01*
X163430000Y-104392000D01*
X163130000Y-104392000D01*
X163082200Y-104392000D01*
X163082200Y-104142000D01*
X163130000Y-104142000D01*
X163130000Y-103845550D01*
X163430000Y-103845550D01*
X163430000Y-104142000D01*
X163751450Y-104142000D01*
X163808600Y-104084850D01*
X163808600Y-103971528D01*
X163773797Y-103887508D01*
X163709491Y-103823202D01*
X163625471Y-103788400D01*
X163487150Y-103788400D01*
X163430000Y-103845550D01*
X163130000Y-103845550D01*
X163072850Y-103788400D01*
X162934529Y-103788400D01*
X162850509Y-103823202D01*
X162786203Y-103887508D01*
X162762385Y-103945008D01*
X162728540Y-103774856D01*
X162593643Y-103572967D01*
X162391754Y-103438070D01*
X162333842Y-103426551D01*
X162392082Y-103387636D01*
X162514871Y-103446796D01*
X162572000Y-103404578D01*
X162572000Y-102994800D01*
X162525600Y-102994800D01*
X162525600Y-102639200D01*
X162572000Y-102639200D01*
X162572000Y-102270600D01*
X162662302Y-102270600D01*
X162662302Y-102213452D01*
X162719450Y-102270600D01*
X162722000Y-102270600D01*
X162722000Y-102639200D01*
X162768400Y-102639200D01*
X162768400Y-102994800D01*
X162722000Y-102994800D01*
X162722000Y-103404578D01*
X162779129Y-103446796D01*
X162901918Y-103387636D01*
X163002116Y-103454586D01*
X163147000Y-103483405D01*
X163291884Y-103454586D01*
X163414711Y-103372516D01*
X163496781Y-103249689D01*
X163517167Y-103147200D01*
X163767226Y-103147200D01*
X164007800Y-103387773D01*
X164007800Y-103771800D01*
X164012729Y-103796580D01*
X163995286Y-103799862D01*
X163917482Y-103849928D01*
X163865285Y-103926320D01*
X163846922Y-104017000D01*
X163846922Y-104517000D01*
X163862862Y-104601714D01*
X163912928Y-104679518D01*
X163989320Y-104731715D01*
X164080000Y-104750078D01*
X164680000Y-104750078D01*
X164764714Y-104734138D01*
X164842518Y-104684072D01*
X164894715Y-104607680D01*
X164913078Y-104517000D01*
X164913078Y-104017000D01*
X164897138Y-103932286D01*
X164847072Y-103854482D01*
X164770680Y-103802285D01*
X164705276Y-103789040D01*
X164685065Y-103687438D01*
X164668200Y-103662198D01*
X164668200Y-103251005D01*
X164668201Y-103251000D01*
X164643065Y-103124638D01*
X164629813Y-103104805D01*
X164571487Y-103017513D01*
X164571484Y-103017511D01*
X164137487Y-102583513D01*
X164030362Y-102511935D01*
X163904000Y-102486800D01*
X163517167Y-102486800D01*
X163496781Y-102384311D01*
X163414711Y-102261484D01*
X163405055Y-102255032D01*
X163451492Y-102235797D01*
X163515798Y-102171491D01*
X163535032Y-102125055D01*
X163541484Y-102134711D01*
X163664311Y-102216781D01*
X163809195Y-102245600D01*
X164384805Y-102245600D01*
X164529689Y-102216781D01*
X164652516Y-102134711D01*
X164734586Y-102011884D01*
X164763405Y-101867000D01*
X164734586Y-101722116D01*
X164664350Y-101617000D01*
X164734586Y-101511884D01*
X164763405Y-101367000D01*
X164734586Y-101222116D01*
X164664350Y-101117000D01*
X164734586Y-101011884D01*
X164763405Y-100867000D01*
X164734586Y-100722116D01*
X164664350Y-100617000D01*
X164734586Y-100511884D01*
X164763405Y-100367000D01*
X164734586Y-100222116D01*
X164664350Y-100117000D01*
X164734586Y-100011884D01*
X164749240Y-99938214D01*
X166256589Y-101445562D01*
X166256589Y-113754789D01*
X166281724Y-113881151D01*
X166353302Y-113988276D01*
X167471039Y-115106012D01*
X167429269Y-115316000D01*
X167511373Y-115728762D01*
X167745184Y-116078685D01*
X168095107Y-116312496D01*
X168507869Y-116394600D01*
X168550131Y-116394600D01*
X168962893Y-116312496D01*
X169312816Y-116078685D01*
X169546627Y-115728762D01*
X169628731Y-115316000D01*
X169546627Y-114903238D01*
X169312816Y-114553315D01*
X168962893Y-114319504D01*
X168550131Y-114237400D01*
X168507869Y-114237400D01*
X168095107Y-114319504D01*
X167809388Y-114510415D01*
X166916989Y-113618015D01*
X166916989Y-112011963D01*
X167471038Y-112566012D01*
X167429269Y-112776000D01*
X167511373Y-113188762D01*
X167745184Y-113538685D01*
X168095107Y-113772496D01*
X168507869Y-113854600D01*
X168550131Y-113854600D01*
X168962893Y-113772496D01*
X169312816Y-113538685D01*
X169546627Y-113188762D01*
X169628731Y-112776000D01*
X169546627Y-112363238D01*
X169312816Y-112013315D01*
X168962893Y-111779504D01*
X168550131Y-111697400D01*
X168507869Y-111697400D01*
X168095107Y-111779504D01*
X167809389Y-111970415D01*
X167323399Y-111484425D01*
X167323399Y-110236000D01*
X167429269Y-110236000D01*
X167511373Y-110648762D01*
X167745184Y-110998685D01*
X168095107Y-111232496D01*
X168507869Y-111314600D01*
X168550131Y-111314600D01*
X168962893Y-111232496D01*
X169312816Y-110998685D01*
X169546627Y-110648762D01*
X169628731Y-110236000D01*
X169546627Y-109823238D01*
X169312816Y-109473315D01*
X168962893Y-109239504D01*
X168550131Y-109157400D01*
X168507869Y-109157400D01*
X168095107Y-109239504D01*
X167745184Y-109473315D01*
X167511373Y-109823238D01*
X167429269Y-110236000D01*
X167323399Y-110236000D01*
X167323399Y-107696000D01*
X167429269Y-107696000D01*
X167511373Y-108108762D01*
X167745184Y-108458685D01*
X168095107Y-108692496D01*
X168507869Y-108774600D01*
X168550131Y-108774600D01*
X168962893Y-108692496D01*
X169312816Y-108458685D01*
X169546627Y-108108762D01*
X169628731Y-107696000D01*
X169546627Y-107283238D01*
X169312816Y-106933315D01*
X168962893Y-106699504D01*
X168550131Y-106617400D01*
X168507869Y-106617400D01*
X168095107Y-106699504D01*
X167745184Y-106933315D01*
X167511373Y-107283238D01*
X167429269Y-107696000D01*
X167323399Y-107696000D01*
X167323399Y-105156000D01*
X167429269Y-105156000D01*
X167511373Y-105568762D01*
X167745184Y-105918685D01*
X168095107Y-106152496D01*
X168507869Y-106234600D01*
X168550131Y-106234600D01*
X168962893Y-106152496D01*
X169312816Y-105918685D01*
X169546627Y-105568762D01*
X169628731Y-105156000D01*
X169546627Y-104743238D01*
X169312816Y-104393315D01*
X168962893Y-104159504D01*
X168550131Y-104077400D01*
X168507869Y-104077400D01*
X168095107Y-104159504D01*
X167745184Y-104393315D01*
X167511373Y-104743238D01*
X167429269Y-105156000D01*
X167323399Y-105156000D01*
X167323399Y-102616000D01*
X167429269Y-102616000D01*
X167511373Y-103028762D01*
X167745184Y-103378685D01*
X168095107Y-103612496D01*
X168507869Y-103694600D01*
X168550131Y-103694600D01*
X168962893Y-103612496D01*
X169312816Y-103378685D01*
X169546627Y-103028762D01*
X169628731Y-102616000D01*
X169546627Y-102203238D01*
X169312816Y-101853315D01*
X168962893Y-101619504D01*
X168550131Y-101537400D01*
X168507869Y-101537400D01*
X168095107Y-101619504D01*
X167745184Y-101853315D01*
X167511373Y-102203238D01*
X167429269Y-102616000D01*
X167323399Y-102616000D01*
X167323399Y-101135004D01*
X167323400Y-101134999D01*
X167298264Y-101008637D01*
X167226686Y-100901512D01*
X166743207Y-100418033D01*
X167506068Y-100418033D01*
X167563809Y-100557480D01*
X167821534Y-100890192D01*
X168186964Y-101098951D01*
X168351200Y-101082713D01*
X168351200Y-100253800D01*
X168706800Y-100253800D01*
X168706800Y-101082713D01*
X168871036Y-101098951D01*
X169236466Y-100890192D01*
X169494191Y-100557480D01*
X169551932Y-100418033D01*
X169534856Y-100253800D01*
X168706800Y-100253800D01*
X168351200Y-100253800D01*
X167523144Y-100253800D01*
X167506068Y-100418033D01*
X166743207Y-100418033D01*
X166059141Y-99733967D01*
X167506068Y-99733967D01*
X167523144Y-99898200D01*
X168351200Y-99898200D01*
X168351200Y-99069287D01*
X168706800Y-99069287D01*
X168706800Y-99898200D01*
X169534856Y-99898200D01*
X169551932Y-99733967D01*
X169494191Y-99594520D01*
X169236466Y-99261808D01*
X168871036Y-99053049D01*
X168706800Y-99069287D01*
X168351200Y-99069287D01*
X168186964Y-99053049D01*
X167821534Y-99261808D01*
X167563809Y-99594520D01*
X167506068Y-99733967D01*
X166059141Y-99733967D01*
X164958687Y-98633513D01*
X164851562Y-98561935D01*
X164725200Y-98536800D01*
X164558994Y-98536800D01*
X164529689Y-98517219D01*
X164384805Y-98488400D01*
X163809195Y-98488400D01*
X163664311Y-98517219D01*
X163541484Y-98599289D01*
X163535032Y-98608945D01*
X163515798Y-98562509D01*
X163451492Y-98498203D01*
X163405055Y-98478968D01*
X163414711Y-98472516D01*
X163496781Y-98349689D01*
X163517167Y-98247200D01*
X163666722Y-98247200D01*
X163784181Y-98364864D01*
X163978394Y-98445508D01*
X164188684Y-98445692D01*
X164383037Y-98365387D01*
X164531864Y-98216819D01*
X164612508Y-98022606D01*
X164612692Y-97812316D01*
X164532387Y-97617963D01*
X164429953Y-97515350D01*
X164531864Y-97413616D01*
X164612508Y-97219403D01*
X164612692Y-97009113D01*
X164558132Y-96877068D01*
X164739337Y-97058273D01*
X164739192Y-97224530D01*
X164819497Y-97418883D01*
X164968065Y-97567710D01*
X165162278Y-97648354D01*
X165372568Y-97648538D01*
X165566921Y-97568233D01*
X165715748Y-97419665D01*
X165796392Y-97225452D01*
X165796576Y-97015162D01*
X165716271Y-96820809D01*
X165567703Y-96671982D01*
X165373490Y-96591338D01*
X165206203Y-96591192D01*
X165047798Y-96432786D01*
X165524612Y-96432786D01*
X166861311Y-97769484D01*
X166861313Y-97769487D01*
X166924032Y-97811394D01*
X166968438Y-97841065D01*
X167094800Y-97866201D01*
X167094805Y-97866200D01*
X167445922Y-97866200D01*
X167445922Y-98386000D01*
X167461862Y-98470714D01*
X167511928Y-98548518D01*
X167588320Y-98600715D01*
X167679000Y-98619078D01*
X169379000Y-98619078D01*
X169463714Y-98603138D01*
X169541518Y-98553072D01*
X169593715Y-98476680D01*
X169612078Y-98386000D01*
X169612078Y-96686000D01*
X169596138Y-96601286D01*
X169546072Y-96523482D01*
X169469680Y-96471285D01*
X169379000Y-96452922D01*
X167679000Y-96452922D01*
X167594286Y-96468862D01*
X167516482Y-96518928D01*
X167464285Y-96595320D01*
X167445922Y-96686000D01*
X167445922Y-97205800D01*
X167231573Y-97205800D01*
X166087374Y-96061600D01*
X170003400Y-96061600D01*
X170003400Y-116790400D01*
X154354600Y-116790400D01*
X154354600Y-114609150D01*
X154445600Y-114609150D01*
X154445600Y-114722472D01*
X154480403Y-114806492D01*
X154544709Y-114870798D01*
X154628729Y-114905600D01*
X154767050Y-114905600D01*
X154824200Y-114848450D01*
X154824200Y-114552000D01*
X154502750Y-114552000D01*
X154445600Y-114609150D01*
X154354600Y-114609150D01*
X154354600Y-114131528D01*
X154445600Y-114131528D01*
X154445600Y-114244850D01*
X154502750Y-114302000D01*
X154824200Y-114302000D01*
X154824200Y-114005550D01*
X154767050Y-113948400D01*
X154628729Y-113948400D01*
X154544709Y-113983202D01*
X154480403Y-114047508D01*
X154445600Y-114131528D01*
X154354600Y-114131528D01*
X154354600Y-111561149D01*
X154445600Y-111561149D01*
X154445600Y-111674471D01*
X154480403Y-111758491D01*
X154544709Y-111822797D01*
X154628729Y-111857599D01*
X154767050Y-111857599D01*
X154824200Y-111800449D01*
X154824200Y-111503999D01*
X154502750Y-111503999D01*
X154445600Y-111561149D01*
X154354600Y-111561149D01*
X154354600Y-111083527D01*
X154445600Y-111083527D01*
X154445600Y-111196849D01*
X154502750Y-111253999D01*
X154824200Y-111253999D01*
X154824200Y-110957549D01*
X154767050Y-110900399D01*
X154628729Y-110900399D01*
X154544709Y-110935201D01*
X154480403Y-110999507D01*
X154445600Y-111083527D01*
X154354600Y-111083527D01*
X154354600Y-96829150D01*
X156909400Y-96829150D01*
X156909400Y-96942472D01*
X156944203Y-97026492D01*
X157008509Y-97090798D01*
X157092529Y-97125600D01*
X157230850Y-97125600D01*
X157288000Y-97068450D01*
X157288000Y-96772000D01*
X157588000Y-96772000D01*
X157588000Y-97068450D01*
X157645150Y-97125600D01*
X157783471Y-97125600D01*
X157867491Y-97090798D01*
X157931797Y-97026492D01*
X157966600Y-96942472D01*
X157966600Y-96829150D01*
X157909450Y-96772000D01*
X157588000Y-96772000D01*
X157288000Y-96772000D01*
X156966550Y-96772000D01*
X156909400Y-96829150D01*
X154354600Y-96829150D01*
X154354600Y-96351528D01*
X156909400Y-96351528D01*
X156909400Y-96464850D01*
X156966550Y-96522000D01*
X157288000Y-96522000D01*
X157288000Y-96225550D01*
X157588000Y-96225550D01*
X157588000Y-96522000D01*
X157909450Y-96522000D01*
X157966600Y-96464850D01*
X157966600Y-96351528D01*
X157931797Y-96267508D01*
X157867491Y-96203202D01*
X157783471Y-96168400D01*
X157645150Y-96168400D01*
X157588000Y-96225550D01*
X157288000Y-96225550D01*
X157230850Y-96168400D01*
X157092529Y-96168400D01*
X157008509Y-96203202D01*
X156944203Y-96267508D01*
X156909400Y-96351528D01*
X154354600Y-96351528D01*
X154354600Y-96061600D01*
X158706427Y-96061600D01*
X158604104Y-96163922D01*
G36*
X161713577Y-105062643D02*
X162073500Y-105422565D01*
X162073500Y-106593778D01*
X162064699Y-106638036D01*
X162112083Y-106876177D01*
X162246992Y-107078059D01*
X162261875Y-107088003D01*
X162269929Y-107100518D01*
X162346321Y-107152715D01*
X162364137Y-107156323D01*
X162411548Y-107187998D01*
X162366314Y-107218223D01*
X162352287Y-107220862D01*
X162274483Y-107270928D01*
X162263603Y-107286851D01*
X162246967Y-107297967D01*
X162112070Y-107499856D01*
X162064700Y-107738000D01*
X162064700Y-108924000D01*
X162112070Y-109162144D01*
X162246967Y-109364033D01*
X162261866Y-109373988D01*
X162269929Y-109386518D01*
X162346321Y-109438715D01*
X162364137Y-109442323D01*
X162411545Y-109474000D01*
X162366314Y-109504223D01*
X162352287Y-109506862D01*
X162274483Y-109556928D01*
X162263603Y-109572851D01*
X162246967Y-109583967D01*
X162112070Y-109785856D01*
X162064700Y-110024000D01*
X162064700Y-111243195D01*
X162064699Y-111243200D01*
X162073500Y-111287444D01*
X162073500Y-113578782D01*
X162064700Y-113623035D01*
X162112084Y-113861176D01*
X162246993Y-114063058D01*
X162261872Y-114072998D01*
X162269928Y-114085518D01*
X162292147Y-114100700D01*
X161659352Y-114100700D01*
X161277300Y-113718648D01*
X161277300Y-113707000D01*
X161229930Y-113468856D01*
X161095033Y-113266967D01*
X161080135Y-113257013D01*
X161072072Y-113244482D01*
X160995680Y-113192285D01*
X160977863Y-113188677D01*
X160930455Y-113157000D01*
X160975686Y-113126778D01*
X160989714Y-113124138D01*
X161067518Y-113074072D01*
X161078399Y-113058147D01*
X161095033Y-113047033D01*
X161229930Y-112845144D01*
X161277300Y-112607000D01*
X161277300Y-111462457D01*
X161293901Y-111379000D01*
X161293900Y-111378995D01*
X161293900Y-110167605D01*
X161293901Y-110167600D01*
X161246530Y-109929456D01*
X161111633Y-109727567D01*
X161095033Y-109710967D01*
X161080135Y-109701013D01*
X161072072Y-109688482D01*
X160995680Y-109636285D01*
X160977863Y-109632677D01*
X160930455Y-109601000D01*
X160975686Y-109570778D01*
X160989714Y-109568138D01*
X161067518Y-109518072D01*
X161078399Y-109502147D01*
X161095033Y-109491033D01*
X161229930Y-109289144D01*
X161277300Y-109051000D01*
X161277300Y-107865000D01*
X161229930Y-107626856D01*
X161095033Y-107424967D01*
X161080135Y-107415013D01*
X161072072Y-107402482D01*
X160995680Y-107350285D01*
X160977863Y-107346677D01*
X160930455Y-107315000D01*
X160975686Y-107284778D01*
X160989714Y-107282138D01*
X161067518Y-107232072D01*
X161078399Y-107216147D01*
X161095033Y-107205033D01*
X161229930Y-107003144D01*
X161277300Y-106765000D01*
X161277300Y-105545800D01*
X161268501Y-105501565D01*
X161268501Y-105371667D01*
X161603030Y-105037137D01*
X161603033Y-105037135D01*
X161649783Y-104967168D01*
X161713577Y-105062643D01*
X161713577Y-105062643D01*
G37*
X161713577Y-105062643D02*
X162073500Y-105422565D01*
X162073500Y-106593778D01*
X162064699Y-106638036D01*
X162112083Y-106876177D01*
X162246992Y-107078059D01*
X162261875Y-107088003D01*
X162269929Y-107100518D01*
X162346321Y-107152715D01*
X162364137Y-107156323D01*
X162411548Y-107187998D01*
X162366314Y-107218223D01*
X162352287Y-107220862D01*
X162274483Y-107270928D01*
X162263603Y-107286851D01*
X162246967Y-107297967D01*
X162112070Y-107499856D01*
X162064700Y-107738000D01*
X162064700Y-108924000D01*
X162112070Y-109162144D01*
X162246967Y-109364033D01*
X162261866Y-109373988D01*
X162269929Y-109386518D01*
X162346321Y-109438715D01*
X162364137Y-109442323D01*
X162411545Y-109474000D01*
X162366314Y-109504223D01*
X162352287Y-109506862D01*
X162274483Y-109556928D01*
X162263603Y-109572851D01*
X162246967Y-109583967D01*
X162112070Y-109785856D01*
X162064700Y-110024000D01*
X162064700Y-111243195D01*
X162064699Y-111243200D01*
X162073500Y-111287444D01*
X162073500Y-113578782D01*
X162064700Y-113623035D01*
X162112084Y-113861176D01*
X162246993Y-114063058D01*
X162261872Y-114072998D01*
X162269928Y-114085518D01*
X162292147Y-114100700D01*
X161659352Y-114100700D01*
X161277300Y-113718648D01*
X161277300Y-113707000D01*
X161229930Y-113468856D01*
X161095033Y-113266967D01*
X161080135Y-113257013D01*
X161072072Y-113244482D01*
X160995680Y-113192285D01*
X160977863Y-113188677D01*
X160930455Y-113157000D01*
X160975686Y-113126778D01*
X160989714Y-113124138D01*
X161067518Y-113074072D01*
X161078399Y-113058147D01*
X161095033Y-113047033D01*
X161229930Y-112845144D01*
X161277300Y-112607000D01*
X161277300Y-111462457D01*
X161293901Y-111379000D01*
X161293900Y-111378995D01*
X161293900Y-110167605D01*
X161293901Y-110167600D01*
X161246530Y-109929456D01*
X161111633Y-109727567D01*
X161095033Y-109710967D01*
X161080135Y-109701013D01*
X161072072Y-109688482D01*
X160995680Y-109636285D01*
X160977863Y-109632677D01*
X160930455Y-109601000D01*
X160975686Y-109570778D01*
X160989714Y-109568138D01*
X161067518Y-109518072D01*
X161078399Y-109502147D01*
X161095033Y-109491033D01*
X161229930Y-109289144D01*
X161277300Y-109051000D01*
X161277300Y-107865000D01*
X161229930Y-107626856D01*
X161095033Y-107424967D01*
X161080135Y-107415013D01*
X161072072Y-107402482D01*
X160995680Y-107350285D01*
X160977863Y-107346677D01*
X160930455Y-107315000D01*
X160975686Y-107284778D01*
X160989714Y-107282138D01*
X161067518Y-107232072D01*
X161078399Y-107216147D01*
X161095033Y-107205033D01*
X161229930Y-107003144D01*
X161277300Y-106765000D01*
X161277300Y-105545800D01*
X161268501Y-105501565D01*
X161268501Y-105371667D01*
X161603030Y-105037137D01*
X161603033Y-105037135D01*
X161649783Y-104967168D01*
X161713577Y-105062643D01*
G36*
X160987300Y-99351700D02*
X162306700Y-99351700D01*
X162306700Y-99331700D01*
X162662300Y-99331700D01*
X162662300Y-99351700D01*
X162682300Y-99351700D01*
X162682300Y-99707300D01*
X162662300Y-99707300D01*
X162662300Y-101026700D01*
X162682300Y-101026700D01*
X162682300Y-101382300D01*
X162662300Y-101382300D01*
X162662300Y-101402300D01*
X162306700Y-101402300D01*
X162306700Y-101382300D01*
X160987300Y-101382300D01*
X160987300Y-101402300D01*
X160631700Y-101402300D01*
X160631700Y-101382300D01*
X160611700Y-101382300D01*
X160611700Y-101026700D01*
X160631700Y-101026700D01*
X160631700Y-99707300D01*
X160987300Y-99707300D01*
X160987300Y-101026700D01*
X162306700Y-101026700D01*
X162306700Y-99707300D01*
X160987300Y-99707300D01*
X160631700Y-99707300D01*
X160611700Y-99707300D01*
X160611700Y-99351700D01*
X160631700Y-99351700D01*
X160631700Y-99331700D01*
X160987300Y-99331700D01*
X160987300Y-99351700D01*
X160987300Y-99351700D01*
G37*
X160987300Y-99351700D02*
X162306700Y-99351700D01*
X162306700Y-99331700D01*
X162662300Y-99331700D01*
X162662300Y-99351700D01*
X162682300Y-99351700D01*
X162682300Y-99707300D01*
X162662300Y-99707300D01*
X162662300Y-101026700D01*
X162682300Y-101026700D01*
X162682300Y-101382300D01*
X162662300Y-101382300D01*
X162662300Y-101402300D01*
X162306700Y-101402300D01*
X162306700Y-101382300D01*
X160987300Y-101382300D01*
X160987300Y-101402300D01*
X160631700Y-101402300D01*
X160631700Y-101382300D01*
X160611700Y-101382300D01*
X160611700Y-101026700D01*
X160631700Y-101026700D01*
X160631700Y-99707300D01*
X160987300Y-99707300D01*
X160987300Y-101026700D01*
X162306700Y-101026700D01*
X162306700Y-99707300D01*
X160987300Y-99707300D01*
X160631700Y-99707300D01*
X160611700Y-99707300D01*
X160611700Y-99351700D01*
X160631700Y-99351700D01*
X160631700Y-99331700D01*
X160987300Y-99331700D01*
X160987300Y-99351700D01*
M02*
